%TF.GenerationSoftware,KiCad,Pcbnew,10.0.5*%
%TF.CreationDate,2026-08-06T04:03:08+07:00*%
%TF.ProjectId,manager_board,6d616e61-6765-4725-9f62-6f6172642e6b,rev?*%
%TF.SameCoordinates,Original*%
%TF.FileFunction,Soldermask,Bot*%
%TF.FilePolarity,Negative*%
%FSLAX46Y46*%
G04 Gerber Fmt 4.6, Leading zero omitted, Abs format (unit mm)*
G04 Created by KiCad (PCBNEW 10.0.5) date 2026-08-06 04:03:08*
%MOMM*%
%LPD*%
G01*
G04 APERTURE LIST*
G04 Aperture macros list*
%AMRoundRect*
0 Rectangle with rounded corners*
0 $1 Rounding radius*
0 $2 $3 $4 $5 $6 $7 $8 $9 X,Y pos of 4 corners*
0 Add a 4 corners polygon primitive as box body*
4,1,4,$2,$3,$4,$5,$6,$7,$8,$9,$2,$3,0*
0 Add four circle primitives for the rounded corners*
1,1,$1+$1,$2,$3*
1,1,$1+$1,$4,$5*
1,1,$1+$1,$6,$7*
1,1,$1+$1,$8,$9*
0 Add four rect primitives between the rounded corners*
20,1,$1+$1,$2,$3,$4,$5,0*
20,1,$1+$1,$4,$5,$6,$7,0*
20,1,$1+$1,$6,$7,$8,$9,0*
20,1,$1+$1,$8,$9,$2,$3,0*%
G04 Aperture macros list end*
%ADD10RoundRect,0.250000X-0.725000X0.600000X-0.725000X-0.600000X0.725000X-0.600000X0.725000X0.600000X0*%
%ADD11O,1.950000X1.700000*%
%ADD12R,1.500000X1.500000*%
%ADD13C,1.500000*%
%ADD14R,1.700000X1.700000*%
%ADD15C,1.700000*%
%ADD16C,2.744000*%
%ADD17R,2.000000X2.000000*%
%ADD18C,2.000000*%
%ADD19RoundRect,0.250000X-0.600000X-0.725000X0.600000X-0.725000X0.600000X0.725000X-0.600000X0.725000X0*%
%ADD20O,1.700000X1.950000*%
%ADD21RoundRect,0.250000X-0.600000X-0.750000X0.600000X-0.750000X0.600000X0.750000X-0.600000X0.750000X0*%
%ADD22O,1.700000X2.000000*%
%ADD23R,1.050000X1.500000*%
%ADD24O,1.050000X1.500000*%
%ADD25RoundRect,0.250000X-0.350000X-0.450000X0.350000X-0.450000X0.350000X0.450000X-0.350000X0.450000X0*%
%ADD26RoundRect,0.250000X-0.450000X0.350000X-0.450000X-0.350000X0.450000X-0.350000X0.450000X0.350000X0*%
%ADD27RoundRect,0.250000X0.350000X0.450000X-0.350000X0.450000X-0.350000X-0.450000X0.350000X-0.450000X0*%
%ADD28RoundRect,0.250000X0.450000X-0.350000X0.450000X0.350000X-0.450000X0.350000X-0.450000X-0.350000X0*%
%ADD29RoundRect,0.150000X0.150000X-0.825000X0.150000X0.825000X-0.150000X0.825000X-0.150000X-0.825000X0*%
%ADD30R,1.500000X0.900000*%
%ADD31R,0.900000X1.500000*%
%ADD32R,3.800000X3.800000*%
%ADD33RoundRect,0.250000X1.500000X0.650000X-1.500000X0.650000X-1.500000X-0.650000X1.500000X-0.650000X0*%
G04 APERTURE END LIST*
D10*
%TO.C,ESP-PG*%
X141995000Y-98080000D03*
D11*
X141995000Y-100580000D03*
X141995000Y-103080000D03*
X141995000Y-105580000D03*
%TD*%
D12*
%TO.C,PS4*%
X77650000Y-110920000D03*
D13*
X77650000Y-113460000D03*
X77650000Y-118540000D03*
X77650000Y-123620000D03*
%TD*%
D14*
%TO.C,5V RAW*%
X83370000Y-110960000D03*
D15*
X83370000Y-113500000D03*
%TD*%
D16*
%TO.C,J1*%
X65780000Y-119060000D03*
X58160000Y-119060000D03*
%TD*%
D17*
%TO.C,BZ1*%
X106740000Y-87410000D03*
D18*
X99140000Y-87410000D03*
%TD*%
D19*
%TO.C,CAN*%
X113770000Y-82750000D03*
D20*
X116270000Y-82750000D03*
X118770000Y-82750000D03*
X121270000Y-82750000D03*
%TD*%
D19*
%TO.C,CAN*%
X127330000Y-82755000D03*
D20*
X129830000Y-82755000D03*
X132330000Y-82755000D03*
X134830000Y-82755000D03*
%TD*%
D14*
%TO.C,LOA1*%
X122610000Y-89260000D03*
D15*
X120070000Y-89260000D03*
X117530000Y-89260000D03*
X114990000Y-89260000D03*
X112450000Y-89260000D03*
%TD*%
D21*
%TO.C,U4*%
X58032500Y-90050000D03*
D22*
X58032500Y-96050000D03*
X91632500Y-84050000D03*
X91632500Y-102050000D03*
%TD*%
D14*
%TO.C,TFT1*%
X136040000Y-88580000D03*
D15*
X136040000Y-91120000D03*
X136040000Y-93660000D03*
X136040000Y-96200000D03*
X136040000Y-98740000D03*
X136040000Y-101280000D03*
X136040000Y-103820000D03*
X136040000Y-106360000D03*
X136040000Y-108900000D03*
X136040000Y-111440000D03*
X136040000Y-113980000D03*
X136040000Y-116520000D03*
X136040000Y-119060000D03*
X136040000Y-121600000D03*
%TD*%
D23*
%TO.C,C1815*%
X104020000Y-96390000D03*
D24*
X102750000Y-96390000D03*
X101480000Y-96390000D03*
%TD*%
D14*
%TO.C,MIC1*%
X122620000Y-92860000D03*
D15*
X120080000Y-92860000D03*
X117540000Y-92860000D03*
X115000000Y-92860000D03*
X112460000Y-92860000D03*
%TD*%
D25*
%TO.C,R3*%
X129790000Y-114120000D03*
X131790000Y-114120000D03*
%TD*%
D26*
%TO.C,R57*%
X117530000Y-84640000D03*
X117530000Y-86640000D03*
%TD*%
D27*
%TO.C,C56*%
X101590000Y-117370000D03*
X99590000Y-117370000D03*
%TD*%
%TO.C,R8*%
X103690000Y-87380000D03*
X101690000Y-87380000D03*
%TD*%
D28*
%TO.C,R56*%
X141590000Y-94050000D03*
X141590000Y-92050000D03*
%TD*%
%TO.C,C51*%
X139140000Y-89540000D03*
X139140000Y-87540000D03*
%TD*%
D29*
%TO.C,SN65HVD*%
X120767500Y-100675000D03*
X119497500Y-100675000D03*
X118227500Y-100675000D03*
X116957500Y-100675000D03*
X116957500Y-95725000D03*
X118227500Y-95725000D03*
X119497500Y-95725000D03*
X120767500Y-95725000D03*
%TD*%
D26*
%TO.C,R6*%
X96680000Y-119520000D03*
X96680000Y-121520000D03*
%TD*%
D30*
%TO.C,U1*%
X107790000Y-121650000D03*
X107790000Y-120380000D03*
X107790000Y-119110000D03*
X107790000Y-117840000D03*
X107790000Y-116570000D03*
X107790000Y-115300000D03*
X107790000Y-114030000D03*
X107790000Y-112760000D03*
X107790000Y-111490000D03*
X107790000Y-110220000D03*
X107790000Y-108950000D03*
X107790000Y-107680000D03*
X107790000Y-106410000D03*
X107790000Y-105140000D03*
D31*
X110830000Y-103890000D03*
X112100000Y-103890000D03*
X113370000Y-103890000D03*
X114640000Y-103890000D03*
X115910000Y-103890000D03*
X117180000Y-103890000D03*
X118450000Y-103890000D03*
X119720000Y-103890000D03*
X120990000Y-103890000D03*
X122260000Y-103890000D03*
D30*
X125290000Y-105140000D03*
X125290000Y-106410000D03*
X125290000Y-107680000D03*
X125290000Y-108950000D03*
X125290000Y-110220000D03*
X125290000Y-111490000D03*
X125290000Y-112760000D03*
X125290000Y-114030000D03*
X125290000Y-115300000D03*
X125290000Y-116570000D03*
X125290000Y-117840000D03*
X125290000Y-119110000D03*
X125290000Y-120380000D03*
X125290000Y-121650000D03*
D32*
X115040000Y-113930000D03*
%TD*%
D33*
%TO.C,D1*%
X105187500Y-83810000D03*
X100187500Y-83810000D03*
%TD*%
D27*
%TO.C,C55*%
X126060000Y-98030000D03*
X124060000Y-98030000D03*
%TD*%
D26*
%TO.C,C49*%
X92400000Y-118720000D03*
X92400000Y-120720000D03*
%TD*%
D27*
%TO.C,C3*%
X131810000Y-112030000D03*
X129810000Y-112030000D03*
%TD*%
%TO.C,C52*%
X101590000Y-114220000D03*
X99590000Y-114220000D03*
%TD*%
%TO.C,C53*%
X126080000Y-100500000D03*
X124080000Y-100500000D03*
%TD*%
%TO.C,C15*%
X101550000Y-111200000D03*
X99550000Y-111200000D03*
%TD*%
%TO.C,C54*%
X101540000Y-108270000D03*
X99540000Y-108270000D03*
%TD*%
D26*
%TO.C,C50*%
X86930000Y-121460000D03*
X86930000Y-123460000D03*
%TD*%
D28*
%TO.C,R52*%
X139090000Y-94160000D03*
X139090000Y-92160000D03*
%TD*%
%TO.C,C57*%
X99700000Y-121480000D03*
X99700000Y-119480000D03*
%TD*%
D25*
%TO.C,R9*%
X101680000Y-90230000D03*
X103680000Y-90230000D03*
%TD*%
M02*
