M48
; DRILL file KiCad 10.0.5 date 2026-08-06T04:03:14
; FORMAT={-:-/ absolute / metric / decimal}
; #@! TF.CreationDate,2026-08-06T04:03:14+07:00
; #@! TF.GenerationSoftware,Kicad,Pcbnew,10.0.5
; #@! TF.FileFunction,Plated,1,2,PTH
FMAT,2
METRIC
; #@! TA.AperFunction,Plated,PTH,ViaDrill
T1C0.300
; #@! TA.AperFunction,Plated,PTH,ComponentDrill
T2C0.750
; #@! TA.AperFunction,Plated,PTH,ComponentDrill
T3C0.950
; #@! TA.AperFunction,Plated,PTH,ComponentDrill
T4C1.000
; #@! TA.AperFunction,Plated,PTH,ComponentDrill
T5C1.300
%
G90
G05
T1
X84.49Y-118.59
X85.4Y-122.51
X89.24Y-121.2
X90.78Y-117.03
X93.97Y-120.43
X95.5Y-114.99
X95.58Y-121.86
X96.91Y-112.28
X97.67Y-114.97
X98.15Y-120.64
X99.75Y-102.01
X100.325Y-102.595
X100.895Y-103.165
X102.43Y-104.7
X102.925Y-105.195
X103.51Y-105.7
X103.99Y-114.2
X104.96Y-117.41
X105.97Y-121.67
X107.83Y-99.61
X109.07Y-121.66
X109.91Y-96.46
X110.05Y-101.88
X110.05Y-117.93
X110.38Y-115.4
X110.4Y-114.03
X110.43Y-121.05
X111.6Y-116.71
X111.72Y-121.68
X111.93Y-100.57
X112.24Y-120.2
X113.18Y-120.94
X113.7Y-116.56
X113.75Y-84.79
X114.34Y-116.58
X114.98Y-116.59
X115.6Y-116.55
X116.97Y-108.45
X117.02Y-120.96
X117.25Y-97.74
X117.57Y-105.64
X118.23Y-99.91
X119.35Y-119.62
X119.69Y-106.59
X119.97Y-99.72
X120.17Y-97.43
X120.8Y-114.57
X120.83Y-97.98
X121.72Y-108.99
X121.82Y-101.9
X122.25Y-106.22
X122.54Y-114.6
X122.66Y-118.33
X122.9Y-107.73
X122.95Y-109.98
X124.2Y-82.01
X124.29Y-102.54
X124.78Y-105.39
X125.6Y-89.95
X125.62Y-89.27
X126.31Y-89.29
X126.31Y-89.93
X127.01Y-89.29
X127.02Y-89.96
X127.72Y-89.29
X127.74Y-89.97
X128.9Y-94.5
X129.49Y-111.54
X130.72Y-86.91
X130.72Y-87.72
X131.28Y-120.43
X131.46Y-87.8
X131.48Y-86.93
X132.24Y-86.91
X132.29Y-87.74
X132.78Y-112.43
X133.03Y-86.91
X133.06Y-87.74
X133.06Y-107.25
X139.09Y-94.162
X139.38Y-110.06
X141.6Y-94.045
X141.99Y-108.36
T2
X101.48Y-96.39
X102.75Y-96.39
X104.02Y-96.39
T3
X113.77Y-82.75
X116.27Y-82.75
X118.77Y-82.75
X121.27Y-82.75
X127.33Y-82.755
X129.83Y-82.755
X132.33Y-82.755
X134.83Y-82.755
X141.995Y-98.08
X141.995Y-100.58
X141.995Y-103.08
X141.995Y-105.58
T4
X58.032Y-90.05
X58.032Y-96.05
X77.65Y-110.92
X77.65Y-113.46
X77.65Y-118.54
X77.65Y-123.62
X83.37Y-110.96
X83.37Y-113.5
X91.632Y-84.05
X91.632Y-102.05
X99.14Y-87.41
X106.74Y-87.41
X112.45Y-89.26
X112.46Y-92.86
X114.99Y-89.26
X115.0Y-92.86
X117.53Y-89.26
X117.54Y-92.86
X120.07Y-89.26
X120.08Y-92.86
X122.61Y-89.26
X122.62Y-92.86
X136.04Y-88.58
X136.04Y-91.12
X136.04Y-93.66
X136.04Y-96.2
X136.04Y-98.74
X136.04Y-101.28
X136.04Y-103.82
X136.04Y-106.36
X136.04Y-108.9
X136.04Y-111.44
X136.04Y-113.98
X136.04Y-116.52
X136.04Y-119.06
X136.04Y-121.6
T5
X58.16Y-119.06
X65.78Y-119.06
M30
