%TF.GenerationSoftware,KiCad,Pcbnew,10.0.5*%
%TF.CreationDate,2026-08-06T04:03:08+07:00*%
%TF.ProjectId,manager_board,6d616e61-6765-4725-9f62-6f6172642e6b,rev?*%
%TF.SameCoordinates,Original*%
%TF.FileFunction,Paste,Top*%
%TF.FilePolarity,Positive*%
%FSLAX46Y46*%
G04 Gerber Fmt 4.6, Leading zero omitted, Abs format (unit mm)*
G04 Created by KiCad (PCBNEW 10.0.5) date 2026-08-06 04:03:08*
%MOMM*%
%LPD*%
G01*
G04 APERTURE LIST*
G04 Aperture macros list*
%AMRoundRect*
0 Rectangle with rounded corners*
0 $1 Rounding radius*
0 $2 $3 $4 $5 $6 $7 $8 $9 X,Y pos of 4 corners*
0 Add a 4 corners polygon primitive as box body*
4,1,4,$2,$3,$4,$5,$6,$7,$8,$9,$2,$3,0*
0 Add four circle primitives for the rounded corners*
1,1,$1+$1,$2,$3*
1,1,$1+$1,$4,$5*
1,1,$1+$1,$6,$7*
1,1,$1+$1,$8,$9*
0 Add four rect primitives between the rounded corners*
20,1,$1+$1,$2,$3,$4,$5,0*
20,1,$1+$1,$4,$5,$6,$7,0*
20,1,$1+$1,$6,$7,$8,$9,0*
20,1,$1+$1,$8,$9,$2,$3,0*%
G04 Aperture macros list end*
%ADD10RoundRect,0.250000X0.350000X0.450000X-0.350000X0.450000X-0.350000X-0.450000X0.350000X-0.450000X0*%
%ADD11RoundRect,0.250000X0.325000X0.450000X-0.325000X0.450000X-0.325000X-0.450000X0.325000X-0.450000X0*%
%ADD12R,1.600000X2.180000*%
%ADD13RoundRect,0.250000X-0.350000X-0.450000X0.350000X-0.450000X0.350000X0.450000X-0.350000X0.450000X0*%
%ADD14RoundRect,0.250000X0.450000X-0.325000X0.450000X0.325000X-0.450000X0.325000X-0.450000X-0.325000X0*%
%ADD15RoundRect,0.375000X-0.625000X-0.375000X0.625000X-0.375000X0.625000X0.375000X-0.625000X0.375000X0*%
%ADD16RoundRect,0.500000X-0.500000X-1.400000X0.500000X-1.400000X0.500000X1.400000X-0.500000X1.400000X0*%
%ADD17R,2.180000X1.600000*%
%ADD18RoundRect,0.250000X-0.450000X0.350000X-0.450000X-0.350000X0.450000X-0.350000X0.450000X0.350000X0*%
G04 APERTURE END LIST*
D10*
%TO.C,R7*%
X129010000Y-106840000D03*
X127010000Y-106840000D03*
%TD*%
D11*
%TO.C,D30*%
X89635000Y-115160000D03*
X87585000Y-115160000D03*
%TD*%
D12*
%TO.C,Boot*%
X100640000Y-111910000D03*
X100640000Y-121090000D03*
%TD*%
%TO.C,RST*%
X141640000Y-119190000D03*
X141640000Y-110010000D03*
%TD*%
D13*
%TO.C,C2*%
X126900000Y-96630000D03*
X128900000Y-96630000D03*
%TD*%
D14*
%TO.C,D32*%
X141600000Y-94045000D03*
X141600000Y-91995000D03*
%TD*%
D13*
%TO.C,R55*%
X91990000Y-115140000D03*
X93990000Y-115140000D03*
%TD*%
%TO.C,C5*%
X126920000Y-102950000D03*
X128920000Y-102950000D03*
%TD*%
%TO.C,R54*%
X86920000Y-127420000D03*
X88920000Y-127420000D03*
%TD*%
D10*
%TO.C,R5*%
X128910000Y-104930000D03*
X126910000Y-104930000D03*
%TD*%
%TO.C,R51*%
X116390000Y-120965000D03*
X114390000Y-120965000D03*
%TD*%
%TO.C,R50*%
X116390000Y-117995000D03*
X114390000Y-117995000D03*
%TD*%
D14*
%TO.C,D27*%
X139090000Y-94162500D03*
X139090000Y-92112500D03*
%TD*%
D10*
%TO.C,R2*%
X128970000Y-100190000D03*
X126970000Y-100190000D03*
%TD*%
D15*
%TO.C,U20*%
X82940000Y-118900000D03*
X82940000Y-121200000D03*
D16*
X89240000Y-121200000D03*
D15*
X82940000Y-123500000D03*
%TD*%
D17*
%TO.C,BUT1*%
X114900000Y-97670000D03*
X124080000Y-97670000D03*
%TD*%
%TO.C,BUT2*%
X114740000Y-103970000D03*
X123920000Y-103970000D03*
%TD*%
%TO.C,BUT3*%
X114890000Y-109960000D03*
X124070000Y-109960000D03*
%TD*%
D18*
%TO.C,R53*%
X68440000Y-112982500D03*
X68440000Y-114982500D03*
%TD*%
D11*
%TO.C,D26*%
X120650000Y-120890000D03*
X118600000Y-120890000D03*
%TD*%
%TO.C,D29*%
X84522500Y-127400000D03*
X82472500Y-127400000D03*
%TD*%
D14*
%TO.C,D28*%
X68480000Y-110585000D03*
X68480000Y-108535000D03*
%TD*%
D13*
%TO.C,C6*%
X126980000Y-108800000D03*
X128980000Y-108800000D03*
%TD*%
D11*
%TO.C,D25*%
X120650000Y-118010000D03*
X118600000Y-118010000D03*
%TD*%
M02*
