%TF.GenerationSoftware,KiCad,Pcbnew,10.0.5*%
%TF.CreationDate,2026-08-06T04:03:08+07:00*%
%TF.ProjectId,manager_board,6d616e61-6765-4725-9f62-6f6172642e6b,rev?*%
%TF.SameCoordinates,Original*%
%TF.FileFunction,Legend,Bot*%
%TF.FilePolarity,Positive*%
%FSLAX46Y46*%
G04 Gerber Fmt 4.6, Leading zero omitted, Abs format (unit mm)*
G04 Created by KiCad (PCBNEW 10.0.5) date 2026-08-06 04:03:08*
%MOMM*%
%LPD*%
G01*
G04 APERTURE LIST*
%ADD10C,0.100000*%
%ADD11C,0.125000*%
%ADD12C,0.120000*%
G04 APERTURE END LIST*
D10*
X92630000Y-123130000D02*
X138700000Y-123130000D01*
X138700000Y-129260000D01*
X92630000Y-129260000D01*
X92630000Y-123130000D01*
G36*
X98916194Y-123110866D02*
G01*
X98916194Y-123149134D01*
X98905355Y-123165355D01*
X92775355Y-129295355D01*
X92759134Y-129306194D01*
X92720866Y-129306194D01*
X92693806Y-129279134D01*
X92693806Y-129240866D01*
X92704645Y-129224645D01*
X98834645Y-123094645D01*
X98850866Y-123083806D01*
X98889134Y-123083806D01*
X98916194Y-123110866D01*
G37*
G36*
X99916194Y-123110866D02*
G01*
X99916194Y-123149134D01*
X99905355Y-123165355D01*
X93775355Y-129295355D01*
X93759134Y-129306194D01*
X93720866Y-129306194D01*
X93693806Y-129279134D01*
X93693806Y-129240866D01*
X93704645Y-129224645D01*
X99834645Y-123094645D01*
X99850866Y-123083806D01*
X99889134Y-123083806D01*
X99916194Y-123110866D01*
G37*
G36*
X100916194Y-123110866D02*
G01*
X100916194Y-123149134D01*
X100905355Y-123165355D01*
X94775355Y-129295355D01*
X94759134Y-129306194D01*
X94720866Y-129306194D01*
X94693806Y-129279134D01*
X94693806Y-129240866D01*
X94704645Y-129224645D01*
X100834645Y-123094645D01*
X100850866Y-123083806D01*
X100889134Y-123083806D01*
X100916194Y-123110866D01*
G37*
G36*
X101916194Y-123110866D02*
G01*
X101916194Y-123149134D01*
X101905355Y-123165355D01*
X95775355Y-129295355D01*
X95759134Y-129306194D01*
X95720866Y-129306194D01*
X95693806Y-129279134D01*
X95693806Y-129240866D01*
X95704645Y-129224645D01*
X101834645Y-123094645D01*
X101850866Y-123083806D01*
X101889134Y-123083806D01*
X101916194Y-123110866D01*
G37*
G36*
X102916194Y-123110866D02*
G01*
X102916194Y-123149134D01*
X102905355Y-123165355D01*
X96775355Y-129295355D01*
X96759134Y-129306194D01*
X96720866Y-129306194D01*
X96693806Y-129279134D01*
X96693806Y-129240866D01*
X96704645Y-129224645D01*
X102834645Y-123094645D01*
X102850866Y-123083806D01*
X102889134Y-123083806D01*
X102916194Y-123110866D01*
G37*
G36*
X103916194Y-123110866D02*
G01*
X103916194Y-123149134D01*
X103905355Y-123165355D01*
X97775355Y-129295355D01*
X97759134Y-129306194D01*
X97720866Y-129306194D01*
X97693806Y-129279134D01*
X97693806Y-129240866D01*
X97704645Y-129224645D01*
X103834645Y-123094645D01*
X103850866Y-123083806D01*
X103889134Y-123083806D01*
X103916194Y-123110866D01*
G37*
G36*
X104916194Y-123110866D02*
G01*
X104916194Y-123149134D01*
X104905355Y-123165355D01*
X98775355Y-129295355D01*
X98759134Y-129306194D01*
X98720866Y-129306194D01*
X98693806Y-129279134D01*
X98693806Y-129240866D01*
X98704645Y-129224645D01*
X104834645Y-123094645D01*
X104850866Y-123083806D01*
X104889134Y-123083806D01*
X104916194Y-123110866D01*
G37*
G36*
X105916194Y-123110866D02*
G01*
X105916194Y-123149134D01*
X105905355Y-123165355D01*
X99775355Y-129295355D01*
X99759134Y-129306194D01*
X99720866Y-129306194D01*
X99693806Y-129279134D01*
X99693806Y-129240866D01*
X99704645Y-129224645D01*
X105834645Y-123094645D01*
X105850866Y-123083806D01*
X105889134Y-123083806D01*
X105916194Y-123110866D01*
G37*
G36*
X106906194Y-123120866D02*
G01*
X106906194Y-123159134D01*
X106895355Y-123175355D01*
X100775355Y-129295355D01*
X100759134Y-129306194D01*
X100720866Y-129306194D01*
X100693806Y-129279134D01*
X100693806Y-129240866D01*
X100704645Y-129224645D01*
X106824645Y-123104645D01*
X106840866Y-123093806D01*
X106879134Y-123093806D01*
X106906194Y-123120866D01*
G37*
G36*
X106906194Y-124120866D02*
G01*
X106906194Y-124159135D01*
X106895355Y-124175356D01*
X101775355Y-129295355D01*
X101759134Y-129306194D01*
X101720866Y-129306194D01*
X101693806Y-129279134D01*
X101693806Y-129240866D01*
X101704645Y-129224645D01*
X106824644Y-124104645D01*
X106840865Y-124093806D01*
X106879134Y-124093806D01*
X106906194Y-124120866D01*
G37*
G36*
X106906194Y-125120866D02*
G01*
X106906194Y-125159134D01*
X106895355Y-125175355D01*
X102775355Y-129295355D01*
X102759134Y-129306194D01*
X102720866Y-129306194D01*
X102693806Y-129279134D01*
X102693806Y-129240866D01*
X102704645Y-129224645D01*
X106824645Y-125104645D01*
X106840866Y-125093806D01*
X106879134Y-125093806D01*
X106906194Y-125120866D01*
G37*
G36*
X106906194Y-126120866D02*
G01*
X106906194Y-126159135D01*
X106895355Y-126175356D01*
X103775355Y-129295355D01*
X103759134Y-129306194D01*
X103720866Y-129306194D01*
X103693806Y-129279134D01*
X103693806Y-129240866D01*
X103704645Y-129224645D01*
X106824644Y-126104645D01*
X106840865Y-126093806D01*
X106879134Y-126093806D01*
X106906194Y-126120866D01*
G37*
G36*
X106906194Y-127120866D02*
G01*
X106906194Y-127159134D01*
X106895356Y-127175355D01*
X104775355Y-129295355D01*
X104759134Y-129306194D01*
X104720866Y-129306194D01*
X104693806Y-129279134D01*
X104693806Y-129240866D01*
X104704645Y-129224645D01*
X106824645Y-127104644D01*
X106840866Y-127093806D01*
X106879134Y-127093806D01*
X106906194Y-127120866D01*
G37*
G36*
X106906194Y-128120866D02*
G01*
X106906194Y-128159134D01*
X106895355Y-128175355D01*
X105775355Y-129295355D01*
X105759134Y-129306194D01*
X105720866Y-129306194D01*
X105693806Y-129279134D01*
X105693806Y-129240866D01*
X105704645Y-129224645D01*
X106824645Y-128104645D01*
X106840866Y-128093806D01*
X106879134Y-128093806D01*
X106906194Y-128120866D01*
G37*
G36*
X106906194Y-129120865D02*
G01*
X106906194Y-129159134D01*
X106895356Y-129175355D01*
X106775355Y-129295355D01*
X106759134Y-129306194D01*
X106720866Y-129306194D01*
X106693806Y-129279134D01*
X106693806Y-129240866D01*
X106704645Y-129224645D01*
X106824645Y-129104644D01*
X106840866Y-129093806D01*
X106879135Y-129093806D01*
X106906194Y-129120865D01*
G37*
G36*
X132916194Y-123110866D02*
G01*
X132916194Y-123149134D01*
X132905355Y-123165355D01*
X126775355Y-129295355D01*
X126759134Y-129306194D01*
X126720866Y-129306194D01*
X126693806Y-129279134D01*
X126693806Y-129240866D01*
X126704645Y-129224645D01*
X132834645Y-123094645D01*
X132850866Y-123083806D01*
X132889134Y-123083806D01*
X132916194Y-123110866D01*
G37*
G36*
X133916194Y-123110866D02*
G01*
X133916194Y-123149134D01*
X133905355Y-123165355D01*
X127775355Y-129295355D01*
X127759134Y-129306194D01*
X127720866Y-129306194D01*
X127693806Y-129279134D01*
X127693806Y-129240866D01*
X127704645Y-129224645D01*
X133834645Y-123094645D01*
X133850866Y-123083806D01*
X133889134Y-123083806D01*
X133916194Y-123110866D01*
G37*
G36*
X134916194Y-123110866D02*
G01*
X134916194Y-123149134D01*
X134905355Y-123165355D01*
X128775355Y-129295355D01*
X128759134Y-129306194D01*
X128720866Y-129306194D01*
X128693806Y-129279134D01*
X128693806Y-129240866D01*
X128704645Y-129224645D01*
X134834645Y-123094645D01*
X134850866Y-123083806D01*
X134889134Y-123083806D01*
X134916194Y-123110866D01*
G37*
G36*
X135916194Y-123110866D02*
G01*
X135916194Y-123149134D01*
X135905355Y-123165355D01*
X129775355Y-129295355D01*
X129759134Y-129306194D01*
X129720866Y-129306194D01*
X129693806Y-129279134D01*
X129693806Y-129240866D01*
X129704645Y-129224645D01*
X135834645Y-123094645D01*
X135850866Y-123083806D01*
X135889134Y-123083806D01*
X135916194Y-123110866D01*
G37*
G36*
X136916194Y-123110866D02*
G01*
X136916194Y-123149134D01*
X136905355Y-123165355D01*
X130775355Y-129295355D01*
X130759134Y-129306194D01*
X130720866Y-129306194D01*
X130693806Y-129279134D01*
X130693806Y-129240866D01*
X130704645Y-129224645D01*
X136834645Y-123094645D01*
X136850866Y-123083806D01*
X136889134Y-123083806D01*
X136916194Y-123110866D01*
G37*
G36*
X137916194Y-123110866D02*
G01*
X137916194Y-123149134D01*
X137905355Y-123165355D01*
X131775355Y-129295355D01*
X131759134Y-129306194D01*
X131720866Y-129306194D01*
X131693806Y-129279134D01*
X131693806Y-129240866D01*
X131704645Y-129224645D01*
X137834645Y-123094645D01*
X137850866Y-123083806D01*
X137889134Y-123083806D01*
X137916194Y-123110866D01*
G37*
G36*
X138746194Y-123280866D02*
G01*
X138746194Y-123319134D01*
X138735355Y-123335355D01*
X132775355Y-129295355D01*
X132759134Y-129306194D01*
X132720866Y-129306194D01*
X132693806Y-129279134D01*
X132693806Y-129240866D01*
X132704645Y-129224645D01*
X138664645Y-123264645D01*
X138680866Y-123253806D01*
X138719134Y-123253806D01*
X138746194Y-123280866D01*
G37*
G36*
X138746194Y-124280866D02*
G01*
X138746194Y-124319134D01*
X138735355Y-124335356D01*
X133775355Y-129295355D01*
X133759134Y-129306194D01*
X133720866Y-129306194D01*
X133693806Y-129279134D01*
X133693806Y-129240866D01*
X133704645Y-129224645D01*
X138664644Y-124264645D01*
X138680866Y-124253806D01*
X138719134Y-124253806D01*
X138746194Y-124280866D01*
G37*
G36*
X138746194Y-125280865D02*
G01*
X138746194Y-125319134D01*
X138735356Y-125335355D01*
X134775355Y-129295355D01*
X134759134Y-129306194D01*
X134720866Y-129306194D01*
X134693806Y-129279134D01*
X134693806Y-129240866D01*
X134704645Y-129224645D01*
X138664645Y-125264644D01*
X138680866Y-125253806D01*
X138719135Y-125253806D01*
X138746194Y-125280865D01*
G37*
G36*
X138746194Y-126280866D02*
G01*
X138746194Y-126319134D01*
X138735355Y-126335355D01*
X135775355Y-129295355D01*
X135759134Y-129306194D01*
X135720866Y-129306194D01*
X135693806Y-129279134D01*
X135693806Y-129240866D01*
X135704645Y-129224645D01*
X138664645Y-126264645D01*
X138680866Y-126253806D01*
X138719134Y-126253806D01*
X138746194Y-126280866D01*
G37*
G36*
X138746194Y-127280865D02*
G01*
X138746194Y-127319134D01*
X138735356Y-127335355D01*
X136775355Y-129295355D01*
X136759134Y-129306194D01*
X136720866Y-129306194D01*
X136693806Y-129279134D01*
X136693806Y-129240866D01*
X136704645Y-129224645D01*
X138664645Y-127264644D01*
X138680866Y-127253806D01*
X138719135Y-127253806D01*
X138746194Y-127280865D01*
G37*
G36*
X138746194Y-128280866D02*
G01*
X138746194Y-128319134D01*
X138735355Y-128335355D01*
X137775355Y-129295355D01*
X137759134Y-129306194D01*
X137720866Y-129306194D01*
X137693806Y-129279134D01*
X137693806Y-129240866D01*
X137704645Y-129224645D01*
X138664645Y-128264645D01*
X138680866Y-128253806D01*
X138719134Y-128253806D01*
X138746194Y-128280866D01*
G37*
G36*
X131916194Y-123110865D02*
G01*
X131916194Y-123149134D01*
X131905356Y-123165355D01*
X126255355Y-128815355D01*
X126239134Y-128826194D01*
X126200866Y-128826194D01*
X126173806Y-128799134D01*
X126173806Y-128760866D01*
X126184645Y-128744645D01*
X131834645Y-123094644D01*
X131850866Y-123083806D01*
X131889135Y-123083806D01*
X131916194Y-123110865D01*
G37*
G36*
X113916194Y-123110865D02*
G01*
X113916194Y-123149134D01*
X113905356Y-123165355D01*
X108335355Y-128735355D01*
X108319134Y-128746194D01*
X108280866Y-128746194D01*
X108253806Y-128719134D01*
X108253806Y-128680866D01*
X108264645Y-128664645D01*
X113834645Y-123094644D01*
X113850866Y-123083806D01*
X113889135Y-123083806D01*
X113916194Y-123110865D01*
G37*
G36*
X114916194Y-123110865D02*
G01*
X114916194Y-123149134D01*
X114905356Y-123165355D01*
X109335355Y-128735355D01*
X109319134Y-128746194D01*
X109280866Y-128746194D01*
X109253806Y-128719134D01*
X109253806Y-128680866D01*
X109264645Y-128664645D01*
X114834645Y-123094644D01*
X114850866Y-123083806D01*
X114889135Y-123083806D01*
X114916194Y-123110865D01*
G37*
G36*
X115916194Y-123110865D02*
G01*
X115916194Y-123149134D01*
X115905356Y-123165355D01*
X110335355Y-128735355D01*
X110319134Y-128746194D01*
X110280866Y-128746194D01*
X110253806Y-128719134D01*
X110253806Y-128680866D01*
X110264645Y-128664645D01*
X115834645Y-123094644D01*
X115850866Y-123083806D01*
X115889135Y-123083806D01*
X115916194Y-123110865D01*
G37*
G36*
X116916194Y-123110865D02*
G01*
X116916194Y-123149134D01*
X116905356Y-123165355D01*
X111335355Y-128735355D01*
X111319134Y-128746194D01*
X111280866Y-128746194D01*
X111253806Y-128719134D01*
X111253806Y-128680866D01*
X111264645Y-128664645D01*
X116834645Y-123094644D01*
X116850866Y-123083806D01*
X116889135Y-123083806D01*
X116916194Y-123110865D01*
G37*
G36*
X117916194Y-123110865D02*
G01*
X117916194Y-123149134D01*
X117905356Y-123165355D01*
X112335355Y-128735355D01*
X112319134Y-128746194D01*
X112280866Y-128746194D01*
X112253806Y-128719134D01*
X112253806Y-128680866D01*
X112264645Y-128664645D01*
X117834645Y-123094644D01*
X117850866Y-123083806D01*
X117889135Y-123083806D01*
X117916194Y-123110865D01*
G37*
G36*
X118916194Y-123110865D02*
G01*
X118916194Y-123149134D01*
X118905356Y-123165355D01*
X113335355Y-128735355D01*
X113319134Y-128746194D01*
X113280866Y-128746194D01*
X113253806Y-128719134D01*
X113253806Y-128680866D01*
X113264645Y-128664645D01*
X118834645Y-123094644D01*
X118850866Y-123083806D01*
X118889135Y-123083806D01*
X118916194Y-123110865D01*
G37*
G36*
X119916194Y-123110865D02*
G01*
X119916194Y-123149134D01*
X119905356Y-123165355D01*
X114335355Y-128735355D01*
X114319134Y-128746194D01*
X114280866Y-128746194D01*
X114253806Y-128719134D01*
X114253806Y-128680866D01*
X114264645Y-128664645D01*
X119834645Y-123094644D01*
X119850866Y-123083806D01*
X119889135Y-123083806D01*
X119916194Y-123110865D01*
G37*
G36*
X120916194Y-123110865D02*
G01*
X120916194Y-123149134D01*
X120905356Y-123165355D01*
X115335355Y-128735355D01*
X115319134Y-128746194D01*
X115280866Y-128746194D01*
X115253806Y-128719134D01*
X115253806Y-128680866D01*
X115264645Y-128664645D01*
X120834645Y-123094644D01*
X120850866Y-123083806D01*
X120889135Y-123083806D01*
X120916194Y-123110865D01*
G37*
G36*
X121916194Y-123110865D02*
G01*
X121916194Y-123149134D01*
X121905356Y-123165355D01*
X116335355Y-128735355D01*
X116319134Y-128746194D01*
X116280866Y-128746194D01*
X116253806Y-128719134D01*
X116253806Y-128680866D01*
X116264645Y-128664645D01*
X121834645Y-123094644D01*
X121850866Y-123083806D01*
X121889135Y-123083806D01*
X121916194Y-123110865D01*
G37*
G36*
X122916194Y-123110865D02*
G01*
X122916194Y-123149134D01*
X122905356Y-123165355D01*
X117335355Y-128735355D01*
X117319134Y-128746194D01*
X117280866Y-128746194D01*
X117253806Y-128719134D01*
X117253806Y-128680866D01*
X117264645Y-128664645D01*
X122834645Y-123094644D01*
X122850866Y-123083806D01*
X122889135Y-123083806D01*
X122916194Y-123110865D01*
G37*
G36*
X123916194Y-123110865D02*
G01*
X123916194Y-123149134D01*
X123905356Y-123165355D01*
X118335355Y-128735355D01*
X118319134Y-128746194D01*
X118280866Y-128746194D01*
X118253806Y-128719134D01*
X118253806Y-128680866D01*
X118264645Y-128664645D01*
X123834645Y-123094644D01*
X123850866Y-123083806D01*
X123889135Y-123083806D01*
X123916194Y-123110865D01*
G37*
G36*
X124916194Y-123110865D02*
G01*
X124916194Y-123149134D01*
X124905356Y-123165355D01*
X119335355Y-128735355D01*
X119319134Y-128746194D01*
X119280866Y-128746194D01*
X119253806Y-128719134D01*
X119253806Y-128680866D01*
X119264645Y-128664645D01*
X124834645Y-123094644D01*
X124850866Y-123083806D01*
X124889135Y-123083806D01*
X124916194Y-123110865D01*
G37*
G36*
X125146194Y-123880866D02*
G01*
X125146194Y-123919134D01*
X125135355Y-123935355D01*
X120335355Y-128735355D01*
X120319134Y-128746194D01*
X120280866Y-128746194D01*
X120253806Y-128719134D01*
X120253806Y-128680866D01*
X120264645Y-128664645D01*
X125064645Y-123864645D01*
X125080866Y-123853806D01*
X125119134Y-123853806D01*
X125146194Y-123880866D01*
G37*
G36*
X125146194Y-124880865D02*
G01*
X125146194Y-124919134D01*
X125135356Y-124935355D01*
X121335355Y-128735355D01*
X121319134Y-128746194D01*
X121280866Y-128746194D01*
X121253806Y-128719134D01*
X121253806Y-128680866D01*
X121264645Y-128664645D01*
X125064645Y-124864644D01*
X125080866Y-124853806D01*
X125119135Y-124853806D01*
X125146194Y-124880865D01*
G37*
G36*
X125146194Y-125880866D02*
G01*
X125146194Y-125919134D01*
X125135355Y-125935355D01*
X122335355Y-128735355D01*
X122319134Y-128746194D01*
X122280866Y-128746194D01*
X122253806Y-128719134D01*
X122253806Y-128680866D01*
X122264645Y-128664645D01*
X125064645Y-125864645D01*
X125080866Y-125853806D01*
X125119134Y-125853806D01*
X125146194Y-125880866D01*
G37*
G36*
X125146194Y-126880866D02*
G01*
X125146194Y-126919135D01*
X125135355Y-126935356D01*
X123335355Y-128735355D01*
X123319134Y-128746194D01*
X123280866Y-128746194D01*
X123253806Y-128719134D01*
X123253806Y-128680866D01*
X123264645Y-128664645D01*
X125064644Y-126864645D01*
X125080865Y-126853806D01*
X125119134Y-126853806D01*
X125146194Y-126880866D01*
G37*
G36*
X125146194Y-127880866D02*
G01*
X125146194Y-127919134D01*
X125135355Y-127935355D01*
X124335355Y-128735355D01*
X124319134Y-128746194D01*
X124280866Y-128746194D01*
X124253806Y-128719134D01*
X124253806Y-128680866D01*
X124264645Y-128664645D01*
X125064645Y-127864645D01*
X125080866Y-127853806D01*
X125119134Y-127853806D01*
X125146194Y-127880866D01*
G37*
G36*
X97916194Y-123110866D02*
G01*
X97916194Y-123149134D01*
X97905355Y-123165355D01*
X92665355Y-128405355D01*
X92649134Y-128416194D01*
X92610866Y-128416194D01*
X92583806Y-128389134D01*
X92583806Y-128350866D01*
X92594645Y-128334645D01*
X97834645Y-123094645D01*
X97850866Y-123083806D01*
X97889134Y-123083806D01*
X97916194Y-123110866D01*
G37*
G36*
X112916194Y-123110866D02*
G01*
X112916194Y-123149135D01*
X112905355Y-123165356D01*
X108015355Y-128055355D01*
X107999134Y-128066194D01*
X107960866Y-128066194D01*
X107933806Y-128039134D01*
X107933806Y-128000866D01*
X107944645Y-127984645D01*
X112834644Y-123094645D01*
X112850865Y-123083806D01*
X112889134Y-123083806D01*
X112916194Y-123110866D01*
G37*
G36*
X130916194Y-123110866D02*
G01*
X130916194Y-123149134D01*
X130905355Y-123165355D01*
X126255355Y-127815355D01*
X126239134Y-127826194D01*
X126200866Y-127826194D01*
X126173806Y-127799134D01*
X126173806Y-127760866D01*
X126184645Y-127744645D01*
X130834645Y-123094645D01*
X130850866Y-123083806D01*
X130889134Y-123083806D01*
X130916194Y-123110866D01*
G37*
G36*
X96916194Y-123110865D02*
G01*
X96916194Y-123149134D01*
X96905356Y-123165355D01*
X92665355Y-127405355D01*
X92649134Y-127416194D01*
X92610866Y-127416194D01*
X92583806Y-127389134D01*
X92583806Y-127350866D01*
X92594645Y-127334645D01*
X96834645Y-123094644D01*
X96850866Y-123083806D01*
X96889135Y-123083806D01*
X96916194Y-123110865D01*
G37*
G36*
X111916194Y-123110866D02*
G01*
X111916194Y-123149134D01*
X111905356Y-123165355D01*
X108015355Y-127055355D01*
X107999134Y-127066194D01*
X107960866Y-127066194D01*
X107933806Y-127039134D01*
X107933806Y-127000866D01*
X107944645Y-126984645D01*
X111834645Y-123094644D01*
X111850866Y-123083806D01*
X111889134Y-123083806D01*
X111916194Y-123110866D01*
G37*
G36*
X129916194Y-123110865D02*
G01*
X129916194Y-123149134D01*
X129905356Y-123165355D01*
X126255355Y-126815355D01*
X126239134Y-126826194D01*
X126200866Y-126826194D01*
X126173806Y-126799134D01*
X126173806Y-126760866D01*
X126184645Y-126744645D01*
X129834645Y-123094644D01*
X129850866Y-123083806D01*
X129889135Y-123083806D01*
X129916194Y-123110865D01*
G37*
G36*
X95916194Y-123110866D02*
G01*
X95916194Y-123149134D01*
X95905355Y-123165355D01*
X92665355Y-126405355D01*
X92649134Y-126416194D01*
X92610866Y-126416194D01*
X92583806Y-126389134D01*
X92583806Y-126350866D01*
X92594645Y-126334645D01*
X95834645Y-123094645D01*
X95850866Y-123083806D01*
X95889134Y-123083806D01*
X95916194Y-123110866D01*
G37*
G36*
X110916194Y-123110866D02*
G01*
X110916194Y-123149134D01*
X110905355Y-123165355D01*
X108015355Y-126055355D01*
X107999134Y-126066194D01*
X107960866Y-126066194D01*
X107933806Y-126039134D01*
X107933806Y-126000866D01*
X107944645Y-125984645D01*
X110834645Y-123094645D01*
X110850866Y-123083806D01*
X110889134Y-123083806D01*
X110916194Y-123110866D01*
G37*
G36*
X128916194Y-123110866D02*
G01*
X128916194Y-123149134D01*
X128905355Y-123165355D01*
X126255355Y-125815355D01*
X126239134Y-125826194D01*
X126200866Y-125826194D01*
X126173806Y-125799134D01*
X126173806Y-125760866D01*
X126184645Y-125744645D01*
X128834645Y-123094645D01*
X128850866Y-123083806D01*
X128889134Y-123083806D01*
X128916194Y-123110866D01*
G37*
G36*
X94916194Y-123110866D02*
G01*
X94916194Y-123149135D01*
X94905355Y-123165356D01*
X92665355Y-125405355D01*
X92649134Y-125416194D01*
X92610866Y-125416194D01*
X92583806Y-125389134D01*
X92583806Y-125350866D01*
X92594645Y-125334645D01*
X94834644Y-123094645D01*
X94850865Y-123083806D01*
X94889134Y-123083806D01*
X94916194Y-123110866D01*
G37*
G36*
X109916194Y-123110865D02*
G01*
X109916194Y-123149134D01*
X109905356Y-123165355D01*
X108015355Y-125055355D01*
X107999134Y-125066194D01*
X107960866Y-125066194D01*
X107933806Y-125039134D01*
X107933806Y-125000866D01*
X107944645Y-124984645D01*
X109834645Y-123094644D01*
X109850866Y-123083806D01*
X109889135Y-123083806D01*
X109916194Y-123110865D01*
G37*
G36*
X127916194Y-123110866D02*
G01*
X127916194Y-123149135D01*
X127905355Y-123165356D01*
X126255355Y-124815355D01*
X126239134Y-124826194D01*
X126200866Y-124826194D01*
X126173806Y-124799134D01*
X126173806Y-124760866D01*
X126184645Y-124744645D01*
X127834644Y-123094645D01*
X127850865Y-123083806D01*
X127889134Y-123083806D01*
X127916194Y-123110866D01*
G37*
G36*
X93916194Y-123110866D02*
G01*
X93916194Y-123149134D01*
X93905355Y-123165355D01*
X92665355Y-124405355D01*
X92649134Y-124416194D01*
X92610866Y-124416194D01*
X92583806Y-124389134D01*
X92583806Y-124350866D01*
X92594645Y-124334645D01*
X93834645Y-123094645D01*
X93850866Y-123083806D01*
X93889134Y-123083806D01*
X93916194Y-123110866D01*
G37*
G36*
X108916194Y-123110866D02*
G01*
X108916194Y-123149134D01*
X108905355Y-123165355D01*
X108015355Y-124055355D01*
X107999134Y-124066194D01*
X107960866Y-124066194D01*
X107933806Y-124039134D01*
X107933806Y-124000866D01*
X107944645Y-123984645D01*
X108834645Y-123094645D01*
X108850866Y-123083806D01*
X108889134Y-123083806D01*
X108916194Y-123110866D01*
G37*
G36*
X126916194Y-123110866D02*
G01*
X126916194Y-123149134D01*
X126905355Y-123165355D01*
X126255355Y-123815355D01*
X126239134Y-123826194D01*
X126200866Y-123826194D01*
X126173806Y-123799134D01*
X126173806Y-123760866D01*
X126184645Y-123744645D01*
X126834645Y-123094645D01*
X126850866Y-123083806D01*
X126889134Y-123083806D01*
X126916194Y-123110866D01*
G37*
G36*
X92916194Y-123110866D02*
G01*
X92916194Y-123149134D01*
X92905355Y-123165356D01*
X92665355Y-123405355D01*
X92649134Y-123416194D01*
X92610866Y-123416194D01*
X92583806Y-123389134D01*
X92583806Y-123350866D01*
X92594645Y-123334645D01*
X92834644Y-123094645D01*
X92850866Y-123083806D01*
X92889134Y-123083806D01*
X92916194Y-123110866D01*
G37*
D11*
X88804047Y-84782994D02*
X88804047Y-83782994D01*
X88804047Y-83782994D02*
X88565952Y-83782994D01*
X88565952Y-83782994D02*
X88423095Y-83830613D01*
X88423095Y-83830613D02*
X88327857Y-83925851D01*
X88327857Y-83925851D02*
X88280238Y-84021089D01*
X88280238Y-84021089D02*
X88232619Y-84211565D01*
X88232619Y-84211565D02*
X88232619Y-84354422D01*
X88232619Y-84354422D02*
X88280238Y-84544898D01*
X88280238Y-84544898D02*
X88327857Y-84640136D01*
X88327857Y-84640136D02*
X88423095Y-84735375D01*
X88423095Y-84735375D02*
X88565952Y-84782994D01*
X88565952Y-84782994D02*
X88804047Y-84782994D01*
X87804047Y-84259184D02*
X87470714Y-84259184D01*
X87327857Y-84782994D02*
X87804047Y-84782994D01*
X87804047Y-84782994D02*
X87804047Y-83782994D01*
X87804047Y-83782994D02*
X87327857Y-83782994D01*
X86946904Y-84735375D02*
X86804047Y-84782994D01*
X86804047Y-84782994D02*
X86565952Y-84782994D01*
X86565952Y-84782994D02*
X86470714Y-84735375D01*
X86470714Y-84735375D02*
X86423095Y-84687755D01*
X86423095Y-84687755D02*
X86375476Y-84592517D01*
X86375476Y-84592517D02*
X86375476Y-84497279D01*
X86375476Y-84497279D02*
X86423095Y-84402041D01*
X86423095Y-84402041D02*
X86470714Y-84354422D01*
X86470714Y-84354422D02*
X86565952Y-84306803D01*
X86565952Y-84306803D02*
X86756428Y-84259184D01*
X86756428Y-84259184D02*
X86851666Y-84211565D01*
X86851666Y-84211565D02*
X86899285Y-84163946D01*
X86899285Y-84163946D02*
X86946904Y-84068708D01*
X86946904Y-84068708D02*
X86946904Y-83973470D01*
X86946904Y-83973470D02*
X86899285Y-83878232D01*
X86899285Y-83878232D02*
X86851666Y-83830613D01*
X86851666Y-83830613D02*
X86756428Y-83782994D01*
X86756428Y-83782994D02*
X86518333Y-83782994D01*
X86518333Y-83782994D02*
X86375476Y-83830613D01*
X85946904Y-84782994D02*
X85946904Y-83782994D01*
X84946905Y-83830613D02*
X85042143Y-83782994D01*
X85042143Y-83782994D02*
X85185000Y-83782994D01*
X85185000Y-83782994D02*
X85327857Y-83830613D01*
X85327857Y-83830613D02*
X85423095Y-83925851D01*
X85423095Y-83925851D02*
X85470714Y-84021089D01*
X85470714Y-84021089D02*
X85518333Y-84211565D01*
X85518333Y-84211565D02*
X85518333Y-84354422D01*
X85518333Y-84354422D02*
X85470714Y-84544898D01*
X85470714Y-84544898D02*
X85423095Y-84640136D01*
X85423095Y-84640136D02*
X85327857Y-84735375D01*
X85327857Y-84735375D02*
X85185000Y-84782994D01*
X85185000Y-84782994D02*
X85089762Y-84782994D01*
X85089762Y-84782994D02*
X84946905Y-84735375D01*
X84946905Y-84735375D02*
X84899286Y-84687755D01*
X84899286Y-84687755D02*
X84899286Y-84354422D01*
X84899286Y-84354422D02*
X85089762Y-84354422D01*
X84470714Y-84782994D02*
X84470714Y-83782994D01*
X84470714Y-83782994D02*
X83899286Y-84782994D01*
X83899286Y-84782994D02*
X83899286Y-83782994D01*
X83423095Y-84259184D02*
X83089762Y-84259184D01*
X82946905Y-84782994D02*
X83423095Y-84782994D01*
X83423095Y-84782994D02*
X83423095Y-83782994D01*
X83423095Y-83782994D02*
X82946905Y-83782994D01*
X82518333Y-84782994D02*
X82518333Y-83782994D01*
X82518333Y-83782994D02*
X82280238Y-83782994D01*
X82280238Y-83782994D02*
X82137381Y-83830613D01*
X82137381Y-83830613D02*
X82042143Y-83925851D01*
X82042143Y-83925851D02*
X81994524Y-84021089D01*
X81994524Y-84021089D02*
X81946905Y-84211565D01*
X81946905Y-84211565D02*
X81946905Y-84354422D01*
X81946905Y-84354422D02*
X81994524Y-84544898D01*
X81994524Y-84544898D02*
X82042143Y-84640136D01*
X82042143Y-84640136D02*
X82137381Y-84735375D01*
X82137381Y-84735375D02*
X82280238Y-84782994D01*
X82280238Y-84782994D02*
X82518333Y-84782994D01*
X80423095Y-84259184D02*
X80280238Y-84306803D01*
X80280238Y-84306803D02*
X80232619Y-84354422D01*
X80232619Y-84354422D02*
X80185000Y-84449660D01*
X80185000Y-84449660D02*
X80185000Y-84592517D01*
X80185000Y-84592517D02*
X80232619Y-84687755D01*
X80232619Y-84687755D02*
X80280238Y-84735375D01*
X80280238Y-84735375D02*
X80375476Y-84782994D01*
X80375476Y-84782994D02*
X80756428Y-84782994D01*
X80756428Y-84782994D02*
X80756428Y-83782994D01*
X80756428Y-83782994D02*
X80423095Y-83782994D01*
X80423095Y-83782994D02*
X80327857Y-83830613D01*
X80327857Y-83830613D02*
X80280238Y-83878232D01*
X80280238Y-83878232D02*
X80232619Y-83973470D01*
X80232619Y-83973470D02*
X80232619Y-84068708D01*
X80232619Y-84068708D02*
X80280238Y-84163946D01*
X80280238Y-84163946D02*
X80327857Y-84211565D01*
X80327857Y-84211565D02*
X80423095Y-84259184D01*
X80423095Y-84259184D02*
X80756428Y-84259184D01*
X79565952Y-84306803D02*
X79565952Y-84782994D01*
X79899285Y-83782994D02*
X79565952Y-84306803D01*
X79565952Y-84306803D02*
X79232619Y-83782994D01*
X78137380Y-84782994D02*
X78137380Y-83782994D01*
X78137380Y-83782994D02*
X77899285Y-83782994D01*
X77899285Y-83782994D02*
X77756428Y-83830613D01*
X77756428Y-83830613D02*
X77661190Y-83925851D01*
X77661190Y-83925851D02*
X77613571Y-84021089D01*
X77613571Y-84021089D02*
X77565952Y-84211565D01*
X77565952Y-84211565D02*
X77565952Y-84354422D01*
X77565952Y-84354422D02*
X77613571Y-84544898D01*
X77613571Y-84544898D02*
X77661190Y-84640136D01*
X77661190Y-84640136D02*
X77756428Y-84735375D01*
X77756428Y-84735375D02*
X77899285Y-84782994D01*
X77899285Y-84782994D02*
X78137380Y-84782994D01*
X78280237Y-84259184D02*
X77899285Y-84259184D01*
X77280237Y-83782994D02*
X76708809Y-83782994D01*
X76994523Y-84782994D02*
X76994523Y-83782994D01*
X76518332Y-83782994D02*
X76184999Y-84782994D01*
X76184999Y-84782994D02*
X75851666Y-83782994D01*
X74756427Y-84402041D02*
X73994523Y-84402041D01*
X72899284Y-83782994D02*
X72327856Y-83782994D01*
X72613570Y-84782994D02*
X72613570Y-83782994D01*
X71994522Y-84259184D02*
X71661189Y-84259184D01*
X71518332Y-84782994D02*
X71994522Y-84782994D01*
X71994522Y-84782994D02*
X71994522Y-83782994D01*
X71994522Y-83782994D02*
X71518332Y-83782994D01*
X71137379Y-84497279D02*
X70661189Y-84497279D01*
X71232617Y-84782994D02*
X70899284Y-83782994D01*
X70899284Y-83782994D02*
X70565951Y-84782994D01*
X70232617Y-84782994D02*
X70232617Y-83782994D01*
X70232617Y-83782994D02*
X69899284Y-84497279D01*
X69899284Y-84497279D02*
X69565951Y-83782994D01*
X69565951Y-83782994D02*
X69565951Y-84782994D01*
X87542142Y-85392938D02*
X87542142Y-86202461D01*
X87542142Y-86202461D02*
X87494523Y-86297699D01*
X87494523Y-86297699D02*
X87446904Y-86345319D01*
X87446904Y-86345319D02*
X87351666Y-86392938D01*
X87351666Y-86392938D02*
X87161190Y-86392938D01*
X87161190Y-86392938D02*
X87065952Y-86345319D01*
X87065952Y-86345319D02*
X87018333Y-86297699D01*
X87018333Y-86297699D02*
X86970714Y-86202461D01*
X86970714Y-86202461D02*
X86970714Y-85392938D01*
X86637380Y-85392938D02*
X86065952Y-85392938D01*
X86351666Y-86392938D02*
X86351666Y-85392938D01*
X85161190Y-86297699D02*
X85208809Y-86345319D01*
X85208809Y-86345319D02*
X85351666Y-86392938D01*
X85351666Y-86392938D02*
X85446904Y-86392938D01*
X85446904Y-86392938D02*
X85589761Y-86345319D01*
X85589761Y-86345319D02*
X85684999Y-86250080D01*
X85684999Y-86250080D02*
X85732618Y-86154842D01*
X85732618Y-86154842D02*
X85780237Y-85964366D01*
X85780237Y-85964366D02*
X85780237Y-85821509D01*
X85780237Y-85821509D02*
X85732618Y-85631033D01*
X85732618Y-85631033D02*
X85684999Y-85535795D01*
X85684999Y-85535795D02*
X85589761Y-85440557D01*
X85589761Y-85440557D02*
X85446904Y-85392938D01*
X85446904Y-85392938D02*
X85351666Y-85392938D01*
X85351666Y-85392938D02*
X85208809Y-85440557D01*
X85208809Y-85440557D02*
X85161190Y-85488176D01*
X84018332Y-85488176D02*
X83970713Y-85440557D01*
X83970713Y-85440557D02*
X83875475Y-85392938D01*
X83875475Y-85392938D02*
X83637380Y-85392938D01*
X83637380Y-85392938D02*
X83542142Y-85440557D01*
X83542142Y-85440557D02*
X83494523Y-85488176D01*
X83494523Y-85488176D02*
X83446904Y-85583414D01*
X83446904Y-85583414D02*
X83446904Y-85678652D01*
X83446904Y-85678652D02*
X83494523Y-85821509D01*
X83494523Y-85821509D02*
X84065951Y-86392938D01*
X84065951Y-86392938D02*
X83446904Y-86392938D01*
X82827856Y-85392938D02*
X82732618Y-85392938D01*
X82732618Y-85392938D02*
X82637380Y-85440557D01*
X82637380Y-85440557D02*
X82589761Y-85488176D01*
X82589761Y-85488176D02*
X82542142Y-85583414D01*
X82542142Y-85583414D02*
X82494523Y-85773890D01*
X82494523Y-85773890D02*
X82494523Y-86011985D01*
X82494523Y-86011985D02*
X82542142Y-86202461D01*
X82542142Y-86202461D02*
X82589761Y-86297699D01*
X82589761Y-86297699D02*
X82637380Y-86345319D01*
X82637380Y-86345319D02*
X82732618Y-86392938D01*
X82732618Y-86392938D02*
X82827856Y-86392938D01*
X82827856Y-86392938D02*
X82923094Y-86345319D01*
X82923094Y-86345319D02*
X82970713Y-86297699D01*
X82970713Y-86297699D02*
X83018332Y-86202461D01*
X83018332Y-86202461D02*
X83065951Y-86011985D01*
X83065951Y-86011985D02*
X83065951Y-85773890D01*
X83065951Y-85773890D02*
X83018332Y-85583414D01*
X83018332Y-85583414D02*
X82970713Y-85488176D01*
X82970713Y-85488176D02*
X82923094Y-85440557D01*
X82923094Y-85440557D02*
X82827856Y-85392938D01*
X82113570Y-85488176D02*
X82065951Y-85440557D01*
X82065951Y-85440557D02*
X81970713Y-85392938D01*
X81970713Y-85392938D02*
X81732618Y-85392938D01*
X81732618Y-85392938D02*
X81637380Y-85440557D01*
X81637380Y-85440557D02*
X81589761Y-85488176D01*
X81589761Y-85488176D02*
X81542142Y-85583414D01*
X81542142Y-85583414D02*
X81542142Y-85678652D01*
X81542142Y-85678652D02*
X81589761Y-85821509D01*
X81589761Y-85821509D02*
X82161189Y-86392938D01*
X82161189Y-86392938D02*
X81542142Y-86392938D01*
X80684999Y-85392938D02*
X80875475Y-85392938D01*
X80875475Y-85392938D02*
X80970713Y-85440557D01*
X80970713Y-85440557D02*
X81018332Y-85488176D01*
X81018332Y-85488176D02*
X81113570Y-85631033D01*
X81113570Y-85631033D02*
X81161189Y-85821509D01*
X81161189Y-85821509D02*
X81161189Y-86202461D01*
X81161189Y-86202461D02*
X81113570Y-86297699D01*
X81113570Y-86297699D02*
X81065951Y-86345319D01*
X81065951Y-86345319D02*
X80970713Y-86392938D01*
X80970713Y-86392938D02*
X80780237Y-86392938D01*
X80780237Y-86392938D02*
X80684999Y-86345319D01*
X80684999Y-86345319D02*
X80637380Y-86297699D01*
X80637380Y-86297699D02*
X80589761Y-86202461D01*
X80589761Y-86202461D02*
X80589761Y-85964366D01*
X80589761Y-85964366D02*
X80637380Y-85869128D01*
X80637380Y-85869128D02*
X80684999Y-85821509D01*
X80684999Y-85821509D02*
X80780237Y-85773890D01*
X80780237Y-85773890D02*
X80970713Y-85773890D01*
X80970713Y-85773890D02*
X81065951Y-85821509D01*
X81065951Y-85821509D02*
X81113570Y-85869128D01*
X81113570Y-85869128D02*
X81161189Y-85964366D01*
X79399284Y-86011985D02*
X78637380Y-86011985D01*
X77446903Y-86345319D02*
X77304046Y-86392938D01*
X77304046Y-86392938D02*
X77065951Y-86392938D01*
X77065951Y-86392938D02*
X76970713Y-86345319D01*
X76970713Y-86345319D02*
X76923094Y-86297699D01*
X76923094Y-86297699D02*
X76875475Y-86202461D01*
X76875475Y-86202461D02*
X76875475Y-86107223D01*
X76875475Y-86107223D02*
X76923094Y-86011985D01*
X76923094Y-86011985D02*
X76970713Y-85964366D01*
X76970713Y-85964366D02*
X77065951Y-85916747D01*
X77065951Y-85916747D02*
X77256427Y-85869128D01*
X77256427Y-85869128D02*
X77351665Y-85821509D01*
X77351665Y-85821509D02*
X77399284Y-85773890D01*
X77399284Y-85773890D02*
X77446903Y-85678652D01*
X77446903Y-85678652D02*
X77446903Y-85583414D01*
X77446903Y-85583414D02*
X77399284Y-85488176D01*
X77399284Y-85488176D02*
X77351665Y-85440557D01*
X77351665Y-85440557D02*
X77256427Y-85392938D01*
X77256427Y-85392938D02*
X77018332Y-85392938D01*
X77018332Y-85392938D02*
X76875475Y-85440557D01*
X76446903Y-86392938D02*
X76446903Y-85392938D01*
X75399285Y-86297699D02*
X75446904Y-86345319D01*
X75446904Y-86345319D02*
X75589761Y-86392938D01*
X75589761Y-86392938D02*
X75684999Y-86392938D01*
X75684999Y-86392938D02*
X75827856Y-86345319D01*
X75827856Y-86345319D02*
X75923094Y-86250080D01*
X75923094Y-86250080D02*
X75970713Y-86154842D01*
X75970713Y-86154842D02*
X76018332Y-85964366D01*
X76018332Y-85964366D02*
X76018332Y-85821509D01*
X76018332Y-85821509D02*
X75970713Y-85631033D01*
X75970713Y-85631033D02*
X75923094Y-85535795D01*
X75923094Y-85535795D02*
X75827856Y-85440557D01*
X75827856Y-85440557D02*
X75684999Y-85392938D01*
X75684999Y-85392938D02*
X75589761Y-85392938D01*
X75589761Y-85392938D02*
X75446904Y-85440557D01*
X75446904Y-85440557D02*
X75399285Y-85488176D01*
X74208808Y-86392938D02*
X74208808Y-85392938D01*
X73589761Y-86392938D02*
X73684999Y-86345319D01*
X73684999Y-86345319D02*
X73732618Y-86297699D01*
X73732618Y-86297699D02*
X73780237Y-86202461D01*
X73780237Y-86202461D02*
X73780237Y-85916747D01*
X73780237Y-85916747D02*
X73732618Y-85821509D01*
X73732618Y-85821509D02*
X73684999Y-85773890D01*
X73684999Y-85773890D02*
X73589761Y-85726271D01*
X73589761Y-85726271D02*
X73446904Y-85726271D01*
X73446904Y-85726271D02*
X73351666Y-85773890D01*
X73351666Y-85773890D02*
X73304047Y-85821509D01*
X73304047Y-85821509D02*
X73256428Y-85916747D01*
X73256428Y-85916747D02*
X73256428Y-86202461D01*
X73256428Y-86202461D02*
X73304047Y-86297699D01*
X73304047Y-86297699D02*
X73351666Y-86345319D01*
X73351666Y-86345319D02*
X73446904Y-86392938D01*
X73446904Y-86392938D02*
X73589761Y-86392938D01*
X72970713Y-85392938D02*
X72399285Y-85392938D01*
X72684999Y-86392938D02*
X72684999Y-85392938D01*
X70780237Y-86392938D02*
X71351665Y-86392938D01*
X71065951Y-86392938D02*
X71065951Y-85392938D01*
X71065951Y-85392938D02*
X71161189Y-85535795D01*
X71161189Y-85535795D02*
X71256427Y-85631033D01*
X71256427Y-85631033D02*
X71351665Y-85678652D01*
D10*
X68200000Y-82520000D02*
X69300000Y-82520000D01*
X69700000Y-82520000D02*
X69720000Y-82520000D01*
X70120000Y-82520000D02*
X71220000Y-82520000D01*
X71620000Y-82520000D02*
X71640000Y-82520000D01*
X72040000Y-82520000D02*
X73140000Y-82520000D01*
X73540000Y-82520000D02*
X73560000Y-82520000D01*
X73960000Y-82520000D02*
X75060000Y-82520000D01*
X75460000Y-82520000D02*
X75480000Y-82520000D01*
X75880000Y-82520000D02*
X76980000Y-82520000D01*
X77380000Y-82520000D02*
X77400000Y-82520000D01*
X77800000Y-82520000D02*
X78900000Y-82520000D01*
X79300000Y-82520000D02*
X79320000Y-82520000D01*
X79720000Y-82520000D02*
X80820000Y-82520000D01*
X81220000Y-82520000D02*
X81240000Y-82520000D01*
X81640000Y-82520000D02*
X82740000Y-82520000D01*
X83140000Y-82520000D02*
X83160000Y-82520000D01*
X83560000Y-82520000D02*
X84660000Y-82520000D01*
X85060000Y-82520000D02*
X85080000Y-82520000D01*
X85480000Y-82520000D02*
X86580000Y-82520000D01*
X86980000Y-82520000D02*
X87000000Y-82520000D01*
X87400000Y-82520000D02*
X88500000Y-82520000D01*
X88900000Y-82520000D02*
X88920000Y-82520000D01*
X89320000Y-82520000D02*
X90170000Y-82520000D01*
X90170000Y-82520000D02*
X90170000Y-83620000D01*
X90170000Y-84020000D02*
X90170000Y-84040000D01*
X90170000Y-84440000D02*
X90170000Y-85540000D01*
X90170000Y-85940000D02*
X90170000Y-85960000D01*
X90170000Y-86360000D02*
X90170000Y-87460000D01*
X90170000Y-87743694D02*
X89070000Y-87743694D01*
X88670000Y-87743694D02*
X88650000Y-87743694D01*
X88250000Y-87743694D02*
X87150000Y-87743694D01*
X86750000Y-87743694D02*
X86730000Y-87743694D01*
X86330000Y-87743694D02*
X85230000Y-87743694D01*
X84830000Y-87743694D02*
X84810000Y-87743694D01*
X84410000Y-87743694D02*
X83310000Y-87743694D01*
X82910000Y-87743694D02*
X82890000Y-87743694D01*
X82490000Y-87743694D02*
X81390000Y-87743694D01*
X80990000Y-87743694D02*
X80970000Y-87743694D01*
X80570000Y-87743694D02*
X79470000Y-87743694D01*
X79070000Y-87743694D02*
X79050000Y-87743694D01*
X78650000Y-87743694D02*
X77550000Y-87743694D01*
X77150000Y-87743694D02*
X77130000Y-87743694D01*
X76730000Y-87743694D02*
X75630000Y-87743694D01*
X75230000Y-87743694D02*
X75210000Y-87743694D01*
X74810000Y-87743694D02*
X73710000Y-87743694D01*
X73310000Y-87743694D02*
X73290000Y-87743694D01*
X72890000Y-87743694D02*
X71790000Y-87743694D01*
X71390000Y-87743694D02*
X71370000Y-87743694D01*
X70970000Y-87743694D02*
X69870000Y-87743694D01*
X69470000Y-87743694D02*
X69450000Y-87743694D01*
X69050000Y-87743694D02*
X68200000Y-87743694D01*
X68200000Y-87743694D02*
X68200000Y-86643694D01*
X68200000Y-86243694D02*
X68200000Y-86223694D01*
X68200000Y-85823694D02*
X68200000Y-84723694D01*
X68200000Y-84323694D02*
X68200000Y-84303694D01*
X68200000Y-83903694D02*
X68200000Y-82803694D01*
D11*
X130956666Y-116226119D02*
X131289999Y-115749928D01*
X131528094Y-116226119D02*
X131528094Y-115226119D01*
X131528094Y-115226119D02*
X131147142Y-115226119D01*
X131147142Y-115226119D02*
X131051904Y-115273738D01*
X131051904Y-115273738D02*
X131004285Y-115321357D01*
X131004285Y-115321357D02*
X130956666Y-115416595D01*
X130956666Y-115416595D02*
X130956666Y-115559452D01*
X130956666Y-115559452D02*
X131004285Y-115654690D01*
X131004285Y-115654690D02*
X131051904Y-115702309D01*
X131051904Y-115702309D02*
X131147142Y-115749928D01*
X131147142Y-115749928D02*
X131528094Y-115749928D01*
X130623332Y-115226119D02*
X130004285Y-115226119D01*
X130004285Y-115226119D02*
X130337618Y-115607071D01*
X130337618Y-115607071D02*
X130194761Y-115607071D01*
X130194761Y-115607071D02*
X130099523Y-115654690D01*
X130099523Y-115654690D02*
X130051904Y-115702309D01*
X130051904Y-115702309D02*
X130004285Y-115797547D01*
X130004285Y-115797547D02*
X130004285Y-116035642D01*
X130004285Y-116035642D02*
X130051904Y-116130880D01*
X130051904Y-116130880D02*
X130099523Y-116178500D01*
X130099523Y-116178500D02*
X130194761Y-116226119D01*
X130194761Y-116226119D02*
X130480475Y-116226119D01*
X130480475Y-116226119D02*
X130575713Y-116178500D01*
X130575713Y-116178500D02*
X130623332Y-116130880D01*
X120036119Y-84967142D02*
X119559928Y-84633809D01*
X120036119Y-84395714D02*
X119036119Y-84395714D01*
X119036119Y-84395714D02*
X119036119Y-84776666D01*
X119036119Y-84776666D02*
X119083738Y-84871904D01*
X119083738Y-84871904D02*
X119131357Y-84919523D01*
X119131357Y-84919523D02*
X119226595Y-84967142D01*
X119226595Y-84967142D02*
X119369452Y-84967142D01*
X119369452Y-84967142D02*
X119464690Y-84919523D01*
X119464690Y-84919523D02*
X119512309Y-84871904D01*
X119512309Y-84871904D02*
X119559928Y-84776666D01*
X119559928Y-84776666D02*
X119559928Y-84395714D01*
X119036119Y-85871904D02*
X119036119Y-85395714D01*
X119036119Y-85395714D02*
X119512309Y-85348095D01*
X119512309Y-85348095D02*
X119464690Y-85395714D01*
X119464690Y-85395714D02*
X119417071Y-85490952D01*
X119417071Y-85490952D02*
X119417071Y-85729047D01*
X119417071Y-85729047D02*
X119464690Y-85824285D01*
X119464690Y-85824285D02*
X119512309Y-85871904D01*
X119512309Y-85871904D02*
X119607547Y-85919523D01*
X119607547Y-85919523D02*
X119845642Y-85919523D01*
X119845642Y-85919523D02*
X119940880Y-85871904D01*
X119940880Y-85871904D02*
X119988500Y-85824285D01*
X119988500Y-85824285D02*
X120036119Y-85729047D01*
X120036119Y-85729047D02*
X120036119Y-85490952D01*
X120036119Y-85490952D02*
X119988500Y-85395714D01*
X119988500Y-85395714D02*
X119940880Y-85348095D01*
X119036119Y-86252857D02*
X119036119Y-86919523D01*
X119036119Y-86919523D02*
X120036119Y-86490952D01*
X104892857Y-117690880D02*
X104940476Y-117738500D01*
X104940476Y-117738500D02*
X105083333Y-117786119D01*
X105083333Y-117786119D02*
X105178571Y-117786119D01*
X105178571Y-117786119D02*
X105321428Y-117738500D01*
X105321428Y-117738500D02*
X105416666Y-117643261D01*
X105416666Y-117643261D02*
X105464285Y-117548023D01*
X105464285Y-117548023D02*
X105511904Y-117357547D01*
X105511904Y-117357547D02*
X105511904Y-117214690D01*
X105511904Y-117214690D02*
X105464285Y-117024214D01*
X105464285Y-117024214D02*
X105416666Y-116928976D01*
X105416666Y-116928976D02*
X105321428Y-116833738D01*
X105321428Y-116833738D02*
X105178571Y-116786119D01*
X105178571Y-116786119D02*
X105083333Y-116786119D01*
X105083333Y-116786119D02*
X104940476Y-116833738D01*
X104940476Y-116833738D02*
X104892857Y-116881357D01*
X103988095Y-116786119D02*
X104464285Y-116786119D01*
X104464285Y-116786119D02*
X104511904Y-117262309D01*
X104511904Y-117262309D02*
X104464285Y-117214690D01*
X104464285Y-117214690D02*
X104369047Y-117167071D01*
X104369047Y-117167071D02*
X104130952Y-117167071D01*
X104130952Y-117167071D02*
X104035714Y-117214690D01*
X104035714Y-117214690D02*
X103988095Y-117262309D01*
X103988095Y-117262309D02*
X103940476Y-117357547D01*
X103940476Y-117357547D02*
X103940476Y-117595642D01*
X103940476Y-117595642D02*
X103988095Y-117690880D01*
X103988095Y-117690880D02*
X104035714Y-117738500D01*
X104035714Y-117738500D02*
X104130952Y-117786119D01*
X104130952Y-117786119D02*
X104369047Y-117786119D01*
X104369047Y-117786119D02*
X104464285Y-117738500D01*
X104464285Y-117738500D02*
X104511904Y-117690880D01*
X103083333Y-116786119D02*
X103273809Y-116786119D01*
X103273809Y-116786119D02*
X103369047Y-116833738D01*
X103369047Y-116833738D02*
X103416666Y-116881357D01*
X103416666Y-116881357D02*
X103511904Y-117024214D01*
X103511904Y-117024214D02*
X103559523Y-117214690D01*
X103559523Y-117214690D02*
X103559523Y-117595642D01*
X103559523Y-117595642D02*
X103511904Y-117690880D01*
X103511904Y-117690880D02*
X103464285Y-117738500D01*
X103464285Y-117738500D02*
X103369047Y-117786119D01*
X103369047Y-117786119D02*
X103178571Y-117786119D01*
X103178571Y-117786119D02*
X103083333Y-117738500D01*
X103083333Y-117738500D02*
X103035714Y-117690880D01*
X103035714Y-117690880D02*
X102988095Y-117595642D01*
X102988095Y-117595642D02*
X102988095Y-117357547D01*
X102988095Y-117357547D02*
X103035714Y-117262309D01*
X103035714Y-117262309D02*
X103083333Y-117214690D01*
X103083333Y-117214690D02*
X103178571Y-117167071D01*
X103178571Y-117167071D02*
X103369047Y-117167071D01*
X103369047Y-117167071D02*
X103464285Y-117214690D01*
X103464285Y-117214690D02*
X103511904Y-117262309D01*
X103511904Y-117262309D02*
X103559523Y-117357547D01*
X100746666Y-89266119D02*
X101079999Y-88789928D01*
X101318094Y-89266119D02*
X101318094Y-88266119D01*
X101318094Y-88266119D02*
X100937142Y-88266119D01*
X100937142Y-88266119D02*
X100841904Y-88313738D01*
X100841904Y-88313738D02*
X100794285Y-88361357D01*
X100794285Y-88361357D02*
X100746666Y-88456595D01*
X100746666Y-88456595D02*
X100746666Y-88599452D01*
X100746666Y-88599452D02*
X100794285Y-88694690D01*
X100794285Y-88694690D02*
X100841904Y-88742309D01*
X100841904Y-88742309D02*
X100937142Y-88789928D01*
X100937142Y-88789928D02*
X101318094Y-88789928D01*
X100175237Y-88694690D02*
X100270475Y-88647071D01*
X100270475Y-88647071D02*
X100318094Y-88599452D01*
X100318094Y-88599452D02*
X100365713Y-88504214D01*
X100365713Y-88504214D02*
X100365713Y-88456595D01*
X100365713Y-88456595D02*
X100318094Y-88361357D01*
X100318094Y-88361357D02*
X100270475Y-88313738D01*
X100270475Y-88313738D02*
X100175237Y-88266119D01*
X100175237Y-88266119D02*
X99984761Y-88266119D01*
X99984761Y-88266119D02*
X99889523Y-88313738D01*
X99889523Y-88313738D02*
X99841904Y-88361357D01*
X99841904Y-88361357D02*
X99794285Y-88456595D01*
X99794285Y-88456595D02*
X99794285Y-88504214D01*
X99794285Y-88504214D02*
X99841904Y-88599452D01*
X99841904Y-88599452D02*
X99889523Y-88647071D01*
X99889523Y-88647071D02*
X99984761Y-88694690D01*
X99984761Y-88694690D02*
X100175237Y-88694690D01*
X100175237Y-88694690D02*
X100270475Y-88742309D01*
X100270475Y-88742309D02*
X100318094Y-88789928D01*
X100318094Y-88789928D02*
X100365713Y-88885166D01*
X100365713Y-88885166D02*
X100365713Y-89075642D01*
X100365713Y-89075642D02*
X100318094Y-89170880D01*
X100318094Y-89170880D02*
X100270475Y-89218500D01*
X100270475Y-89218500D02*
X100175237Y-89266119D01*
X100175237Y-89266119D02*
X99984761Y-89266119D01*
X99984761Y-89266119D02*
X99889523Y-89218500D01*
X99889523Y-89218500D02*
X99841904Y-89170880D01*
X99841904Y-89170880D02*
X99794285Y-89075642D01*
X99794285Y-89075642D02*
X99794285Y-88885166D01*
X99794285Y-88885166D02*
X99841904Y-88789928D01*
X99841904Y-88789928D02*
X99889523Y-88742309D01*
X99889523Y-88742309D02*
X99984761Y-88694690D01*
X142946119Y-89127142D02*
X142469928Y-88793809D01*
X142946119Y-88555714D02*
X141946119Y-88555714D01*
X141946119Y-88555714D02*
X141946119Y-88936666D01*
X141946119Y-88936666D02*
X141993738Y-89031904D01*
X141993738Y-89031904D02*
X142041357Y-89079523D01*
X142041357Y-89079523D02*
X142136595Y-89127142D01*
X142136595Y-89127142D02*
X142279452Y-89127142D01*
X142279452Y-89127142D02*
X142374690Y-89079523D01*
X142374690Y-89079523D02*
X142422309Y-89031904D01*
X142422309Y-89031904D02*
X142469928Y-88936666D01*
X142469928Y-88936666D02*
X142469928Y-88555714D01*
X141946119Y-90031904D02*
X141946119Y-89555714D01*
X141946119Y-89555714D02*
X142422309Y-89508095D01*
X142422309Y-89508095D02*
X142374690Y-89555714D01*
X142374690Y-89555714D02*
X142327071Y-89650952D01*
X142327071Y-89650952D02*
X142327071Y-89889047D01*
X142327071Y-89889047D02*
X142374690Y-89984285D01*
X142374690Y-89984285D02*
X142422309Y-90031904D01*
X142422309Y-90031904D02*
X142517547Y-90079523D01*
X142517547Y-90079523D02*
X142755642Y-90079523D01*
X142755642Y-90079523D02*
X142850880Y-90031904D01*
X142850880Y-90031904D02*
X142898500Y-89984285D01*
X142898500Y-89984285D02*
X142946119Y-89889047D01*
X142946119Y-89889047D02*
X142946119Y-89650952D01*
X142946119Y-89650952D02*
X142898500Y-89555714D01*
X142898500Y-89555714D02*
X142850880Y-89508095D01*
X141946119Y-90936666D02*
X141946119Y-90746190D01*
X141946119Y-90746190D02*
X141993738Y-90650952D01*
X141993738Y-90650952D02*
X142041357Y-90603333D01*
X142041357Y-90603333D02*
X142184214Y-90508095D01*
X142184214Y-90508095D02*
X142374690Y-90460476D01*
X142374690Y-90460476D02*
X142755642Y-90460476D01*
X142755642Y-90460476D02*
X142850880Y-90508095D01*
X142850880Y-90508095D02*
X142898500Y-90555714D01*
X142898500Y-90555714D02*
X142946119Y-90650952D01*
X142946119Y-90650952D02*
X142946119Y-90841428D01*
X142946119Y-90841428D02*
X142898500Y-90936666D01*
X142898500Y-90936666D02*
X142850880Y-90984285D01*
X142850880Y-90984285D02*
X142755642Y-91031904D01*
X142755642Y-91031904D02*
X142517547Y-91031904D01*
X142517547Y-91031904D02*
X142422309Y-90984285D01*
X142422309Y-90984285D02*
X142374690Y-90936666D01*
X142374690Y-90936666D02*
X142327071Y-90841428D01*
X142327071Y-90841428D02*
X142327071Y-90650952D01*
X142327071Y-90650952D02*
X142374690Y-90555714D01*
X142374690Y-90555714D02*
X142422309Y-90508095D01*
X142422309Y-90508095D02*
X142517547Y-90460476D01*
X138150880Y-85337142D02*
X138198500Y-85289523D01*
X138198500Y-85289523D02*
X138246119Y-85146666D01*
X138246119Y-85146666D02*
X138246119Y-85051428D01*
X138246119Y-85051428D02*
X138198500Y-84908571D01*
X138198500Y-84908571D02*
X138103261Y-84813333D01*
X138103261Y-84813333D02*
X138008023Y-84765714D01*
X138008023Y-84765714D02*
X137817547Y-84718095D01*
X137817547Y-84718095D02*
X137674690Y-84718095D01*
X137674690Y-84718095D02*
X137484214Y-84765714D01*
X137484214Y-84765714D02*
X137388976Y-84813333D01*
X137388976Y-84813333D02*
X137293738Y-84908571D01*
X137293738Y-84908571D02*
X137246119Y-85051428D01*
X137246119Y-85051428D02*
X137246119Y-85146666D01*
X137246119Y-85146666D02*
X137293738Y-85289523D01*
X137293738Y-85289523D02*
X137341357Y-85337142D01*
X137246119Y-86241904D02*
X137246119Y-85765714D01*
X137246119Y-85765714D02*
X137722309Y-85718095D01*
X137722309Y-85718095D02*
X137674690Y-85765714D01*
X137674690Y-85765714D02*
X137627071Y-85860952D01*
X137627071Y-85860952D02*
X137627071Y-86099047D01*
X137627071Y-86099047D02*
X137674690Y-86194285D01*
X137674690Y-86194285D02*
X137722309Y-86241904D01*
X137722309Y-86241904D02*
X137817547Y-86289523D01*
X137817547Y-86289523D02*
X138055642Y-86289523D01*
X138055642Y-86289523D02*
X138150880Y-86241904D01*
X138150880Y-86241904D02*
X138198500Y-86194285D01*
X138198500Y-86194285D02*
X138246119Y-86099047D01*
X138246119Y-86099047D02*
X138246119Y-85860952D01*
X138246119Y-85860952D02*
X138198500Y-85765714D01*
X138198500Y-85765714D02*
X138150880Y-85718095D01*
X138246119Y-87241904D02*
X138246119Y-86670476D01*
X138246119Y-86956190D02*
X137246119Y-86956190D01*
X137246119Y-86956190D02*
X137388976Y-86860952D01*
X137388976Y-86860952D02*
X137484214Y-86765714D01*
X137484214Y-86765714D02*
X137531833Y-86670476D01*
X114518500Y-94975714D02*
X114566119Y-95118571D01*
X114566119Y-95118571D02*
X114566119Y-95356666D01*
X114566119Y-95356666D02*
X114518500Y-95451904D01*
X114518500Y-95451904D02*
X114470880Y-95499523D01*
X114470880Y-95499523D02*
X114375642Y-95547142D01*
X114375642Y-95547142D02*
X114280404Y-95547142D01*
X114280404Y-95547142D02*
X114185166Y-95499523D01*
X114185166Y-95499523D02*
X114137547Y-95451904D01*
X114137547Y-95451904D02*
X114089928Y-95356666D01*
X114089928Y-95356666D02*
X114042309Y-95166190D01*
X114042309Y-95166190D02*
X113994690Y-95070952D01*
X113994690Y-95070952D02*
X113947071Y-95023333D01*
X113947071Y-95023333D02*
X113851833Y-94975714D01*
X113851833Y-94975714D02*
X113756595Y-94975714D01*
X113756595Y-94975714D02*
X113661357Y-95023333D01*
X113661357Y-95023333D02*
X113613738Y-95070952D01*
X113613738Y-95070952D02*
X113566119Y-95166190D01*
X113566119Y-95166190D02*
X113566119Y-95404285D01*
X113566119Y-95404285D02*
X113613738Y-95547142D01*
X114566119Y-95975714D02*
X113566119Y-95975714D01*
X113566119Y-95975714D02*
X114566119Y-96547142D01*
X114566119Y-96547142D02*
X113566119Y-96547142D01*
X113566119Y-97451904D02*
X113566119Y-97261428D01*
X113566119Y-97261428D02*
X113613738Y-97166190D01*
X113613738Y-97166190D02*
X113661357Y-97118571D01*
X113661357Y-97118571D02*
X113804214Y-97023333D01*
X113804214Y-97023333D02*
X113994690Y-96975714D01*
X113994690Y-96975714D02*
X114375642Y-96975714D01*
X114375642Y-96975714D02*
X114470880Y-97023333D01*
X114470880Y-97023333D02*
X114518500Y-97070952D01*
X114518500Y-97070952D02*
X114566119Y-97166190D01*
X114566119Y-97166190D02*
X114566119Y-97356666D01*
X114566119Y-97356666D02*
X114518500Y-97451904D01*
X114518500Y-97451904D02*
X114470880Y-97499523D01*
X114470880Y-97499523D02*
X114375642Y-97547142D01*
X114375642Y-97547142D02*
X114137547Y-97547142D01*
X114137547Y-97547142D02*
X114042309Y-97499523D01*
X114042309Y-97499523D02*
X113994690Y-97451904D01*
X113994690Y-97451904D02*
X113947071Y-97356666D01*
X113947071Y-97356666D02*
X113947071Y-97166190D01*
X113947071Y-97166190D02*
X113994690Y-97070952D01*
X113994690Y-97070952D02*
X114042309Y-97023333D01*
X114042309Y-97023333D02*
X114137547Y-96975714D01*
X113566119Y-98451904D02*
X113566119Y-97975714D01*
X113566119Y-97975714D02*
X114042309Y-97928095D01*
X114042309Y-97928095D02*
X113994690Y-97975714D01*
X113994690Y-97975714D02*
X113947071Y-98070952D01*
X113947071Y-98070952D02*
X113947071Y-98309047D01*
X113947071Y-98309047D02*
X113994690Y-98404285D01*
X113994690Y-98404285D02*
X114042309Y-98451904D01*
X114042309Y-98451904D02*
X114137547Y-98499523D01*
X114137547Y-98499523D02*
X114375642Y-98499523D01*
X114375642Y-98499523D02*
X114470880Y-98451904D01*
X114470880Y-98451904D02*
X114518500Y-98404285D01*
X114518500Y-98404285D02*
X114566119Y-98309047D01*
X114566119Y-98309047D02*
X114566119Y-98070952D01*
X114566119Y-98070952D02*
X114518500Y-97975714D01*
X114518500Y-97975714D02*
X114470880Y-97928095D01*
X114566119Y-98928095D02*
X113566119Y-98928095D01*
X114042309Y-98928095D02*
X114042309Y-99499523D01*
X114566119Y-99499523D02*
X113566119Y-99499523D01*
X113566119Y-99832857D02*
X114566119Y-100166190D01*
X114566119Y-100166190D02*
X113566119Y-100499523D01*
X114566119Y-100832857D02*
X113566119Y-100832857D01*
X113566119Y-100832857D02*
X113566119Y-101070952D01*
X113566119Y-101070952D02*
X113613738Y-101213809D01*
X113613738Y-101213809D02*
X113708976Y-101309047D01*
X113708976Y-101309047D02*
X113804214Y-101356666D01*
X113804214Y-101356666D02*
X113994690Y-101404285D01*
X113994690Y-101404285D02*
X114137547Y-101404285D01*
X114137547Y-101404285D02*
X114328023Y-101356666D01*
X114328023Y-101356666D02*
X114423261Y-101309047D01*
X114423261Y-101309047D02*
X114518500Y-101213809D01*
X114518500Y-101213809D02*
X114566119Y-101070952D01*
X114566119Y-101070952D02*
X114566119Y-100832857D01*
X96866666Y-118676119D02*
X97199999Y-118199928D01*
X97438094Y-118676119D02*
X97438094Y-117676119D01*
X97438094Y-117676119D02*
X97057142Y-117676119D01*
X97057142Y-117676119D02*
X96961904Y-117723738D01*
X96961904Y-117723738D02*
X96914285Y-117771357D01*
X96914285Y-117771357D02*
X96866666Y-117866595D01*
X96866666Y-117866595D02*
X96866666Y-118009452D01*
X96866666Y-118009452D02*
X96914285Y-118104690D01*
X96914285Y-118104690D02*
X96961904Y-118152309D01*
X96961904Y-118152309D02*
X97057142Y-118199928D01*
X97057142Y-118199928D02*
X97438094Y-118199928D01*
X96009523Y-117676119D02*
X96199999Y-117676119D01*
X96199999Y-117676119D02*
X96295237Y-117723738D01*
X96295237Y-117723738D02*
X96342856Y-117771357D01*
X96342856Y-117771357D02*
X96438094Y-117914214D01*
X96438094Y-117914214D02*
X96485713Y-118104690D01*
X96485713Y-118104690D02*
X96485713Y-118485642D01*
X96485713Y-118485642D02*
X96438094Y-118580880D01*
X96438094Y-118580880D02*
X96390475Y-118628500D01*
X96390475Y-118628500D02*
X96295237Y-118676119D01*
X96295237Y-118676119D02*
X96104761Y-118676119D01*
X96104761Y-118676119D02*
X96009523Y-118628500D01*
X96009523Y-118628500D02*
X95961904Y-118580880D01*
X95961904Y-118580880D02*
X95914285Y-118485642D01*
X95914285Y-118485642D02*
X95914285Y-118247547D01*
X95914285Y-118247547D02*
X95961904Y-118152309D01*
X95961904Y-118152309D02*
X96009523Y-118104690D01*
X96009523Y-118104690D02*
X96104761Y-118057071D01*
X96104761Y-118057071D02*
X96295237Y-118057071D01*
X96295237Y-118057071D02*
X96390475Y-118104690D01*
X96390475Y-118104690D02*
X96438094Y-118152309D01*
X96438094Y-118152309D02*
X96485713Y-118247547D01*
X105396119Y-101228095D02*
X106205642Y-101228095D01*
X106205642Y-101228095D02*
X106300880Y-101275714D01*
X106300880Y-101275714D02*
X106348500Y-101323333D01*
X106348500Y-101323333D02*
X106396119Y-101418571D01*
X106396119Y-101418571D02*
X106396119Y-101609047D01*
X106396119Y-101609047D02*
X106348500Y-101704285D01*
X106348500Y-101704285D02*
X106300880Y-101751904D01*
X106300880Y-101751904D02*
X106205642Y-101799523D01*
X106205642Y-101799523D02*
X105396119Y-101799523D01*
X106396119Y-102799523D02*
X106396119Y-102228095D01*
X106396119Y-102513809D02*
X105396119Y-102513809D01*
X105396119Y-102513809D02*
X105538976Y-102418571D01*
X105538976Y-102418571D02*
X105634214Y-102323333D01*
X105634214Y-102323333D02*
X105681833Y-102228095D01*
X97868094Y-84376119D02*
X97868094Y-83376119D01*
X97868094Y-83376119D02*
X97629999Y-83376119D01*
X97629999Y-83376119D02*
X97487142Y-83423738D01*
X97487142Y-83423738D02*
X97391904Y-83518976D01*
X97391904Y-83518976D02*
X97344285Y-83614214D01*
X97344285Y-83614214D02*
X97296666Y-83804690D01*
X97296666Y-83804690D02*
X97296666Y-83947547D01*
X97296666Y-83947547D02*
X97344285Y-84138023D01*
X97344285Y-84138023D02*
X97391904Y-84233261D01*
X97391904Y-84233261D02*
X97487142Y-84328500D01*
X97487142Y-84328500D02*
X97629999Y-84376119D01*
X97629999Y-84376119D02*
X97868094Y-84376119D01*
X96344285Y-84376119D02*
X96915713Y-84376119D01*
X96629999Y-84376119D02*
X96629999Y-83376119D01*
X96629999Y-83376119D02*
X96725237Y-83518976D01*
X96725237Y-83518976D02*
X96820475Y-83614214D01*
X96820475Y-83614214D02*
X96915713Y-83661833D01*
X128370880Y-96477142D02*
X128418500Y-96429523D01*
X128418500Y-96429523D02*
X128466119Y-96286666D01*
X128466119Y-96286666D02*
X128466119Y-96191428D01*
X128466119Y-96191428D02*
X128418500Y-96048571D01*
X128418500Y-96048571D02*
X128323261Y-95953333D01*
X128323261Y-95953333D02*
X128228023Y-95905714D01*
X128228023Y-95905714D02*
X128037547Y-95858095D01*
X128037547Y-95858095D02*
X127894690Y-95858095D01*
X127894690Y-95858095D02*
X127704214Y-95905714D01*
X127704214Y-95905714D02*
X127608976Y-95953333D01*
X127608976Y-95953333D02*
X127513738Y-96048571D01*
X127513738Y-96048571D02*
X127466119Y-96191428D01*
X127466119Y-96191428D02*
X127466119Y-96286666D01*
X127466119Y-96286666D02*
X127513738Y-96429523D01*
X127513738Y-96429523D02*
X127561357Y-96477142D01*
X127466119Y-97381904D02*
X127466119Y-96905714D01*
X127466119Y-96905714D02*
X127942309Y-96858095D01*
X127942309Y-96858095D02*
X127894690Y-96905714D01*
X127894690Y-96905714D02*
X127847071Y-97000952D01*
X127847071Y-97000952D02*
X127847071Y-97239047D01*
X127847071Y-97239047D02*
X127894690Y-97334285D01*
X127894690Y-97334285D02*
X127942309Y-97381904D01*
X127942309Y-97381904D02*
X128037547Y-97429523D01*
X128037547Y-97429523D02*
X128275642Y-97429523D01*
X128275642Y-97429523D02*
X128370880Y-97381904D01*
X128370880Y-97381904D02*
X128418500Y-97334285D01*
X128418500Y-97334285D02*
X128466119Y-97239047D01*
X128466119Y-97239047D02*
X128466119Y-97000952D01*
X128466119Y-97000952D02*
X128418500Y-96905714D01*
X128418500Y-96905714D02*
X128370880Y-96858095D01*
X127466119Y-98334285D02*
X127466119Y-97858095D01*
X127466119Y-97858095D02*
X127942309Y-97810476D01*
X127942309Y-97810476D02*
X127894690Y-97858095D01*
X127894690Y-97858095D02*
X127847071Y-97953333D01*
X127847071Y-97953333D02*
X127847071Y-98191428D01*
X127847071Y-98191428D02*
X127894690Y-98286666D01*
X127894690Y-98286666D02*
X127942309Y-98334285D01*
X127942309Y-98334285D02*
X128037547Y-98381904D01*
X128037547Y-98381904D02*
X128275642Y-98381904D01*
X128275642Y-98381904D02*
X128370880Y-98334285D01*
X128370880Y-98334285D02*
X128418500Y-98286666D01*
X128418500Y-98286666D02*
X128466119Y-98191428D01*
X128466119Y-98191428D02*
X128466119Y-97953333D01*
X128466119Y-97953333D02*
X128418500Y-97858095D01*
X128418500Y-97858095D02*
X128370880Y-97810476D01*
X93002857Y-116180880D02*
X93050476Y-116228500D01*
X93050476Y-116228500D02*
X93193333Y-116276119D01*
X93193333Y-116276119D02*
X93288571Y-116276119D01*
X93288571Y-116276119D02*
X93431428Y-116228500D01*
X93431428Y-116228500D02*
X93526666Y-116133261D01*
X93526666Y-116133261D02*
X93574285Y-116038023D01*
X93574285Y-116038023D02*
X93621904Y-115847547D01*
X93621904Y-115847547D02*
X93621904Y-115704690D01*
X93621904Y-115704690D02*
X93574285Y-115514214D01*
X93574285Y-115514214D02*
X93526666Y-115418976D01*
X93526666Y-115418976D02*
X93431428Y-115323738D01*
X93431428Y-115323738D02*
X93288571Y-115276119D01*
X93288571Y-115276119D02*
X93193333Y-115276119D01*
X93193333Y-115276119D02*
X93050476Y-115323738D01*
X93050476Y-115323738D02*
X93002857Y-115371357D01*
X92145714Y-115609452D02*
X92145714Y-116276119D01*
X92383809Y-115228500D02*
X92621904Y-115942785D01*
X92621904Y-115942785D02*
X92002857Y-115942785D01*
X91574285Y-116276119D02*
X91383809Y-116276119D01*
X91383809Y-116276119D02*
X91288571Y-116228500D01*
X91288571Y-116228500D02*
X91240952Y-116180880D01*
X91240952Y-116180880D02*
X91145714Y-116038023D01*
X91145714Y-116038023D02*
X91098095Y-115847547D01*
X91098095Y-115847547D02*
X91098095Y-115466595D01*
X91098095Y-115466595D02*
X91145714Y-115371357D01*
X91145714Y-115371357D02*
X91193333Y-115323738D01*
X91193333Y-115323738D02*
X91288571Y-115276119D01*
X91288571Y-115276119D02*
X91479047Y-115276119D01*
X91479047Y-115276119D02*
X91574285Y-115323738D01*
X91574285Y-115323738D02*
X91621904Y-115371357D01*
X91621904Y-115371357D02*
X91669523Y-115466595D01*
X91669523Y-115466595D02*
X91669523Y-115704690D01*
X91669523Y-115704690D02*
X91621904Y-115799928D01*
X91621904Y-115799928D02*
X91574285Y-115847547D01*
X91574285Y-115847547D02*
X91479047Y-115895166D01*
X91479047Y-115895166D02*
X91288571Y-115895166D01*
X91288571Y-115895166D02*
X91193333Y-115847547D01*
X91193333Y-115847547D02*
X91145714Y-115799928D01*
X91145714Y-115799928D02*
X91098095Y-115704690D01*
X130976666Y-110740880D02*
X131024285Y-110788500D01*
X131024285Y-110788500D02*
X131167142Y-110836119D01*
X131167142Y-110836119D02*
X131262380Y-110836119D01*
X131262380Y-110836119D02*
X131405237Y-110788500D01*
X131405237Y-110788500D02*
X131500475Y-110693261D01*
X131500475Y-110693261D02*
X131548094Y-110598023D01*
X131548094Y-110598023D02*
X131595713Y-110407547D01*
X131595713Y-110407547D02*
X131595713Y-110264690D01*
X131595713Y-110264690D02*
X131548094Y-110074214D01*
X131548094Y-110074214D02*
X131500475Y-109978976D01*
X131500475Y-109978976D02*
X131405237Y-109883738D01*
X131405237Y-109883738D02*
X131262380Y-109836119D01*
X131262380Y-109836119D02*
X131167142Y-109836119D01*
X131167142Y-109836119D02*
X131024285Y-109883738D01*
X131024285Y-109883738D02*
X130976666Y-109931357D01*
X130643332Y-109836119D02*
X130024285Y-109836119D01*
X130024285Y-109836119D02*
X130357618Y-110217071D01*
X130357618Y-110217071D02*
X130214761Y-110217071D01*
X130214761Y-110217071D02*
X130119523Y-110264690D01*
X130119523Y-110264690D02*
X130071904Y-110312309D01*
X130071904Y-110312309D02*
X130024285Y-110407547D01*
X130024285Y-110407547D02*
X130024285Y-110645642D01*
X130024285Y-110645642D02*
X130071904Y-110740880D01*
X130071904Y-110740880D02*
X130119523Y-110788500D01*
X130119523Y-110788500D02*
X130214761Y-110836119D01*
X130214761Y-110836119D02*
X130500475Y-110836119D01*
X130500475Y-110836119D02*
X130595713Y-110788500D01*
X130595713Y-110788500D02*
X130643332Y-110740880D01*
X104842857Y-114550880D02*
X104890476Y-114598500D01*
X104890476Y-114598500D02*
X105033333Y-114646119D01*
X105033333Y-114646119D02*
X105128571Y-114646119D01*
X105128571Y-114646119D02*
X105271428Y-114598500D01*
X105271428Y-114598500D02*
X105366666Y-114503261D01*
X105366666Y-114503261D02*
X105414285Y-114408023D01*
X105414285Y-114408023D02*
X105461904Y-114217547D01*
X105461904Y-114217547D02*
X105461904Y-114074690D01*
X105461904Y-114074690D02*
X105414285Y-113884214D01*
X105414285Y-113884214D02*
X105366666Y-113788976D01*
X105366666Y-113788976D02*
X105271428Y-113693738D01*
X105271428Y-113693738D02*
X105128571Y-113646119D01*
X105128571Y-113646119D02*
X105033333Y-113646119D01*
X105033333Y-113646119D02*
X104890476Y-113693738D01*
X104890476Y-113693738D02*
X104842857Y-113741357D01*
X103938095Y-113646119D02*
X104414285Y-113646119D01*
X104414285Y-113646119D02*
X104461904Y-114122309D01*
X104461904Y-114122309D02*
X104414285Y-114074690D01*
X104414285Y-114074690D02*
X104319047Y-114027071D01*
X104319047Y-114027071D02*
X104080952Y-114027071D01*
X104080952Y-114027071D02*
X103985714Y-114074690D01*
X103985714Y-114074690D02*
X103938095Y-114122309D01*
X103938095Y-114122309D02*
X103890476Y-114217547D01*
X103890476Y-114217547D02*
X103890476Y-114455642D01*
X103890476Y-114455642D02*
X103938095Y-114550880D01*
X103938095Y-114550880D02*
X103985714Y-114598500D01*
X103985714Y-114598500D02*
X104080952Y-114646119D01*
X104080952Y-114646119D02*
X104319047Y-114646119D01*
X104319047Y-114646119D02*
X104414285Y-114598500D01*
X104414285Y-114598500D02*
X104461904Y-114550880D01*
X103509523Y-113741357D02*
X103461904Y-113693738D01*
X103461904Y-113693738D02*
X103366666Y-113646119D01*
X103366666Y-113646119D02*
X103128571Y-113646119D01*
X103128571Y-113646119D02*
X103033333Y-113693738D01*
X103033333Y-113693738D02*
X102985714Y-113741357D01*
X102985714Y-113741357D02*
X102938095Y-113836595D01*
X102938095Y-113836595D02*
X102938095Y-113931833D01*
X102938095Y-113931833D02*
X102985714Y-114074690D01*
X102985714Y-114074690D02*
X103557142Y-114646119D01*
X103557142Y-114646119D02*
X102938095Y-114646119D01*
X128470880Y-99827142D02*
X128518500Y-99779523D01*
X128518500Y-99779523D02*
X128566119Y-99636666D01*
X128566119Y-99636666D02*
X128566119Y-99541428D01*
X128566119Y-99541428D02*
X128518500Y-99398571D01*
X128518500Y-99398571D02*
X128423261Y-99303333D01*
X128423261Y-99303333D02*
X128328023Y-99255714D01*
X128328023Y-99255714D02*
X128137547Y-99208095D01*
X128137547Y-99208095D02*
X127994690Y-99208095D01*
X127994690Y-99208095D02*
X127804214Y-99255714D01*
X127804214Y-99255714D02*
X127708976Y-99303333D01*
X127708976Y-99303333D02*
X127613738Y-99398571D01*
X127613738Y-99398571D02*
X127566119Y-99541428D01*
X127566119Y-99541428D02*
X127566119Y-99636666D01*
X127566119Y-99636666D02*
X127613738Y-99779523D01*
X127613738Y-99779523D02*
X127661357Y-99827142D01*
X127566119Y-100731904D02*
X127566119Y-100255714D01*
X127566119Y-100255714D02*
X128042309Y-100208095D01*
X128042309Y-100208095D02*
X127994690Y-100255714D01*
X127994690Y-100255714D02*
X127947071Y-100350952D01*
X127947071Y-100350952D02*
X127947071Y-100589047D01*
X127947071Y-100589047D02*
X127994690Y-100684285D01*
X127994690Y-100684285D02*
X128042309Y-100731904D01*
X128042309Y-100731904D02*
X128137547Y-100779523D01*
X128137547Y-100779523D02*
X128375642Y-100779523D01*
X128375642Y-100779523D02*
X128470880Y-100731904D01*
X128470880Y-100731904D02*
X128518500Y-100684285D01*
X128518500Y-100684285D02*
X128566119Y-100589047D01*
X128566119Y-100589047D02*
X128566119Y-100350952D01*
X128566119Y-100350952D02*
X128518500Y-100255714D01*
X128518500Y-100255714D02*
X128470880Y-100208095D01*
X127566119Y-101112857D02*
X127566119Y-101731904D01*
X127566119Y-101731904D02*
X127947071Y-101398571D01*
X127947071Y-101398571D02*
X127947071Y-101541428D01*
X127947071Y-101541428D02*
X127994690Y-101636666D01*
X127994690Y-101636666D02*
X128042309Y-101684285D01*
X128042309Y-101684285D02*
X128137547Y-101731904D01*
X128137547Y-101731904D02*
X128375642Y-101731904D01*
X128375642Y-101731904D02*
X128470880Y-101684285D01*
X128470880Y-101684285D02*
X128518500Y-101636666D01*
X128518500Y-101636666D02*
X128566119Y-101541428D01*
X128566119Y-101541428D02*
X128566119Y-101255714D01*
X128566119Y-101255714D02*
X128518500Y-101160476D01*
X128518500Y-101160476D02*
X128470880Y-101112857D01*
X104842857Y-111620880D02*
X104890476Y-111668500D01*
X104890476Y-111668500D02*
X105033333Y-111716119D01*
X105033333Y-111716119D02*
X105128571Y-111716119D01*
X105128571Y-111716119D02*
X105271428Y-111668500D01*
X105271428Y-111668500D02*
X105366666Y-111573261D01*
X105366666Y-111573261D02*
X105414285Y-111478023D01*
X105414285Y-111478023D02*
X105461904Y-111287547D01*
X105461904Y-111287547D02*
X105461904Y-111144690D01*
X105461904Y-111144690D02*
X105414285Y-110954214D01*
X105414285Y-110954214D02*
X105366666Y-110858976D01*
X105366666Y-110858976D02*
X105271428Y-110763738D01*
X105271428Y-110763738D02*
X105128571Y-110716119D01*
X105128571Y-110716119D02*
X105033333Y-110716119D01*
X105033333Y-110716119D02*
X104890476Y-110763738D01*
X104890476Y-110763738D02*
X104842857Y-110811357D01*
X103890476Y-111716119D02*
X104461904Y-111716119D01*
X104176190Y-111716119D02*
X104176190Y-110716119D01*
X104176190Y-110716119D02*
X104271428Y-110858976D01*
X104271428Y-110858976D02*
X104366666Y-110954214D01*
X104366666Y-110954214D02*
X104461904Y-111001833D01*
X102985714Y-110716119D02*
X103461904Y-110716119D01*
X103461904Y-110716119D02*
X103509523Y-111192309D01*
X103509523Y-111192309D02*
X103461904Y-111144690D01*
X103461904Y-111144690D02*
X103366666Y-111097071D01*
X103366666Y-111097071D02*
X103128571Y-111097071D01*
X103128571Y-111097071D02*
X103033333Y-111144690D01*
X103033333Y-111144690D02*
X102985714Y-111192309D01*
X102985714Y-111192309D02*
X102938095Y-111287547D01*
X102938095Y-111287547D02*
X102938095Y-111525642D01*
X102938095Y-111525642D02*
X102985714Y-111620880D01*
X102985714Y-111620880D02*
X103033333Y-111668500D01*
X103033333Y-111668500D02*
X103128571Y-111716119D01*
X103128571Y-111716119D02*
X103366666Y-111716119D01*
X103366666Y-111716119D02*
X103461904Y-111668500D01*
X103461904Y-111668500D02*
X103509523Y-111620880D01*
X84282857Y-121300880D02*
X84330476Y-121348500D01*
X84330476Y-121348500D02*
X84473333Y-121396119D01*
X84473333Y-121396119D02*
X84568571Y-121396119D01*
X84568571Y-121396119D02*
X84711428Y-121348500D01*
X84711428Y-121348500D02*
X84806666Y-121253261D01*
X84806666Y-121253261D02*
X84854285Y-121158023D01*
X84854285Y-121158023D02*
X84901904Y-120967547D01*
X84901904Y-120967547D02*
X84901904Y-120824690D01*
X84901904Y-120824690D02*
X84854285Y-120634214D01*
X84854285Y-120634214D02*
X84806666Y-120538976D01*
X84806666Y-120538976D02*
X84711428Y-120443738D01*
X84711428Y-120443738D02*
X84568571Y-120396119D01*
X84568571Y-120396119D02*
X84473333Y-120396119D01*
X84473333Y-120396119D02*
X84330476Y-120443738D01*
X84330476Y-120443738D02*
X84282857Y-120491357D01*
X83378095Y-120396119D02*
X83854285Y-120396119D01*
X83854285Y-120396119D02*
X83901904Y-120872309D01*
X83901904Y-120872309D02*
X83854285Y-120824690D01*
X83854285Y-120824690D02*
X83759047Y-120777071D01*
X83759047Y-120777071D02*
X83520952Y-120777071D01*
X83520952Y-120777071D02*
X83425714Y-120824690D01*
X83425714Y-120824690D02*
X83378095Y-120872309D01*
X83378095Y-120872309D02*
X83330476Y-120967547D01*
X83330476Y-120967547D02*
X83330476Y-121205642D01*
X83330476Y-121205642D02*
X83378095Y-121300880D01*
X83378095Y-121300880D02*
X83425714Y-121348500D01*
X83425714Y-121348500D02*
X83520952Y-121396119D01*
X83520952Y-121396119D02*
X83759047Y-121396119D01*
X83759047Y-121396119D02*
X83854285Y-121348500D01*
X83854285Y-121348500D02*
X83901904Y-121300880D01*
X82711428Y-120396119D02*
X82616190Y-120396119D01*
X82616190Y-120396119D02*
X82520952Y-120443738D01*
X82520952Y-120443738D02*
X82473333Y-120491357D01*
X82473333Y-120491357D02*
X82425714Y-120586595D01*
X82425714Y-120586595D02*
X82378095Y-120777071D01*
X82378095Y-120777071D02*
X82378095Y-121015166D01*
X82378095Y-121015166D02*
X82425714Y-121205642D01*
X82425714Y-121205642D02*
X82473333Y-121300880D01*
X82473333Y-121300880D02*
X82520952Y-121348500D01*
X82520952Y-121348500D02*
X82616190Y-121396119D01*
X82616190Y-121396119D02*
X82711428Y-121396119D01*
X82711428Y-121396119D02*
X82806666Y-121348500D01*
X82806666Y-121348500D02*
X82854285Y-121300880D01*
X82854285Y-121300880D02*
X82901904Y-121205642D01*
X82901904Y-121205642D02*
X82949523Y-121015166D01*
X82949523Y-121015166D02*
X82949523Y-120777071D01*
X82949523Y-120777071D02*
X82901904Y-120586595D01*
X82901904Y-120586595D02*
X82854285Y-120491357D01*
X82854285Y-120491357D02*
X82806666Y-120443738D01*
X82806666Y-120443738D02*
X82711428Y-120396119D01*
X141076119Y-89307142D02*
X140599928Y-88973809D01*
X141076119Y-88735714D02*
X140076119Y-88735714D01*
X140076119Y-88735714D02*
X140076119Y-89116666D01*
X140076119Y-89116666D02*
X140123738Y-89211904D01*
X140123738Y-89211904D02*
X140171357Y-89259523D01*
X140171357Y-89259523D02*
X140266595Y-89307142D01*
X140266595Y-89307142D02*
X140409452Y-89307142D01*
X140409452Y-89307142D02*
X140504690Y-89259523D01*
X140504690Y-89259523D02*
X140552309Y-89211904D01*
X140552309Y-89211904D02*
X140599928Y-89116666D01*
X140599928Y-89116666D02*
X140599928Y-88735714D01*
X140076119Y-90211904D02*
X140076119Y-89735714D01*
X140076119Y-89735714D02*
X140552309Y-89688095D01*
X140552309Y-89688095D02*
X140504690Y-89735714D01*
X140504690Y-89735714D02*
X140457071Y-89830952D01*
X140457071Y-89830952D02*
X140457071Y-90069047D01*
X140457071Y-90069047D02*
X140504690Y-90164285D01*
X140504690Y-90164285D02*
X140552309Y-90211904D01*
X140552309Y-90211904D02*
X140647547Y-90259523D01*
X140647547Y-90259523D02*
X140885642Y-90259523D01*
X140885642Y-90259523D02*
X140980880Y-90211904D01*
X140980880Y-90211904D02*
X141028500Y-90164285D01*
X141028500Y-90164285D02*
X141076119Y-90069047D01*
X141076119Y-90069047D02*
X141076119Y-89830952D01*
X141076119Y-89830952D02*
X141028500Y-89735714D01*
X141028500Y-89735714D02*
X140980880Y-89688095D01*
X140171357Y-90640476D02*
X140123738Y-90688095D01*
X140123738Y-90688095D02*
X140076119Y-90783333D01*
X140076119Y-90783333D02*
X140076119Y-91021428D01*
X140076119Y-91021428D02*
X140123738Y-91116666D01*
X140123738Y-91116666D02*
X140171357Y-91164285D01*
X140171357Y-91164285D02*
X140266595Y-91211904D01*
X140266595Y-91211904D02*
X140361833Y-91211904D01*
X140361833Y-91211904D02*
X140504690Y-91164285D01*
X140504690Y-91164285D02*
X141076119Y-90592857D01*
X141076119Y-90592857D02*
X141076119Y-91211904D01*
X102100880Y-119777142D02*
X102148500Y-119729523D01*
X102148500Y-119729523D02*
X102196119Y-119586666D01*
X102196119Y-119586666D02*
X102196119Y-119491428D01*
X102196119Y-119491428D02*
X102148500Y-119348571D01*
X102148500Y-119348571D02*
X102053261Y-119253333D01*
X102053261Y-119253333D02*
X101958023Y-119205714D01*
X101958023Y-119205714D02*
X101767547Y-119158095D01*
X101767547Y-119158095D02*
X101624690Y-119158095D01*
X101624690Y-119158095D02*
X101434214Y-119205714D01*
X101434214Y-119205714D02*
X101338976Y-119253333D01*
X101338976Y-119253333D02*
X101243738Y-119348571D01*
X101243738Y-119348571D02*
X101196119Y-119491428D01*
X101196119Y-119491428D02*
X101196119Y-119586666D01*
X101196119Y-119586666D02*
X101243738Y-119729523D01*
X101243738Y-119729523D02*
X101291357Y-119777142D01*
X101196119Y-120681904D02*
X101196119Y-120205714D01*
X101196119Y-120205714D02*
X101672309Y-120158095D01*
X101672309Y-120158095D02*
X101624690Y-120205714D01*
X101624690Y-120205714D02*
X101577071Y-120300952D01*
X101577071Y-120300952D02*
X101577071Y-120539047D01*
X101577071Y-120539047D02*
X101624690Y-120634285D01*
X101624690Y-120634285D02*
X101672309Y-120681904D01*
X101672309Y-120681904D02*
X101767547Y-120729523D01*
X101767547Y-120729523D02*
X102005642Y-120729523D01*
X102005642Y-120729523D02*
X102100880Y-120681904D01*
X102100880Y-120681904D02*
X102148500Y-120634285D01*
X102148500Y-120634285D02*
X102196119Y-120539047D01*
X102196119Y-120539047D02*
X102196119Y-120300952D01*
X102196119Y-120300952D02*
X102148500Y-120205714D01*
X102148500Y-120205714D02*
X102100880Y-120158095D01*
X101196119Y-121062857D02*
X101196119Y-121729523D01*
X101196119Y-121729523D02*
X102196119Y-121300952D01*
X100336666Y-90676119D02*
X100669999Y-90199928D01*
X100908094Y-90676119D02*
X100908094Y-89676119D01*
X100908094Y-89676119D02*
X100527142Y-89676119D01*
X100527142Y-89676119D02*
X100431904Y-89723738D01*
X100431904Y-89723738D02*
X100384285Y-89771357D01*
X100384285Y-89771357D02*
X100336666Y-89866595D01*
X100336666Y-89866595D02*
X100336666Y-90009452D01*
X100336666Y-90009452D02*
X100384285Y-90104690D01*
X100384285Y-90104690D02*
X100431904Y-90152309D01*
X100431904Y-90152309D02*
X100527142Y-90199928D01*
X100527142Y-90199928D02*
X100908094Y-90199928D01*
X99860475Y-90676119D02*
X99669999Y-90676119D01*
X99669999Y-90676119D02*
X99574761Y-90628500D01*
X99574761Y-90628500D02*
X99527142Y-90580880D01*
X99527142Y-90580880D02*
X99431904Y-90438023D01*
X99431904Y-90438023D02*
X99384285Y-90247547D01*
X99384285Y-90247547D02*
X99384285Y-89866595D01*
X99384285Y-89866595D02*
X99431904Y-89771357D01*
X99431904Y-89771357D02*
X99479523Y-89723738D01*
X99479523Y-89723738D02*
X99574761Y-89676119D01*
X99574761Y-89676119D02*
X99765237Y-89676119D01*
X99765237Y-89676119D02*
X99860475Y-89723738D01*
X99860475Y-89723738D02*
X99908094Y-89771357D01*
X99908094Y-89771357D02*
X99955713Y-89866595D01*
X99955713Y-89866595D02*
X99955713Y-90104690D01*
X99955713Y-90104690D02*
X99908094Y-90199928D01*
X99908094Y-90199928D02*
X99860475Y-90247547D01*
X99860475Y-90247547D02*
X99765237Y-90295166D01*
X99765237Y-90295166D02*
X99574761Y-90295166D01*
X99574761Y-90295166D02*
X99479523Y-90247547D01*
X99479523Y-90247547D02*
X99431904Y-90199928D01*
X99431904Y-90199928D02*
X99384285Y-90104690D01*
%TO.C,R3*%
D12*
X130562936Y-113385000D02*
X131017064Y-113385000D01*
X130562936Y-114855000D02*
X131017064Y-114855000D01*
%TO.C,R57*%
X116795000Y-85412936D02*
X116795000Y-85867064D01*
X118265000Y-85412936D02*
X118265000Y-85867064D01*
%TO.C,C56*%
X100817064Y-116635000D02*
X100362936Y-116635000D01*
X100817064Y-118105000D02*
X100362936Y-118105000D01*
%TO.C,R8*%
X102917064Y-86645000D02*
X102462936Y-86645000D01*
X102917064Y-88115000D02*
X102462936Y-88115000D01*
%TO.C,R56*%
X140855000Y-93277064D02*
X140855000Y-92822936D01*
X142325000Y-93277064D02*
X142325000Y-92822936D01*
%TO.C,C51*%
X138405000Y-88767064D02*
X138405000Y-88312936D01*
X139875000Y-88767064D02*
X139875000Y-88312936D01*
%TO.C,SN65HVD*%
X116302500Y-96140000D02*
X116302500Y-100260000D01*
X116302500Y-100260000D02*
X116397500Y-100260000D01*
X116397500Y-96140000D02*
X116302500Y-96140000D01*
X121327500Y-100260000D02*
X121422500Y-100260000D01*
X121422500Y-96140000D02*
X121327500Y-96140000D01*
X121422500Y-100260000D02*
X121422500Y-96140000D01*
X121332500Y-100800000D02*
X121662500Y-101040000D01*
X121662500Y-100560000D01*
X121332500Y-100800000D01*
G36*
X121662500Y-101040000D02*
G01*
X121332500Y-100800000D01*
X121662500Y-100560000D01*
X121662500Y-101040000D01*
G37*
%TO.C,R6*%
X95945000Y-120292936D02*
X95945000Y-120747064D01*
X97415000Y-120292936D02*
X97415000Y-120747064D01*
%TO.C,U1*%
X107420000Y-103520000D02*
X108420000Y-103520000D01*
X107420000Y-104300000D02*
X107420000Y-103520000D01*
X107420000Y-129260000D02*
X107420000Y-123100000D01*
X107420000Y-129260000D02*
X125660000Y-129260000D01*
X125660000Y-103520000D02*
X124660000Y-103520000D01*
X125660000Y-104300000D02*
X125660000Y-103520000D01*
X125660000Y-129260000D02*
X125660000Y-122845000D01*
X107415000Y-122375000D02*
X106915000Y-122375000D01*
X107415000Y-122875000D01*
X107415000Y-122375000D01*
G36*
X107415000Y-122875000D02*
G01*
X106915000Y-122375000D01*
X107415000Y-122375000D01*
X107415000Y-122875000D01*
G37*
%TO.C,D1*%
X107197500Y-82160000D02*
X100187500Y-82160000D01*
X107197500Y-82160000D02*
X107197500Y-85460000D01*
X107197500Y-85460000D02*
X100187500Y-85460000D01*
%TO.C,C55*%
X125287064Y-97295000D02*
X124832936Y-97295000D01*
X125287064Y-98765000D02*
X124832936Y-98765000D01*
%TO.C,C49*%
X91665000Y-119492936D02*
X91665000Y-119947064D01*
X93135000Y-119492936D02*
X93135000Y-119947064D01*
%TO.C,C3*%
X131037064Y-111295000D02*
X130582936Y-111295000D01*
X131037064Y-112765000D02*
X130582936Y-112765000D01*
%TO.C,C52*%
X100817064Y-113485000D02*
X100362936Y-113485000D01*
X100817064Y-114955000D02*
X100362936Y-114955000D01*
%TO.C,C53*%
X125307064Y-99765000D02*
X124852936Y-99765000D01*
X125307064Y-101235000D02*
X124852936Y-101235000D01*
%TO.C,C15*%
X100777064Y-110465000D02*
X100322936Y-110465000D01*
X100777064Y-111935000D02*
X100322936Y-111935000D01*
%TO.C,C54*%
X100767064Y-107535000D02*
X100312936Y-107535000D01*
X100767064Y-109005000D02*
X100312936Y-109005000D01*
%TO.C,C50*%
X86195000Y-122232936D02*
X86195000Y-122687064D01*
X87665000Y-122232936D02*
X87665000Y-122687064D01*
%TO.C,R52*%
X138355000Y-93387064D02*
X138355000Y-92932936D01*
X139825000Y-93387064D02*
X139825000Y-92932936D01*
%TO.C,C57*%
X98965000Y-120707064D02*
X98965000Y-120252936D01*
X100435000Y-120707064D02*
X100435000Y-120252936D01*
%TO.C,R9*%
X102452936Y-89495000D02*
X102907064Y-89495000D01*
X102452936Y-90965000D02*
X102907064Y-90965000D01*
%TD*%
M02*
