%TF.GenerationSoftware,KiCad,Pcbnew,10.0.5*%
%TF.CreationDate,2026-08-05T14:59:35+07:00*%
%TF.ProjectId,extned_board,6578746e-6564-45f6-926f-6172642e6b69,rev?*%
%TF.SameCoordinates,Original*%
%TF.FileFunction,Paste,Bot*%
%TF.FilePolarity,Positive*%
%FSLAX46Y46*%
G04 Gerber Fmt 4.6, Leading zero omitted, Abs format (unit mm)*
G04 Created by KiCad (PCBNEW 10.0.5) date 2026-08-05 14:59:35*
%MOMM*%
%LPD*%
G01*
G04 APERTURE LIST*
G04 Aperture macros list*
%AMRoundRect*
0 Rectangle with rounded corners*
0 $1 Rounding radius*
0 $2 $3 $4 $5 $6 $7 $8 $9 X,Y pos of 4 corners*
0 Add a 4 corners polygon primitive as box body*
4,1,4,$2,$3,$4,$5,$6,$7,$8,$9,$2,$3,0*
0 Add four circle primitives for the rounded corners*
1,1,$1+$1,$2,$3*
1,1,$1+$1,$4,$5*
1,1,$1+$1,$6,$7*
1,1,$1+$1,$8,$9*
0 Add four rect primitives between the rounded corners*
20,1,$1+$1,$2,$3,$4,$5,0*
20,1,$1+$1,$4,$5,$6,$7,0*
20,1,$1+$1,$6,$7,$8,$9,0*
20,1,$1+$1,$8,$9,$2,$3,0*%
G04 Aperture macros list end*
%ADD10O,2.641600X1.320800*%
%ADD11RoundRect,0.250000X0.450000X-0.350000X0.450000X0.350000X-0.450000X0.350000X-0.450000X-0.350000X0*%
%ADD12RoundRect,0.250000X-0.350000X-0.450000X0.350000X-0.450000X0.350000X0.450000X-0.350000X0.450000X0*%
%ADD13RoundRect,0.250000X0.650000X-1.500000X0.650000X1.500000X-0.650000X1.500000X-0.650000X-1.500000X0*%
%ADD14RoundRect,0.150000X0.587500X0.150000X-0.587500X0.150000X-0.587500X-0.150000X0.587500X-0.150000X0*%
%ADD15RoundRect,0.250000X0.350000X0.450000X-0.350000X0.450000X-0.350000X-0.450000X0.350000X-0.450000X0*%
%ADD16RoundRect,0.250000X-0.450000X0.350000X-0.450000X-0.350000X0.450000X-0.350000X0.450000X0.350000X0*%
G04 APERTURE END LIST*
D10*
%TO.C,U11*%
X222150001Y-58230000D03*
X222150001Y-60770000D03*
X231549999Y-60770000D03*
X231549999Y-58230000D03*
%TD*%
D11*
%TO.C,R31*%
X218820000Y-76000000D03*
X218820000Y-74000000D03*
%TD*%
D12*
%TO.C,C30*%
X247200000Y-66050000D03*
X249200000Y-66050000D03*
%TD*%
D13*
%TO.C,D12*%
X200100000Y-130000000D03*
X200100000Y-125000000D03*
%TD*%
D10*
%TO.C,U10*%
X231250000Y-46730000D03*
X231250000Y-49270000D03*
X221850000Y-49270000D03*
X221850000Y-46730000D03*
%TD*%
D13*
%TO.C,D15*%
X200100000Y-114500000D03*
X200100000Y-109500000D03*
%TD*%
D10*
%TO.C,U6*%
X231799999Y-86971961D03*
X231799999Y-89511961D03*
X222400001Y-89511961D03*
X222400001Y-86971961D03*
%TD*%
D14*
%TO.C,Q5*%
X217087500Y-105046606D03*
X217087500Y-106946606D03*
X215212500Y-105996606D03*
%TD*%
D13*
%TO.C,D21*%
X199600000Y-48000000D03*
X199600000Y-43000000D03*
%TD*%
D10*
%TO.C,U7*%
X230700000Y-72570000D03*
X230700000Y-75110000D03*
X221300000Y-75110000D03*
X221300000Y-72570000D03*
%TD*%
D15*
%TO.C,R39*%
X218920000Y-57425490D03*
X216920000Y-57425490D03*
%TD*%
%TO.C,R27*%
X218920000Y-71790000D03*
X216920000Y-71790000D03*
%TD*%
D16*
%TO.C,C19*%
X256600000Y-102900000D03*
X256600000Y-104900000D03*
%TD*%
D14*
%TO.C,Q7*%
X216317500Y-48330000D03*
X216317500Y-50230000D03*
X214442500Y-49280000D03*
%TD*%
D12*
%TO.C,C29*%
X247150000Y-61050000D03*
X249150000Y-61050000D03*
%TD*%
D14*
%TO.C,Q4*%
X216287500Y-73980000D03*
X216287500Y-75880000D03*
X214412500Y-74930000D03*
%TD*%
D15*
%TO.C,R25*%
X219170000Y-125000000D03*
X217170000Y-125000000D03*
%TD*%
D10*
%TO.C,U5*%
X231799999Y-125730000D03*
X231799999Y-128270000D03*
X222400001Y-128270000D03*
X222400001Y-125730000D03*
%TD*%
D15*
%TO.C,R28*%
X219170000Y-102766606D03*
X217170000Y-102766606D03*
%TD*%
D11*
%TO.C,R32*%
X219070000Y-106916606D03*
X219070000Y-104916606D03*
%TD*%
D13*
%TO.C,D22*%
X199600000Y-64500000D03*
X199600000Y-59500000D03*
%TD*%
D15*
%TO.C,R26*%
X219170000Y-86136833D03*
X217170000Y-86136833D03*
%TD*%
D13*
%TO.C,D14*%
X199850000Y-80640000D03*
X199850000Y-75640000D03*
%TD*%
D16*
%TO.C,C32*%
X252900000Y-99250000D03*
X252900000Y-101250000D03*
%TD*%
D11*
%TO.C,R29*%
X219070000Y-129000000D03*
X219070000Y-127000000D03*
%TD*%
D13*
%TO.C,D13*%
X199850000Y-97640000D03*
X199850000Y-92640000D03*
%TD*%
D14*
%TO.C,Q3*%
X216737500Y-88506833D03*
X216737500Y-90406833D03*
X214862499Y-89456833D03*
%TD*%
D11*
%TO.C,R30*%
X219070000Y-90496833D03*
X219070000Y-88496833D03*
%TD*%
D14*
%TO.C,Q2*%
X217037500Y-127050000D03*
X217037500Y-128950000D03*
X215162499Y-128000000D03*
%TD*%
D10*
%TO.C,U8*%
X231500000Y-103546606D03*
X231500000Y-106086606D03*
X222100000Y-106086606D03*
X222100000Y-103546606D03*
%TD*%
D14*
%TO.C,Q8*%
X216562296Y-59553277D03*
X216562296Y-61453277D03*
X214687295Y-60503277D03*
%TD*%
D15*
%TO.C,R38*%
X218920000Y-45960000D03*
X216920000Y-45960000D03*
%TD*%
D11*
%TO.C,R42*%
X218820000Y-50100000D03*
X218820000Y-48100000D03*
%TD*%
%TO.C,R43*%
X218820000Y-61683277D03*
X218820000Y-59683277D03*
%TD*%
M02*
