%TF.GenerationSoftware,KiCad,Pcbnew,10.0.5*%
%TF.CreationDate,2026-08-05T14:59:35+07:00*%
%TF.ProjectId,extned_board,6578746e-6564-45f6-926f-6172642e6b69,rev?*%
%TF.SameCoordinates,Original*%
%TF.FileFunction,Paste,Top*%
%TF.FilePolarity,Positive*%
%FSLAX46Y46*%
G04 Gerber Fmt 4.6, Leading zero omitted, Abs format (unit mm)*
G04 Created by KiCad (PCBNEW 10.0.5) date 2026-08-05 14:59:35*
%MOMM*%
%LPD*%
G01*
G04 APERTURE LIST*
G04 Aperture macros list*
%AMRoundRect*
0 Rectangle with rounded corners*
0 $1 Rounding radius*
0 $2 $3 $4 $5 $6 $7 $8 $9 X,Y pos of 4 corners*
0 Add a 4 corners polygon primitive as box body*
4,1,4,$2,$3,$4,$5,$6,$7,$8,$9,$2,$3,0*
0 Add four circle primitives for the rounded corners*
1,1,$1+$1,$2,$3*
1,1,$1+$1,$4,$5*
1,1,$1+$1,$6,$7*
1,1,$1+$1,$8,$9*
0 Add four rect primitives between the rounded corners*
20,1,$1+$1,$2,$3,$4,$5,0*
20,1,$1+$1,$4,$5,$6,$7,0*
20,1,$1+$1,$6,$7,$8,$9,0*
20,1,$1+$1,$8,$9,$2,$3,0*%
%AMRotRect*
0 Rectangle, with rotation*
0 The origin of the aperture is its center*
0 $1 length*
0 $2 width*
0 $3 Rotation angle, in degrees counterclockwise*
0 Add horizontal line*
21,1,$1,$2,0,0,$3*%
G04 Aperture macros list end*
%ADD10RoundRect,0.250000X0.450000X-0.350000X0.450000X0.350000X-0.450000X0.350000X-0.450000X-0.350000X0*%
%ADD11RoundRect,0.250000X-0.070711X0.565685X-0.565685X0.070711X0.070711X-0.565685X0.565685X-0.070711X0*%
%ADD12RoundRect,0.250000X-0.450000X0.350000X-0.450000X-0.350000X0.450000X-0.350000X0.450000X0.350000X0*%
%ADD13RoundRect,0.250000X-0.350000X-0.450000X0.350000X-0.450000X0.350000X0.450000X-0.350000X0.450000X0*%
%ADD14RoundRect,0.250000X0.565685X0.070711X0.070711X0.565685X-0.565685X-0.070711X-0.070711X-0.565685X0*%
%ADD15RoundRect,0.250000X-0.325000X-0.450000X0.325000X-0.450000X0.325000X0.450000X-0.325000X0.450000X0*%
%ADD16RoundRect,0.250000X0.450000X-0.325000X0.450000X0.325000X-0.450000X0.325000X-0.450000X-0.325000X0*%
%ADD17RoundRect,0.250000X0.350000X0.450000X-0.350000X0.450000X-0.350000X-0.450000X0.350000X-0.450000X0*%
%ADD18RoundRect,0.250000X0.070711X-0.565685X0.565685X-0.070711X-0.070711X0.565685X-0.565685X0.070711X0*%
%ADD19RoundRect,0.250000X0.325000X0.450000X-0.325000X0.450000X-0.325000X-0.450000X0.325000X-0.450000X0*%
%ADD20RoundRect,0.375000X0.625000X0.375000X-0.625000X0.375000X-0.625000X-0.375000X0.625000X-0.375000X0*%
%ADD21RoundRect,0.500000X0.500000X1.400000X-0.500000X1.400000X-0.500000X-1.400000X0.500000X-1.400000X0*%
%ADD22RotRect,2.180000X1.600000X45.000000*%
%ADD23RoundRect,0.150000X0.150000X-0.825000X0.150000X0.825000X-0.150000X0.825000X-0.150000X-0.825000X0*%
%ADD24RoundRect,0.075000X0.415425X0.521491X-0.521491X-0.415425X-0.415425X-0.521491X0.521491X0.415425X0*%
%ADD25RoundRect,0.075000X-0.415425X0.521491X-0.521491X0.415425X0.415425X-0.521491X0.521491X-0.415425X0*%
%ADD26RotRect,2.269998X0.558000X225.000000*%
%ADD27RoundRect,0.150000X0.477297X0.689429X-0.689429X-0.477297X-0.477297X-0.689429X0.689429X0.477297X0*%
%ADD28RoundRect,0.060000X-0.890000X-0.180000X0.890000X-0.180000X0.890000X0.180000X-0.890000X0.180000X0*%
G04 APERTURE END LIST*
D10*
%TO.C,C42*%
X214550001Y-114550000D03*
X214550001Y-112550000D03*
%TD*%
%TO.C,C63*%
X255140000Y-111059998D03*
X255140000Y-109059998D03*
%TD*%
D11*
%TO.C,C33*%
X248757107Y-101342893D03*
X247342893Y-102757107D03*
%TD*%
D12*
%TO.C,C50*%
X257750000Y-53300000D03*
X257750000Y-55300000D03*
%TD*%
D13*
%TO.C,R34*%
X227300000Y-80250000D03*
X229300000Y-80250000D03*
%TD*%
%TO.C,R22*%
X227300000Y-91400000D03*
X229300000Y-91400000D03*
%TD*%
D12*
%TO.C,C36*%
X214733333Y-103950000D03*
X214733333Y-105950000D03*
%TD*%
D14*
%TO.C,C65*%
X248357107Y-118357107D03*
X246942893Y-116942893D03*
%TD*%
D12*
%TO.C,C39*%
X217350000Y-58800000D03*
X217350000Y-60800000D03*
%TD*%
D10*
%TO.C,C34*%
X211925000Y-90550000D03*
X211925000Y-88550000D03*
%TD*%
D15*
%TO.C,D17*%
X227275000Y-78008636D03*
X229325000Y-78008636D03*
%TD*%
D16*
%TO.C,D34*%
X246100000Y-79742499D03*
X246100000Y-77692501D03*
%TD*%
D10*
%TO.C,C41*%
X214123637Y-67250000D03*
X214123637Y-65250000D03*
%TD*%
D17*
%TO.C,C55*%
X256400000Y-63400000D03*
X254400000Y-63400000D03*
%TD*%
D13*
%TO.C,R80*%
X250250000Y-40500000D03*
X252250000Y-40500000D03*
%TD*%
D12*
%TO.C,R50*%
X212200000Y-53900000D03*
X212200000Y-55900000D03*
%TD*%
D18*
%TO.C,C61*%
X239366726Y-110880940D03*
X240780940Y-109466726D03*
%TD*%
D10*
%TO.C,C31*%
X226000000Y-41450000D03*
X226000000Y-39450000D03*
%TD*%
D17*
%TO.C,C52*%
X250000000Y-63450000D03*
X248000000Y-63450000D03*
%TD*%
%TO.C,C53*%
X250000000Y-60950000D03*
X248000000Y-60950000D03*
%TD*%
D12*
%TO.C,C49*%
X255449999Y-53300000D03*
X255449999Y-55300000D03*
%TD*%
D19*
%TO.C,D37*%
X256469999Y-69150000D03*
X254420001Y-69150000D03*
%TD*%
D13*
%TO.C,C59*%
X250956427Y-97587614D03*
X252956427Y-97587614D03*
%TD*%
%TO.C,C57*%
X253000000Y-76980000D03*
X255000000Y-76980000D03*
%TD*%
D17*
%TO.C,R75*%
X252946772Y-95289517D03*
X250946772Y-95289517D03*
%TD*%
%TO.C,R82*%
X256400000Y-72050000D03*
X254400000Y-72050000D03*
%TD*%
D10*
%TO.C,R66*%
X211985737Y-67250000D03*
X211985737Y-65250000D03*
%TD*%
D12*
%TO.C,C37*%
X212250000Y-58750000D03*
X212250000Y-60750000D03*
%TD*%
D14*
%TO.C,R1*%
X235607107Y-124007107D03*
X234192893Y-122592893D03*
%TD*%
D18*
%TO.C,C64*%
X237492893Y-109007107D03*
X238907107Y-107592893D03*
%TD*%
D13*
%TO.C,R24*%
X227245000Y-105424091D03*
X229245000Y-105424091D03*
%TD*%
D12*
%TO.C,R60*%
X212635737Y-76350000D03*
X212635737Y-78350000D03*
%TD*%
%TO.C,R59*%
X212685737Y-70000000D03*
X212685737Y-72000000D03*
%TD*%
%TO.C,C43*%
X211885737Y-80650000D03*
X211885737Y-82650000D03*
%TD*%
%TO.C,R48*%
X212650000Y-99600000D03*
X212650000Y-101600000D03*
%TD*%
%TO.C,R64*%
X209899999Y-112549999D03*
X209899999Y-114549999D03*
%TD*%
D15*
%TO.C,D18*%
X227275000Y-87150000D03*
X229325000Y-87150000D03*
%TD*%
D10*
%TO.C,R74*%
X240950000Y-55400000D03*
X240950000Y-53400000D03*
%TD*%
D15*
%TO.C,D36*%
X252975001Y-83600000D03*
X255024999Y-83600000D03*
%TD*%
D13*
%TO.C,R83*%
X255110000Y-95240000D03*
X257110000Y-95240000D03*
%TD*%
D12*
%TO.C,R78*%
X248450000Y-81550000D03*
X248450000Y-83550000D03*
%TD*%
%TO.C,R47*%
X212600000Y-93200000D03*
X212600000Y-95200000D03*
%TD*%
D13*
%TO.C,R81*%
X253000000Y-81100000D03*
X255000000Y-81100000D03*
%TD*%
D12*
%TO.C,C45*%
X251200000Y-69800000D03*
X251200000Y-71800000D03*
%TD*%
%TO.C,R55*%
X209800000Y-104000000D03*
X209800000Y-106000000D03*
%TD*%
D15*
%TO.C,D10*%
X227275000Y-93658637D03*
X229325000Y-93658637D03*
%TD*%
%TO.C,D8*%
X227225000Y-114950000D03*
X229275000Y-114950000D03*
%TD*%
D13*
%TO.C,R21*%
X227350000Y-99108637D03*
X229350000Y-99108637D03*
%TD*%
D12*
%TO.C,R61*%
X212800000Y-117150000D03*
X212800000Y-119150000D03*
%TD*%
D16*
%TO.C,D33*%
X248460000Y-79722499D03*
X248460000Y-77672501D03*
%TD*%
D12*
%TO.C,R52*%
X209200000Y-43450000D03*
X209200000Y-45450000D03*
%TD*%
D20*
%TO.C,U20*%
X251900000Y-58050000D03*
X251900000Y-55750000D03*
D21*
X245600000Y-55750000D03*
D20*
X251900000Y-53450000D03*
%TD*%
D17*
%TO.C,C40*%
X230100000Y-39300000D03*
X228100000Y-39300000D03*
%TD*%
D13*
%TO.C,R35*%
X227300000Y-84908636D03*
X229300000Y-84908636D03*
%TD*%
D10*
%TO.C,R70*%
X214435737Y-82650000D03*
X214435737Y-80650000D03*
%TD*%
D17*
%TO.C,C51*%
X250000000Y-66050000D03*
X248000000Y-66050000D03*
%TD*%
D10*
%TO.C,C62*%
X257350000Y-111050000D03*
X257350000Y-109050000D03*
%TD*%
%TO.C,R58*%
X209600000Y-60800000D03*
X209600000Y-58800000D03*
%TD*%
%TO.C,R54*%
X213650000Y-45450000D03*
X213650000Y-43450000D03*
%TD*%
D12*
%TO.C,R46*%
X243250000Y-53400000D03*
X243250000Y-55400000D03*
%TD*%
D17*
%TO.C,R65*%
X234650000Y-39350000D03*
X232650000Y-39350000D03*
%TD*%
D10*
%TO.C,R57*%
X212266667Y-105950000D03*
X212266667Y-103950000D03*
%TD*%
D22*
%TO.C,SW_RST_STM2*%
X239954380Y-99795620D03*
X246445620Y-93304380D03*
%TD*%
D12*
%TO.C,R69*%
X212350000Y-128600000D03*
X212350000Y-130600000D03*
%TD*%
D10*
%TO.C,C35*%
X211450000Y-45450000D03*
X211450000Y-43450000D03*
%TD*%
D15*
%TO.C,D38*%
X255075000Y-97700000D03*
X257125000Y-97700000D03*
%TD*%
D12*
%TO.C,R68*%
X209400000Y-80650000D03*
X209400000Y-82650000D03*
%TD*%
D15*
%TO.C,D9*%
X227325000Y-101350000D03*
X229375000Y-101350000D03*
%TD*%
D23*
%TO.C,U2*%
X230095000Y-46975000D03*
X231365000Y-46975000D03*
X232635000Y-46975000D03*
X233905000Y-46975000D03*
X233905000Y-42025000D03*
X232635000Y-42025000D03*
X231365000Y-42025000D03*
X230095000Y-42025000D03*
%TD*%
D15*
%TO.C,D11*%
X227225001Y-107750000D03*
X229274999Y-107750000D03*
%TD*%
D12*
%TO.C,R49*%
X212250000Y-48300000D03*
X212250000Y-50300000D03*
%TD*%
D24*
%TO.C,U13*%
X252287876Y-108551212D03*
X251934322Y-108197658D03*
X251580769Y-107844105D03*
X251227215Y-107490551D03*
X250873662Y-107136998D03*
X250520109Y-106783445D03*
X250166555Y-106429891D03*
X249813002Y-106076338D03*
X249459449Y-105722785D03*
X249105895Y-105369231D03*
X248752342Y-105015678D03*
X248398788Y-104662124D03*
D25*
X246401212Y-104662124D03*
X246047658Y-105015678D03*
X245694105Y-105369231D03*
X245340551Y-105722785D03*
X244986998Y-106076338D03*
X244633445Y-106429891D03*
X244279891Y-106783445D03*
X243926338Y-107136998D03*
X243572785Y-107490551D03*
X243219231Y-107844105D03*
X242865678Y-108197658D03*
X242512124Y-108551212D03*
D24*
X242512124Y-110548788D03*
X242865678Y-110902342D03*
X243219231Y-111255895D03*
X243572785Y-111609449D03*
X243926338Y-111963002D03*
X244279891Y-112316555D03*
X244633445Y-112670109D03*
X244986998Y-113023662D03*
X245340551Y-113377215D03*
X245694105Y-113730769D03*
X246047658Y-114084322D03*
X246401212Y-114437876D03*
D25*
X248398788Y-114437876D03*
X248752342Y-114084322D03*
X249105895Y-113730769D03*
X249459449Y-113377215D03*
X249813002Y-113023662D03*
X250166555Y-112670109D03*
X250520109Y-112316555D03*
X250873662Y-111963002D03*
X251227215Y-111609449D03*
X251580769Y-111255895D03*
X251934322Y-110902342D03*
X252287876Y-110548788D03*
%TD*%
D17*
%TO.C,R45*%
X246350000Y-69850000D03*
X244350000Y-69850000D03*
%TD*%
D26*
%TO.C,U16*%
X221552721Y-51241355D03*
X220654696Y-50343330D03*
X219756670Y-49445304D03*
X218858645Y-48547279D03*
X215447279Y-51958645D03*
X216345304Y-52856670D03*
X217243330Y-53754696D03*
X218141355Y-54652721D03*
%TD*%
D17*
%TO.C,C54*%
X256400000Y-61000000D03*
X254400000Y-61000000D03*
%TD*%
D12*
%TO.C,R77*%
X250650000Y-81550000D03*
X250650000Y-83550000D03*
%TD*%
D26*
%TO.C,U18*%
X221938458Y-73641355D03*
X221040433Y-72743330D03*
X220142407Y-71845304D03*
X219244382Y-70947279D03*
X215833016Y-74358645D03*
X216731041Y-75256670D03*
X217629067Y-76154696D03*
X218527092Y-77052721D03*
%TD*%
D27*
%TO.C,U3*%
X241647128Y-119046949D03*
X240749102Y-118148924D03*
X239851076Y-117250898D03*
X238953051Y-116352872D03*
X235452872Y-119853051D03*
X236350898Y-120751076D03*
X237248924Y-121649102D03*
X238146949Y-122547128D03*
%TD*%
D10*
%TO.C,R67*%
X212300000Y-114550000D03*
X212300000Y-112550000D03*
%TD*%
%TO.C,R71*%
X214750000Y-130600000D03*
X214750000Y-128600000D03*
%TD*%
D12*
%TO.C,R62*%
X212800000Y-123600000D03*
X212800000Y-125600000D03*
%TD*%
D26*
%TO.C,U15*%
X223102721Y-96841355D03*
X222204696Y-95943330D03*
X221306670Y-95045304D03*
X220408645Y-94147279D03*
X216997279Y-97558645D03*
X217895304Y-98456670D03*
X218793330Y-99354696D03*
X219691355Y-100252721D03*
%TD*%
D12*
%TO.C,R79*%
X246090000Y-81560000D03*
X246090000Y-83560000D03*
%TD*%
D17*
%TO.C,C56*%
X256400000Y-66050000D03*
X254400000Y-66050000D03*
%TD*%
D12*
%TO.C,C44*%
X209950000Y-128600000D03*
X209950000Y-130600000D03*
%TD*%
D13*
%TO.C,R23*%
X227250000Y-112450000D03*
X229250000Y-112450000D03*
%TD*%
D20*
%TO.C,U22*%
X257050000Y-91550000D03*
X257050000Y-89250000D03*
D21*
X250750000Y-89250000D03*
D20*
X257050000Y-86950000D03*
%TD*%
D16*
%TO.C,D32*%
X250680000Y-79694999D03*
X250680000Y-77645001D03*
%TD*%
D13*
%TO.C,C58*%
X253000000Y-79050000D03*
X255000000Y-79050000D03*
%TD*%
D28*
%TO.C,U14*%
X234095000Y-57375000D03*
X234095000Y-58025000D03*
X234095000Y-58675000D03*
X234095000Y-59325000D03*
X234095000Y-59975000D03*
X234095000Y-60625000D03*
X234095000Y-61275000D03*
X234095000Y-61925000D03*
X234095000Y-62575000D03*
X234095000Y-63225000D03*
X234095000Y-63875000D03*
X234095000Y-64525000D03*
X234095000Y-65175000D03*
X234095000Y-65825000D03*
X241105000Y-65825000D03*
X241105000Y-65175000D03*
X241105000Y-64525000D03*
X241105000Y-63875000D03*
X241105000Y-63225000D03*
X241105000Y-62575000D03*
X241105000Y-61925000D03*
X241105000Y-61275000D03*
X241105000Y-60625000D03*
X241105000Y-59975000D03*
X241105000Y-59325000D03*
X241105000Y-58675000D03*
X241105000Y-58025000D03*
X241105000Y-57375000D03*
%TD*%
D14*
%TO.C,C60*%
X246707107Y-119957107D03*
X245292893Y-118542893D03*
%TD*%
D19*
%TO.C,D35*%
X247774999Y-40500000D03*
X245725001Y-40500000D03*
%TD*%
D10*
%TO.C,R53*%
X214150000Y-90550000D03*
X214150000Y-88550000D03*
%TD*%
D12*
%TO.C,C47*%
X217335737Y-80700000D03*
X217335737Y-82700000D03*
%TD*%
%TO.C,C48*%
X217200000Y-128650000D03*
X217200000Y-130650000D03*
%TD*%
%TO.C,R63*%
X209744055Y-65270757D03*
X209744055Y-67270757D03*
%TD*%
%TO.C,R56*%
X214700000Y-58850000D03*
X214700000Y-60850000D03*
%TD*%
D26*
%TO.C,U19*%
X222552721Y-121091355D03*
X221654696Y-120193330D03*
X220756670Y-119295304D03*
X219858645Y-118397279D03*
X216447279Y-121808645D03*
X217345304Y-122706670D03*
X218243330Y-123604696D03*
X219141355Y-124502721D03*
%TD*%
D12*
%TO.C,C46*%
X248250000Y-69800000D03*
X248250000Y-71800000D03*
%TD*%
%TO.C,C38*%
X217200000Y-103950000D03*
X217200000Y-105950000D03*
%TD*%
%TO.C,R51*%
X209700000Y-88550000D03*
X209700000Y-90550000D03*
%TD*%
M02*
