M48
; DRILL file KiCad 10.0.5 date 2026-09-29T09:07:49
; FORMAT={-:-/ absolute / metric / decimal}
; #@! TF.CreationDate,2026-09-29T09:07:49+07:00
; #@! TF.GenerationSoftware,Kicad,Pcbnew,10.0.5
; #@! TF.FileFunction,Plated,1,2,PTH
FMAT,2
METRIC
; #@! TA.AperFunction,Plated,PTH,ViaDrill
T1C0.300
; #@! TA.AperFunction,Plated,PTH,ComponentDrill
T2C0.500
; #@! TA.AperFunction,Plated,PTH,ComponentDrill
T3C0.600
; #@! TA.AperFunction,Plated,PTH,ComponentDrill
T4C0.800
; #@! TA.AperFunction,Plated,PTH,ComponentDrill
T5C0.900
; #@! TA.AperFunction,Plated,PTH,ComponentDrill
T6C1.000
; #@! TA.AperFunction,Plated,PTH,ComponentDrill
T7C1.100
; #@! TA.AperFunction,Plated,PTH,ComponentDrill
T8C1.300
; #@! TA.AperFunction,Plated,PTH,ComponentDrill
T9C1.500
; #@! TA.AperFunction,Plated,PTH,ComponentDrill
T10C1.800
; #@! TA.AperFunction,Plated,PTH,ComponentDrill
T11C2.440
; #@! TA.AperFunction,Plated,PTH,ViaDrill
T12C3.100
%
G90
G05
T1
X51.5Y-103.412
X52.85Y-79.225
X52.85Y-80.05
X52.85Y-80.875
X52.85Y-81.7
X52.85Y-82.525
X52.85Y-83.35
X52.85Y-84.175
X52.85Y-85.0
X52.85Y-85.825
X53.226Y-90.542
X53.226Y-92.051
X53.438Y-103.45
X53.6Y-79.225
X53.6Y-80.05
X53.6Y-80.875
X53.6Y-81.7
X53.6Y-82.525
X53.6Y-83.35
X53.6Y-84.175
X53.6Y-85.0
X53.6Y-85.825
X54.3Y-79.225
X54.3Y-80.05
X54.3Y-80.875
X54.3Y-81.7
X54.3Y-82.525
X54.3Y-83.35
X54.3Y-84.175
X54.3Y-85.0
X54.3Y-85.825
X55.025Y-79.25
X55.025Y-80.075
X55.025Y-80.9
X55.025Y-81.725
X55.025Y-82.55
X55.025Y-83.375
X55.025Y-84.2
X55.025Y-85.025
X55.025Y-85.85
X55.232Y-103.426
X55.75Y-79.25
X55.75Y-80.075
X55.75Y-80.9
X55.75Y-81.725
X55.75Y-82.55
X55.75Y-83.375
X55.75Y-84.2
X55.75Y-85.025
X55.75Y-85.85
X56.325Y-99.4
X56.425Y-93.05
X56.45Y-79.25
X56.45Y-80.075
X56.45Y-80.9
X56.45Y-81.725
X56.45Y-82.55
X56.45Y-83.375
X56.45Y-84.2
X56.45Y-85.025
X56.45Y-85.85
X57.2Y-89.525
X58.678Y-93.503
X59.825Y-96.4
X60.997Y-77.5
X61.0Y-82.6
X66.261Y-91.892
X66.725Y-89.55
X67.1Y-95.375
X67.3Y-90.65
X67.508Y-77.482
X67.524Y-80.516
X69.2Y-90.525
X70.2Y-87.275
X71.5Y-89.0
X73.5Y-82.6
X73.512Y-77.475
X74.55Y-88.222
X75.27Y-89.725
X75.665Y-88.122
X75.691Y-102.146
X77.775Y-79.075
X77.825Y-84.4
X77.991Y-87.758
X78.925Y-81.325
X79.266Y-98.934
X79.5Y-75.4
X80.108Y-99.05
X80.225Y-92.0
X82.55Y-78.275
X83.85Y-95.8
X84.15Y-93.625
X84.559Y-99.291
X84.625Y-98.325
X84.8Y-92.85
X84.8Y-94.55
X84.85Y-100.65
X85.35Y-99.65
X88.775Y-98.212
X92.275Y-98.212
X93.136Y-89.856
X94.241Y-93.66
X95.425Y-94.5
X96.507Y-86.587
X96.625Y-100.812
X99.625Y-77.162
X100.125Y-79.575
X100.2Y-93.6
X100.375Y-78.725
X100.825Y-80.325
X102.125Y-80.225
X102.7Y-88.65
X102.925Y-85.525
X102.925Y-86.125
X105.6Y-58.3
X107.0Y-58.375
X108.8Y-53.8
X108.8Y-54.625
X108.8Y-55.45
X108.8Y-56.2
X108.8Y-57.025
X108.8Y-57.85
X109.525Y-53.8
X109.525Y-54.625
X109.525Y-55.45
X109.525Y-56.2
X109.525Y-57.025
X109.525Y-57.85
X110.225Y-53.8
X110.225Y-54.625
X110.225Y-55.45
X110.225Y-56.2
X110.225Y-57.025
X110.225Y-57.85
X114.175Y-59.6
X114.175Y-60.425
X114.175Y-61.25
X114.775Y-54.825
X114.775Y-55.65
X114.775Y-56.475
X114.9Y-59.6
X114.9Y-60.425
X114.9Y-61.25
X115.5Y-54.825
X115.5Y-55.65
X115.5Y-56.475
X115.6Y-59.6
X115.6Y-60.425
X115.6Y-61.25
X116.2Y-54.825
X116.2Y-55.65
X116.2Y-56.475
X116.975Y-54.8
X116.975Y-55.625
X116.975Y-56.45
X117.7Y-54.8
X117.7Y-55.625
X117.7Y-56.45
X118.4Y-54.8
X118.4Y-55.625
X118.4Y-56.45
X121.2Y-58.175
X122.775Y-58.3
X135.55Y-58.15
X137.225Y-58.25
T2
X73.465Y-94.99
X73.465Y-96.39
X74.165Y-94.29
X74.165Y-95.69
X74.165Y-97.09
X74.865Y-94.99
X74.865Y-96.39
X75.565Y-94.29
X75.565Y-95.69
X75.565Y-97.09
X76.265Y-94.99
X76.265Y-96.39
T4
X62.95Y-52.25
X75.65Y-52.25
X100.05Y-51.975
X112.05Y-51.975
X115.225Y-51.975
X127.225Y-51.975
X130.45Y-51.925
X142.45Y-51.925
T5
X51.951Y-98.373
X54.491Y-98.373
T6
X57.778Y-97.714
X57.778Y-100.254
X57.778Y-102.794
X61.5Y-95.19
X61.5Y-97.73
X61.5Y-100.27
X61.5Y-102.81
X79.307Y-55.65
X84.307Y-55.65
X88.9Y-58.525
X88.925Y-52.975
X96.4Y-58.525
X96.425Y-52.975
T7
X71.025Y-55.85
X71.025Y-70.85
T8
X113.2Y-67.825
X113.2Y-71.575
X113.2Y-75.325
X113.2Y-82.375
X113.2Y-86.125
X113.2Y-89.875
X113.2Y-95.95
X113.2Y-99.7
X113.2Y-103.45
X130.7Y-67.825
X130.7Y-82.375
X130.7Y-95.95
X134.2Y-75.325
X134.2Y-89.875
X134.2Y-103.45
T9
X52.385Y-70.275
X52.525Y-57.61
X52.525Y-62.69
X57.465Y-70.275
T10
X137.835Y-94.8
X137.835Y-102.8
X137.91Y-67.725
X137.91Y-75.725
X137.91Y-81.263
X137.91Y-89.263
X142.915Y-94.8
X142.915Y-102.8
X142.99Y-67.725
X142.99Y-75.725
X142.99Y-81.263
X142.99Y-89.263
T11
X76.708Y-64.592
X80.708Y-64.592
X84.708Y-64.592
X88.708Y-64.592
X96.708Y-64.592
X100.708Y-64.592
T12
X53.0Y-53.0
X53.025Y-75.45
X109.0Y-80.0
X109.0Y-92.75
T3
G00X86.18Y-96.845
M15
G01X86.18Y-97.945
M16
G05
G00X86.18Y-101.275
M15
G01X86.18Y-101.875
M16
G05
G00X94.82Y-96.845
M15
G01X94.82Y-97.945
M16
G05
G00X94.82Y-101.275
M15
G01X94.82Y-101.875
M16
G05
M30
