%TF.GenerationSoftware,KiCad,Pcbnew,10.0.5*%
%TF.CreationDate,2026-09-29T09:07:43+07:00*%
%TF.ProjectId,IoT_Board_V2,496f545f-426f-4617-9264-5f56322e6b69,rev?*%
%TF.SameCoordinates,Original*%
%TF.FileFunction,Legend,Bot*%
%TF.FilePolarity,Positive*%
%FSLAX46Y46*%
G04 Gerber Fmt 4.6, Leading zero omitted, Abs format (unit mm)*
G04 Created by KiCad (PCBNEW 10.0.5) date 2026-09-29 09:07:43*
%MOMM*%
%LPD*%
G01*
G04 APERTURE LIST*
%ADD10C,0.062500*%
%ADD11C,0.120000*%
G04 APERTURE END LIST*
D10*
X111177619Y-98695678D02*
X111225238Y-98671869D01*
X111225238Y-98671869D02*
X111272857Y-98624250D01*
X111272857Y-98624250D02*
X111344285Y-98552821D01*
X111344285Y-98552821D02*
X111391904Y-98529011D01*
X111391904Y-98529011D02*
X111439523Y-98529011D01*
X111415714Y-98648059D02*
X111463333Y-98624250D01*
X111463333Y-98624250D02*
X111510952Y-98576630D01*
X111510952Y-98576630D02*
X111534761Y-98481392D01*
X111534761Y-98481392D02*
X111534761Y-98314726D01*
X111534761Y-98314726D02*
X111510952Y-98219488D01*
X111510952Y-98219488D02*
X111463333Y-98171869D01*
X111463333Y-98171869D02*
X111415714Y-98148059D01*
X111415714Y-98148059D02*
X111320476Y-98148059D01*
X111320476Y-98148059D02*
X111272857Y-98171869D01*
X111272857Y-98171869D02*
X111225238Y-98219488D01*
X111225238Y-98219488D02*
X111201428Y-98314726D01*
X111201428Y-98314726D02*
X111201428Y-98481392D01*
X111201428Y-98481392D02*
X111225238Y-98576630D01*
X111225238Y-98576630D02*
X111272857Y-98624250D01*
X111272857Y-98624250D02*
X111320476Y-98648059D01*
X111320476Y-98648059D02*
X111415714Y-98648059D01*
X110963332Y-98648059D02*
X110868094Y-98648059D01*
X110868094Y-98648059D02*
X110820475Y-98624250D01*
X110820475Y-98624250D02*
X110796666Y-98600440D01*
X110796666Y-98600440D02*
X110749047Y-98529011D01*
X110749047Y-98529011D02*
X110725237Y-98433773D01*
X110725237Y-98433773D02*
X110725237Y-98243297D01*
X110725237Y-98243297D02*
X110749047Y-98195678D01*
X110749047Y-98195678D02*
X110772856Y-98171869D01*
X110772856Y-98171869D02*
X110820475Y-98148059D01*
X110820475Y-98148059D02*
X110915713Y-98148059D01*
X110915713Y-98148059D02*
X110963332Y-98171869D01*
X110963332Y-98171869D02*
X110987142Y-98195678D01*
X110987142Y-98195678D02*
X111010951Y-98243297D01*
X111010951Y-98243297D02*
X111010951Y-98362345D01*
X111010951Y-98362345D02*
X110987142Y-98409964D01*
X110987142Y-98409964D02*
X110963332Y-98433773D01*
X110963332Y-98433773D02*
X110915713Y-98457583D01*
X110915713Y-98457583D02*
X110820475Y-98457583D01*
X110820475Y-98457583D02*
X110772856Y-98433773D01*
X110772856Y-98433773D02*
X110749047Y-98409964D01*
X110749047Y-98409964D02*
X110725237Y-98362345D01*
X51821428Y-100618059D02*
X51988094Y-100379964D01*
X52107142Y-100618059D02*
X52107142Y-100118059D01*
X52107142Y-100118059D02*
X51916666Y-100118059D01*
X51916666Y-100118059D02*
X51869047Y-100141869D01*
X51869047Y-100141869D02*
X51845237Y-100165678D01*
X51845237Y-100165678D02*
X51821428Y-100213297D01*
X51821428Y-100213297D02*
X51821428Y-100284726D01*
X51821428Y-100284726D02*
X51845237Y-100332345D01*
X51845237Y-100332345D02*
X51869047Y-100356154D01*
X51869047Y-100356154D02*
X51916666Y-100379964D01*
X51916666Y-100379964D02*
X52107142Y-100379964D01*
X51392856Y-100284726D02*
X51392856Y-100618059D01*
X51511904Y-100094250D02*
X51630951Y-100451392D01*
X51630951Y-100451392D02*
X51321428Y-100451392D01*
X51035714Y-100118059D02*
X50988095Y-100118059D01*
X50988095Y-100118059D02*
X50940476Y-100141869D01*
X50940476Y-100141869D02*
X50916666Y-100165678D01*
X50916666Y-100165678D02*
X50892857Y-100213297D01*
X50892857Y-100213297D02*
X50869047Y-100308535D01*
X50869047Y-100308535D02*
X50869047Y-100427583D01*
X50869047Y-100427583D02*
X50892857Y-100522821D01*
X50892857Y-100522821D02*
X50916666Y-100570440D01*
X50916666Y-100570440D02*
X50940476Y-100594250D01*
X50940476Y-100594250D02*
X50988095Y-100618059D01*
X50988095Y-100618059D02*
X51035714Y-100618059D01*
X51035714Y-100618059D02*
X51083333Y-100594250D01*
X51083333Y-100594250D02*
X51107142Y-100570440D01*
X51107142Y-100570440D02*
X51130952Y-100522821D01*
X51130952Y-100522821D02*
X51154761Y-100427583D01*
X51154761Y-100427583D02*
X51154761Y-100308535D01*
X51154761Y-100308535D02*
X51130952Y-100213297D01*
X51130952Y-100213297D02*
X51107142Y-100165678D01*
X51107142Y-100165678D02*
X51083333Y-100141869D01*
X51083333Y-100141869D02*
X51035714Y-100118059D01*
X55511428Y-95338059D02*
X55678094Y-95099964D01*
X55797142Y-95338059D02*
X55797142Y-94838059D01*
X55797142Y-94838059D02*
X55606666Y-94838059D01*
X55606666Y-94838059D02*
X55559047Y-94861869D01*
X55559047Y-94861869D02*
X55535237Y-94885678D01*
X55535237Y-94885678D02*
X55511428Y-94933297D01*
X55511428Y-94933297D02*
X55511428Y-95004726D01*
X55511428Y-95004726D02*
X55535237Y-95052345D01*
X55535237Y-95052345D02*
X55559047Y-95076154D01*
X55559047Y-95076154D02*
X55606666Y-95099964D01*
X55606666Y-95099964D02*
X55797142Y-95099964D01*
X55344761Y-94838059D02*
X55035237Y-94838059D01*
X55035237Y-94838059D02*
X55201904Y-95028535D01*
X55201904Y-95028535D02*
X55130475Y-95028535D01*
X55130475Y-95028535D02*
X55082856Y-95052345D01*
X55082856Y-95052345D02*
X55059047Y-95076154D01*
X55059047Y-95076154D02*
X55035237Y-95123773D01*
X55035237Y-95123773D02*
X55035237Y-95242821D01*
X55035237Y-95242821D02*
X55059047Y-95290440D01*
X55059047Y-95290440D02*
X55082856Y-95314250D01*
X55082856Y-95314250D02*
X55130475Y-95338059D01*
X55130475Y-95338059D02*
X55273332Y-95338059D01*
X55273332Y-95338059D02*
X55320951Y-95314250D01*
X55320951Y-95314250D02*
X55344761Y-95290440D01*
X54606666Y-94838059D02*
X54701904Y-94838059D01*
X54701904Y-94838059D02*
X54749523Y-94861869D01*
X54749523Y-94861869D02*
X54773333Y-94885678D01*
X54773333Y-94885678D02*
X54820952Y-94957107D01*
X54820952Y-94957107D02*
X54844761Y-95052345D01*
X54844761Y-95052345D02*
X54844761Y-95242821D01*
X54844761Y-95242821D02*
X54820952Y-95290440D01*
X54820952Y-95290440D02*
X54797142Y-95314250D01*
X54797142Y-95314250D02*
X54749523Y-95338059D01*
X54749523Y-95338059D02*
X54654285Y-95338059D01*
X54654285Y-95338059D02*
X54606666Y-95314250D01*
X54606666Y-95314250D02*
X54582857Y-95290440D01*
X54582857Y-95290440D02*
X54559047Y-95242821D01*
X54559047Y-95242821D02*
X54559047Y-95123773D01*
X54559047Y-95123773D02*
X54582857Y-95076154D01*
X54582857Y-95076154D02*
X54606666Y-95052345D01*
X54606666Y-95052345D02*
X54654285Y-95028535D01*
X54654285Y-95028535D02*
X54749523Y-95028535D01*
X54749523Y-95028535D02*
X54797142Y-95052345D01*
X54797142Y-95052345D02*
X54820952Y-95076154D01*
X54820952Y-95076154D02*
X54844761Y-95123773D01*
X55531428Y-100530440D02*
X55555237Y-100554250D01*
X55555237Y-100554250D02*
X55626666Y-100578059D01*
X55626666Y-100578059D02*
X55674285Y-100578059D01*
X55674285Y-100578059D02*
X55745713Y-100554250D01*
X55745713Y-100554250D02*
X55793332Y-100506630D01*
X55793332Y-100506630D02*
X55817142Y-100459011D01*
X55817142Y-100459011D02*
X55840951Y-100363773D01*
X55840951Y-100363773D02*
X55840951Y-100292345D01*
X55840951Y-100292345D02*
X55817142Y-100197107D01*
X55817142Y-100197107D02*
X55793332Y-100149488D01*
X55793332Y-100149488D02*
X55745713Y-100101869D01*
X55745713Y-100101869D02*
X55674285Y-100078059D01*
X55674285Y-100078059D02*
X55626666Y-100078059D01*
X55626666Y-100078059D02*
X55555237Y-100101869D01*
X55555237Y-100101869D02*
X55531428Y-100125678D01*
X55079047Y-100078059D02*
X55317142Y-100078059D01*
X55317142Y-100078059D02*
X55340951Y-100316154D01*
X55340951Y-100316154D02*
X55317142Y-100292345D01*
X55317142Y-100292345D02*
X55269523Y-100268535D01*
X55269523Y-100268535D02*
X55150475Y-100268535D01*
X55150475Y-100268535D02*
X55102856Y-100292345D01*
X55102856Y-100292345D02*
X55079047Y-100316154D01*
X55079047Y-100316154D02*
X55055237Y-100363773D01*
X55055237Y-100363773D02*
X55055237Y-100482821D01*
X55055237Y-100482821D02*
X55079047Y-100530440D01*
X55079047Y-100530440D02*
X55102856Y-100554250D01*
X55102856Y-100554250D02*
X55150475Y-100578059D01*
X55150475Y-100578059D02*
X55269523Y-100578059D01*
X55269523Y-100578059D02*
X55317142Y-100554250D01*
X55317142Y-100554250D02*
X55340951Y-100530440D01*
X54864761Y-100125678D02*
X54840952Y-100101869D01*
X54840952Y-100101869D02*
X54793333Y-100078059D01*
X54793333Y-100078059D02*
X54674285Y-100078059D01*
X54674285Y-100078059D02*
X54626666Y-100101869D01*
X54626666Y-100101869D02*
X54602857Y-100125678D01*
X54602857Y-100125678D02*
X54579047Y-100173297D01*
X54579047Y-100173297D02*
X54579047Y-100220916D01*
X54579047Y-100220916D02*
X54602857Y-100292345D01*
X54602857Y-100292345D02*
X54888571Y-100578059D01*
X54888571Y-100578059D02*
X54579047Y-100578059D01*
X103081428Y-72618059D02*
X103248094Y-72379964D01*
X103367142Y-72618059D02*
X103367142Y-72118059D01*
X103367142Y-72118059D02*
X103176666Y-72118059D01*
X103176666Y-72118059D02*
X103129047Y-72141869D01*
X103129047Y-72141869D02*
X103105237Y-72165678D01*
X103105237Y-72165678D02*
X103081428Y-72213297D01*
X103081428Y-72213297D02*
X103081428Y-72284726D01*
X103081428Y-72284726D02*
X103105237Y-72332345D01*
X103105237Y-72332345D02*
X103129047Y-72356154D01*
X103129047Y-72356154D02*
X103176666Y-72379964D01*
X103176666Y-72379964D02*
X103367142Y-72379964D01*
X102890951Y-72165678D02*
X102867142Y-72141869D01*
X102867142Y-72141869D02*
X102819523Y-72118059D01*
X102819523Y-72118059D02*
X102700475Y-72118059D01*
X102700475Y-72118059D02*
X102652856Y-72141869D01*
X102652856Y-72141869D02*
X102629047Y-72165678D01*
X102629047Y-72165678D02*
X102605237Y-72213297D01*
X102605237Y-72213297D02*
X102605237Y-72260916D01*
X102605237Y-72260916D02*
X102629047Y-72332345D01*
X102629047Y-72332345D02*
X102914761Y-72618059D01*
X102914761Y-72618059D02*
X102605237Y-72618059D01*
X102319523Y-72332345D02*
X102367142Y-72308535D01*
X102367142Y-72308535D02*
X102390952Y-72284726D01*
X102390952Y-72284726D02*
X102414761Y-72237107D01*
X102414761Y-72237107D02*
X102414761Y-72213297D01*
X102414761Y-72213297D02*
X102390952Y-72165678D01*
X102390952Y-72165678D02*
X102367142Y-72141869D01*
X102367142Y-72141869D02*
X102319523Y-72118059D01*
X102319523Y-72118059D02*
X102224285Y-72118059D01*
X102224285Y-72118059D02*
X102176666Y-72141869D01*
X102176666Y-72141869D02*
X102152857Y-72165678D01*
X102152857Y-72165678D02*
X102129047Y-72213297D01*
X102129047Y-72213297D02*
X102129047Y-72237107D01*
X102129047Y-72237107D02*
X102152857Y-72284726D01*
X102152857Y-72284726D02*
X102176666Y-72308535D01*
X102176666Y-72308535D02*
X102224285Y-72332345D01*
X102224285Y-72332345D02*
X102319523Y-72332345D01*
X102319523Y-72332345D02*
X102367142Y-72356154D01*
X102367142Y-72356154D02*
X102390952Y-72379964D01*
X102390952Y-72379964D02*
X102414761Y-72427583D01*
X102414761Y-72427583D02*
X102414761Y-72522821D01*
X102414761Y-72522821D02*
X102390952Y-72570440D01*
X102390952Y-72570440D02*
X102367142Y-72594250D01*
X102367142Y-72594250D02*
X102319523Y-72618059D01*
X102319523Y-72618059D02*
X102224285Y-72618059D01*
X102224285Y-72618059D02*
X102176666Y-72594250D01*
X102176666Y-72594250D02*
X102152857Y-72570440D01*
X102152857Y-72570440D02*
X102129047Y-72522821D01*
X102129047Y-72522821D02*
X102129047Y-72427583D01*
X102129047Y-72427583D02*
X102152857Y-72379964D01*
X102152857Y-72379964D02*
X102176666Y-72356154D01*
X102176666Y-72356154D02*
X102224285Y-72332345D01*
X103281428Y-100348059D02*
X103448094Y-100109964D01*
X103567142Y-100348059D02*
X103567142Y-99848059D01*
X103567142Y-99848059D02*
X103376666Y-99848059D01*
X103376666Y-99848059D02*
X103329047Y-99871869D01*
X103329047Y-99871869D02*
X103305237Y-99895678D01*
X103305237Y-99895678D02*
X103281428Y-99943297D01*
X103281428Y-99943297D02*
X103281428Y-100014726D01*
X103281428Y-100014726D02*
X103305237Y-100062345D01*
X103305237Y-100062345D02*
X103329047Y-100086154D01*
X103329047Y-100086154D02*
X103376666Y-100109964D01*
X103376666Y-100109964D02*
X103567142Y-100109964D01*
X102852856Y-99848059D02*
X102948094Y-99848059D01*
X102948094Y-99848059D02*
X102995713Y-99871869D01*
X102995713Y-99871869D02*
X103019523Y-99895678D01*
X103019523Y-99895678D02*
X103067142Y-99967107D01*
X103067142Y-99967107D02*
X103090951Y-100062345D01*
X103090951Y-100062345D02*
X103090951Y-100252821D01*
X103090951Y-100252821D02*
X103067142Y-100300440D01*
X103067142Y-100300440D02*
X103043332Y-100324250D01*
X103043332Y-100324250D02*
X102995713Y-100348059D01*
X102995713Y-100348059D02*
X102900475Y-100348059D01*
X102900475Y-100348059D02*
X102852856Y-100324250D01*
X102852856Y-100324250D02*
X102829047Y-100300440D01*
X102829047Y-100300440D02*
X102805237Y-100252821D01*
X102805237Y-100252821D02*
X102805237Y-100133773D01*
X102805237Y-100133773D02*
X102829047Y-100086154D01*
X102829047Y-100086154D02*
X102852856Y-100062345D01*
X102852856Y-100062345D02*
X102900475Y-100038535D01*
X102900475Y-100038535D02*
X102995713Y-100038535D01*
X102995713Y-100038535D02*
X103043332Y-100062345D01*
X103043332Y-100062345D02*
X103067142Y-100086154D01*
X103067142Y-100086154D02*
X103090951Y-100133773D01*
X102329047Y-100348059D02*
X102614761Y-100348059D01*
X102471904Y-100348059D02*
X102471904Y-99848059D01*
X102471904Y-99848059D02*
X102519523Y-99919488D01*
X102519523Y-99919488D02*
X102567142Y-99967107D01*
X102567142Y-99967107D02*
X102614761Y-99990916D01*
X72621428Y-100840440D02*
X72645237Y-100864250D01*
X72645237Y-100864250D02*
X72716666Y-100888059D01*
X72716666Y-100888059D02*
X72764285Y-100888059D01*
X72764285Y-100888059D02*
X72835713Y-100864250D01*
X72835713Y-100864250D02*
X72883332Y-100816630D01*
X72883332Y-100816630D02*
X72907142Y-100769011D01*
X72907142Y-100769011D02*
X72930951Y-100673773D01*
X72930951Y-100673773D02*
X72930951Y-100602345D01*
X72930951Y-100602345D02*
X72907142Y-100507107D01*
X72907142Y-100507107D02*
X72883332Y-100459488D01*
X72883332Y-100459488D02*
X72835713Y-100411869D01*
X72835713Y-100411869D02*
X72764285Y-100388059D01*
X72764285Y-100388059D02*
X72716666Y-100388059D01*
X72716666Y-100388059D02*
X72645237Y-100411869D01*
X72645237Y-100411869D02*
X72621428Y-100435678D01*
X72192856Y-100388059D02*
X72288094Y-100388059D01*
X72288094Y-100388059D02*
X72335713Y-100411869D01*
X72335713Y-100411869D02*
X72359523Y-100435678D01*
X72359523Y-100435678D02*
X72407142Y-100507107D01*
X72407142Y-100507107D02*
X72430951Y-100602345D01*
X72430951Y-100602345D02*
X72430951Y-100792821D01*
X72430951Y-100792821D02*
X72407142Y-100840440D01*
X72407142Y-100840440D02*
X72383332Y-100864250D01*
X72383332Y-100864250D02*
X72335713Y-100888059D01*
X72335713Y-100888059D02*
X72240475Y-100888059D01*
X72240475Y-100888059D02*
X72192856Y-100864250D01*
X72192856Y-100864250D02*
X72169047Y-100840440D01*
X72169047Y-100840440D02*
X72145237Y-100792821D01*
X72145237Y-100792821D02*
X72145237Y-100673773D01*
X72145237Y-100673773D02*
X72169047Y-100626154D01*
X72169047Y-100626154D02*
X72192856Y-100602345D01*
X72192856Y-100602345D02*
X72240475Y-100578535D01*
X72240475Y-100578535D02*
X72335713Y-100578535D01*
X72335713Y-100578535D02*
X72383332Y-100602345D01*
X72383332Y-100602345D02*
X72407142Y-100626154D01*
X72407142Y-100626154D02*
X72430951Y-100673773D01*
X71692857Y-100388059D02*
X71930952Y-100388059D01*
X71930952Y-100388059D02*
X71954761Y-100626154D01*
X71954761Y-100626154D02*
X71930952Y-100602345D01*
X71930952Y-100602345D02*
X71883333Y-100578535D01*
X71883333Y-100578535D02*
X71764285Y-100578535D01*
X71764285Y-100578535D02*
X71716666Y-100602345D01*
X71716666Y-100602345D02*
X71692857Y-100626154D01*
X71692857Y-100626154D02*
X71669047Y-100673773D01*
X71669047Y-100673773D02*
X71669047Y-100792821D01*
X71669047Y-100792821D02*
X71692857Y-100840440D01*
X71692857Y-100840440D02*
X71716666Y-100864250D01*
X71716666Y-100864250D02*
X71764285Y-100888059D01*
X71764285Y-100888059D02*
X71883333Y-100888059D01*
X71883333Y-100888059D02*
X71930952Y-100864250D01*
X71930952Y-100864250D02*
X71954761Y-100840440D01*
X111097619Y-89945678D02*
X111145238Y-89921869D01*
X111145238Y-89921869D02*
X111192857Y-89874250D01*
X111192857Y-89874250D02*
X111264285Y-89802821D01*
X111264285Y-89802821D02*
X111311904Y-89779011D01*
X111311904Y-89779011D02*
X111359523Y-89779011D01*
X111335714Y-89898059D02*
X111383333Y-89874250D01*
X111383333Y-89874250D02*
X111430952Y-89826630D01*
X111430952Y-89826630D02*
X111454761Y-89731392D01*
X111454761Y-89731392D02*
X111454761Y-89564726D01*
X111454761Y-89564726D02*
X111430952Y-89469488D01*
X111430952Y-89469488D02*
X111383333Y-89421869D01*
X111383333Y-89421869D02*
X111335714Y-89398059D01*
X111335714Y-89398059D02*
X111240476Y-89398059D01*
X111240476Y-89398059D02*
X111192857Y-89421869D01*
X111192857Y-89421869D02*
X111145238Y-89469488D01*
X111145238Y-89469488D02*
X111121428Y-89564726D01*
X111121428Y-89564726D02*
X111121428Y-89731392D01*
X111121428Y-89731392D02*
X111145238Y-89826630D01*
X111145238Y-89826630D02*
X111192857Y-89874250D01*
X111192857Y-89874250D02*
X111240476Y-89898059D01*
X111240476Y-89898059D02*
X111335714Y-89898059D01*
X110692856Y-89398059D02*
X110788094Y-89398059D01*
X110788094Y-89398059D02*
X110835713Y-89421869D01*
X110835713Y-89421869D02*
X110859523Y-89445678D01*
X110859523Y-89445678D02*
X110907142Y-89517107D01*
X110907142Y-89517107D02*
X110930951Y-89612345D01*
X110930951Y-89612345D02*
X110930951Y-89802821D01*
X110930951Y-89802821D02*
X110907142Y-89850440D01*
X110907142Y-89850440D02*
X110883332Y-89874250D01*
X110883332Y-89874250D02*
X110835713Y-89898059D01*
X110835713Y-89898059D02*
X110740475Y-89898059D01*
X110740475Y-89898059D02*
X110692856Y-89874250D01*
X110692856Y-89874250D02*
X110669047Y-89850440D01*
X110669047Y-89850440D02*
X110645237Y-89802821D01*
X110645237Y-89802821D02*
X110645237Y-89683773D01*
X110645237Y-89683773D02*
X110669047Y-89636154D01*
X110669047Y-89636154D02*
X110692856Y-89612345D01*
X110692856Y-89612345D02*
X110740475Y-89588535D01*
X110740475Y-89588535D02*
X110835713Y-89588535D01*
X110835713Y-89588535D02*
X110883332Y-89612345D01*
X110883332Y-89612345D02*
X110907142Y-89636154D01*
X110907142Y-89636154D02*
X110930951Y-89683773D01*
X103191428Y-75158059D02*
X103358094Y-74919964D01*
X103477142Y-75158059D02*
X103477142Y-74658059D01*
X103477142Y-74658059D02*
X103286666Y-74658059D01*
X103286666Y-74658059D02*
X103239047Y-74681869D01*
X103239047Y-74681869D02*
X103215237Y-74705678D01*
X103215237Y-74705678D02*
X103191428Y-74753297D01*
X103191428Y-74753297D02*
X103191428Y-74824726D01*
X103191428Y-74824726D02*
X103215237Y-74872345D01*
X103215237Y-74872345D02*
X103239047Y-74896154D01*
X103239047Y-74896154D02*
X103286666Y-74919964D01*
X103286666Y-74919964D02*
X103477142Y-74919964D01*
X103024761Y-74658059D02*
X102715237Y-74658059D01*
X102715237Y-74658059D02*
X102881904Y-74848535D01*
X102881904Y-74848535D02*
X102810475Y-74848535D01*
X102810475Y-74848535D02*
X102762856Y-74872345D01*
X102762856Y-74872345D02*
X102739047Y-74896154D01*
X102739047Y-74896154D02*
X102715237Y-74943773D01*
X102715237Y-74943773D02*
X102715237Y-75062821D01*
X102715237Y-75062821D02*
X102739047Y-75110440D01*
X102739047Y-75110440D02*
X102762856Y-75134250D01*
X102762856Y-75134250D02*
X102810475Y-75158059D01*
X102810475Y-75158059D02*
X102953332Y-75158059D01*
X102953332Y-75158059D02*
X103000951Y-75134250D01*
X103000951Y-75134250D02*
X103024761Y-75110440D01*
X102239047Y-75158059D02*
X102524761Y-75158059D01*
X102381904Y-75158059D02*
X102381904Y-74658059D01*
X102381904Y-74658059D02*
X102429523Y-74729488D01*
X102429523Y-74729488D02*
X102477142Y-74777107D01*
X102477142Y-74777107D02*
X102524761Y-74800916D01*
X81611428Y-77668059D02*
X81778094Y-77429964D01*
X81897142Y-77668059D02*
X81897142Y-77168059D01*
X81897142Y-77168059D02*
X81706666Y-77168059D01*
X81706666Y-77168059D02*
X81659047Y-77191869D01*
X81659047Y-77191869D02*
X81635237Y-77215678D01*
X81635237Y-77215678D02*
X81611428Y-77263297D01*
X81611428Y-77263297D02*
X81611428Y-77334726D01*
X81611428Y-77334726D02*
X81635237Y-77382345D01*
X81635237Y-77382345D02*
X81659047Y-77406154D01*
X81659047Y-77406154D02*
X81706666Y-77429964D01*
X81706666Y-77429964D02*
X81897142Y-77429964D01*
X81182856Y-77334726D02*
X81182856Y-77668059D01*
X81301904Y-77144250D02*
X81420951Y-77501392D01*
X81420951Y-77501392D02*
X81111428Y-77501392D01*
X80706666Y-77334726D02*
X80706666Y-77668059D01*
X80825714Y-77144250D02*
X80944761Y-77501392D01*
X80944761Y-77501392D02*
X80635238Y-77501392D01*
X103221428Y-84098059D02*
X103388094Y-83859964D01*
X103507142Y-84098059D02*
X103507142Y-83598059D01*
X103507142Y-83598059D02*
X103316666Y-83598059D01*
X103316666Y-83598059D02*
X103269047Y-83621869D01*
X103269047Y-83621869D02*
X103245237Y-83645678D01*
X103245237Y-83645678D02*
X103221428Y-83693297D01*
X103221428Y-83693297D02*
X103221428Y-83764726D01*
X103221428Y-83764726D02*
X103245237Y-83812345D01*
X103245237Y-83812345D02*
X103269047Y-83836154D01*
X103269047Y-83836154D02*
X103316666Y-83859964D01*
X103316666Y-83859964D02*
X103507142Y-83859964D01*
X102792856Y-83764726D02*
X102792856Y-84098059D01*
X102911904Y-83574250D02*
X103030951Y-83931392D01*
X103030951Y-83931392D02*
X102721428Y-83931392D01*
X102578571Y-83598059D02*
X102245238Y-83598059D01*
X102245238Y-83598059D02*
X102459523Y-84098059D01*
X103271428Y-85138059D02*
X103438094Y-84899964D01*
X103557142Y-85138059D02*
X103557142Y-84638059D01*
X103557142Y-84638059D02*
X103366666Y-84638059D01*
X103366666Y-84638059D02*
X103319047Y-84661869D01*
X103319047Y-84661869D02*
X103295237Y-84685678D01*
X103295237Y-84685678D02*
X103271428Y-84733297D01*
X103271428Y-84733297D02*
X103271428Y-84804726D01*
X103271428Y-84804726D02*
X103295237Y-84852345D01*
X103295237Y-84852345D02*
X103319047Y-84876154D01*
X103319047Y-84876154D02*
X103366666Y-84899964D01*
X103366666Y-84899964D02*
X103557142Y-84899964D01*
X102842856Y-84804726D02*
X102842856Y-85138059D01*
X102961904Y-84614250D02*
X103080951Y-84971392D01*
X103080951Y-84971392D02*
X102771428Y-84971392D01*
X102557142Y-85138059D02*
X102461904Y-85138059D01*
X102461904Y-85138059D02*
X102414285Y-85114250D01*
X102414285Y-85114250D02*
X102390476Y-85090440D01*
X102390476Y-85090440D02*
X102342857Y-85019011D01*
X102342857Y-85019011D02*
X102319047Y-84923773D01*
X102319047Y-84923773D02*
X102319047Y-84733297D01*
X102319047Y-84733297D02*
X102342857Y-84685678D01*
X102342857Y-84685678D02*
X102366666Y-84661869D01*
X102366666Y-84661869D02*
X102414285Y-84638059D01*
X102414285Y-84638059D02*
X102509523Y-84638059D01*
X102509523Y-84638059D02*
X102557142Y-84661869D01*
X102557142Y-84661869D02*
X102580952Y-84685678D01*
X102580952Y-84685678D02*
X102604761Y-84733297D01*
X102604761Y-84733297D02*
X102604761Y-84852345D01*
X102604761Y-84852345D02*
X102580952Y-84899964D01*
X102580952Y-84899964D02*
X102557142Y-84923773D01*
X102557142Y-84923773D02*
X102509523Y-84947583D01*
X102509523Y-84947583D02*
X102414285Y-84947583D01*
X102414285Y-84947583D02*
X102366666Y-84923773D01*
X102366666Y-84923773D02*
X102342857Y-84899964D01*
X102342857Y-84899964D02*
X102319047Y-84852345D01*
X55101428Y-90778059D02*
X55268094Y-90539964D01*
X55387142Y-90778059D02*
X55387142Y-90278059D01*
X55387142Y-90278059D02*
X55196666Y-90278059D01*
X55196666Y-90278059D02*
X55149047Y-90301869D01*
X55149047Y-90301869D02*
X55125237Y-90325678D01*
X55125237Y-90325678D02*
X55101428Y-90373297D01*
X55101428Y-90373297D02*
X55101428Y-90444726D01*
X55101428Y-90444726D02*
X55125237Y-90492345D01*
X55125237Y-90492345D02*
X55149047Y-90516154D01*
X55149047Y-90516154D02*
X55196666Y-90539964D01*
X55196666Y-90539964D02*
X55387142Y-90539964D01*
X54934761Y-90278059D02*
X54625237Y-90278059D01*
X54625237Y-90278059D02*
X54791904Y-90468535D01*
X54791904Y-90468535D02*
X54720475Y-90468535D01*
X54720475Y-90468535D02*
X54672856Y-90492345D01*
X54672856Y-90492345D02*
X54649047Y-90516154D01*
X54649047Y-90516154D02*
X54625237Y-90563773D01*
X54625237Y-90563773D02*
X54625237Y-90682821D01*
X54625237Y-90682821D02*
X54649047Y-90730440D01*
X54649047Y-90730440D02*
X54672856Y-90754250D01*
X54672856Y-90754250D02*
X54720475Y-90778059D01*
X54720475Y-90778059D02*
X54863332Y-90778059D01*
X54863332Y-90778059D02*
X54910951Y-90754250D01*
X54910951Y-90754250D02*
X54934761Y-90730440D01*
X54172857Y-90278059D02*
X54410952Y-90278059D01*
X54410952Y-90278059D02*
X54434761Y-90516154D01*
X54434761Y-90516154D02*
X54410952Y-90492345D01*
X54410952Y-90492345D02*
X54363333Y-90468535D01*
X54363333Y-90468535D02*
X54244285Y-90468535D01*
X54244285Y-90468535D02*
X54196666Y-90492345D01*
X54196666Y-90492345D02*
X54172857Y-90516154D01*
X54172857Y-90516154D02*
X54149047Y-90563773D01*
X54149047Y-90563773D02*
X54149047Y-90682821D01*
X54149047Y-90682821D02*
X54172857Y-90730440D01*
X54172857Y-90730440D02*
X54196666Y-90754250D01*
X54196666Y-90754250D02*
X54244285Y-90778059D01*
X54244285Y-90778059D02*
X54363333Y-90778059D01*
X54363333Y-90778059D02*
X54410952Y-90754250D01*
X54410952Y-90754250D02*
X54434761Y-90730440D01*
X62791428Y-80640440D02*
X62815237Y-80664250D01*
X62815237Y-80664250D02*
X62886666Y-80688059D01*
X62886666Y-80688059D02*
X62934285Y-80688059D01*
X62934285Y-80688059D02*
X63005713Y-80664250D01*
X63005713Y-80664250D02*
X63053332Y-80616630D01*
X63053332Y-80616630D02*
X63077142Y-80569011D01*
X63077142Y-80569011D02*
X63100951Y-80473773D01*
X63100951Y-80473773D02*
X63100951Y-80402345D01*
X63100951Y-80402345D02*
X63077142Y-80307107D01*
X63077142Y-80307107D02*
X63053332Y-80259488D01*
X63053332Y-80259488D02*
X63005713Y-80211869D01*
X63005713Y-80211869D02*
X62934285Y-80188059D01*
X62934285Y-80188059D02*
X62886666Y-80188059D01*
X62886666Y-80188059D02*
X62815237Y-80211869D01*
X62815237Y-80211869D02*
X62791428Y-80235678D01*
X62362856Y-80188059D02*
X62458094Y-80188059D01*
X62458094Y-80188059D02*
X62505713Y-80211869D01*
X62505713Y-80211869D02*
X62529523Y-80235678D01*
X62529523Y-80235678D02*
X62577142Y-80307107D01*
X62577142Y-80307107D02*
X62600951Y-80402345D01*
X62600951Y-80402345D02*
X62600951Y-80592821D01*
X62600951Y-80592821D02*
X62577142Y-80640440D01*
X62577142Y-80640440D02*
X62553332Y-80664250D01*
X62553332Y-80664250D02*
X62505713Y-80688059D01*
X62505713Y-80688059D02*
X62410475Y-80688059D01*
X62410475Y-80688059D02*
X62362856Y-80664250D01*
X62362856Y-80664250D02*
X62339047Y-80640440D01*
X62339047Y-80640440D02*
X62315237Y-80592821D01*
X62315237Y-80592821D02*
X62315237Y-80473773D01*
X62315237Y-80473773D02*
X62339047Y-80426154D01*
X62339047Y-80426154D02*
X62362856Y-80402345D01*
X62362856Y-80402345D02*
X62410475Y-80378535D01*
X62410475Y-80378535D02*
X62505713Y-80378535D01*
X62505713Y-80378535D02*
X62553332Y-80402345D01*
X62553332Y-80402345D02*
X62577142Y-80426154D01*
X62577142Y-80426154D02*
X62600951Y-80473773D01*
X61839047Y-80688059D02*
X62124761Y-80688059D01*
X61981904Y-80688059D02*
X61981904Y-80188059D01*
X61981904Y-80188059D02*
X62029523Y-80259488D01*
X62029523Y-80259488D02*
X62077142Y-80307107D01*
X62077142Y-80307107D02*
X62124761Y-80330916D01*
X111077619Y-86145678D02*
X111125238Y-86121869D01*
X111125238Y-86121869D02*
X111172857Y-86074250D01*
X111172857Y-86074250D02*
X111244285Y-86002821D01*
X111244285Y-86002821D02*
X111291904Y-85979011D01*
X111291904Y-85979011D02*
X111339523Y-85979011D01*
X111315714Y-86098059D02*
X111363333Y-86074250D01*
X111363333Y-86074250D02*
X111410952Y-86026630D01*
X111410952Y-86026630D02*
X111434761Y-85931392D01*
X111434761Y-85931392D02*
X111434761Y-85764726D01*
X111434761Y-85764726D02*
X111410952Y-85669488D01*
X111410952Y-85669488D02*
X111363333Y-85621869D01*
X111363333Y-85621869D02*
X111315714Y-85598059D01*
X111315714Y-85598059D02*
X111220476Y-85598059D01*
X111220476Y-85598059D02*
X111172857Y-85621869D01*
X111172857Y-85621869D02*
X111125238Y-85669488D01*
X111125238Y-85669488D02*
X111101428Y-85764726D01*
X111101428Y-85764726D02*
X111101428Y-85931392D01*
X111101428Y-85931392D02*
X111125238Y-86026630D01*
X111125238Y-86026630D02*
X111172857Y-86074250D01*
X111172857Y-86074250D02*
X111220476Y-86098059D01*
X111220476Y-86098059D02*
X111315714Y-86098059D01*
X110934761Y-85598059D02*
X110601428Y-85598059D01*
X110601428Y-85598059D02*
X110815713Y-86098059D01*
X103291428Y-98338059D02*
X103458094Y-98099964D01*
X103577142Y-98338059D02*
X103577142Y-97838059D01*
X103577142Y-97838059D02*
X103386666Y-97838059D01*
X103386666Y-97838059D02*
X103339047Y-97861869D01*
X103339047Y-97861869D02*
X103315237Y-97885678D01*
X103315237Y-97885678D02*
X103291428Y-97933297D01*
X103291428Y-97933297D02*
X103291428Y-98004726D01*
X103291428Y-98004726D02*
X103315237Y-98052345D01*
X103315237Y-98052345D02*
X103339047Y-98076154D01*
X103339047Y-98076154D02*
X103386666Y-98099964D01*
X103386666Y-98099964D02*
X103577142Y-98099964D01*
X102862856Y-97838059D02*
X102958094Y-97838059D01*
X102958094Y-97838059D02*
X103005713Y-97861869D01*
X103005713Y-97861869D02*
X103029523Y-97885678D01*
X103029523Y-97885678D02*
X103077142Y-97957107D01*
X103077142Y-97957107D02*
X103100951Y-98052345D01*
X103100951Y-98052345D02*
X103100951Y-98242821D01*
X103100951Y-98242821D02*
X103077142Y-98290440D01*
X103077142Y-98290440D02*
X103053332Y-98314250D01*
X103053332Y-98314250D02*
X103005713Y-98338059D01*
X103005713Y-98338059D02*
X102910475Y-98338059D01*
X102910475Y-98338059D02*
X102862856Y-98314250D01*
X102862856Y-98314250D02*
X102839047Y-98290440D01*
X102839047Y-98290440D02*
X102815237Y-98242821D01*
X102815237Y-98242821D02*
X102815237Y-98123773D01*
X102815237Y-98123773D02*
X102839047Y-98076154D01*
X102839047Y-98076154D02*
X102862856Y-98052345D01*
X102862856Y-98052345D02*
X102910475Y-98028535D01*
X102910475Y-98028535D02*
X103005713Y-98028535D01*
X103005713Y-98028535D02*
X103053332Y-98052345D01*
X103053332Y-98052345D02*
X103077142Y-98076154D01*
X103077142Y-98076154D02*
X103100951Y-98123773D01*
X102624761Y-97885678D02*
X102600952Y-97861869D01*
X102600952Y-97861869D02*
X102553333Y-97838059D01*
X102553333Y-97838059D02*
X102434285Y-97838059D01*
X102434285Y-97838059D02*
X102386666Y-97861869D01*
X102386666Y-97861869D02*
X102362857Y-97885678D01*
X102362857Y-97885678D02*
X102339047Y-97933297D01*
X102339047Y-97933297D02*
X102339047Y-97980916D01*
X102339047Y-97980916D02*
X102362857Y-98052345D01*
X102362857Y-98052345D02*
X102648571Y-98338059D01*
X102648571Y-98338059D02*
X102339047Y-98338059D01*
X88988059Y-101318571D02*
X88749964Y-101151905D01*
X88988059Y-101032857D02*
X88488059Y-101032857D01*
X88488059Y-101032857D02*
X88488059Y-101223333D01*
X88488059Y-101223333D02*
X88511869Y-101270952D01*
X88511869Y-101270952D02*
X88535678Y-101294762D01*
X88535678Y-101294762D02*
X88583297Y-101318571D01*
X88583297Y-101318571D02*
X88654726Y-101318571D01*
X88654726Y-101318571D02*
X88702345Y-101294762D01*
X88702345Y-101294762D02*
X88726154Y-101270952D01*
X88726154Y-101270952D02*
X88749964Y-101223333D01*
X88749964Y-101223333D02*
X88749964Y-101032857D01*
X88654726Y-101747143D02*
X88988059Y-101747143D01*
X88464250Y-101628095D02*
X88821392Y-101509048D01*
X88821392Y-101509048D02*
X88821392Y-101818571D01*
X88488059Y-102247142D02*
X88488059Y-102009047D01*
X88488059Y-102009047D02*
X88726154Y-101985238D01*
X88726154Y-101985238D02*
X88702345Y-102009047D01*
X88702345Y-102009047D02*
X88678535Y-102056666D01*
X88678535Y-102056666D02*
X88678535Y-102175714D01*
X88678535Y-102175714D02*
X88702345Y-102223333D01*
X88702345Y-102223333D02*
X88726154Y-102247142D01*
X88726154Y-102247142D02*
X88773773Y-102270952D01*
X88773773Y-102270952D02*
X88892821Y-102270952D01*
X88892821Y-102270952D02*
X88940440Y-102247142D01*
X88940440Y-102247142D02*
X88964250Y-102223333D01*
X88964250Y-102223333D02*
X88988059Y-102175714D01*
X88988059Y-102175714D02*
X88988059Y-102056666D01*
X88988059Y-102056666D02*
X88964250Y-102009047D01*
X88964250Y-102009047D02*
X88940440Y-101985238D01*
X69361428Y-77708059D02*
X69528094Y-77469964D01*
X69647142Y-77708059D02*
X69647142Y-77208059D01*
X69647142Y-77208059D02*
X69456666Y-77208059D01*
X69456666Y-77208059D02*
X69409047Y-77231869D01*
X69409047Y-77231869D02*
X69385237Y-77255678D01*
X69385237Y-77255678D02*
X69361428Y-77303297D01*
X69361428Y-77303297D02*
X69361428Y-77374726D01*
X69361428Y-77374726D02*
X69385237Y-77422345D01*
X69385237Y-77422345D02*
X69409047Y-77446154D01*
X69409047Y-77446154D02*
X69456666Y-77469964D01*
X69456666Y-77469964D02*
X69647142Y-77469964D01*
X68932856Y-77374726D02*
X68932856Y-77708059D01*
X69051904Y-77184250D02*
X69170951Y-77541392D01*
X69170951Y-77541392D02*
X68861428Y-77541392D01*
X68718571Y-77208059D02*
X68409047Y-77208059D01*
X68409047Y-77208059D02*
X68575714Y-77398535D01*
X68575714Y-77398535D02*
X68504285Y-77398535D01*
X68504285Y-77398535D02*
X68456666Y-77422345D01*
X68456666Y-77422345D02*
X68432857Y-77446154D01*
X68432857Y-77446154D02*
X68409047Y-77493773D01*
X68409047Y-77493773D02*
X68409047Y-77612821D01*
X68409047Y-77612821D02*
X68432857Y-77660440D01*
X68432857Y-77660440D02*
X68456666Y-77684250D01*
X68456666Y-77684250D02*
X68504285Y-77708059D01*
X68504285Y-77708059D02*
X68647142Y-77708059D01*
X68647142Y-77708059D02*
X68694761Y-77684250D01*
X68694761Y-77684250D02*
X68718571Y-77660440D01*
X103051428Y-88068059D02*
X103218094Y-87829964D01*
X103337142Y-88068059D02*
X103337142Y-87568059D01*
X103337142Y-87568059D02*
X103146666Y-87568059D01*
X103146666Y-87568059D02*
X103099047Y-87591869D01*
X103099047Y-87591869D02*
X103075237Y-87615678D01*
X103075237Y-87615678D02*
X103051428Y-87663297D01*
X103051428Y-87663297D02*
X103051428Y-87734726D01*
X103051428Y-87734726D02*
X103075237Y-87782345D01*
X103075237Y-87782345D02*
X103099047Y-87806154D01*
X103099047Y-87806154D02*
X103146666Y-87829964D01*
X103146666Y-87829964D02*
X103337142Y-87829964D01*
X102884761Y-87568059D02*
X102575237Y-87568059D01*
X102575237Y-87568059D02*
X102741904Y-87758535D01*
X102741904Y-87758535D02*
X102670475Y-87758535D01*
X102670475Y-87758535D02*
X102622856Y-87782345D01*
X102622856Y-87782345D02*
X102599047Y-87806154D01*
X102599047Y-87806154D02*
X102575237Y-87853773D01*
X102575237Y-87853773D02*
X102575237Y-87972821D01*
X102575237Y-87972821D02*
X102599047Y-88020440D01*
X102599047Y-88020440D02*
X102622856Y-88044250D01*
X102622856Y-88044250D02*
X102670475Y-88068059D01*
X102670475Y-88068059D02*
X102813332Y-88068059D01*
X102813332Y-88068059D02*
X102860951Y-88044250D01*
X102860951Y-88044250D02*
X102884761Y-88020440D01*
X102408571Y-87568059D02*
X102099047Y-87568059D01*
X102099047Y-87568059D02*
X102265714Y-87758535D01*
X102265714Y-87758535D02*
X102194285Y-87758535D01*
X102194285Y-87758535D02*
X102146666Y-87782345D01*
X102146666Y-87782345D02*
X102122857Y-87806154D01*
X102122857Y-87806154D02*
X102099047Y-87853773D01*
X102099047Y-87853773D02*
X102099047Y-87972821D01*
X102099047Y-87972821D02*
X102122857Y-88020440D01*
X102122857Y-88020440D02*
X102146666Y-88044250D01*
X102146666Y-88044250D02*
X102194285Y-88068059D01*
X102194285Y-88068059D02*
X102337142Y-88068059D01*
X102337142Y-88068059D02*
X102384761Y-88044250D01*
X102384761Y-88044250D02*
X102408571Y-88020440D01*
X110887619Y-72885678D02*
X110935238Y-72861869D01*
X110935238Y-72861869D02*
X110982857Y-72814250D01*
X110982857Y-72814250D02*
X111054285Y-72742821D01*
X111054285Y-72742821D02*
X111101904Y-72719011D01*
X111101904Y-72719011D02*
X111149523Y-72719011D01*
X111125714Y-72838059D02*
X111173333Y-72814250D01*
X111173333Y-72814250D02*
X111220952Y-72766630D01*
X111220952Y-72766630D02*
X111244761Y-72671392D01*
X111244761Y-72671392D02*
X111244761Y-72504726D01*
X111244761Y-72504726D02*
X111220952Y-72409488D01*
X111220952Y-72409488D02*
X111173333Y-72361869D01*
X111173333Y-72361869D02*
X111125714Y-72338059D01*
X111125714Y-72338059D02*
X111030476Y-72338059D01*
X111030476Y-72338059D02*
X110982857Y-72361869D01*
X110982857Y-72361869D02*
X110935238Y-72409488D01*
X110935238Y-72409488D02*
X110911428Y-72504726D01*
X110911428Y-72504726D02*
X110911428Y-72671392D01*
X110911428Y-72671392D02*
X110935238Y-72766630D01*
X110935238Y-72766630D02*
X110982857Y-72814250D01*
X110982857Y-72814250D02*
X111030476Y-72838059D01*
X111030476Y-72838059D02*
X111125714Y-72838059D01*
X110459047Y-72338059D02*
X110697142Y-72338059D01*
X110697142Y-72338059D02*
X110720951Y-72576154D01*
X110720951Y-72576154D02*
X110697142Y-72552345D01*
X110697142Y-72552345D02*
X110649523Y-72528535D01*
X110649523Y-72528535D02*
X110530475Y-72528535D01*
X110530475Y-72528535D02*
X110482856Y-72552345D01*
X110482856Y-72552345D02*
X110459047Y-72576154D01*
X110459047Y-72576154D02*
X110435237Y-72623773D01*
X110435237Y-72623773D02*
X110435237Y-72742821D01*
X110435237Y-72742821D02*
X110459047Y-72790440D01*
X110459047Y-72790440D02*
X110482856Y-72814250D01*
X110482856Y-72814250D02*
X110530475Y-72838059D01*
X110530475Y-72838059D02*
X110649523Y-72838059D01*
X110649523Y-72838059D02*
X110697142Y-72814250D01*
X110697142Y-72814250D02*
X110720951Y-72790440D01*
X103481428Y-57718059D02*
X103648094Y-57479964D01*
X103767142Y-57718059D02*
X103767142Y-57218059D01*
X103767142Y-57218059D02*
X103576666Y-57218059D01*
X103576666Y-57218059D02*
X103529047Y-57241869D01*
X103529047Y-57241869D02*
X103505237Y-57265678D01*
X103505237Y-57265678D02*
X103481428Y-57313297D01*
X103481428Y-57313297D02*
X103481428Y-57384726D01*
X103481428Y-57384726D02*
X103505237Y-57432345D01*
X103505237Y-57432345D02*
X103529047Y-57456154D01*
X103529047Y-57456154D02*
X103576666Y-57479964D01*
X103576666Y-57479964D02*
X103767142Y-57479964D01*
X103029047Y-57218059D02*
X103267142Y-57218059D01*
X103267142Y-57218059D02*
X103290951Y-57456154D01*
X103290951Y-57456154D02*
X103267142Y-57432345D01*
X103267142Y-57432345D02*
X103219523Y-57408535D01*
X103219523Y-57408535D02*
X103100475Y-57408535D01*
X103100475Y-57408535D02*
X103052856Y-57432345D01*
X103052856Y-57432345D02*
X103029047Y-57456154D01*
X103029047Y-57456154D02*
X103005237Y-57503773D01*
X103005237Y-57503773D02*
X103005237Y-57622821D01*
X103005237Y-57622821D02*
X103029047Y-57670440D01*
X103029047Y-57670440D02*
X103052856Y-57694250D01*
X103052856Y-57694250D02*
X103100475Y-57718059D01*
X103100475Y-57718059D02*
X103219523Y-57718059D01*
X103219523Y-57718059D02*
X103267142Y-57694250D01*
X103267142Y-57694250D02*
X103290951Y-57670440D01*
X102719523Y-57432345D02*
X102767142Y-57408535D01*
X102767142Y-57408535D02*
X102790952Y-57384726D01*
X102790952Y-57384726D02*
X102814761Y-57337107D01*
X102814761Y-57337107D02*
X102814761Y-57313297D01*
X102814761Y-57313297D02*
X102790952Y-57265678D01*
X102790952Y-57265678D02*
X102767142Y-57241869D01*
X102767142Y-57241869D02*
X102719523Y-57218059D01*
X102719523Y-57218059D02*
X102624285Y-57218059D01*
X102624285Y-57218059D02*
X102576666Y-57241869D01*
X102576666Y-57241869D02*
X102552857Y-57265678D01*
X102552857Y-57265678D02*
X102529047Y-57313297D01*
X102529047Y-57313297D02*
X102529047Y-57337107D01*
X102529047Y-57337107D02*
X102552857Y-57384726D01*
X102552857Y-57384726D02*
X102576666Y-57408535D01*
X102576666Y-57408535D02*
X102624285Y-57432345D01*
X102624285Y-57432345D02*
X102719523Y-57432345D01*
X102719523Y-57432345D02*
X102767142Y-57456154D01*
X102767142Y-57456154D02*
X102790952Y-57479964D01*
X102790952Y-57479964D02*
X102814761Y-57527583D01*
X102814761Y-57527583D02*
X102814761Y-57622821D01*
X102814761Y-57622821D02*
X102790952Y-57670440D01*
X102790952Y-57670440D02*
X102767142Y-57694250D01*
X102767142Y-57694250D02*
X102719523Y-57718059D01*
X102719523Y-57718059D02*
X102624285Y-57718059D01*
X102624285Y-57718059D02*
X102576666Y-57694250D01*
X102576666Y-57694250D02*
X102552857Y-57670440D01*
X102552857Y-57670440D02*
X102529047Y-57622821D01*
X102529047Y-57622821D02*
X102529047Y-57527583D01*
X102529047Y-57527583D02*
X102552857Y-57479964D01*
X102552857Y-57479964D02*
X102576666Y-57456154D01*
X102576666Y-57456154D02*
X102624285Y-57432345D01*
X103051428Y-87198059D02*
X103218094Y-86959964D01*
X103337142Y-87198059D02*
X103337142Y-86698059D01*
X103337142Y-86698059D02*
X103146666Y-86698059D01*
X103146666Y-86698059D02*
X103099047Y-86721869D01*
X103099047Y-86721869D02*
X103075237Y-86745678D01*
X103075237Y-86745678D02*
X103051428Y-86793297D01*
X103051428Y-86793297D02*
X103051428Y-86864726D01*
X103051428Y-86864726D02*
X103075237Y-86912345D01*
X103075237Y-86912345D02*
X103099047Y-86936154D01*
X103099047Y-86936154D02*
X103146666Y-86959964D01*
X103146666Y-86959964D02*
X103337142Y-86959964D01*
X102622856Y-86864726D02*
X102622856Y-87198059D01*
X102741904Y-86674250D02*
X102860951Y-87031392D01*
X102860951Y-87031392D02*
X102551428Y-87031392D01*
X102289523Y-86912345D02*
X102337142Y-86888535D01*
X102337142Y-86888535D02*
X102360952Y-86864726D01*
X102360952Y-86864726D02*
X102384761Y-86817107D01*
X102384761Y-86817107D02*
X102384761Y-86793297D01*
X102384761Y-86793297D02*
X102360952Y-86745678D01*
X102360952Y-86745678D02*
X102337142Y-86721869D01*
X102337142Y-86721869D02*
X102289523Y-86698059D01*
X102289523Y-86698059D02*
X102194285Y-86698059D01*
X102194285Y-86698059D02*
X102146666Y-86721869D01*
X102146666Y-86721869D02*
X102122857Y-86745678D01*
X102122857Y-86745678D02*
X102099047Y-86793297D01*
X102099047Y-86793297D02*
X102099047Y-86817107D01*
X102099047Y-86817107D02*
X102122857Y-86864726D01*
X102122857Y-86864726D02*
X102146666Y-86888535D01*
X102146666Y-86888535D02*
X102194285Y-86912345D01*
X102194285Y-86912345D02*
X102289523Y-86912345D01*
X102289523Y-86912345D02*
X102337142Y-86936154D01*
X102337142Y-86936154D02*
X102360952Y-86959964D01*
X102360952Y-86959964D02*
X102384761Y-87007583D01*
X102384761Y-87007583D02*
X102384761Y-87102821D01*
X102384761Y-87102821D02*
X102360952Y-87150440D01*
X102360952Y-87150440D02*
X102337142Y-87174250D01*
X102337142Y-87174250D02*
X102289523Y-87198059D01*
X102289523Y-87198059D02*
X102194285Y-87198059D01*
X102194285Y-87198059D02*
X102146666Y-87174250D01*
X102146666Y-87174250D02*
X102122857Y-87150440D01*
X102122857Y-87150440D02*
X102099047Y-87102821D01*
X102099047Y-87102821D02*
X102099047Y-87007583D01*
X102099047Y-87007583D02*
X102122857Y-86959964D01*
X102122857Y-86959964D02*
X102146666Y-86936154D01*
X102146666Y-86936154D02*
X102194285Y-86912345D01*
X69381428Y-80700440D02*
X69405237Y-80724250D01*
X69405237Y-80724250D02*
X69476666Y-80748059D01*
X69476666Y-80748059D02*
X69524285Y-80748059D01*
X69524285Y-80748059D02*
X69595713Y-80724250D01*
X69595713Y-80724250D02*
X69643332Y-80676630D01*
X69643332Y-80676630D02*
X69667142Y-80629011D01*
X69667142Y-80629011D02*
X69690951Y-80533773D01*
X69690951Y-80533773D02*
X69690951Y-80462345D01*
X69690951Y-80462345D02*
X69667142Y-80367107D01*
X69667142Y-80367107D02*
X69643332Y-80319488D01*
X69643332Y-80319488D02*
X69595713Y-80271869D01*
X69595713Y-80271869D02*
X69524285Y-80248059D01*
X69524285Y-80248059D02*
X69476666Y-80248059D01*
X69476666Y-80248059D02*
X69405237Y-80271869D01*
X69405237Y-80271869D02*
X69381428Y-80295678D01*
X68952856Y-80248059D02*
X69048094Y-80248059D01*
X69048094Y-80248059D02*
X69095713Y-80271869D01*
X69095713Y-80271869D02*
X69119523Y-80295678D01*
X69119523Y-80295678D02*
X69167142Y-80367107D01*
X69167142Y-80367107D02*
X69190951Y-80462345D01*
X69190951Y-80462345D02*
X69190951Y-80652821D01*
X69190951Y-80652821D02*
X69167142Y-80700440D01*
X69167142Y-80700440D02*
X69143332Y-80724250D01*
X69143332Y-80724250D02*
X69095713Y-80748059D01*
X69095713Y-80748059D02*
X69000475Y-80748059D01*
X69000475Y-80748059D02*
X68952856Y-80724250D01*
X68952856Y-80724250D02*
X68929047Y-80700440D01*
X68929047Y-80700440D02*
X68905237Y-80652821D01*
X68905237Y-80652821D02*
X68905237Y-80533773D01*
X68905237Y-80533773D02*
X68929047Y-80486154D01*
X68929047Y-80486154D02*
X68952856Y-80462345D01*
X68952856Y-80462345D02*
X69000475Y-80438535D01*
X69000475Y-80438535D02*
X69095713Y-80438535D01*
X69095713Y-80438535D02*
X69143332Y-80462345D01*
X69143332Y-80462345D02*
X69167142Y-80486154D01*
X69167142Y-80486154D02*
X69190951Y-80533773D01*
X68714761Y-80295678D02*
X68690952Y-80271869D01*
X68690952Y-80271869D02*
X68643333Y-80248059D01*
X68643333Y-80248059D02*
X68524285Y-80248059D01*
X68524285Y-80248059D02*
X68476666Y-80271869D01*
X68476666Y-80271869D02*
X68452857Y-80295678D01*
X68452857Y-80295678D02*
X68429047Y-80343297D01*
X68429047Y-80343297D02*
X68429047Y-80390916D01*
X68429047Y-80390916D02*
X68452857Y-80462345D01*
X68452857Y-80462345D02*
X68738571Y-80748059D01*
X68738571Y-80748059D02*
X68429047Y-80748059D01*
X75431428Y-77698059D02*
X75598094Y-77459964D01*
X75717142Y-77698059D02*
X75717142Y-77198059D01*
X75717142Y-77198059D02*
X75526666Y-77198059D01*
X75526666Y-77198059D02*
X75479047Y-77221869D01*
X75479047Y-77221869D02*
X75455237Y-77245678D01*
X75455237Y-77245678D02*
X75431428Y-77293297D01*
X75431428Y-77293297D02*
X75431428Y-77364726D01*
X75431428Y-77364726D02*
X75455237Y-77412345D01*
X75455237Y-77412345D02*
X75479047Y-77436154D01*
X75479047Y-77436154D02*
X75526666Y-77459964D01*
X75526666Y-77459964D02*
X75717142Y-77459964D01*
X75264761Y-77198059D02*
X74931428Y-77198059D01*
X74931428Y-77198059D02*
X75145713Y-77698059D01*
X74764761Y-77245678D02*
X74740952Y-77221869D01*
X74740952Y-77221869D02*
X74693333Y-77198059D01*
X74693333Y-77198059D02*
X74574285Y-77198059D01*
X74574285Y-77198059D02*
X74526666Y-77221869D01*
X74526666Y-77221869D02*
X74502857Y-77245678D01*
X74502857Y-77245678D02*
X74479047Y-77293297D01*
X74479047Y-77293297D02*
X74479047Y-77340916D01*
X74479047Y-77340916D02*
X74502857Y-77412345D01*
X74502857Y-77412345D02*
X74788571Y-77698059D01*
X74788571Y-77698059D02*
X74479047Y-77698059D01*
X110887619Y-77395678D02*
X110935238Y-77371869D01*
X110935238Y-77371869D02*
X110982857Y-77324250D01*
X110982857Y-77324250D02*
X111054285Y-77252821D01*
X111054285Y-77252821D02*
X111101904Y-77229011D01*
X111101904Y-77229011D02*
X111149523Y-77229011D01*
X111125714Y-77348059D02*
X111173333Y-77324250D01*
X111173333Y-77324250D02*
X111220952Y-77276630D01*
X111220952Y-77276630D02*
X111244761Y-77181392D01*
X111244761Y-77181392D02*
X111244761Y-77014726D01*
X111244761Y-77014726D02*
X111220952Y-76919488D01*
X111220952Y-76919488D02*
X111173333Y-76871869D01*
X111173333Y-76871869D02*
X111125714Y-76848059D01*
X111125714Y-76848059D02*
X111030476Y-76848059D01*
X111030476Y-76848059D02*
X110982857Y-76871869D01*
X110982857Y-76871869D02*
X110935238Y-76919488D01*
X110935238Y-76919488D02*
X110911428Y-77014726D01*
X110911428Y-77014726D02*
X110911428Y-77181392D01*
X110911428Y-77181392D02*
X110935238Y-77276630D01*
X110935238Y-77276630D02*
X110982857Y-77324250D01*
X110982857Y-77324250D02*
X111030476Y-77348059D01*
X111030476Y-77348059D02*
X111125714Y-77348059D01*
X110482856Y-77014726D02*
X110482856Y-77348059D01*
X110601904Y-76824250D02*
X110720951Y-77181392D01*
X110720951Y-77181392D02*
X110411428Y-77181392D01*
X68171428Y-101230440D02*
X68195237Y-101254250D01*
X68195237Y-101254250D02*
X68266666Y-101278059D01*
X68266666Y-101278059D02*
X68314285Y-101278059D01*
X68314285Y-101278059D02*
X68385713Y-101254250D01*
X68385713Y-101254250D02*
X68433332Y-101206630D01*
X68433332Y-101206630D02*
X68457142Y-101159011D01*
X68457142Y-101159011D02*
X68480951Y-101063773D01*
X68480951Y-101063773D02*
X68480951Y-100992345D01*
X68480951Y-100992345D02*
X68457142Y-100897107D01*
X68457142Y-100897107D02*
X68433332Y-100849488D01*
X68433332Y-100849488D02*
X68385713Y-100801869D01*
X68385713Y-100801869D02*
X68314285Y-100778059D01*
X68314285Y-100778059D02*
X68266666Y-100778059D01*
X68266666Y-100778059D02*
X68195237Y-100801869D01*
X68195237Y-100801869D02*
X68171428Y-100825678D01*
X67719047Y-100778059D02*
X67957142Y-100778059D01*
X67957142Y-100778059D02*
X67980951Y-101016154D01*
X67980951Y-101016154D02*
X67957142Y-100992345D01*
X67957142Y-100992345D02*
X67909523Y-100968535D01*
X67909523Y-100968535D02*
X67790475Y-100968535D01*
X67790475Y-100968535D02*
X67742856Y-100992345D01*
X67742856Y-100992345D02*
X67719047Y-101016154D01*
X67719047Y-101016154D02*
X67695237Y-101063773D01*
X67695237Y-101063773D02*
X67695237Y-101182821D01*
X67695237Y-101182821D02*
X67719047Y-101230440D01*
X67719047Y-101230440D02*
X67742856Y-101254250D01*
X67742856Y-101254250D02*
X67790475Y-101278059D01*
X67790475Y-101278059D02*
X67909523Y-101278059D01*
X67909523Y-101278059D02*
X67957142Y-101254250D01*
X67957142Y-101254250D02*
X67980951Y-101230440D01*
X67219047Y-101278059D02*
X67504761Y-101278059D01*
X67361904Y-101278059D02*
X67361904Y-100778059D01*
X67361904Y-100778059D02*
X67409523Y-100849488D01*
X67409523Y-100849488D02*
X67457142Y-100897107D01*
X67457142Y-100897107D02*
X67504761Y-100920916D01*
X75731428Y-80730440D02*
X75755237Y-80754250D01*
X75755237Y-80754250D02*
X75826666Y-80778059D01*
X75826666Y-80778059D02*
X75874285Y-80778059D01*
X75874285Y-80778059D02*
X75945713Y-80754250D01*
X75945713Y-80754250D02*
X75993332Y-80706630D01*
X75993332Y-80706630D02*
X76017142Y-80659011D01*
X76017142Y-80659011D02*
X76040951Y-80563773D01*
X76040951Y-80563773D02*
X76040951Y-80492345D01*
X76040951Y-80492345D02*
X76017142Y-80397107D01*
X76017142Y-80397107D02*
X75993332Y-80349488D01*
X75993332Y-80349488D02*
X75945713Y-80301869D01*
X75945713Y-80301869D02*
X75874285Y-80278059D01*
X75874285Y-80278059D02*
X75826666Y-80278059D01*
X75826666Y-80278059D02*
X75755237Y-80301869D01*
X75755237Y-80301869D02*
X75731428Y-80325678D01*
X75302856Y-80278059D02*
X75398094Y-80278059D01*
X75398094Y-80278059D02*
X75445713Y-80301869D01*
X75445713Y-80301869D02*
X75469523Y-80325678D01*
X75469523Y-80325678D02*
X75517142Y-80397107D01*
X75517142Y-80397107D02*
X75540951Y-80492345D01*
X75540951Y-80492345D02*
X75540951Y-80682821D01*
X75540951Y-80682821D02*
X75517142Y-80730440D01*
X75517142Y-80730440D02*
X75493332Y-80754250D01*
X75493332Y-80754250D02*
X75445713Y-80778059D01*
X75445713Y-80778059D02*
X75350475Y-80778059D01*
X75350475Y-80778059D02*
X75302856Y-80754250D01*
X75302856Y-80754250D02*
X75279047Y-80730440D01*
X75279047Y-80730440D02*
X75255237Y-80682821D01*
X75255237Y-80682821D02*
X75255237Y-80563773D01*
X75255237Y-80563773D02*
X75279047Y-80516154D01*
X75279047Y-80516154D02*
X75302856Y-80492345D01*
X75302856Y-80492345D02*
X75350475Y-80468535D01*
X75350475Y-80468535D02*
X75445713Y-80468535D01*
X75445713Y-80468535D02*
X75493332Y-80492345D01*
X75493332Y-80492345D02*
X75517142Y-80516154D01*
X75517142Y-80516154D02*
X75540951Y-80563773D01*
X74826666Y-80278059D02*
X74921904Y-80278059D01*
X74921904Y-80278059D02*
X74969523Y-80301869D01*
X74969523Y-80301869D02*
X74993333Y-80325678D01*
X74993333Y-80325678D02*
X75040952Y-80397107D01*
X75040952Y-80397107D02*
X75064761Y-80492345D01*
X75064761Y-80492345D02*
X75064761Y-80682821D01*
X75064761Y-80682821D02*
X75040952Y-80730440D01*
X75040952Y-80730440D02*
X75017142Y-80754250D01*
X75017142Y-80754250D02*
X74969523Y-80778059D01*
X74969523Y-80778059D02*
X74874285Y-80778059D01*
X74874285Y-80778059D02*
X74826666Y-80754250D01*
X74826666Y-80754250D02*
X74802857Y-80730440D01*
X74802857Y-80730440D02*
X74779047Y-80682821D01*
X74779047Y-80682821D02*
X74779047Y-80563773D01*
X74779047Y-80563773D02*
X74802857Y-80516154D01*
X74802857Y-80516154D02*
X74826666Y-80492345D01*
X74826666Y-80492345D02*
X74874285Y-80468535D01*
X74874285Y-80468535D02*
X74969523Y-80468535D01*
X74969523Y-80468535D02*
X75017142Y-80492345D01*
X75017142Y-80492345D02*
X75040952Y-80516154D01*
X75040952Y-80516154D02*
X75064761Y-80563773D01*
X99768059Y-73478571D02*
X99529964Y-73311905D01*
X99768059Y-73192857D02*
X99268059Y-73192857D01*
X99268059Y-73192857D02*
X99268059Y-73383333D01*
X99268059Y-73383333D02*
X99291869Y-73430952D01*
X99291869Y-73430952D02*
X99315678Y-73454762D01*
X99315678Y-73454762D02*
X99363297Y-73478571D01*
X99363297Y-73478571D02*
X99434726Y-73478571D01*
X99434726Y-73478571D02*
X99482345Y-73454762D01*
X99482345Y-73454762D02*
X99506154Y-73430952D01*
X99506154Y-73430952D02*
X99529964Y-73383333D01*
X99529964Y-73383333D02*
X99529964Y-73192857D01*
X99482345Y-73764286D02*
X99458535Y-73716667D01*
X99458535Y-73716667D02*
X99434726Y-73692857D01*
X99434726Y-73692857D02*
X99387107Y-73669048D01*
X99387107Y-73669048D02*
X99363297Y-73669048D01*
X99363297Y-73669048D02*
X99315678Y-73692857D01*
X99315678Y-73692857D02*
X99291869Y-73716667D01*
X99291869Y-73716667D02*
X99268059Y-73764286D01*
X99268059Y-73764286D02*
X99268059Y-73859524D01*
X99268059Y-73859524D02*
X99291869Y-73907143D01*
X99291869Y-73907143D02*
X99315678Y-73930952D01*
X99315678Y-73930952D02*
X99363297Y-73954762D01*
X99363297Y-73954762D02*
X99387107Y-73954762D01*
X99387107Y-73954762D02*
X99434726Y-73930952D01*
X99434726Y-73930952D02*
X99458535Y-73907143D01*
X99458535Y-73907143D02*
X99482345Y-73859524D01*
X99482345Y-73859524D02*
X99482345Y-73764286D01*
X99482345Y-73764286D02*
X99506154Y-73716667D01*
X99506154Y-73716667D02*
X99529964Y-73692857D01*
X99529964Y-73692857D02*
X99577583Y-73669048D01*
X99577583Y-73669048D02*
X99672821Y-73669048D01*
X99672821Y-73669048D02*
X99720440Y-73692857D01*
X99720440Y-73692857D02*
X99744250Y-73716667D01*
X99744250Y-73716667D02*
X99768059Y-73764286D01*
X99768059Y-73764286D02*
X99768059Y-73859524D01*
X99768059Y-73859524D02*
X99744250Y-73907143D01*
X99744250Y-73907143D02*
X99720440Y-73930952D01*
X99720440Y-73930952D02*
X99672821Y-73954762D01*
X99672821Y-73954762D02*
X99577583Y-73954762D01*
X99577583Y-73954762D02*
X99529964Y-73930952D01*
X99529964Y-73930952D02*
X99506154Y-73907143D01*
X99506154Y-73907143D02*
X99482345Y-73859524D01*
X99768059Y-74430952D02*
X99768059Y-74145238D01*
X99768059Y-74288095D02*
X99268059Y-74288095D01*
X99268059Y-74288095D02*
X99339488Y-74240476D01*
X99339488Y-74240476D02*
X99387107Y-74192857D01*
X99387107Y-74192857D02*
X99410916Y-74145238D01*
X53811428Y-100598059D02*
X53978094Y-100359964D01*
X54097142Y-100598059D02*
X54097142Y-100098059D01*
X54097142Y-100098059D02*
X53906666Y-100098059D01*
X53906666Y-100098059D02*
X53859047Y-100121869D01*
X53859047Y-100121869D02*
X53835237Y-100145678D01*
X53835237Y-100145678D02*
X53811428Y-100193297D01*
X53811428Y-100193297D02*
X53811428Y-100264726D01*
X53811428Y-100264726D02*
X53835237Y-100312345D01*
X53835237Y-100312345D02*
X53859047Y-100336154D01*
X53859047Y-100336154D02*
X53906666Y-100359964D01*
X53906666Y-100359964D02*
X54097142Y-100359964D01*
X53644761Y-100098059D02*
X53335237Y-100098059D01*
X53335237Y-100098059D02*
X53501904Y-100288535D01*
X53501904Y-100288535D02*
X53430475Y-100288535D01*
X53430475Y-100288535D02*
X53382856Y-100312345D01*
X53382856Y-100312345D02*
X53359047Y-100336154D01*
X53359047Y-100336154D02*
X53335237Y-100383773D01*
X53335237Y-100383773D02*
X53335237Y-100502821D01*
X53335237Y-100502821D02*
X53359047Y-100550440D01*
X53359047Y-100550440D02*
X53382856Y-100574250D01*
X53382856Y-100574250D02*
X53430475Y-100598059D01*
X53430475Y-100598059D02*
X53573332Y-100598059D01*
X53573332Y-100598059D02*
X53620951Y-100574250D01*
X53620951Y-100574250D02*
X53644761Y-100550440D01*
X53097142Y-100598059D02*
X53001904Y-100598059D01*
X53001904Y-100598059D02*
X52954285Y-100574250D01*
X52954285Y-100574250D02*
X52930476Y-100550440D01*
X52930476Y-100550440D02*
X52882857Y-100479011D01*
X52882857Y-100479011D02*
X52859047Y-100383773D01*
X52859047Y-100383773D02*
X52859047Y-100193297D01*
X52859047Y-100193297D02*
X52882857Y-100145678D01*
X52882857Y-100145678D02*
X52906666Y-100121869D01*
X52906666Y-100121869D02*
X52954285Y-100098059D01*
X52954285Y-100098059D02*
X53049523Y-100098059D01*
X53049523Y-100098059D02*
X53097142Y-100121869D01*
X53097142Y-100121869D02*
X53120952Y-100145678D01*
X53120952Y-100145678D02*
X53144761Y-100193297D01*
X53144761Y-100193297D02*
X53144761Y-100312345D01*
X53144761Y-100312345D02*
X53120952Y-100359964D01*
X53120952Y-100359964D02*
X53097142Y-100383773D01*
X53097142Y-100383773D02*
X53049523Y-100407583D01*
X53049523Y-100407583D02*
X52954285Y-100407583D01*
X52954285Y-100407583D02*
X52906666Y-100383773D01*
X52906666Y-100383773D02*
X52882857Y-100359964D01*
X52882857Y-100359964D02*
X52859047Y-100312345D01*
X55521428Y-93778059D02*
X55688094Y-93539964D01*
X55807142Y-93778059D02*
X55807142Y-93278059D01*
X55807142Y-93278059D02*
X55616666Y-93278059D01*
X55616666Y-93278059D02*
X55569047Y-93301869D01*
X55569047Y-93301869D02*
X55545237Y-93325678D01*
X55545237Y-93325678D02*
X55521428Y-93373297D01*
X55521428Y-93373297D02*
X55521428Y-93444726D01*
X55521428Y-93444726D02*
X55545237Y-93492345D01*
X55545237Y-93492345D02*
X55569047Y-93516154D01*
X55569047Y-93516154D02*
X55616666Y-93539964D01*
X55616666Y-93539964D02*
X55807142Y-93539964D01*
X55354761Y-93278059D02*
X55045237Y-93278059D01*
X55045237Y-93278059D02*
X55211904Y-93468535D01*
X55211904Y-93468535D02*
X55140475Y-93468535D01*
X55140475Y-93468535D02*
X55092856Y-93492345D01*
X55092856Y-93492345D02*
X55069047Y-93516154D01*
X55069047Y-93516154D02*
X55045237Y-93563773D01*
X55045237Y-93563773D02*
X55045237Y-93682821D01*
X55045237Y-93682821D02*
X55069047Y-93730440D01*
X55069047Y-93730440D02*
X55092856Y-93754250D01*
X55092856Y-93754250D02*
X55140475Y-93778059D01*
X55140475Y-93778059D02*
X55283332Y-93778059D01*
X55283332Y-93778059D02*
X55330951Y-93754250D01*
X55330951Y-93754250D02*
X55354761Y-93730440D01*
X54878571Y-93278059D02*
X54545238Y-93278059D01*
X54545238Y-93278059D02*
X54759523Y-93778059D01*
X81591428Y-80710440D02*
X81615237Y-80734250D01*
X81615237Y-80734250D02*
X81686666Y-80758059D01*
X81686666Y-80758059D02*
X81734285Y-80758059D01*
X81734285Y-80758059D02*
X81805713Y-80734250D01*
X81805713Y-80734250D02*
X81853332Y-80686630D01*
X81853332Y-80686630D02*
X81877142Y-80639011D01*
X81877142Y-80639011D02*
X81900951Y-80543773D01*
X81900951Y-80543773D02*
X81900951Y-80472345D01*
X81900951Y-80472345D02*
X81877142Y-80377107D01*
X81877142Y-80377107D02*
X81853332Y-80329488D01*
X81853332Y-80329488D02*
X81805713Y-80281869D01*
X81805713Y-80281869D02*
X81734285Y-80258059D01*
X81734285Y-80258059D02*
X81686666Y-80258059D01*
X81686666Y-80258059D02*
X81615237Y-80281869D01*
X81615237Y-80281869D02*
X81591428Y-80305678D01*
X81162856Y-80258059D02*
X81258094Y-80258059D01*
X81258094Y-80258059D02*
X81305713Y-80281869D01*
X81305713Y-80281869D02*
X81329523Y-80305678D01*
X81329523Y-80305678D02*
X81377142Y-80377107D01*
X81377142Y-80377107D02*
X81400951Y-80472345D01*
X81400951Y-80472345D02*
X81400951Y-80662821D01*
X81400951Y-80662821D02*
X81377142Y-80710440D01*
X81377142Y-80710440D02*
X81353332Y-80734250D01*
X81353332Y-80734250D02*
X81305713Y-80758059D01*
X81305713Y-80758059D02*
X81210475Y-80758059D01*
X81210475Y-80758059D02*
X81162856Y-80734250D01*
X81162856Y-80734250D02*
X81139047Y-80710440D01*
X81139047Y-80710440D02*
X81115237Y-80662821D01*
X81115237Y-80662821D02*
X81115237Y-80543773D01*
X81115237Y-80543773D02*
X81139047Y-80496154D01*
X81139047Y-80496154D02*
X81162856Y-80472345D01*
X81162856Y-80472345D02*
X81210475Y-80448535D01*
X81210475Y-80448535D02*
X81305713Y-80448535D01*
X81305713Y-80448535D02*
X81353332Y-80472345D01*
X81353332Y-80472345D02*
X81377142Y-80496154D01*
X81377142Y-80496154D02*
X81400951Y-80543773D01*
X80686666Y-80424726D02*
X80686666Y-80758059D01*
X80805714Y-80234250D02*
X80924761Y-80591392D01*
X80924761Y-80591392D02*
X80615238Y-80591392D01*
X133671428Y-57508059D02*
X133838094Y-57269964D01*
X133957142Y-57508059D02*
X133957142Y-57008059D01*
X133957142Y-57008059D02*
X133766666Y-57008059D01*
X133766666Y-57008059D02*
X133719047Y-57031869D01*
X133719047Y-57031869D02*
X133695237Y-57055678D01*
X133695237Y-57055678D02*
X133671428Y-57103297D01*
X133671428Y-57103297D02*
X133671428Y-57174726D01*
X133671428Y-57174726D02*
X133695237Y-57222345D01*
X133695237Y-57222345D02*
X133719047Y-57246154D01*
X133719047Y-57246154D02*
X133766666Y-57269964D01*
X133766666Y-57269964D02*
X133957142Y-57269964D01*
X133219047Y-57008059D02*
X133457142Y-57008059D01*
X133457142Y-57008059D02*
X133480951Y-57246154D01*
X133480951Y-57246154D02*
X133457142Y-57222345D01*
X133457142Y-57222345D02*
X133409523Y-57198535D01*
X133409523Y-57198535D02*
X133290475Y-57198535D01*
X133290475Y-57198535D02*
X133242856Y-57222345D01*
X133242856Y-57222345D02*
X133219047Y-57246154D01*
X133219047Y-57246154D02*
X133195237Y-57293773D01*
X133195237Y-57293773D02*
X133195237Y-57412821D01*
X133195237Y-57412821D02*
X133219047Y-57460440D01*
X133219047Y-57460440D02*
X133242856Y-57484250D01*
X133242856Y-57484250D02*
X133290475Y-57508059D01*
X133290475Y-57508059D02*
X133409523Y-57508059D01*
X133409523Y-57508059D02*
X133457142Y-57484250D01*
X133457142Y-57484250D02*
X133480951Y-57460440D01*
X133004761Y-57055678D02*
X132980952Y-57031869D01*
X132980952Y-57031869D02*
X132933333Y-57008059D01*
X132933333Y-57008059D02*
X132814285Y-57008059D01*
X132814285Y-57008059D02*
X132766666Y-57031869D01*
X132766666Y-57031869D02*
X132742857Y-57055678D01*
X132742857Y-57055678D02*
X132719047Y-57103297D01*
X132719047Y-57103297D02*
X132719047Y-57150916D01*
X132719047Y-57150916D02*
X132742857Y-57222345D01*
X132742857Y-57222345D02*
X133028571Y-57508059D01*
X133028571Y-57508059D02*
X132719047Y-57508059D01*
X103321428Y-96358059D02*
X103488094Y-96119964D01*
X103607142Y-96358059D02*
X103607142Y-95858059D01*
X103607142Y-95858059D02*
X103416666Y-95858059D01*
X103416666Y-95858059D02*
X103369047Y-95881869D01*
X103369047Y-95881869D02*
X103345237Y-95905678D01*
X103345237Y-95905678D02*
X103321428Y-95953297D01*
X103321428Y-95953297D02*
X103321428Y-96024726D01*
X103321428Y-96024726D02*
X103345237Y-96072345D01*
X103345237Y-96072345D02*
X103369047Y-96096154D01*
X103369047Y-96096154D02*
X103416666Y-96119964D01*
X103416666Y-96119964D02*
X103607142Y-96119964D01*
X102869047Y-95858059D02*
X103107142Y-95858059D01*
X103107142Y-95858059D02*
X103130951Y-96096154D01*
X103130951Y-96096154D02*
X103107142Y-96072345D01*
X103107142Y-96072345D02*
X103059523Y-96048535D01*
X103059523Y-96048535D02*
X102940475Y-96048535D01*
X102940475Y-96048535D02*
X102892856Y-96072345D01*
X102892856Y-96072345D02*
X102869047Y-96096154D01*
X102869047Y-96096154D02*
X102845237Y-96143773D01*
X102845237Y-96143773D02*
X102845237Y-96262821D01*
X102845237Y-96262821D02*
X102869047Y-96310440D01*
X102869047Y-96310440D02*
X102892856Y-96334250D01*
X102892856Y-96334250D02*
X102940475Y-96358059D01*
X102940475Y-96358059D02*
X103059523Y-96358059D01*
X103059523Y-96358059D02*
X103107142Y-96334250D01*
X103107142Y-96334250D02*
X103130951Y-96310440D01*
X102369047Y-96358059D02*
X102654761Y-96358059D01*
X102511904Y-96358059D02*
X102511904Y-95858059D01*
X102511904Y-95858059D02*
X102559523Y-95929488D01*
X102559523Y-95929488D02*
X102607142Y-95977107D01*
X102607142Y-95977107D02*
X102654761Y-96000916D01*
X103321428Y-77108059D02*
X103488094Y-76869964D01*
X103607142Y-77108059D02*
X103607142Y-76608059D01*
X103607142Y-76608059D02*
X103416666Y-76608059D01*
X103416666Y-76608059D02*
X103369047Y-76631869D01*
X103369047Y-76631869D02*
X103345237Y-76655678D01*
X103345237Y-76655678D02*
X103321428Y-76703297D01*
X103321428Y-76703297D02*
X103321428Y-76774726D01*
X103321428Y-76774726D02*
X103345237Y-76822345D01*
X103345237Y-76822345D02*
X103369047Y-76846154D01*
X103369047Y-76846154D02*
X103416666Y-76869964D01*
X103416666Y-76869964D02*
X103607142Y-76869964D01*
X103130951Y-76655678D02*
X103107142Y-76631869D01*
X103107142Y-76631869D02*
X103059523Y-76608059D01*
X103059523Y-76608059D02*
X102940475Y-76608059D01*
X102940475Y-76608059D02*
X102892856Y-76631869D01*
X102892856Y-76631869D02*
X102869047Y-76655678D01*
X102869047Y-76655678D02*
X102845237Y-76703297D01*
X102845237Y-76703297D02*
X102845237Y-76750916D01*
X102845237Y-76750916D02*
X102869047Y-76822345D01*
X102869047Y-76822345D02*
X103154761Y-77108059D01*
X103154761Y-77108059D02*
X102845237Y-77108059D01*
X102678571Y-76608059D02*
X102345238Y-76608059D01*
X102345238Y-76608059D02*
X102559523Y-77108059D01*
X111137619Y-102645678D02*
X111185238Y-102621869D01*
X111185238Y-102621869D02*
X111232857Y-102574250D01*
X111232857Y-102574250D02*
X111304285Y-102502821D01*
X111304285Y-102502821D02*
X111351904Y-102479011D01*
X111351904Y-102479011D02*
X111399523Y-102479011D01*
X111375714Y-102598059D02*
X111423333Y-102574250D01*
X111423333Y-102574250D02*
X111470952Y-102526630D01*
X111470952Y-102526630D02*
X111494761Y-102431392D01*
X111494761Y-102431392D02*
X111494761Y-102264726D01*
X111494761Y-102264726D02*
X111470952Y-102169488D01*
X111470952Y-102169488D02*
X111423333Y-102121869D01*
X111423333Y-102121869D02*
X111375714Y-102098059D01*
X111375714Y-102098059D02*
X111280476Y-102098059D01*
X111280476Y-102098059D02*
X111232857Y-102121869D01*
X111232857Y-102121869D02*
X111185238Y-102169488D01*
X111185238Y-102169488D02*
X111161428Y-102264726D01*
X111161428Y-102264726D02*
X111161428Y-102431392D01*
X111161428Y-102431392D02*
X111185238Y-102526630D01*
X111185238Y-102526630D02*
X111232857Y-102574250D01*
X111232857Y-102574250D02*
X111280476Y-102598059D01*
X111280476Y-102598059D02*
X111375714Y-102598059D01*
X110875713Y-102312345D02*
X110923332Y-102288535D01*
X110923332Y-102288535D02*
X110947142Y-102264726D01*
X110947142Y-102264726D02*
X110970951Y-102217107D01*
X110970951Y-102217107D02*
X110970951Y-102193297D01*
X110970951Y-102193297D02*
X110947142Y-102145678D01*
X110947142Y-102145678D02*
X110923332Y-102121869D01*
X110923332Y-102121869D02*
X110875713Y-102098059D01*
X110875713Y-102098059D02*
X110780475Y-102098059D01*
X110780475Y-102098059D02*
X110732856Y-102121869D01*
X110732856Y-102121869D02*
X110709047Y-102145678D01*
X110709047Y-102145678D02*
X110685237Y-102193297D01*
X110685237Y-102193297D02*
X110685237Y-102217107D01*
X110685237Y-102217107D02*
X110709047Y-102264726D01*
X110709047Y-102264726D02*
X110732856Y-102288535D01*
X110732856Y-102288535D02*
X110780475Y-102312345D01*
X110780475Y-102312345D02*
X110875713Y-102312345D01*
X110875713Y-102312345D02*
X110923332Y-102336154D01*
X110923332Y-102336154D02*
X110947142Y-102359964D01*
X110947142Y-102359964D02*
X110970951Y-102407583D01*
X110970951Y-102407583D02*
X110970951Y-102502821D01*
X110970951Y-102502821D02*
X110947142Y-102550440D01*
X110947142Y-102550440D02*
X110923332Y-102574250D01*
X110923332Y-102574250D02*
X110875713Y-102598059D01*
X110875713Y-102598059D02*
X110780475Y-102598059D01*
X110780475Y-102598059D02*
X110732856Y-102574250D01*
X110732856Y-102574250D02*
X110709047Y-102550440D01*
X110709047Y-102550440D02*
X110685237Y-102502821D01*
X110685237Y-102502821D02*
X110685237Y-102407583D01*
X110685237Y-102407583D02*
X110709047Y-102359964D01*
X110709047Y-102359964D02*
X110732856Y-102336154D01*
X110732856Y-102336154D02*
X110780475Y-102312345D01*
X55121428Y-92298059D02*
X55288094Y-92059964D01*
X55407142Y-92298059D02*
X55407142Y-91798059D01*
X55407142Y-91798059D02*
X55216666Y-91798059D01*
X55216666Y-91798059D02*
X55169047Y-91821869D01*
X55169047Y-91821869D02*
X55145237Y-91845678D01*
X55145237Y-91845678D02*
X55121428Y-91893297D01*
X55121428Y-91893297D02*
X55121428Y-91964726D01*
X55121428Y-91964726D02*
X55145237Y-92012345D01*
X55145237Y-92012345D02*
X55169047Y-92036154D01*
X55169047Y-92036154D02*
X55216666Y-92059964D01*
X55216666Y-92059964D02*
X55407142Y-92059964D01*
X54954761Y-91798059D02*
X54645237Y-91798059D01*
X54645237Y-91798059D02*
X54811904Y-91988535D01*
X54811904Y-91988535D02*
X54740475Y-91988535D01*
X54740475Y-91988535D02*
X54692856Y-92012345D01*
X54692856Y-92012345D02*
X54669047Y-92036154D01*
X54669047Y-92036154D02*
X54645237Y-92083773D01*
X54645237Y-92083773D02*
X54645237Y-92202821D01*
X54645237Y-92202821D02*
X54669047Y-92250440D01*
X54669047Y-92250440D02*
X54692856Y-92274250D01*
X54692856Y-92274250D02*
X54740475Y-92298059D01*
X54740475Y-92298059D02*
X54883332Y-92298059D01*
X54883332Y-92298059D02*
X54930951Y-92274250D01*
X54930951Y-92274250D02*
X54954761Y-92250440D01*
X54216666Y-91964726D02*
X54216666Y-92298059D01*
X54335714Y-91774250D02*
X54454761Y-92131392D01*
X54454761Y-92131392D02*
X54145238Y-92131392D01*
X119361428Y-57648059D02*
X119528094Y-57409964D01*
X119647142Y-57648059D02*
X119647142Y-57148059D01*
X119647142Y-57148059D02*
X119456666Y-57148059D01*
X119456666Y-57148059D02*
X119409047Y-57171869D01*
X119409047Y-57171869D02*
X119385237Y-57195678D01*
X119385237Y-57195678D02*
X119361428Y-57243297D01*
X119361428Y-57243297D02*
X119361428Y-57314726D01*
X119361428Y-57314726D02*
X119385237Y-57362345D01*
X119385237Y-57362345D02*
X119409047Y-57386154D01*
X119409047Y-57386154D02*
X119456666Y-57409964D01*
X119456666Y-57409964D02*
X119647142Y-57409964D01*
X118909047Y-57148059D02*
X119147142Y-57148059D01*
X119147142Y-57148059D02*
X119170951Y-57386154D01*
X119170951Y-57386154D02*
X119147142Y-57362345D01*
X119147142Y-57362345D02*
X119099523Y-57338535D01*
X119099523Y-57338535D02*
X118980475Y-57338535D01*
X118980475Y-57338535D02*
X118932856Y-57362345D01*
X118932856Y-57362345D02*
X118909047Y-57386154D01*
X118909047Y-57386154D02*
X118885237Y-57433773D01*
X118885237Y-57433773D02*
X118885237Y-57552821D01*
X118885237Y-57552821D02*
X118909047Y-57600440D01*
X118909047Y-57600440D02*
X118932856Y-57624250D01*
X118932856Y-57624250D02*
X118980475Y-57648059D01*
X118980475Y-57648059D02*
X119099523Y-57648059D01*
X119099523Y-57648059D02*
X119147142Y-57624250D01*
X119147142Y-57624250D02*
X119170951Y-57600440D01*
X118432857Y-57148059D02*
X118670952Y-57148059D01*
X118670952Y-57148059D02*
X118694761Y-57386154D01*
X118694761Y-57386154D02*
X118670952Y-57362345D01*
X118670952Y-57362345D02*
X118623333Y-57338535D01*
X118623333Y-57338535D02*
X118504285Y-57338535D01*
X118504285Y-57338535D02*
X118456666Y-57362345D01*
X118456666Y-57362345D02*
X118432857Y-57386154D01*
X118432857Y-57386154D02*
X118409047Y-57433773D01*
X118409047Y-57433773D02*
X118409047Y-57552821D01*
X118409047Y-57552821D02*
X118432857Y-57600440D01*
X118432857Y-57600440D02*
X118456666Y-57624250D01*
X118456666Y-57624250D02*
X118504285Y-57648059D01*
X118504285Y-57648059D02*
X118623333Y-57648059D01*
X118623333Y-57648059D02*
X118670952Y-57624250D01*
X118670952Y-57624250D02*
X118694761Y-57600440D01*
X92498059Y-101318571D02*
X92259964Y-101151905D01*
X92498059Y-101032857D02*
X91998059Y-101032857D01*
X91998059Y-101032857D02*
X91998059Y-101223333D01*
X91998059Y-101223333D02*
X92021869Y-101270952D01*
X92021869Y-101270952D02*
X92045678Y-101294762D01*
X92045678Y-101294762D02*
X92093297Y-101318571D01*
X92093297Y-101318571D02*
X92164726Y-101318571D01*
X92164726Y-101318571D02*
X92212345Y-101294762D01*
X92212345Y-101294762D02*
X92236154Y-101270952D01*
X92236154Y-101270952D02*
X92259964Y-101223333D01*
X92259964Y-101223333D02*
X92259964Y-101032857D01*
X92164726Y-101747143D02*
X92498059Y-101747143D01*
X91974250Y-101628095D02*
X92331392Y-101509048D01*
X92331392Y-101509048D02*
X92331392Y-101818571D01*
X91998059Y-102223333D02*
X91998059Y-102128095D01*
X91998059Y-102128095D02*
X92021869Y-102080476D01*
X92021869Y-102080476D02*
X92045678Y-102056666D01*
X92045678Y-102056666D02*
X92117107Y-102009047D01*
X92117107Y-102009047D02*
X92212345Y-101985238D01*
X92212345Y-101985238D02*
X92402821Y-101985238D01*
X92402821Y-101985238D02*
X92450440Y-102009047D01*
X92450440Y-102009047D02*
X92474250Y-102032857D01*
X92474250Y-102032857D02*
X92498059Y-102080476D01*
X92498059Y-102080476D02*
X92498059Y-102175714D01*
X92498059Y-102175714D02*
X92474250Y-102223333D01*
X92474250Y-102223333D02*
X92450440Y-102247142D01*
X92450440Y-102247142D02*
X92402821Y-102270952D01*
X92402821Y-102270952D02*
X92283773Y-102270952D01*
X92283773Y-102270952D02*
X92236154Y-102247142D01*
X92236154Y-102247142D02*
X92212345Y-102223333D01*
X92212345Y-102223333D02*
X92188535Y-102175714D01*
X92188535Y-102175714D02*
X92188535Y-102080476D01*
X92188535Y-102080476D02*
X92212345Y-102032857D01*
X92212345Y-102032857D02*
X92236154Y-102009047D01*
X92236154Y-102009047D02*
X92283773Y-101985238D01*
X62871428Y-77748059D02*
X63038094Y-77509964D01*
X63157142Y-77748059D02*
X63157142Y-77248059D01*
X63157142Y-77248059D02*
X62966666Y-77248059D01*
X62966666Y-77248059D02*
X62919047Y-77271869D01*
X62919047Y-77271869D02*
X62895237Y-77295678D01*
X62895237Y-77295678D02*
X62871428Y-77343297D01*
X62871428Y-77343297D02*
X62871428Y-77414726D01*
X62871428Y-77414726D02*
X62895237Y-77462345D01*
X62895237Y-77462345D02*
X62919047Y-77486154D01*
X62919047Y-77486154D02*
X62966666Y-77509964D01*
X62966666Y-77509964D02*
X63157142Y-77509964D01*
X62442856Y-77414726D02*
X62442856Y-77748059D01*
X62561904Y-77224250D02*
X62680951Y-77581392D01*
X62680951Y-77581392D02*
X62371428Y-77581392D01*
X62204761Y-77295678D02*
X62180952Y-77271869D01*
X62180952Y-77271869D02*
X62133333Y-77248059D01*
X62133333Y-77248059D02*
X62014285Y-77248059D01*
X62014285Y-77248059D02*
X61966666Y-77271869D01*
X61966666Y-77271869D02*
X61942857Y-77295678D01*
X61942857Y-77295678D02*
X61919047Y-77343297D01*
X61919047Y-77343297D02*
X61919047Y-77390916D01*
X61919047Y-77390916D02*
X61942857Y-77462345D01*
X61942857Y-77462345D02*
X62228571Y-77748059D01*
X62228571Y-77748059D02*
X61919047Y-77748059D01*
X103321428Y-102218059D02*
X103488094Y-101979964D01*
X103607142Y-102218059D02*
X103607142Y-101718059D01*
X103607142Y-101718059D02*
X103416666Y-101718059D01*
X103416666Y-101718059D02*
X103369047Y-101741869D01*
X103369047Y-101741869D02*
X103345237Y-101765678D01*
X103345237Y-101765678D02*
X103321428Y-101813297D01*
X103321428Y-101813297D02*
X103321428Y-101884726D01*
X103321428Y-101884726D02*
X103345237Y-101932345D01*
X103345237Y-101932345D02*
X103369047Y-101956154D01*
X103369047Y-101956154D02*
X103416666Y-101979964D01*
X103416666Y-101979964D02*
X103607142Y-101979964D01*
X102869047Y-101718059D02*
X103107142Y-101718059D01*
X103107142Y-101718059D02*
X103130951Y-101956154D01*
X103130951Y-101956154D02*
X103107142Y-101932345D01*
X103107142Y-101932345D02*
X103059523Y-101908535D01*
X103059523Y-101908535D02*
X102940475Y-101908535D01*
X102940475Y-101908535D02*
X102892856Y-101932345D01*
X102892856Y-101932345D02*
X102869047Y-101956154D01*
X102869047Y-101956154D02*
X102845237Y-102003773D01*
X102845237Y-102003773D02*
X102845237Y-102122821D01*
X102845237Y-102122821D02*
X102869047Y-102170440D01*
X102869047Y-102170440D02*
X102892856Y-102194250D01*
X102892856Y-102194250D02*
X102940475Y-102218059D01*
X102940475Y-102218059D02*
X103059523Y-102218059D01*
X103059523Y-102218059D02*
X103107142Y-102194250D01*
X103107142Y-102194250D02*
X103130951Y-102170440D01*
X102535714Y-101718059D02*
X102488095Y-101718059D01*
X102488095Y-101718059D02*
X102440476Y-101741869D01*
X102440476Y-101741869D02*
X102416666Y-101765678D01*
X102416666Y-101765678D02*
X102392857Y-101813297D01*
X102392857Y-101813297D02*
X102369047Y-101908535D01*
X102369047Y-101908535D02*
X102369047Y-102027583D01*
X102369047Y-102027583D02*
X102392857Y-102122821D01*
X102392857Y-102122821D02*
X102416666Y-102170440D01*
X102416666Y-102170440D02*
X102440476Y-102194250D01*
X102440476Y-102194250D02*
X102488095Y-102218059D01*
X102488095Y-102218059D02*
X102535714Y-102218059D01*
X102535714Y-102218059D02*
X102583333Y-102194250D01*
X102583333Y-102194250D02*
X102607142Y-102170440D01*
X102607142Y-102170440D02*
X102630952Y-102122821D01*
X102630952Y-102122821D02*
X102654761Y-102027583D01*
X102654761Y-102027583D02*
X102654761Y-101908535D01*
X102654761Y-101908535D02*
X102630952Y-101813297D01*
X102630952Y-101813297D02*
X102607142Y-101765678D01*
X102607142Y-101765678D02*
X102583333Y-101741869D01*
X102583333Y-101741869D02*
X102535714Y-101718059D01*
X103131428Y-70708059D02*
X103298094Y-70469964D01*
X103417142Y-70708059D02*
X103417142Y-70208059D01*
X103417142Y-70208059D02*
X103226666Y-70208059D01*
X103226666Y-70208059D02*
X103179047Y-70231869D01*
X103179047Y-70231869D02*
X103155237Y-70255678D01*
X103155237Y-70255678D02*
X103131428Y-70303297D01*
X103131428Y-70303297D02*
X103131428Y-70374726D01*
X103131428Y-70374726D02*
X103155237Y-70422345D01*
X103155237Y-70422345D02*
X103179047Y-70446154D01*
X103179047Y-70446154D02*
X103226666Y-70469964D01*
X103226666Y-70469964D02*
X103417142Y-70469964D01*
X102964761Y-70208059D02*
X102655237Y-70208059D01*
X102655237Y-70208059D02*
X102821904Y-70398535D01*
X102821904Y-70398535D02*
X102750475Y-70398535D01*
X102750475Y-70398535D02*
X102702856Y-70422345D01*
X102702856Y-70422345D02*
X102679047Y-70446154D01*
X102679047Y-70446154D02*
X102655237Y-70493773D01*
X102655237Y-70493773D02*
X102655237Y-70612821D01*
X102655237Y-70612821D02*
X102679047Y-70660440D01*
X102679047Y-70660440D02*
X102702856Y-70684250D01*
X102702856Y-70684250D02*
X102750475Y-70708059D01*
X102750475Y-70708059D02*
X102893332Y-70708059D01*
X102893332Y-70708059D02*
X102940951Y-70684250D01*
X102940951Y-70684250D02*
X102964761Y-70660440D01*
X102464761Y-70255678D02*
X102440952Y-70231869D01*
X102440952Y-70231869D02*
X102393333Y-70208059D01*
X102393333Y-70208059D02*
X102274285Y-70208059D01*
X102274285Y-70208059D02*
X102226666Y-70231869D01*
X102226666Y-70231869D02*
X102202857Y-70255678D01*
X102202857Y-70255678D02*
X102179047Y-70303297D01*
X102179047Y-70303297D02*
X102179047Y-70350916D01*
X102179047Y-70350916D02*
X102202857Y-70422345D01*
X102202857Y-70422345D02*
X102488571Y-70708059D01*
X102488571Y-70708059D02*
X102179047Y-70708059D01*
X72561428Y-102330440D02*
X72585237Y-102354250D01*
X72585237Y-102354250D02*
X72656666Y-102378059D01*
X72656666Y-102378059D02*
X72704285Y-102378059D01*
X72704285Y-102378059D02*
X72775713Y-102354250D01*
X72775713Y-102354250D02*
X72823332Y-102306630D01*
X72823332Y-102306630D02*
X72847142Y-102259011D01*
X72847142Y-102259011D02*
X72870951Y-102163773D01*
X72870951Y-102163773D02*
X72870951Y-102092345D01*
X72870951Y-102092345D02*
X72847142Y-101997107D01*
X72847142Y-101997107D02*
X72823332Y-101949488D01*
X72823332Y-101949488D02*
X72775713Y-101901869D01*
X72775713Y-101901869D02*
X72704285Y-101878059D01*
X72704285Y-101878059D02*
X72656666Y-101878059D01*
X72656666Y-101878059D02*
X72585237Y-101901869D01*
X72585237Y-101901869D02*
X72561428Y-101925678D01*
X72132856Y-101878059D02*
X72228094Y-101878059D01*
X72228094Y-101878059D02*
X72275713Y-101901869D01*
X72275713Y-101901869D02*
X72299523Y-101925678D01*
X72299523Y-101925678D02*
X72347142Y-101997107D01*
X72347142Y-101997107D02*
X72370951Y-102092345D01*
X72370951Y-102092345D02*
X72370951Y-102282821D01*
X72370951Y-102282821D02*
X72347142Y-102330440D01*
X72347142Y-102330440D02*
X72323332Y-102354250D01*
X72323332Y-102354250D02*
X72275713Y-102378059D01*
X72275713Y-102378059D02*
X72180475Y-102378059D01*
X72180475Y-102378059D02*
X72132856Y-102354250D01*
X72132856Y-102354250D02*
X72109047Y-102330440D01*
X72109047Y-102330440D02*
X72085237Y-102282821D01*
X72085237Y-102282821D02*
X72085237Y-102163773D01*
X72085237Y-102163773D02*
X72109047Y-102116154D01*
X72109047Y-102116154D02*
X72132856Y-102092345D01*
X72132856Y-102092345D02*
X72180475Y-102068535D01*
X72180475Y-102068535D02*
X72275713Y-102068535D01*
X72275713Y-102068535D02*
X72323332Y-102092345D01*
X72323332Y-102092345D02*
X72347142Y-102116154D01*
X72347142Y-102116154D02*
X72370951Y-102163773D01*
X71918571Y-101878059D02*
X71609047Y-101878059D01*
X71609047Y-101878059D02*
X71775714Y-102068535D01*
X71775714Y-102068535D02*
X71704285Y-102068535D01*
X71704285Y-102068535D02*
X71656666Y-102092345D01*
X71656666Y-102092345D02*
X71632857Y-102116154D01*
X71632857Y-102116154D02*
X71609047Y-102163773D01*
X71609047Y-102163773D02*
X71609047Y-102282821D01*
X71609047Y-102282821D02*
X71632857Y-102330440D01*
X71632857Y-102330440D02*
X71656666Y-102354250D01*
X71656666Y-102354250D02*
X71704285Y-102378059D01*
X71704285Y-102378059D02*
X71847142Y-102378059D01*
X71847142Y-102378059D02*
X71894761Y-102354250D01*
X71894761Y-102354250D02*
X71918571Y-102330440D01*
X96858059Y-98838571D02*
X96619964Y-98671905D01*
X96858059Y-98552857D02*
X96358059Y-98552857D01*
X96358059Y-98552857D02*
X96358059Y-98743333D01*
X96358059Y-98743333D02*
X96381869Y-98790952D01*
X96381869Y-98790952D02*
X96405678Y-98814762D01*
X96405678Y-98814762D02*
X96453297Y-98838571D01*
X96453297Y-98838571D02*
X96524726Y-98838571D01*
X96524726Y-98838571D02*
X96572345Y-98814762D01*
X96572345Y-98814762D02*
X96596154Y-98790952D01*
X96596154Y-98790952D02*
X96619964Y-98743333D01*
X96619964Y-98743333D02*
X96619964Y-98552857D01*
X96572345Y-99124286D02*
X96548535Y-99076667D01*
X96548535Y-99076667D02*
X96524726Y-99052857D01*
X96524726Y-99052857D02*
X96477107Y-99029048D01*
X96477107Y-99029048D02*
X96453297Y-99029048D01*
X96453297Y-99029048D02*
X96405678Y-99052857D01*
X96405678Y-99052857D02*
X96381869Y-99076667D01*
X96381869Y-99076667D02*
X96358059Y-99124286D01*
X96358059Y-99124286D02*
X96358059Y-99219524D01*
X96358059Y-99219524D02*
X96381869Y-99267143D01*
X96381869Y-99267143D02*
X96405678Y-99290952D01*
X96405678Y-99290952D02*
X96453297Y-99314762D01*
X96453297Y-99314762D02*
X96477107Y-99314762D01*
X96477107Y-99314762D02*
X96524726Y-99290952D01*
X96524726Y-99290952D02*
X96548535Y-99267143D01*
X96548535Y-99267143D02*
X96572345Y-99219524D01*
X96572345Y-99219524D02*
X96572345Y-99124286D01*
X96572345Y-99124286D02*
X96596154Y-99076667D01*
X96596154Y-99076667D02*
X96619964Y-99052857D01*
X96619964Y-99052857D02*
X96667583Y-99029048D01*
X96667583Y-99029048D02*
X96762821Y-99029048D01*
X96762821Y-99029048D02*
X96810440Y-99052857D01*
X96810440Y-99052857D02*
X96834250Y-99076667D01*
X96834250Y-99076667D02*
X96858059Y-99124286D01*
X96858059Y-99124286D02*
X96858059Y-99219524D01*
X96858059Y-99219524D02*
X96834250Y-99267143D01*
X96834250Y-99267143D02*
X96810440Y-99290952D01*
X96810440Y-99290952D02*
X96762821Y-99314762D01*
X96762821Y-99314762D02*
X96667583Y-99314762D01*
X96667583Y-99314762D02*
X96619964Y-99290952D01*
X96619964Y-99290952D02*
X96596154Y-99267143D01*
X96596154Y-99267143D02*
X96572345Y-99219524D01*
X96358059Y-99481428D02*
X96358059Y-99790952D01*
X96358059Y-99790952D02*
X96548535Y-99624285D01*
X96548535Y-99624285D02*
X96548535Y-99695714D01*
X96548535Y-99695714D02*
X96572345Y-99743333D01*
X96572345Y-99743333D02*
X96596154Y-99767142D01*
X96596154Y-99767142D02*
X96643773Y-99790952D01*
X96643773Y-99790952D02*
X96762821Y-99790952D01*
X96762821Y-99790952D02*
X96810440Y-99767142D01*
X96810440Y-99767142D02*
X96834250Y-99743333D01*
X96834250Y-99743333D02*
X96858059Y-99695714D01*
X96858059Y-99695714D02*
X96858059Y-99552857D01*
X96858059Y-99552857D02*
X96834250Y-99505238D01*
X96834250Y-99505238D02*
X96810440Y-99481428D01*
%TO.C,Q9*%
D11*
X108731868Y-95615000D02*
X108731868Y-95665000D01*
X108731868Y-96785000D02*
X108731868Y-97565000D01*
X108731868Y-98685000D02*
X108731868Y-98735000D01*
X108731868Y-98735000D02*
X110251868Y-98735000D01*
X110251868Y-95615000D02*
X108731868Y-95615000D01*
X110251868Y-96615000D02*
X110251868Y-95615000D01*
X110251868Y-98735000D02*
X110251868Y-97735000D01*
X108191868Y-97555000D02*
X108431868Y-97225000D01*
X107951868Y-97225000D01*
X108191868Y-97555000D01*
G36*
X108191868Y-97555000D02*
G01*
X107951868Y-97225000D01*
X108431868Y-97225000D01*
X108191868Y-97555000D01*
G37*
%TO.C,R40*%
X50977500Y-102754724D02*
X50977500Y-102245276D01*
X52022500Y-102754724D02*
X52022500Y-102245276D01*
%TO.C,R36*%
X58019435Y-94575025D02*
X57509987Y-94575025D01*
X58019435Y-95620025D02*
X57509987Y-95620025D01*
%TO.C,C52*%
X54709669Y-102259208D02*
X54709669Y-102768656D01*
X55754669Y-102259208D02*
X55754669Y-102768656D01*
%TO.C,R28*%
X105359093Y-71855869D02*
X105868541Y-71855869D01*
X105359093Y-72900869D02*
X105868541Y-72900869D01*
%TO.C,R61*%
X105370276Y-99577500D02*
X105879724Y-99577500D01*
X105370276Y-100622500D02*
X105879724Y-100622500D01*
%TO.C,C65*%
X74524120Y-100123936D02*
X75033568Y-100123936D01*
X74524120Y-101168936D02*
X75033568Y-101168936D01*
%TO.C,Q6*%
X108765000Y-86890000D02*
X108765000Y-86940000D01*
X108765000Y-88060000D02*
X108765000Y-88840000D01*
X108765000Y-89960000D02*
X108765000Y-90010000D01*
X108765000Y-90010000D02*
X110285000Y-90010000D01*
X110285000Y-86890000D02*
X108765000Y-86890000D01*
X110285000Y-87890000D02*
X110285000Y-86890000D01*
X110285000Y-90010000D02*
X110285000Y-89010000D01*
X108225000Y-88830000D02*
X108465000Y-88500000D01*
X107985000Y-88500000D01*
X108225000Y-88830000D01*
G36*
X108225000Y-88830000D02*
G01*
X107985000Y-88500000D01*
X108465000Y-88500000D01*
X108225000Y-88830000D01*
G37*
%TO.C,R31*%
X105368802Y-74404003D02*
X105878250Y-74404003D01*
X105368802Y-75449003D02*
X105878250Y-75449003D01*
%TO.C,R44*%
X78389375Y-76926348D02*
X78898823Y-76926348D01*
X78389375Y-77971348D02*
X78898823Y-77971348D01*
%TO.C,R47*%
X105520276Y-83252500D02*
X106029724Y-83252500D01*
X105520276Y-84297500D02*
X106029724Y-84297500D01*
%TO.C,R49*%
X105520276Y-85152500D02*
X106029724Y-85152500D01*
X105520276Y-86197500D02*
X106029724Y-86197500D01*
%TO.C,R35*%
X52568607Y-90019887D02*
X52059159Y-90019887D01*
X52568607Y-91064887D02*
X52059159Y-91064887D01*
%TO.C,C61*%
X59829987Y-79977500D02*
X60339435Y-79977500D01*
X59829987Y-81022500D02*
X60339435Y-81022500D01*
%TO.C,Q7*%
X108765000Y-83165000D02*
X108765000Y-83215000D01*
X108765000Y-84335000D02*
X108765000Y-85115000D01*
X108765000Y-86235000D02*
X108765000Y-86285000D01*
X108765000Y-86285000D02*
X110285000Y-86285000D01*
X110285000Y-83165000D02*
X108765000Y-83165000D01*
X110285000Y-84165000D02*
X110285000Y-83165000D01*
X110285000Y-86285000D02*
X110285000Y-85285000D01*
X108225000Y-85105000D02*
X108465000Y-84775000D01*
X107985000Y-84775000D01*
X108225000Y-85105000D01*
G36*
X108225000Y-85105000D02*
G01*
X107985000Y-84775000D01*
X108465000Y-84775000D01*
X108225000Y-85105000D01*
G37*
%TO.C,R62*%
X105299644Y-97602500D02*
X105809092Y-97602500D01*
X105299644Y-98647500D02*
X105809092Y-98647500D01*
%TO.C,R45*%
X88252500Y-98870276D02*
X88252500Y-99379724D01*
X89297500Y-98870276D02*
X89297500Y-99379724D01*
%TO.C,R43*%
X66340826Y-76959125D02*
X66850274Y-76959125D01*
X66340826Y-78004125D02*
X66850274Y-78004125D01*
%TO.C,R33*%
X105520276Y-88852500D02*
X106029724Y-88852500D01*
X105520276Y-89897500D02*
X106029724Y-89897500D01*
%TO.C,Q5*%
X108615000Y-69865000D02*
X108615000Y-69915000D01*
X108615000Y-71035000D02*
X108615000Y-71815000D01*
X108615000Y-72935000D02*
X108615000Y-72985000D01*
X108615000Y-72985000D02*
X110135000Y-72985000D01*
X110135000Y-69865000D02*
X108615000Y-69865000D01*
X110135000Y-70865000D02*
X110135000Y-69865000D01*
X110135000Y-72985000D02*
X110135000Y-71985000D01*
X108075000Y-71805000D02*
X108315000Y-71475000D01*
X107835000Y-71475000D01*
X108075000Y-71805000D01*
G36*
X108075000Y-71805000D02*
G01*
X107835000Y-71475000D01*
X108315000Y-71475000D01*
X108075000Y-71805000D01*
G37*
%TO.C,R58*%
X106554724Y-56902500D02*
X106045276Y-56902500D01*
X106554724Y-57947500D02*
X106045276Y-57947500D01*
%TO.C,R48*%
X105495276Y-87002500D02*
X106004724Y-87002500D01*
X105495276Y-88047500D02*
X106004724Y-88047500D01*
%TO.C,C62*%
X66356629Y-79993303D02*
X66866077Y-79993303D01*
X66356629Y-81038303D02*
X66866077Y-81038303D01*
%TO.C,R72*%
X72344360Y-76952653D02*
X72853808Y-76952653D01*
X72344360Y-77997653D02*
X72853808Y-77997653D01*
%TO.C,Q4*%
X108615000Y-74315000D02*
X108615000Y-74365000D01*
X108615000Y-75485000D02*
X108615000Y-76265000D01*
X108615000Y-77385000D02*
X108615000Y-77435000D01*
X108615000Y-77435000D02*
X110135000Y-77435000D01*
X110135000Y-74315000D02*
X108615000Y-74315000D01*
X110135000Y-75315000D02*
X110135000Y-74315000D01*
X110135000Y-77435000D02*
X110135000Y-76435000D01*
X108075000Y-76255000D02*
X108315000Y-75925000D01*
X107835000Y-75925000D01*
X108075000Y-76255000D01*
G36*
X108075000Y-76255000D02*
G01*
X107835000Y-75925000D01*
X108315000Y-75925000D01*
X108075000Y-76255000D01*
G37*
%TO.C,C51*%
X68077064Y-101965000D02*
X67622936Y-101965000D01*
X68077064Y-103435000D02*
X67622936Y-103435000D01*
%TO.C,C66*%
X72358292Y-80017737D02*
X72867740Y-80017737D01*
X72358292Y-81062737D02*
X72867740Y-81062737D01*
%TO.C,R81*%
X99102500Y-76504724D02*
X99102500Y-75995276D01*
X100147500Y-76504724D02*
X100147500Y-75995276D01*
%TO.C,R39*%
X52977500Y-102245276D02*
X52977500Y-102754724D01*
X54022500Y-102245276D02*
X54022500Y-102754724D01*
%TO.C,R37*%
X58020165Y-92980618D02*
X57510717Y-92980618D01*
X58020165Y-94025618D02*
X57510717Y-94025618D01*
%TO.C,C64*%
X78389375Y-80040194D02*
X78898823Y-80040194D01*
X78389375Y-81085194D02*
X78898823Y-81085194D01*
%TO.C,R52*%
X136679724Y-56752500D02*
X136170276Y-56752500D01*
X136679724Y-57797500D02*
X136170276Y-57797500D01*
%TO.C,R51*%
X105299643Y-95602500D02*
X105809091Y-95602500D01*
X105299643Y-96647500D02*
X105809091Y-96647500D01*
%TO.C,R27*%
X105354010Y-76304846D02*
X105863458Y-76304846D01*
X105354010Y-77349846D02*
X105863458Y-77349846D01*
%TO.C,Q8*%
X108731868Y-99540000D02*
X108731868Y-99590000D01*
X108731868Y-100710000D02*
X108731868Y-101490000D01*
X108731868Y-102610000D02*
X108731868Y-102660000D01*
X108731868Y-102660000D02*
X110251868Y-102660000D01*
X110251868Y-99540000D02*
X108731868Y-99540000D01*
X110251868Y-100540000D02*
X110251868Y-99540000D01*
X110251868Y-102660000D02*
X110251868Y-101660000D01*
X108191868Y-101480000D02*
X108431868Y-101150000D01*
X107951868Y-101150000D01*
X108191868Y-101480000D01*
G36*
X108191868Y-101480000D02*
G01*
X107951868Y-101150000D01*
X108431868Y-101150000D01*
X108191868Y-101480000D01*
G37*
%TO.C,R34*%
X52568607Y-91528702D02*
X52059159Y-91528702D01*
X52568607Y-92573702D02*
X52059159Y-92573702D01*
%TO.C,R55*%
X122254724Y-56852500D02*
X121745276Y-56852500D01*
X122254724Y-57897500D02*
X121745276Y-57897500D01*
%TO.C,R46*%
X91752500Y-98870276D02*
X91752500Y-99379724D01*
X92797500Y-98870276D02*
X92797500Y-99379724D01*
%TO.C,R42*%
X59829987Y-76977500D02*
X60339435Y-76977500D01*
X59829987Y-78022500D02*
X60339435Y-78022500D01*
%TO.C,R50*%
X105370277Y-101522501D02*
X105879725Y-101522501D01*
X105370277Y-102567501D02*
X105879725Y-102567501D01*
%TO.C,R32*%
X105359093Y-69947630D02*
X105868541Y-69947630D01*
X105359093Y-70992630D02*
X105868541Y-70992630D01*
%TO.C,C63*%
X74524120Y-101623936D02*
X75033568Y-101623936D01*
X74524120Y-102668936D02*
X75033568Y-102668936D01*
%TO.C,R83*%
X96102500Y-101470276D02*
X96102500Y-101979724D01*
X97147500Y-101470276D02*
X97147500Y-101979724D01*
%TD*%
M02*
