%TF.GenerationSoftware,KiCad,Pcbnew,10.0.5*%
%TF.CreationDate,2026-09-29T08:59:14+07:00*%
%TF.ProjectId,IoT_Board_V2,496f545f-426f-4617-9264-5f56322e6b69,rev?*%
%TF.SameCoordinates,Original*%
%TF.FileFunction,Profile,NP*%
%FSLAX46Y46*%
G04 Gerber Fmt 4.6, Leading zero omitted, Abs format (unit mm)*
G04 Created by KiCad (PCBNEW 10.0.5) date 2026-09-29 08:59:14*
%MOMM*%
%LPD*%
G01*
G04 APERTURE LIST*
%TA.AperFunction,Profile*%
%ADD10C,0.050000*%
%TD*%
G04 APERTURE END LIST*
D10*
X50000000Y-53000000D02*
X50000000Y-53000000D01*
G75*
G02*
X53000000Y-50000000I3000000J0D01*
G01*
X142000000Y-50000000D01*
G75*
G02*
X145000000Y-53000000I0J-3000000D01*
G01*
X145000000Y-102000000D01*
G75*
G02*
X142000000Y-105000000I-3000000J0D01*
G01*
X53000000Y-105000000D01*
G75*
G02*
X50000000Y-102000000I0J3000000D01*
G01*
X50000000Y-53000000D01*
X51250000Y-72325000D02*
X78625000Y-72325000D01*
X78625000Y-72825000D01*
X51250000Y-72825000D01*
X51250000Y-72325000D01*
X124575000Y-66600000D02*
X125500000Y-66600000D01*
X125500000Y-76575000D01*
X124575000Y-76575000D01*
X124575000Y-66600000D01*
X124575000Y-81150000D02*
X125500000Y-81150000D01*
X125500000Y-91125000D01*
X124575000Y-91125000D01*
X124575000Y-81150000D01*
X124575000Y-94700000D02*
X125500000Y-94700000D01*
X125500000Y-104675000D01*
X124575000Y-104675000D01*
X124575000Y-94700000D01*
X124975000Y-65625000D02*
X125000000Y-65625000D01*
X124975000Y-65675000D02*
X124975000Y-65625000D01*
X124975000Y-65900000D02*
X124975000Y-65675000D01*
X125000000Y-65625000D02*
X131100000Y-65625000D01*
X128775000Y-91825000D02*
X144175000Y-91825000D01*
X128775000Y-92125000D02*
X128775000Y-91825000D01*
X131100000Y-65625000D02*
X132350000Y-64375000D01*
X131150000Y-65900000D02*
X124975000Y-65900000D01*
X132350000Y-64375000D02*
X133625000Y-64375000D01*
X132425000Y-64625000D02*
X131150000Y-65900000D01*
X133625000Y-64375000D02*
X134775000Y-63225000D01*
X133675000Y-64625000D02*
X132425000Y-64625000D01*
X134775000Y-63225000D02*
X135725000Y-63225000D01*
X134825000Y-63475000D02*
X133675000Y-64625000D01*
X135725000Y-63225000D02*
X144250000Y-63225000D01*
X135725000Y-63475000D02*
X134825000Y-63475000D01*
X136575000Y-98625000D02*
X144125000Y-98625000D01*
X144125000Y-98925000D01*
X136575000Y-98925000D01*
X136575000Y-98625000D01*
X136675000Y-71400000D02*
X144300000Y-71400000D01*
X144300000Y-71700000D01*
X136675000Y-71700000D01*
X136675000Y-71400000D01*
X136700000Y-78200000D02*
X144350000Y-78200000D01*
X144350000Y-78600000D01*
X136700000Y-78600000D01*
X136700000Y-78200000D01*
X137425000Y-84975000D02*
X144175000Y-84975000D01*
X144175000Y-85275000D01*
X137425000Y-85275000D01*
X137425000Y-84975000D01*
X144175000Y-91825000D02*
X144175000Y-92125000D01*
X144175000Y-92125000D02*
X128775000Y-92125000D01*
X144250000Y-63225000D02*
X144250000Y-63475000D01*
X144250000Y-63475000D02*
X135725000Y-63475000D01*
M02*
