%TF.GenerationSoftware,KiCad,Pcbnew,10.0.5*%
%TF.CreationDate,2026-09-29T08:59:14+07:00*%
%TF.ProjectId,IoT_Board_V2,496f545f-426f-4617-9264-5f56322e6b69,rev?*%
%TF.SameCoordinates,Original*%
%TF.FileFunction,Paste,Bot*%
%TF.FilePolarity,Positive*%
%FSLAX46Y46*%
G04 Gerber Fmt 4.6, Leading zero omitted, Abs format (unit mm)*
G04 Created by KiCad (PCBNEW 10.0.5) date 2026-09-29 08:59:14*
%MOMM*%
%LPD*%
G01*
G04 APERTURE LIST*
G04 Aperture macros list*
%AMRoundRect*
0 Rectangle with rounded corners*
0 $1 Rounding radius*
0 $2 $3 $4 $5 $6 $7 $8 $9 X,Y pos of 4 corners*
0 Add a 4 corners polygon primitive as box body*
4,1,4,$2,$3,$4,$5,$6,$7,$8,$9,$2,$3,0*
0 Add four circle primitives for the rounded corners*
1,1,$1+$1,$2,$3*
1,1,$1+$1,$4,$5*
1,1,$1+$1,$6,$7*
1,1,$1+$1,$8,$9*
0 Add four rect primitives between the rounded corners*
20,1,$1+$1,$2,$3,$4,$5,0*
20,1,$1+$1,$4,$5,$6,$7,0*
20,1,$1+$1,$6,$7,$8,$9,0*
20,1,$1+$1,$8,$9,$2,$3,0*%
G04 Aperture macros list end*
%ADD10RoundRect,0.150000X-0.587500X-0.150000X0.587500X-0.150000X0.587500X0.150000X-0.587500X0.150000X0*%
%ADD11RoundRect,0.237500X0.237500X-0.250000X0.237500X0.250000X-0.237500X0.250000X-0.237500X-0.250000X0*%
%ADD12RoundRect,0.237500X0.250000X0.237500X-0.250000X0.237500X-0.250000X-0.237500X0.250000X-0.237500X0*%
%ADD13RoundRect,0.237500X-0.237500X0.250000X-0.237500X-0.250000X0.237500X-0.250000X0.237500X0.250000X0*%
%ADD14RoundRect,0.237500X-0.250000X-0.237500X0.250000X-0.237500X0.250000X0.237500X-0.250000X0.237500X0*%
%ADD15RoundRect,0.250000X0.350000X0.450000X-0.350000X0.450000X-0.350000X-0.450000X0.350000X-0.450000X0*%
G04 APERTURE END LIST*
D10*
%TO.C,Q9*%
X108554368Y-98125000D03*
X108554368Y-96225000D03*
X110429369Y-97175000D03*
%TD*%
D11*
%TO.C,R40*%
X51500000Y-103412500D03*
X51500000Y-101587500D03*
%TD*%
D12*
%TO.C,R36*%
X58677211Y-95097525D03*
X56852211Y-95097525D03*
%TD*%
D13*
%TO.C,C52*%
X55232169Y-101601432D03*
X55232169Y-103426432D03*
%TD*%
D14*
%TO.C,R28*%
X104701317Y-72378369D03*
X106526317Y-72378369D03*
%TD*%
%TO.C,R61*%
X104712500Y-100100000D03*
X106537500Y-100100000D03*
%TD*%
%TO.C,C65*%
X73866344Y-100646436D03*
X75691344Y-100646436D03*
%TD*%
D10*
%TO.C,Q6*%
X108587500Y-89400000D03*
X108587500Y-87500000D03*
X110462501Y-88450000D03*
%TD*%
D14*
%TO.C,R31*%
X104711026Y-74926503D03*
X106536026Y-74926503D03*
%TD*%
%TO.C,R44*%
X77731599Y-77448848D03*
X79556599Y-77448848D03*
%TD*%
%TO.C,R47*%
X104862500Y-83775000D03*
X106687500Y-83775000D03*
%TD*%
%TO.C,R49*%
X104862500Y-85675000D03*
X106687500Y-85675000D03*
%TD*%
D12*
%TO.C,R35*%
X53226383Y-90542387D03*
X51401383Y-90542387D03*
%TD*%
D14*
%TO.C,C61*%
X59172211Y-80500000D03*
X60997211Y-80500000D03*
%TD*%
D10*
%TO.C,Q7*%
X108587500Y-85675000D03*
X108587500Y-83775000D03*
X110462501Y-84725000D03*
%TD*%
D14*
%TO.C,R62*%
X104641868Y-98125000D03*
X106466868Y-98125000D03*
%TD*%
D13*
%TO.C,R45*%
X88775000Y-98212500D03*
X88775000Y-100037500D03*
%TD*%
D14*
%TO.C,R43*%
X65683050Y-77481625D03*
X67508050Y-77481625D03*
%TD*%
%TO.C,R33*%
X104862500Y-89375000D03*
X106687500Y-89375000D03*
%TD*%
D10*
%TO.C,Q5*%
X108437500Y-72375000D03*
X108437500Y-70475000D03*
X110312501Y-71425000D03*
%TD*%
D12*
%TO.C,R58*%
X107212500Y-57425000D03*
X105387500Y-57425000D03*
%TD*%
D14*
%TO.C,R48*%
X104837500Y-87525000D03*
X106662500Y-87525000D03*
%TD*%
%TO.C,C62*%
X65698853Y-80515803D03*
X67523853Y-80515803D03*
%TD*%
%TO.C,R72*%
X71686584Y-77475153D03*
X73511584Y-77475153D03*
%TD*%
D10*
%TO.C,Q4*%
X108437500Y-76825000D03*
X108437500Y-74925000D03*
X110312501Y-75875000D03*
%TD*%
D15*
%TO.C,C51*%
X68850000Y-102700000D03*
X66850000Y-102700000D03*
%TD*%
D14*
%TO.C,C66*%
X71700516Y-80540237D03*
X73525516Y-80540237D03*
%TD*%
D11*
%TO.C,R81*%
X99625000Y-77162500D03*
X99625000Y-75337500D03*
%TD*%
D13*
%TO.C,R39*%
X53500000Y-101587500D03*
X53500000Y-103412500D03*
%TD*%
D12*
%TO.C,R37*%
X58677941Y-93503118D03*
X56852941Y-93503118D03*
%TD*%
D14*
%TO.C,C64*%
X77731599Y-80562694D03*
X79556599Y-80562694D03*
%TD*%
D12*
%TO.C,R52*%
X137337500Y-57275000D03*
X135512500Y-57275000D03*
%TD*%
D14*
%TO.C,R51*%
X104641867Y-96125000D03*
X106466867Y-96125000D03*
%TD*%
%TO.C,R27*%
X104696234Y-76827346D03*
X106521234Y-76827346D03*
%TD*%
D10*
%TO.C,Q8*%
X108554368Y-102050000D03*
X108554368Y-100150000D03*
X110429369Y-101100000D03*
%TD*%
D12*
%TO.C,R34*%
X53226383Y-92051202D03*
X51401383Y-92051202D03*
%TD*%
%TO.C,R55*%
X122912500Y-57375000D03*
X121087500Y-57375000D03*
%TD*%
D13*
%TO.C,R46*%
X92275000Y-98212500D03*
X92275000Y-100037500D03*
%TD*%
D14*
%TO.C,R42*%
X59172211Y-77500000D03*
X60997211Y-77500000D03*
%TD*%
%TO.C,R50*%
X104712501Y-102045001D03*
X106537501Y-102045001D03*
%TD*%
%TO.C,R32*%
X104701317Y-70470130D03*
X106526317Y-70470130D03*
%TD*%
%TO.C,C63*%
X73866344Y-102146436D03*
X75691344Y-102146436D03*
%TD*%
D13*
%TO.C,R83*%
X96625000Y-100812500D03*
X96625000Y-102637500D03*
%TD*%
M02*
