%TF.GenerationSoftware,KiCad,Pcbnew,10.0.5*%
%TF.CreationDate,2026-09-29T08:59:14+07:00*%
%TF.ProjectId,IoT_Board_V2,496f545f-426f-4617-9264-5f56322e6b69,rev?*%
%TF.SameCoordinates,Original*%
%TF.FileFunction,Legend,Top*%
%TF.FilePolarity,Positive*%
%FSLAX46Y46*%
G04 Gerber Fmt 4.6, Leading zero omitted, Abs format (unit mm)*
G04 Created by KiCad (PCBNEW 10.0.5) date 2026-09-29 08:59:14*
%MOMM*%
%LPD*%
G01*
G04 APERTURE LIST*
%ADD10C,0.050000*%
%ADD11C,0.062500*%
%ADD12C,0.100000*%
%ADD13C,0.120000*%
%ADD14C,0.150000*%
%ADD15C,0.200000*%
G04 APERTURE END LIST*
D10*
X56548447Y-93199010D02*
X56948447Y-93065677D01*
X56948447Y-93065677D02*
X56548447Y-92932344D01*
X56929400Y-92513296D02*
X56948447Y-92456153D01*
X56948447Y-92456153D02*
X56948447Y-92360915D01*
X56948447Y-92360915D02*
X56929400Y-92322820D01*
X56929400Y-92322820D02*
X56910352Y-92303772D01*
X56910352Y-92303772D02*
X56872257Y-92284725D01*
X56872257Y-92284725D02*
X56834161Y-92284725D01*
X56834161Y-92284725D02*
X56796066Y-92303772D01*
X56796066Y-92303772D02*
X56777019Y-92322820D01*
X56777019Y-92322820D02*
X56757971Y-92360915D01*
X56757971Y-92360915D02*
X56738923Y-92437106D01*
X56738923Y-92437106D02*
X56719876Y-92475201D01*
X56719876Y-92475201D02*
X56700828Y-92494248D01*
X56700828Y-92494248D02*
X56662733Y-92513296D01*
X56662733Y-92513296D02*
X56624638Y-92513296D01*
X56624638Y-92513296D02*
X56586542Y-92494248D01*
X56586542Y-92494248D02*
X56567495Y-92475201D01*
X56567495Y-92475201D02*
X56548447Y-92437106D01*
X56548447Y-92437106D02*
X56548447Y-92341867D01*
X56548447Y-92341867D02*
X56567495Y-92284725D01*
X56948447Y-92113296D02*
X56548447Y-92113296D01*
X56548447Y-92113296D02*
X56548447Y-92018058D01*
X56548447Y-92018058D02*
X56567495Y-91960915D01*
X56567495Y-91960915D02*
X56605590Y-91922820D01*
X56605590Y-91922820D02*
X56643685Y-91903773D01*
X56643685Y-91903773D02*
X56719876Y-91884725D01*
X56719876Y-91884725D02*
X56777019Y-91884725D01*
X56777019Y-91884725D02*
X56853209Y-91903773D01*
X56853209Y-91903773D02*
X56891304Y-91922820D01*
X56891304Y-91922820D02*
X56929400Y-91960915D01*
X56929400Y-91960915D02*
X56948447Y-92018058D01*
X56948447Y-92018058D02*
X56948447Y-92113296D01*
X56834161Y-91732344D02*
X56834161Y-91541868D01*
X56948447Y-91770439D02*
X56548447Y-91637106D01*
X56548447Y-91637106D02*
X56948447Y-91503773D01*
X56929400Y-91084725D02*
X56948447Y-91027582D01*
X56948447Y-91027582D02*
X56948447Y-90932344D01*
X56948447Y-90932344D02*
X56929400Y-90894249D01*
X56929400Y-90894249D02*
X56910352Y-90875201D01*
X56910352Y-90875201D02*
X56872257Y-90856154D01*
X56872257Y-90856154D02*
X56834161Y-90856154D01*
X56834161Y-90856154D02*
X56796066Y-90875201D01*
X56796066Y-90875201D02*
X56777019Y-90894249D01*
X56777019Y-90894249D02*
X56757971Y-90932344D01*
X56757971Y-90932344D02*
X56738923Y-91008535D01*
X56738923Y-91008535D02*
X56719876Y-91046630D01*
X56719876Y-91046630D02*
X56700828Y-91065677D01*
X56700828Y-91065677D02*
X56662733Y-91084725D01*
X56662733Y-91084725D02*
X56624638Y-91084725D01*
X56624638Y-91084725D02*
X56586542Y-91065677D01*
X56586542Y-91065677D02*
X56567495Y-91046630D01*
X56567495Y-91046630D02*
X56548447Y-91008535D01*
X56548447Y-91008535D02*
X56548447Y-90913296D01*
X56548447Y-90913296D02*
X56567495Y-90856154D01*
X56910352Y-90456154D02*
X56929400Y-90475202D01*
X56929400Y-90475202D02*
X56948447Y-90532344D01*
X56948447Y-90532344D02*
X56948447Y-90570440D01*
X56948447Y-90570440D02*
X56929400Y-90627583D01*
X56929400Y-90627583D02*
X56891304Y-90665678D01*
X56891304Y-90665678D02*
X56853209Y-90684725D01*
X56853209Y-90684725D02*
X56777019Y-90703773D01*
X56777019Y-90703773D02*
X56719876Y-90703773D01*
X56719876Y-90703773D02*
X56643685Y-90684725D01*
X56643685Y-90684725D02*
X56605590Y-90665678D01*
X56605590Y-90665678D02*
X56567495Y-90627583D01*
X56567495Y-90627583D02*
X56548447Y-90570440D01*
X56548447Y-90570440D02*
X56548447Y-90532344D01*
X56548447Y-90532344D02*
X56567495Y-90475202D01*
X56567495Y-90475202D02*
X56586542Y-90456154D01*
X56948447Y-90094249D02*
X56948447Y-90284725D01*
X56948447Y-90284725D02*
X56548447Y-90284725D01*
X56567495Y-89446630D02*
X56548447Y-89484725D01*
X56548447Y-89484725D02*
X56548447Y-89541868D01*
X56548447Y-89541868D02*
X56567495Y-89599011D01*
X56567495Y-89599011D02*
X56605590Y-89637106D01*
X56605590Y-89637106D02*
X56643685Y-89656153D01*
X56643685Y-89656153D02*
X56719876Y-89675201D01*
X56719876Y-89675201D02*
X56777019Y-89675201D01*
X56777019Y-89675201D02*
X56853209Y-89656153D01*
X56853209Y-89656153D02*
X56891304Y-89637106D01*
X56891304Y-89637106D02*
X56929400Y-89599011D01*
X56929400Y-89599011D02*
X56948447Y-89541868D01*
X56948447Y-89541868D02*
X56948447Y-89503772D01*
X56948447Y-89503772D02*
X56929400Y-89446630D01*
X56929400Y-89446630D02*
X56910352Y-89427582D01*
X56910352Y-89427582D02*
X56777019Y-89427582D01*
X56777019Y-89427582D02*
X56777019Y-89503772D01*
X99638447Y-101959010D02*
X100038447Y-101825677D01*
X100038447Y-101825677D02*
X99638447Y-101692344D01*
X99657495Y-101044725D02*
X99638447Y-101082820D01*
X99638447Y-101082820D02*
X99638447Y-101139963D01*
X99638447Y-101139963D02*
X99657495Y-101197106D01*
X99657495Y-101197106D02*
X99695590Y-101235201D01*
X99695590Y-101235201D02*
X99733685Y-101254248D01*
X99733685Y-101254248D02*
X99809876Y-101273296D01*
X99809876Y-101273296D02*
X99867019Y-101273296D01*
X99867019Y-101273296D02*
X99943209Y-101254248D01*
X99943209Y-101254248D02*
X99981304Y-101235201D01*
X99981304Y-101235201D02*
X100019400Y-101197106D01*
X100019400Y-101197106D02*
X100038447Y-101139963D01*
X100038447Y-101139963D02*
X100038447Y-101101867D01*
X100038447Y-101101867D02*
X100019400Y-101044725D01*
X100019400Y-101044725D02*
X100000352Y-101025677D01*
X100000352Y-101025677D02*
X99867019Y-101025677D01*
X99867019Y-101025677D02*
X99867019Y-101101867D01*
X100019400Y-100568534D02*
X100038447Y-100511391D01*
X100038447Y-100511391D02*
X100038447Y-100416153D01*
X100038447Y-100416153D02*
X100019400Y-100378058D01*
X100019400Y-100378058D02*
X100000352Y-100359010D01*
X100000352Y-100359010D02*
X99962257Y-100339963D01*
X99962257Y-100339963D02*
X99924161Y-100339963D01*
X99924161Y-100339963D02*
X99886066Y-100359010D01*
X99886066Y-100359010D02*
X99867019Y-100378058D01*
X99867019Y-100378058D02*
X99847971Y-100416153D01*
X99847971Y-100416153D02*
X99828923Y-100492344D01*
X99828923Y-100492344D02*
X99809876Y-100530439D01*
X99809876Y-100530439D02*
X99790828Y-100549486D01*
X99790828Y-100549486D02*
X99752733Y-100568534D01*
X99752733Y-100568534D02*
X99714638Y-100568534D01*
X99714638Y-100568534D02*
X99676542Y-100549486D01*
X99676542Y-100549486D02*
X99657495Y-100530439D01*
X99657495Y-100530439D02*
X99638447Y-100492344D01*
X99638447Y-100492344D02*
X99638447Y-100397105D01*
X99638447Y-100397105D02*
X99657495Y-100339963D01*
X100038447Y-100168534D02*
X99638447Y-100168534D01*
X99638447Y-100168534D02*
X99638447Y-100073296D01*
X99638447Y-100073296D02*
X99657495Y-100016153D01*
X99657495Y-100016153D02*
X99695590Y-99978058D01*
X99695590Y-99978058D02*
X99733685Y-99959011D01*
X99733685Y-99959011D02*
X99809876Y-99939963D01*
X99809876Y-99939963D02*
X99867019Y-99939963D01*
X99867019Y-99939963D02*
X99943209Y-99959011D01*
X99943209Y-99959011D02*
X99981304Y-99978058D01*
X99981304Y-99978058D02*
X100019400Y-100016153D01*
X100019400Y-100016153D02*
X100038447Y-100073296D01*
X100038447Y-100073296D02*
X100038447Y-100168534D01*
X100038447Y-99273296D02*
X100038447Y-99463772D01*
X100038447Y-99463772D02*
X99638447Y-99463772D01*
X99619400Y-98854248D02*
X100133685Y-99197105D01*
X100038447Y-98492343D02*
X99847971Y-98625676D01*
X100038447Y-98720914D02*
X99638447Y-98720914D01*
X99638447Y-98720914D02*
X99638447Y-98568533D01*
X99638447Y-98568533D02*
X99657495Y-98530438D01*
X99657495Y-98530438D02*
X99676542Y-98511391D01*
X99676542Y-98511391D02*
X99714638Y-98492343D01*
X99714638Y-98492343D02*
X99771780Y-98492343D01*
X99771780Y-98492343D02*
X99809876Y-98511391D01*
X99809876Y-98511391D02*
X99828923Y-98530438D01*
X99828923Y-98530438D02*
X99847971Y-98568533D01*
X99847971Y-98568533D02*
X99847971Y-98720914D01*
X100038447Y-98016152D02*
X99638447Y-98016152D01*
X99638447Y-98016152D02*
X99638447Y-97920914D01*
X99638447Y-97920914D02*
X99657495Y-97863771D01*
X99657495Y-97863771D02*
X99695590Y-97825676D01*
X99695590Y-97825676D02*
X99733685Y-97806629D01*
X99733685Y-97806629D02*
X99809876Y-97787581D01*
X99809876Y-97787581D02*
X99867019Y-97787581D01*
X99867019Y-97787581D02*
X99943209Y-97806629D01*
X99943209Y-97806629D02*
X99981304Y-97825676D01*
X99981304Y-97825676D02*
X100019400Y-97863771D01*
X100019400Y-97863771D02*
X100038447Y-97920914D01*
X100038447Y-97920914D02*
X100038447Y-98016152D01*
X100038447Y-97616152D02*
X99638447Y-97616152D01*
X100038447Y-97425676D02*
X99638447Y-97425676D01*
X99638447Y-97425676D02*
X100038447Y-97197105D01*
X100038447Y-97197105D02*
X99638447Y-97197105D01*
X100000352Y-96473295D02*
X100019400Y-96492343D01*
X100019400Y-96492343D02*
X100038447Y-96549485D01*
X100038447Y-96549485D02*
X100038447Y-96587581D01*
X100038447Y-96587581D02*
X100019400Y-96644724D01*
X100019400Y-96644724D02*
X99981304Y-96682819D01*
X99981304Y-96682819D02*
X99943209Y-96701866D01*
X99943209Y-96701866D02*
X99867019Y-96720914D01*
X99867019Y-96720914D02*
X99809876Y-96720914D01*
X99809876Y-96720914D02*
X99733685Y-96701866D01*
X99733685Y-96701866D02*
X99695590Y-96682819D01*
X99695590Y-96682819D02*
X99657495Y-96644724D01*
X99657495Y-96644724D02*
X99638447Y-96587581D01*
X99638447Y-96587581D02*
X99638447Y-96549485D01*
X99638447Y-96549485D02*
X99657495Y-96492343D01*
X99657495Y-96492343D02*
X99676542Y-96473295D01*
X100038447Y-96111390D02*
X100038447Y-96301866D01*
X100038447Y-96301866D02*
X99638447Y-96301866D01*
X100038447Y-95978056D02*
X99638447Y-95978056D01*
X100038447Y-95749485D02*
X99809876Y-95920914D01*
X99638447Y-95749485D02*
X99867019Y-95978056D01*
X100038447Y-95082818D02*
X100038447Y-95273294D01*
X100038447Y-95273294D02*
X99638447Y-95273294D01*
X100038447Y-94720913D02*
X99847971Y-94854246D01*
X100038447Y-94949484D02*
X99638447Y-94949484D01*
X99638447Y-94949484D02*
X99638447Y-94797103D01*
X99638447Y-94797103D02*
X99657495Y-94759008D01*
X99657495Y-94759008D02*
X99676542Y-94739961D01*
X99676542Y-94739961D02*
X99714638Y-94720913D01*
X99714638Y-94720913D02*
X99771780Y-94720913D01*
X99771780Y-94720913D02*
X99809876Y-94739961D01*
X99809876Y-94739961D02*
X99828923Y-94759008D01*
X99828923Y-94759008D02*
X99847971Y-94797103D01*
X99847971Y-94797103D02*
X99847971Y-94949484D01*
X100000352Y-94320913D02*
X100019400Y-94339961D01*
X100019400Y-94339961D02*
X100038447Y-94397103D01*
X100038447Y-94397103D02*
X100038447Y-94435199D01*
X100038447Y-94435199D02*
X100019400Y-94492342D01*
X100019400Y-94492342D02*
X99981304Y-94530437D01*
X99981304Y-94530437D02*
X99943209Y-94549484D01*
X99943209Y-94549484D02*
X99867019Y-94568532D01*
X99867019Y-94568532D02*
X99809876Y-94568532D01*
X99809876Y-94568532D02*
X99733685Y-94549484D01*
X99733685Y-94549484D02*
X99695590Y-94530437D01*
X99695590Y-94530437D02*
X99657495Y-94492342D01*
X99657495Y-94492342D02*
X99638447Y-94435199D01*
X99638447Y-94435199D02*
X99638447Y-94397103D01*
X99638447Y-94397103D02*
X99657495Y-94339961D01*
X99657495Y-94339961D02*
X99676542Y-94320913D01*
D11*
X89280165Y-94645559D02*
X89280165Y-95050321D01*
X89280165Y-95050321D02*
X89303975Y-95097940D01*
X89303975Y-95097940D02*
X89327784Y-95121750D01*
X89327784Y-95121750D02*
X89375403Y-95145559D01*
X89375403Y-95145559D02*
X89470641Y-95145559D01*
X89470641Y-95145559D02*
X89518260Y-95121750D01*
X89518260Y-95121750D02*
X89542070Y-95097940D01*
X89542070Y-95097940D02*
X89565879Y-95050321D01*
X89565879Y-95050321D02*
X89565879Y-94645559D01*
X89780166Y-95121750D02*
X89851594Y-95145559D01*
X89851594Y-95145559D02*
X89970642Y-95145559D01*
X89970642Y-95145559D02*
X90018261Y-95121750D01*
X90018261Y-95121750D02*
X90042070Y-95097940D01*
X90042070Y-95097940D02*
X90065880Y-95050321D01*
X90065880Y-95050321D02*
X90065880Y-95002702D01*
X90065880Y-95002702D02*
X90042070Y-94955083D01*
X90042070Y-94955083D02*
X90018261Y-94931273D01*
X90018261Y-94931273D02*
X89970642Y-94907464D01*
X89970642Y-94907464D02*
X89875404Y-94883654D01*
X89875404Y-94883654D02*
X89827785Y-94859845D01*
X89827785Y-94859845D02*
X89803975Y-94836035D01*
X89803975Y-94836035D02*
X89780166Y-94788416D01*
X89780166Y-94788416D02*
X89780166Y-94740797D01*
X89780166Y-94740797D02*
X89803975Y-94693178D01*
X89803975Y-94693178D02*
X89827785Y-94669369D01*
X89827785Y-94669369D02*
X89875404Y-94645559D01*
X89875404Y-94645559D02*
X89994451Y-94645559D01*
X89994451Y-94645559D02*
X90065880Y-94669369D01*
X90446832Y-94883654D02*
X90518260Y-94907464D01*
X90518260Y-94907464D02*
X90542070Y-94931273D01*
X90542070Y-94931273D02*
X90565879Y-94978892D01*
X90565879Y-94978892D02*
X90565879Y-95050321D01*
X90565879Y-95050321D02*
X90542070Y-95097940D01*
X90542070Y-95097940D02*
X90518260Y-95121750D01*
X90518260Y-95121750D02*
X90470641Y-95145559D01*
X90470641Y-95145559D02*
X90280165Y-95145559D01*
X90280165Y-95145559D02*
X90280165Y-94645559D01*
X90280165Y-94645559D02*
X90446832Y-94645559D01*
X90446832Y-94645559D02*
X90494451Y-94669369D01*
X90494451Y-94669369D02*
X90518260Y-94693178D01*
X90518260Y-94693178D02*
X90542070Y-94740797D01*
X90542070Y-94740797D02*
X90542070Y-94788416D01*
X90542070Y-94788416D02*
X90518260Y-94836035D01*
X90518260Y-94836035D02*
X90494451Y-94859845D01*
X90494451Y-94859845D02*
X90446832Y-94883654D01*
X90446832Y-94883654D02*
X90280165Y-94883654D01*
X90780165Y-94955083D02*
X91161118Y-94955083D01*
X91684927Y-95097940D02*
X91661118Y-95121750D01*
X91661118Y-95121750D02*
X91589689Y-95145559D01*
X91589689Y-95145559D02*
X91542070Y-95145559D01*
X91542070Y-95145559D02*
X91470642Y-95121750D01*
X91470642Y-95121750D02*
X91423023Y-95074130D01*
X91423023Y-95074130D02*
X91399213Y-95026511D01*
X91399213Y-95026511D02*
X91375404Y-94931273D01*
X91375404Y-94931273D02*
X91375404Y-94859845D01*
X91375404Y-94859845D02*
X91399213Y-94764607D01*
X91399213Y-94764607D02*
X91423023Y-94716988D01*
X91423023Y-94716988D02*
X91470642Y-94669369D01*
X91470642Y-94669369D02*
X91542070Y-94645559D01*
X91542070Y-94645559D02*
X91589689Y-94645559D01*
X91589689Y-94645559D02*
X91661118Y-94669369D01*
X91661118Y-94669369D02*
X91684927Y-94693178D01*
X99239369Y-88577929D02*
X99215559Y-88625548D01*
X99215559Y-88625548D02*
X99215559Y-88696977D01*
X99215559Y-88696977D02*
X99239369Y-88768405D01*
X99239369Y-88768405D02*
X99286988Y-88816024D01*
X99286988Y-88816024D02*
X99334607Y-88839834D01*
X99334607Y-88839834D02*
X99429845Y-88863643D01*
X99429845Y-88863643D02*
X99501273Y-88863643D01*
X99501273Y-88863643D02*
X99596511Y-88839834D01*
X99596511Y-88839834D02*
X99644130Y-88816024D01*
X99644130Y-88816024D02*
X99691750Y-88768405D01*
X99691750Y-88768405D02*
X99715559Y-88696977D01*
X99715559Y-88696977D02*
X99715559Y-88649358D01*
X99715559Y-88649358D02*
X99691750Y-88577929D01*
X99691750Y-88577929D02*
X99667940Y-88554120D01*
X99667940Y-88554120D02*
X99501273Y-88554120D01*
X99501273Y-88554120D02*
X99501273Y-88649358D01*
X99215559Y-88030310D02*
X99715559Y-87863644D01*
X99715559Y-87863644D02*
X99215559Y-87696977D01*
X99715559Y-87149359D02*
X99215559Y-87149359D01*
X99215559Y-87149359D02*
X99215559Y-87030311D01*
X99215559Y-87030311D02*
X99239369Y-86958883D01*
X99239369Y-86958883D02*
X99286988Y-86911264D01*
X99286988Y-86911264D02*
X99334607Y-86887454D01*
X99334607Y-86887454D02*
X99429845Y-86863645D01*
X99429845Y-86863645D02*
X99501273Y-86863645D01*
X99501273Y-86863645D02*
X99596511Y-86887454D01*
X99596511Y-86887454D02*
X99644130Y-86911264D01*
X99644130Y-86911264D02*
X99691750Y-86958883D01*
X99691750Y-86958883D02*
X99715559Y-87030311D01*
X99715559Y-87030311D02*
X99715559Y-87149359D01*
X99215559Y-86554121D02*
X99215559Y-86458883D01*
X99215559Y-86458883D02*
X99239369Y-86411264D01*
X99239369Y-86411264D02*
X99286988Y-86363645D01*
X99286988Y-86363645D02*
X99382226Y-86339835D01*
X99382226Y-86339835D02*
X99548892Y-86339835D01*
X99548892Y-86339835D02*
X99644130Y-86363645D01*
X99644130Y-86363645D02*
X99691750Y-86411264D01*
X99691750Y-86411264D02*
X99715559Y-86458883D01*
X99715559Y-86458883D02*
X99715559Y-86554121D01*
X99715559Y-86554121D02*
X99691750Y-86601740D01*
X99691750Y-86601740D02*
X99644130Y-86649359D01*
X99644130Y-86649359D02*
X99548892Y-86673168D01*
X99548892Y-86673168D02*
X99382226Y-86673168D01*
X99382226Y-86673168D02*
X99286988Y-86649359D01*
X99286988Y-86649359D02*
X99239369Y-86601740D01*
X99239369Y-86601740D02*
X99215559Y-86554121D01*
X99667940Y-85458883D02*
X99691750Y-85482692D01*
X99691750Y-85482692D02*
X99715559Y-85554121D01*
X99715559Y-85554121D02*
X99715559Y-85601740D01*
X99715559Y-85601740D02*
X99691750Y-85673168D01*
X99691750Y-85673168D02*
X99644130Y-85720787D01*
X99644130Y-85720787D02*
X99596511Y-85744597D01*
X99596511Y-85744597D02*
X99501273Y-85768406D01*
X99501273Y-85768406D02*
X99429845Y-85768406D01*
X99429845Y-85768406D02*
X99334607Y-85744597D01*
X99334607Y-85744597D02*
X99286988Y-85720787D01*
X99286988Y-85720787D02*
X99239369Y-85673168D01*
X99239369Y-85673168D02*
X99215559Y-85601740D01*
X99215559Y-85601740D02*
X99215559Y-85554121D01*
X99215559Y-85554121D02*
X99239369Y-85482692D01*
X99239369Y-85482692D02*
X99263178Y-85458883D01*
X99715559Y-85006502D02*
X99715559Y-85244597D01*
X99715559Y-85244597D02*
X99215559Y-85244597D01*
X99715559Y-84839835D02*
X99215559Y-84839835D01*
X99715559Y-84554121D02*
X99429845Y-84768406D01*
X99215559Y-84554121D02*
X99501273Y-84839835D01*
X99215559Y-84006502D02*
X99715559Y-83887454D01*
X99715559Y-83887454D02*
X99358416Y-83792216D01*
X99358416Y-83792216D02*
X99715559Y-83696978D01*
X99715559Y-83696978D02*
X99215559Y-83577931D01*
X99691750Y-83411263D02*
X99715559Y-83339835D01*
X99715559Y-83339835D02*
X99715559Y-83220787D01*
X99715559Y-83220787D02*
X99691750Y-83173168D01*
X99691750Y-83173168D02*
X99667940Y-83149359D01*
X99667940Y-83149359D02*
X99620321Y-83125549D01*
X99620321Y-83125549D02*
X99572702Y-83125549D01*
X99572702Y-83125549D02*
X99525083Y-83149359D01*
X99525083Y-83149359D02*
X99501273Y-83173168D01*
X99501273Y-83173168D02*
X99477464Y-83220787D01*
X99477464Y-83220787D02*
X99453654Y-83316025D01*
X99453654Y-83316025D02*
X99429845Y-83363644D01*
X99429845Y-83363644D02*
X99406035Y-83387454D01*
X99406035Y-83387454D02*
X99358416Y-83411263D01*
X99358416Y-83411263D02*
X99310797Y-83411263D01*
X99310797Y-83411263D02*
X99263178Y-83387454D01*
X99263178Y-83387454D02*
X99239369Y-83363644D01*
X99239369Y-83363644D02*
X99215559Y-83316025D01*
X99215559Y-83316025D02*
X99215559Y-83196978D01*
X99215559Y-83196978D02*
X99239369Y-83125549D01*
X99239369Y-82268407D02*
X99215559Y-82316026D01*
X99215559Y-82316026D02*
X99215559Y-82387455D01*
X99215559Y-82387455D02*
X99239369Y-82458883D01*
X99239369Y-82458883D02*
X99286988Y-82506502D01*
X99286988Y-82506502D02*
X99334607Y-82530312D01*
X99334607Y-82530312D02*
X99429845Y-82554121D01*
X99429845Y-82554121D02*
X99501273Y-82554121D01*
X99501273Y-82554121D02*
X99596511Y-82530312D01*
X99596511Y-82530312D02*
X99644130Y-82506502D01*
X99644130Y-82506502D02*
X99691750Y-82458883D01*
X99691750Y-82458883D02*
X99715559Y-82387455D01*
X99715559Y-82387455D02*
X99715559Y-82339836D01*
X99715559Y-82339836D02*
X99691750Y-82268407D01*
X99691750Y-82268407D02*
X99667940Y-82244598D01*
X99667940Y-82244598D02*
X99501273Y-82244598D01*
X99501273Y-82244598D02*
X99501273Y-82339836D01*
D12*
X87424047Y-91944919D02*
X87424047Y-90944919D01*
X88043094Y-91944919D02*
X87947856Y-91897300D01*
X87947856Y-91897300D02*
X87900237Y-91849680D01*
X87900237Y-91849680D02*
X87852618Y-91754442D01*
X87852618Y-91754442D02*
X87852618Y-91468728D01*
X87852618Y-91468728D02*
X87900237Y-91373490D01*
X87900237Y-91373490D02*
X87947856Y-91325871D01*
X87947856Y-91325871D02*
X88043094Y-91278252D01*
X88043094Y-91278252D02*
X88185951Y-91278252D01*
X88185951Y-91278252D02*
X88281189Y-91325871D01*
X88281189Y-91325871D02*
X88328808Y-91373490D01*
X88328808Y-91373490D02*
X88376427Y-91468728D01*
X88376427Y-91468728D02*
X88376427Y-91754442D01*
X88376427Y-91754442D02*
X88328808Y-91849680D01*
X88328808Y-91849680D02*
X88281189Y-91897300D01*
X88281189Y-91897300D02*
X88185951Y-91944919D01*
X88185951Y-91944919D02*
X88043094Y-91944919D01*
X88662142Y-90944919D02*
X89233570Y-90944919D01*
X88947856Y-91944919D02*
X88947856Y-90944919D01*
X90662142Y-91421109D02*
X90804999Y-91468728D01*
X90804999Y-91468728D02*
X90852618Y-91516347D01*
X90852618Y-91516347D02*
X90900237Y-91611585D01*
X90900237Y-91611585D02*
X90900237Y-91754442D01*
X90900237Y-91754442D02*
X90852618Y-91849680D01*
X90852618Y-91849680D02*
X90804999Y-91897300D01*
X90804999Y-91897300D02*
X90709761Y-91944919D01*
X90709761Y-91944919D02*
X90328809Y-91944919D01*
X90328809Y-91944919D02*
X90328809Y-90944919D01*
X90328809Y-90944919D02*
X90662142Y-90944919D01*
X90662142Y-90944919D02*
X90757380Y-90992538D01*
X90757380Y-90992538D02*
X90804999Y-91040157D01*
X90804999Y-91040157D02*
X90852618Y-91135395D01*
X90852618Y-91135395D02*
X90852618Y-91230633D01*
X90852618Y-91230633D02*
X90804999Y-91325871D01*
X90804999Y-91325871D02*
X90757380Y-91373490D01*
X90757380Y-91373490D02*
X90662142Y-91421109D01*
X90662142Y-91421109D02*
X90328809Y-91421109D01*
X91471666Y-91944919D02*
X91376428Y-91897300D01*
X91376428Y-91897300D02*
X91328809Y-91849680D01*
X91328809Y-91849680D02*
X91281190Y-91754442D01*
X91281190Y-91754442D02*
X91281190Y-91468728D01*
X91281190Y-91468728D02*
X91328809Y-91373490D01*
X91328809Y-91373490D02*
X91376428Y-91325871D01*
X91376428Y-91325871D02*
X91471666Y-91278252D01*
X91471666Y-91278252D02*
X91614523Y-91278252D01*
X91614523Y-91278252D02*
X91709761Y-91325871D01*
X91709761Y-91325871D02*
X91757380Y-91373490D01*
X91757380Y-91373490D02*
X91804999Y-91468728D01*
X91804999Y-91468728D02*
X91804999Y-91754442D01*
X91804999Y-91754442D02*
X91757380Y-91849680D01*
X91757380Y-91849680D02*
X91709761Y-91897300D01*
X91709761Y-91897300D02*
X91614523Y-91944919D01*
X91614523Y-91944919D02*
X91471666Y-91944919D01*
X92662142Y-91944919D02*
X92662142Y-91421109D01*
X92662142Y-91421109D02*
X92614523Y-91325871D01*
X92614523Y-91325871D02*
X92519285Y-91278252D01*
X92519285Y-91278252D02*
X92328809Y-91278252D01*
X92328809Y-91278252D02*
X92233571Y-91325871D01*
X92662142Y-91897300D02*
X92566904Y-91944919D01*
X92566904Y-91944919D02*
X92328809Y-91944919D01*
X92328809Y-91944919D02*
X92233571Y-91897300D01*
X92233571Y-91897300D02*
X92185952Y-91802061D01*
X92185952Y-91802061D02*
X92185952Y-91706823D01*
X92185952Y-91706823D02*
X92233571Y-91611585D01*
X92233571Y-91611585D02*
X92328809Y-91563966D01*
X92328809Y-91563966D02*
X92566904Y-91563966D01*
X92566904Y-91563966D02*
X92662142Y-91516347D01*
X93138333Y-91944919D02*
X93138333Y-91278252D01*
X93138333Y-91468728D02*
X93185952Y-91373490D01*
X93185952Y-91373490D02*
X93233571Y-91325871D01*
X93233571Y-91325871D02*
X93328809Y-91278252D01*
X93328809Y-91278252D02*
X93424047Y-91278252D01*
X94185952Y-91944919D02*
X94185952Y-90944919D01*
X94185952Y-91897300D02*
X94090714Y-91944919D01*
X94090714Y-91944919D02*
X93900238Y-91944919D01*
X93900238Y-91944919D02*
X93805000Y-91897300D01*
X93805000Y-91897300D02*
X93757381Y-91849680D01*
X93757381Y-91849680D02*
X93709762Y-91754442D01*
X93709762Y-91754442D02*
X93709762Y-91468728D01*
X93709762Y-91468728D02*
X93757381Y-91373490D01*
X93757381Y-91373490D02*
X93805000Y-91325871D01*
X93805000Y-91325871D02*
X93900238Y-91278252D01*
X93900238Y-91278252D02*
X94090714Y-91278252D01*
X94090714Y-91278252D02*
X94185952Y-91325871D01*
X85820000Y-89950000D02*
X86920000Y-89950000D01*
X87320000Y-89950000D02*
X88420000Y-89950000D01*
X88820000Y-89950000D02*
X89920000Y-89950000D01*
X90320000Y-89950000D02*
X91420000Y-89950000D01*
X91820000Y-89950000D02*
X92920000Y-89950000D01*
X93320000Y-89950000D02*
X94420000Y-89950000D01*
X94820000Y-89950000D02*
X95790000Y-89950000D01*
X95790000Y-89950000D02*
X95790000Y-91050000D01*
X95790000Y-91450000D02*
X95790000Y-92550000D01*
X95790000Y-92950000D02*
X95790000Y-93476000D01*
X95790000Y-93476000D02*
X94690000Y-93476000D01*
X94290000Y-93476000D02*
X93190000Y-93476000D01*
X92790000Y-93476000D02*
X91690000Y-93476000D01*
X91290000Y-93476000D02*
X90190000Y-93476000D01*
X89790000Y-93476000D02*
X88690000Y-93476000D01*
X88290000Y-93476000D02*
X87190000Y-93476000D01*
X86790000Y-93476000D02*
X85820000Y-93476000D01*
X85820000Y-93476000D02*
X85820000Y-92376000D01*
X85820000Y-91976000D02*
X85820000Y-90876000D01*
X85820000Y-90476000D02*
X85820000Y-89950000D01*
D11*
X92353571Y-53155440D02*
X92329762Y-53179250D01*
X92329762Y-53179250D02*
X92258333Y-53203059D01*
X92258333Y-53203059D02*
X92210714Y-53203059D01*
X92210714Y-53203059D02*
X92139286Y-53179250D01*
X92139286Y-53179250D02*
X92091667Y-53131630D01*
X92091667Y-53131630D02*
X92067857Y-53084011D01*
X92067857Y-53084011D02*
X92044048Y-52988773D01*
X92044048Y-52988773D02*
X92044048Y-52917345D01*
X92044048Y-52917345D02*
X92067857Y-52822107D01*
X92067857Y-52822107D02*
X92091667Y-52774488D01*
X92091667Y-52774488D02*
X92139286Y-52726869D01*
X92139286Y-52726869D02*
X92210714Y-52703059D01*
X92210714Y-52703059D02*
X92258333Y-52703059D01*
X92258333Y-52703059D02*
X92329762Y-52726869D01*
X92329762Y-52726869D02*
X92353571Y-52750678D01*
X92639286Y-52917345D02*
X92591667Y-52893535D01*
X92591667Y-52893535D02*
X92567857Y-52869726D01*
X92567857Y-52869726D02*
X92544048Y-52822107D01*
X92544048Y-52822107D02*
X92544048Y-52798297D01*
X92544048Y-52798297D02*
X92567857Y-52750678D01*
X92567857Y-52750678D02*
X92591667Y-52726869D01*
X92591667Y-52726869D02*
X92639286Y-52703059D01*
X92639286Y-52703059D02*
X92734524Y-52703059D01*
X92734524Y-52703059D02*
X92782143Y-52726869D01*
X92782143Y-52726869D02*
X92805952Y-52750678D01*
X92805952Y-52750678D02*
X92829762Y-52798297D01*
X92829762Y-52798297D02*
X92829762Y-52822107D01*
X92829762Y-52822107D02*
X92805952Y-52869726D01*
X92805952Y-52869726D02*
X92782143Y-52893535D01*
X92782143Y-52893535D02*
X92734524Y-52917345D01*
X92734524Y-52917345D02*
X92639286Y-52917345D01*
X92639286Y-52917345D02*
X92591667Y-52941154D01*
X92591667Y-52941154D02*
X92567857Y-52964964D01*
X92567857Y-52964964D02*
X92544048Y-53012583D01*
X92544048Y-53012583D02*
X92544048Y-53107821D01*
X92544048Y-53107821D02*
X92567857Y-53155440D01*
X92567857Y-53155440D02*
X92591667Y-53179250D01*
X92591667Y-53179250D02*
X92639286Y-53203059D01*
X92639286Y-53203059D02*
X92734524Y-53203059D01*
X92734524Y-53203059D02*
X92782143Y-53179250D01*
X92782143Y-53179250D02*
X92805952Y-53155440D01*
X92805952Y-53155440D02*
X92829762Y-53107821D01*
X92829762Y-53107821D02*
X92829762Y-53012583D01*
X92829762Y-53012583D02*
X92805952Y-52964964D01*
X92805952Y-52964964D02*
X92782143Y-52941154D01*
X92782143Y-52941154D02*
X92734524Y-52917345D01*
X93305952Y-53203059D02*
X93020238Y-53203059D01*
X93163095Y-53203059D02*
X93163095Y-52703059D01*
X93163095Y-52703059D02*
X93115476Y-52774488D01*
X93115476Y-52774488D02*
X93067857Y-52822107D01*
X93067857Y-52822107D02*
X93020238Y-52845916D01*
X93700440Y-81063333D02*
X93724250Y-81087142D01*
X93724250Y-81087142D02*
X93748059Y-81158571D01*
X93748059Y-81158571D02*
X93748059Y-81206190D01*
X93748059Y-81206190D02*
X93724250Y-81277618D01*
X93724250Y-81277618D02*
X93676630Y-81325237D01*
X93676630Y-81325237D02*
X93629011Y-81349047D01*
X93629011Y-81349047D02*
X93533773Y-81372856D01*
X93533773Y-81372856D02*
X93462345Y-81372856D01*
X93462345Y-81372856D02*
X93367107Y-81349047D01*
X93367107Y-81349047D02*
X93319488Y-81325237D01*
X93319488Y-81325237D02*
X93271869Y-81277618D01*
X93271869Y-81277618D02*
X93248059Y-81206190D01*
X93248059Y-81206190D02*
X93248059Y-81158571D01*
X93248059Y-81158571D02*
X93271869Y-81087142D01*
X93271869Y-81087142D02*
X93295678Y-81063333D01*
X93248059Y-80610952D02*
X93248059Y-80849047D01*
X93248059Y-80849047D02*
X93486154Y-80872856D01*
X93486154Y-80872856D02*
X93462345Y-80849047D01*
X93462345Y-80849047D02*
X93438535Y-80801428D01*
X93438535Y-80801428D02*
X93438535Y-80682380D01*
X93438535Y-80682380D02*
X93462345Y-80634761D01*
X93462345Y-80634761D02*
X93486154Y-80610952D01*
X93486154Y-80610952D02*
X93533773Y-80587142D01*
X93533773Y-80587142D02*
X93652821Y-80587142D01*
X93652821Y-80587142D02*
X93700440Y-80610952D01*
X93700440Y-80610952D02*
X93724250Y-80634761D01*
X93724250Y-80634761D02*
X93748059Y-80682380D01*
X93748059Y-80682380D02*
X93748059Y-80801428D01*
X93748059Y-80801428D02*
X93724250Y-80849047D01*
X93724250Y-80849047D02*
X93700440Y-80872856D01*
X90044624Y-98747604D02*
X90044624Y-99104747D01*
X90044624Y-99104747D02*
X90020815Y-99176175D01*
X90020815Y-99176175D02*
X89973196Y-99223795D01*
X89973196Y-99223795D02*
X89901767Y-99247604D01*
X89901767Y-99247604D02*
X89854148Y-99247604D01*
X90306529Y-99247604D02*
X90401767Y-99247604D01*
X90401767Y-99247604D02*
X90449386Y-99223795D01*
X90449386Y-99223795D02*
X90473195Y-99199985D01*
X90473195Y-99199985D02*
X90520814Y-99128556D01*
X90520814Y-99128556D02*
X90544624Y-99033318D01*
X90544624Y-99033318D02*
X90544624Y-98842842D01*
X90544624Y-98842842D02*
X90520814Y-98795223D01*
X90520814Y-98795223D02*
X90497005Y-98771414D01*
X90497005Y-98771414D02*
X90449386Y-98747604D01*
X90449386Y-98747604D02*
X90354148Y-98747604D01*
X90354148Y-98747604D02*
X90306529Y-98771414D01*
X90306529Y-98771414D02*
X90282719Y-98795223D01*
X90282719Y-98795223D02*
X90258910Y-98842842D01*
X90258910Y-98842842D02*
X90258910Y-98961890D01*
X90258910Y-98961890D02*
X90282719Y-99009509D01*
X90282719Y-99009509D02*
X90306529Y-99033318D01*
X90306529Y-99033318D02*
X90354148Y-99057128D01*
X90354148Y-99057128D02*
X90449386Y-99057128D01*
X90449386Y-99057128D02*
X90497005Y-99033318D01*
X90497005Y-99033318D02*
X90520814Y-99009509D01*
X90520814Y-99009509D02*
X90544624Y-98961890D01*
X101518059Y-76857142D02*
X101018059Y-76857142D01*
X101018059Y-76857142D02*
X101018059Y-76738094D01*
X101018059Y-76738094D02*
X101041869Y-76666666D01*
X101041869Y-76666666D02*
X101089488Y-76619047D01*
X101089488Y-76619047D02*
X101137107Y-76595237D01*
X101137107Y-76595237D02*
X101232345Y-76571428D01*
X101232345Y-76571428D02*
X101303773Y-76571428D01*
X101303773Y-76571428D02*
X101399011Y-76595237D01*
X101399011Y-76595237D02*
X101446630Y-76619047D01*
X101446630Y-76619047D02*
X101494250Y-76666666D01*
X101494250Y-76666666D02*
X101518059Y-76738094D01*
X101518059Y-76738094D02*
X101518059Y-76857142D01*
X101018059Y-76404761D02*
X101018059Y-76095237D01*
X101018059Y-76095237D02*
X101208535Y-76261904D01*
X101208535Y-76261904D02*
X101208535Y-76190475D01*
X101208535Y-76190475D02*
X101232345Y-76142856D01*
X101232345Y-76142856D02*
X101256154Y-76119047D01*
X101256154Y-76119047D02*
X101303773Y-76095237D01*
X101303773Y-76095237D02*
X101422821Y-76095237D01*
X101422821Y-76095237D02*
X101470440Y-76119047D01*
X101470440Y-76119047D02*
X101494250Y-76142856D01*
X101494250Y-76142856D02*
X101518059Y-76190475D01*
X101518059Y-76190475D02*
X101518059Y-76333332D01*
X101518059Y-76333332D02*
X101494250Y-76380951D01*
X101494250Y-76380951D02*
X101470440Y-76404761D01*
X101018059Y-75666666D02*
X101018059Y-75761904D01*
X101018059Y-75761904D02*
X101041869Y-75809523D01*
X101041869Y-75809523D02*
X101065678Y-75833333D01*
X101065678Y-75833333D02*
X101137107Y-75880952D01*
X101137107Y-75880952D02*
X101232345Y-75904761D01*
X101232345Y-75904761D02*
X101422821Y-75904761D01*
X101422821Y-75904761D02*
X101470440Y-75880952D01*
X101470440Y-75880952D02*
X101494250Y-75857142D01*
X101494250Y-75857142D02*
X101518059Y-75809523D01*
X101518059Y-75809523D02*
X101518059Y-75714285D01*
X101518059Y-75714285D02*
X101494250Y-75666666D01*
X101494250Y-75666666D02*
X101470440Y-75642857D01*
X101470440Y-75642857D02*
X101422821Y-75619047D01*
X101422821Y-75619047D02*
X101303773Y-75619047D01*
X101303773Y-75619047D02*
X101256154Y-75642857D01*
X101256154Y-75642857D02*
X101232345Y-75666666D01*
X101232345Y-75666666D02*
X101208535Y-75714285D01*
X101208535Y-75714285D02*
X101208535Y-75809523D01*
X101208535Y-75809523D02*
X101232345Y-75857142D01*
X101232345Y-75857142D02*
X101256154Y-75880952D01*
X101256154Y-75880952D02*
X101303773Y-75904761D01*
X115035238Y-62886154D02*
X115106666Y-62909964D01*
X115106666Y-62909964D02*
X115130476Y-62933773D01*
X115130476Y-62933773D02*
X115154285Y-62981392D01*
X115154285Y-62981392D02*
X115154285Y-63052821D01*
X115154285Y-63052821D02*
X115130476Y-63100440D01*
X115130476Y-63100440D02*
X115106666Y-63124250D01*
X115106666Y-63124250D02*
X115059047Y-63148059D01*
X115059047Y-63148059D02*
X114868571Y-63148059D01*
X114868571Y-63148059D02*
X114868571Y-62648059D01*
X114868571Y-62648059D02*
X115035238Y-62648059D01*
X115035238Y-62648059D02*
X115082857Y-62671869D01*
X115082857Y-62671869D02*
X115106666Y-62695678D01*
X115106666Y-62695678D02*
X115130476Y-62743297D01*
X115130476Y-62743297D02*
X115130476Y-62790916D01*
X115130476Y-62790916D02*
X115106666Y-62838535D01*
X115106666Y-62838535D02*
X115082857Y-62862345D01*
X115082857Y-62862345D02*
X115035238Y-62886154D01*
X115035238Y-62886154D02*
X114868571Y-62886154D01*
X115606666Y-63148059D02*
X115368571Y-63148059D01*
X115368571Y-63148059D02*
X115368571Y-62648059D01*
X115749524Y-62695678D02*
X115773333Y-62671869D01*
X115773333Y-62671869D02*
X115820952Y-62648059D01*
X115820952Y-62648059D02*
X115940000Y-62648059D01*
X115940000Y-62648059D02*
X115987619Y-62671869D01*
X115987619Y-62671869D02*
X116011428Y-62695678D01*
X116011428Y-62695678D02*
X116035238Y-62743297D01*
X116035238Y-62743297D02*
X116035238Y-62790916D01*
X116035238Y-62790916D02*
X116011428Y-62862345D01*
X116011428Y-62862345D02*
X115725714Y-63148059D01*
X115725714Y-63148059D02*
X116035238Y-63148059D01*
X136366666Y-54453060D02*
X136128571Y-54453060D01*
X136128571Y-54453060D02*
X136128571Y-53953060D01*
X136795238Y-54453060D02*
X136509524Y-54453060D01*
X136652381Y-54453060D02*
X136652381Y-53953060D01*
X136652381Y-53953060D02*
X136604762Y-54024489D01*
X136604762Y-54024489D02*
X136557143Y-54072108D01*
X136557143Y-54072108D02*
X136509524Y-54095917D01*
X119970440Y-57391428D02*
X119994250Y-57415237D01*
X119994250Y-57415237D02*
X120018059Y-57486666D01*
X120018059Y-57486666D02*
X120018059Y-57534285D01*
X120018059Y-57534285D02*
X119994250Y-57605713D01*
X119994250Y-57605713D02*
X119946630Y-57653332D01*
X119946630Y-57653332D02*
X119899011Y-57677142D01*
X119899011Y-57677142D02*
X119803773Y-57700951D01*
X119803773Y-57700951D02*
X119732345Y-57700951D01*
X119732345Y-57700951D02*
X119637107Y-57677142D01*
X119637107Y-57677142D02*
X119589488Y-57653332D01*
X119589488Y-57653332D02*
X119541869Y-57605713D01*
X119541869Y-57605713D02*
X119518059Y-57534285D01*
X119518059Y-57534285D02*
X119518059Y-57486666D01*
X119518059Y-57486666D02*
X119541869Y-57415237D01*
X119541869Y-57415237D02*
X119565678Y-57391428D01*
X119518059Y-57224761D02*
X119518059Y-56891428D01*
X119518059Y-56891428D02*
X120018059Y-57105713D01*
X119565678Y-56724761D02*
X119541869Y-56700952D01*
X119541869Y-56700952D02*
X119518059Y-56653333D01*
X119518059Y-56653333D02*
X119518059Y-56534285D01*
X119518059Y-56534285D02*
X119541869Y-56486666D01*
X119541869Y-56486666D02*
X119565678Y-56462857D01*
X119565678Y-56462857D02*
X119613297Y-56439047D01*
X119613297Y-56439047D02*
X119660916Y-56439047D01*
X119660916Y-56439047D02*
X119732345Y-56462857D01*
X119732345Y-56462857D02*
X120018059Y-56748571D01*
X120018059Y-56748571D02*
X120018059Y-56439047D01*
X136008059Y-85938095D02*
X136008059Y-85842857D01*
X136008059Y-85842857D02*
X136031869Y-85795238D01*
X136031869Y-85795238D02*
X136079488Y-85747619D01*
X136079488Y-85747619D02*
X136174726Y-85723809D01*
X136174726Y-85723809D02*
X136341392Y-85723809D01*
X136341392Y-85723809D02*
X136436630Y-85747619D01*
X136436630Y-85747619D02*
X136484250Y-85795238D01*
X136484250Y-85795238D02*
X136508059Y-85842857D01*
X136508059Y-85842857D02*
X136508059Y-85938095D01*
X136508059Y-85938095D02*
X136484250Y-85985714D01*
X136484250Y-85985714D02*
X136436630Y-86033333D01*
X136436630Y-86033333D02*
X136341392Y-86057142D01*
X136341392Y-86057142D02*
X136174726Y-86057142D01*
X136174726Y-86057142D02*
X136079488Y-86033333D01*
X136079488Y-86033333D02*
X136031869Y-85985714D01*
X136031869Y-85985714D02*
X136008059Y-85938095D01*
X136008059Y-85509523D02*
X136412821Y-85509523D01*
X136412821Y-85509523D02*
X136460440Y-85485713D01*
X136460440Y-85485713D02*
X136484250Y-85461904D01*
X136484250Y-85461904D02*
X136508059Y-85414285D01*
X136508059Y-85414285D02*
X136508059Y-85319047D01*
X136508059Y-85319047D02*
X136484250Y-85271428D01*
X136484250Y-85271428D02*
X136460440Y-85247618D01*
X136460440Y-85247618D02*
X136412821Y-85223809D01*
X136412821Y-85223809D02*
X136008059Y-85223809D01*
X136008059Y-85057141D02*
X136008059Y-84771427D01*
X136508059Y-84914284D02*
X136008059Y-84914284D01*
X136055678Y-84628570D02*
X136031869Y-84604761D01*
X136031869Y-84604761D02*
X136008059Y-84557142D01*
X136008059Y-84557142D02*
X136008059Y-84438094D01*
X136008059Y-84438094D02*
X136031869Y-84390475D01*
X136031869Y-84390475D02*
X136055678Y-84366666D01*
X136055678Y-84366666D02*
X136103297Y-84342856D01*
X136103297Y-84342856D02*
X136150916Y-84342856D01*
X136150916Y-84342856D02*
X136222345Y-84366666D01*
X136222345Y-84366666D02*
X136508059Y-84652380D01*
X136508059Y-84652380D02*
X136508059Y-84342856D01*
X107058059Y-100209998D02*
X106558059Y-100209998D01*
X106558059Y-100209998D02*
X106915202Y-100043331D01*
X106915202Y-100043331D02*
X106558059Y-99876665D01*
X106558059Y-99876665D02*
X107058059Y-99876665D01*
X106915202Y-99662378D02*
X106915202Y-99424283D01*
X107058059Y-99709997D02*
X106558059Y-99543331D01*
X106558059Y-99543331D02*
X107058059Y-99376664D01*
X106558059Y-99257617D02*
X107058059Y-98924284D01*
X106558059Y-98924284D02*
X107058059Y-99257617D01*
X107105678Y-98852856D02*
X107105678Y-98471903D01*
X107058059Y-98329046D02*
X107058059Y-98233808D01*
X107058059Y-98233808D02*
X107034250Y-98186189D01*
X107034250Y-98186189D02*
X107010440Y-98162380D01*
X107010440Y-98162380D02*
X106939011Y-98114761D01*
X106939011Y-98114761D02*
X106843773Y-98090951D01*
X106843773Y-98090951D02*
X106653297Y-98090951D01*
X106653297Y-98090951D02*
X106605678Y-98114761D01*
X106605678Y-98114761D02*
X106581869Y-98138570D01*
X106581869Y-98138570D02*
X106558059Y-98186189D01*
X106558059Y-98186189D02*
X106558059Y-98281427D01*
X106558059Y-98281427D02*
X106581869Y-98329046D01*
X106581869Y-98329046D02*
X106605678Y-98352856D01*
X106605678Y-98352856D02*
X106653297Y-98376665D01*
X106653297Y-98376665D02*
X106772345Y-98376665D01*
X106772345Y-98376665D02*
X106819964Y-98352856D01*
X106819964Y-98352856D02*
X106843773Y-98329046D01*
X106843773Y-98329046D02*
X106867583Y-98281427D01*
X106867583Y-98281427D02*
X106867583Y-98186189D01*
X106867583Y-98186189D02*
X106843773Y-98138570D01*
X106843773Y-98138570D02*
X106819964Y-98114761D01*
X106819964Y-98114761D02*
X106772345Y-98090951D01*
X106772345Y-97805237D02*
X106748535Y-97852856D01*
X106748535Y-97852856D02*
X106724726Y-97876666D01*
X106724726Y-97876666D02*
X106677107Y-97900475D01*
X106677107Y-97900475D02*
X106653297Y-97900475D01*
X106653297Y-97900475D02*
X106605678Y-97876666D01*
X106605678Y-97876666D02*
X106581869Y-97852856D01*
X106581869Y-97852856D02*
X106558059Y-97805237D01*
X106558059Y-97805237D02*
X106558059Y-97709999D01*
X106558059Y-97709999D02*
X106581869Y-97662380D01*
X106581869Y-97662380D02*
X106605678Y-97638571D01*
X106605678Y-97638571D02*
X106653297Y-97614761D01*
X106653297Y-97614761D02*
X106677107Y-97614761D01*
X106677107Y-97614761D02*
X106724726Y-97638571D01*
X106724726Y-97638571D02*
X106748535Y-97662380D01*
X106748535Y-97662380D02*
X106772345Y-97709999D01*
X106772345Y-97709999D02*
X106772345Y-97805237D01*
X106772345Y-97805237D02*
X106796154Y-97852856D01*
X106796154Y-97852856D02*
X106819964Y-97876666D01*
X106819964Y-97876666D02*
X106867583Y-97900475D01*
X106867583Y-97900475D02*
X106962821Y-97900475D01*
X106962821Y-97900475D02*
X107010440Y-97876666D01*
X107010440Y-97876666D02*
X107034250Y-97852856D01*
X107034250Y-97852856D02*
X107058059Y-97805237D01*
X107058059Y-97805237D02*
X107058059Y-97709999D01*
X107058059Y-97709999D02*
X107034250Y-97662380D01*
X107034250Y-97662380D02*
X107010440Y-97638571D01*
X107010440Y-97638571D02*
X106962821Y-97614761D01*
X106962821Y-97614761D02*
X106867583Y-97614761D01*
X106867583Y-97614761D02*
X106819964Y-97638571D01*
X106819964Y-97638571D02*
X106796154Y-97662380D01*
X106796154Y-97662380D02*
X106772345Y-97709999D01*
X106558059Y-97448095D02*
X106558059Y-97138571D01*
X106558059Y-97138571D02*
X106748535Y-97305238D01*
X106748535Y-97305238D02*
X106748535Y-97233809D01*
X106748535Y-97233809D02*
X106772345Y-97186190D01*
X106772345Y-97186190D02*
X106796154Y-97162381D01*
X106796154Y-97162381D02*
X106843773Y-97138571D01*
X106843773Y-97138571D02*
X106962821Y-97138571D01*
X106962821Y-97138571D02*
X107010440Y-97162381D01*
X107010440Y-97162381D02*
X107034250Y-97186190D01*
X107034250Y-97186190D02*
X107058059Y-97233809D01*
X107058059Y-97233809D02*
X107058059Y-97376666D01*
X107058059Y-97376666D02*
X107034250Y-97424285D01*
X107034250Y-97424285D02*
X107010440Y-97448095D01*
X106558059Y-96686191D02*
X106558059Y-96924286D01*
X106558059Y-96924286D02*
X106796154Y-96948095D01*
X106796154Y-96948095D02*
X106772345Y-96924286D01*
X106772345Y-96924286D02*
X106748535Y-96876667D01*
X106748535Y-96876667D02*
X106748535Y-96757619D01*
X106748535Y-96757619D02*
X106772345Y-96710000D01*
X106772345Y-96710000D02*
X106796154Y-96686191D01*
X106796154Y-96686191D02*
X106843773Y-96662381D01*
X106843773Y-96662381D02*
X106962821Y-96662381D01*
X106962821Y-96662381D02*
X107010440Y-96686191D01*
X107010440Y-96686191D02*
X107034250Y-96710000D01*
X107034250Y-96710000D02*
X107058059Y-96757619D01*
X107058059Y-96757619D02*
X107058059Y-96876667D01*
X107058059Y-96876667D02*
X107034250Y-96924286D01*
X107034250Y-96924286D02*
X107010440Y-96948095D01*
X106558059Y-96495715D02*
X106558059Y-96162382D01*
X106558059Y-96162382D02*
X107058059Y-96376667D01*
X134380440Y-56870952D02*
X134404250Y-56894761D01*
X134404250Y-56894761D02*
X134428059Y-56966190D01*
X134428059Y-56966190D02*
X134428059Y-57013809D01*
X134428059Y-57013809D02*
X134404250Y-57085237D01*
X134404250Y-57085237D02*
X134356630Y-57132856D01*
X134356630Y-57132856D02*
X134309011Y-57156666D01*
X134309011Y-57156666D02*
X134213773Y-57180475D01*
X134213773Y-57180475D02*
X134142345Y-57180475D01*
X134142345Y-57180475D02*
X134047107Y-57156666D01*
X134047107Y-57156666D02*
X133999488Y-57132856D01*
X133999488Y-57132856D02*
X133951869Y-57085237D01*
X133951869Y-57085237D02*
X133928059Y-57013809D01*
X133928059Y-57013809D02*
X133928059Y-56966190D01*
X133928059Y-56966190D02*
X133951869Y-56894761D01*
X133951869Y-56894761D02*
X133975678Y-56870952D01*
X133928059Y-56442380D02*
X133928059Y-56537618D01*
X133928059Y-56537618D02*
X133951869Y-56585237D01*
X133951869Y-56585237D02*
X133975678Y-56609047D01*
X133975678Y-56609047D02*
X134047107Y-56656666D01*
X134047107Y-56656666D02*
X134142345Y-56680475D01*
X134142345Y-56680475D02*
X134332821Y-56680475D01*
X134332821Y-56680475D02*
X134380440Y-56656666D01*
X134380440Y-56656666D02*
X134404250Y-56632856D01*
X134404250Y-56632856D02*
X134428059Y-56585237D01*
X134428059Y-56585237D02*
X134428059Y-56489999D01*
X134428059Y-56489999D02*
X134404250Y-56442380D01*
X134404250Y-56442380D02*
X134380440Y-56418571D01*
X134380440Y-56418571D02*
X134332821Y-56394761D01*
X134332821Y-56394761D02*
X134213773Y-56394761D01*
X134213773Y-56394761D02*
X134166154Y-56418571D01*
X134166154Y-56418571D02*
X134142345Y-56442380D01*
X134142345Y-56442380D02*
X134118535Y-56489999D01*
X134118535Y-56489999D02*
X134118535Y-56585237D01*
X134118535Y-56585237D02*
X134142345Y-56632856D01*
X134142345Y-56632856D02*
X134166154Y-56656666D01*
X134166154Y-56656666D02*
X134213773Y-56680475D01*
X134428059Y-56156666D02*
X134428059Y-56061428D01*
X134428059Y-56061428D02*
X134404250Y-56013809D01*
X134404250Y-56013809D02*
X134380440Y-55990000D01*
X134380440Y-55990000D02*
X134309011Y-55942381D01*
X134309011Y-55942381D02*
X134213773Y-55918571D01*
X134213773Y-55918571D02*
X134023297Y-55918571D01*
X134023297Y-55918571D02*
X133975678Y-55942381D01*
X133975678Y-55942381D02*
X133951869Y-55966190D01*
X133951869Y-55966190D02*
X133928059Y-56013809D01*
X133928059Y-56013809D02*
X133928059Y-56109047D01*
X133928059Y-56109047D02*
X133951869Y-56156666D01*
X133951869Y-56156666D02*
X133975678Y-56180476D01*
X133975678Y-56180476D02*
X134023297Y-56204285D01*
X134023297Y-56204285D02*
X134142345Y-56204285D01*
X134142345Y-56204285D02*
X134189964Y-56180476D01*
X134189964Y-56180476D02*
X134213773Y-56156666D01*
X134213773Y-56156666D02*
X134237583Y-56109047D01*
X134237583Y-56109047D02*
X134237583Y-56013809D01*
X134237583Y-56013809D02*
X134213773Y-55966190D01*
X134213773Y-55966190D02*
X134189964Y-55942381D01*
X134189964Y-55942381D02*
X134142345Y-55918571D01*
X105966666Y-54503060D02*
X105728571Y-54503060D01*
X105728571Y-54503060D02*
X105728571Y-54003060D01*
X106347619Y-54169727D02*
X106347619Y-54503060D01*
X106228571Y-53979251D02*
X106109524Y-54336393D01*
X106109524Y-54336393D02*
X106419047Y-54336393D01*
X98788059Y-104267142D02*
X98288059Y-104267142D01*
X98288059Y-104267142D02*
X98288059Y-104148094D01*
X98288059Y-104148094D02*
X98311869Y-104076666D01*
X98311869Y-104076666D02*
X98359488Y-104029047D01*
X98359488Y-104029047D02*
X98407107Y-104005237D01*
X98407107Y-104005237D02*
X98502345Y-103981428D01*
X98502345Y-103981428D02*
X98573773Y-103981428D01*
X98573773Y-103981428D02*
X98669011Y-104005237D01*
X98669011Y-104005237D02*
X98716630Y-104029047D01*
X98716630Y-104029047D02*
X98764250Y-104076666D01*
X98764250Y-104076666D02*
X98788059Y-104148094D01*
X98788059Y-104148094D02*
X98788059Y-104267142D01*
X98288059Y-103814761D02*
X98288059Y-103505237D01*
X98288059Y-103505237D02*
X98478535Y-103671904D01*
X98478535Y-103671904D02*
X98478535Y-103600475D01*
X98478535Y-103600475D02*
X98502345Y-103552856D01*
X98502345Y-103552856D02*
X98526154Y-103529047D01*
X98526154Y-103529047D02*
X98573773Y-103505237D01*
X98573773Y-103505237D02*
X98692821Y-103505237D01*
X98692821Y-103505237D02*
X98740440Y-103529047D01*
X98740440Y-103529047D02*
X98764250Y-103552856D01*
X98764250Y-103552856D02*
X98788059Y-103600475D01*
X98788059Y-103600475D02*
X98788059Y-103743332D01*
X98788059Y-103743332D02*
X98764250Y-103790951D01*
X98764250Y-103790951D02*
X98740440Y-103814761D01*
X98502345Y-103219523D02*
X98478535Y-103267142D01*
X98478535Y-103267142D02*
X98454726Y-103290952D01*
X98454726Y-103290952D02*
X98407107Y-103314761D01*
X98407107Y-103314761D02*
X98383297Y-103314761D01*
X98383297Y-103314761D02*
X98335678Y-103290952D01*
X98335678Y-103290952D02*
X98311869Y-103267142D01*
X98311869Y-103267142D02*
X98288059Y-103219523D01*
X98288059Y-103219523D02*
X98288059Y-103124285D01*
X98288059Y-103124285D02*
X98311869Y-103076666D01*
X98311869Y-103076666D02*
X98335678Y-103052857D01*
X98335678Y-103052857D02*
X98383297Y-103029047D01*
X98383297Y-103029047D02*
X98407107Y-103029047D01*
X98407107Y-103029047D02*
X98454726Y-103052857D01*
X98454726Y-103052857D02*
X98478535Y-103076666D01*
X98478535Y-103076666D02*
X98502345Y-103124285D01*
X98502345Y-103124285D02*
X98502345Y-103219523D01*
X98502345Y-103219523D02*
X98526154Y-103267142D01*
X98526154Y-103267142D02*
X98549964Y-103290952D01*
X98549964Y-103290952D02*
X98597583Y-103314761D01*
X98597583Y-103314761D02*
X98692821Y-103314761D01*
X98692821Y-103314761D02*
X98740440Y-103290952D01*
X98740440Y-103290952D02*
X98764250Y-103267142D01*
X98764250Y-103267142D02*
X98788059Y-103219523D01*
X98788059Y-103219523D02*
X98788059Y-103124285D01*
X98788059Y-103124285D02*
X98764250Y-103076666D01*
X98764250Y-103076666D02*
X98740440Y-103052857D01*
X98740440Y-103052857D02*
X98692821Y-103029047D01*
X98692821Y-103029047D02*
X98597583Y-103029047D01*
X98597583Y-103029047D02*
X98549964Y-103052857D01*
X98549964Y-103052857D02*
X98526154Y-103076666D01*
X98526154Y-103076666D02*
X98502345Y-103124285D01*
X61702380Y-95110678D02*
X61654761Y-95086869D01*
X61654761Y-95086869D02*
X61607142Y-95039250D01*
X61607142Y-95039250D02*
X61535714Y-94967821D01*
X61535714Y-94967821D02*
X61488095Y-94944011D01*
X61488095Y-94944011D02*
X61440476Y-94944011D01*
X61464285Y-95063059D02*
X61416666Y-95039250D01*
X61416666Y-95039250D02*
X61369047Y-94991630D01*
X61369047Y-94991630D02*
X61345238Y-94896392D01*
X61345238Y-94896392D02*
X61345238Y-94729726D01*
X61345238Y-94729726D02*
X61369047Y-94634488D01*
X61369047Y-94634488D02*
X61416666Y-94586869D01*
X61416666Y-94586869D02*
X61464285Y-94563059D01*
X61464285Y-94563059D02*
X61559523Y-94563059D01*
X61559523Y-94563059D02*
X61607142Y-94586869D01*
X61607142Y-94586869D02*
X61654761Y-94634488D01*
X61654761Y-94634488D02*
X61678571Y-94729726D01*
X61678571Y-94729726D02*
X61678571Y-94896392D01*
X61678571Y-94896392D02*
X61654761Y-94991630D01*
X61654761Y-94991630D02*
X61607142Y-95039250D01*
X61607142Y-95039250D02*
X61559523Y-95063059D01*
X61559523Y-95063059D02*
X61464285Y-95063059D01*
X62154762Y-95063059D02*
X61869048Y-95063059D01*
X62011905Y-95063059D02*
X62011905Y-94563059D01*
X62011905Y-94563059D02*
X61964286Y-94634488D01*
X61964286Y-94634488D02*
X61916667Y-94682107D01*
X61916667Y-94682107D02*
X61869048Y-94705916D01*
X61228059Y-93405713D02*
X61632821Y-93405713D01*
X61632821Y-93405713D02*
X61680440Y-93381903D01*
X61680440Y-93381903D02*
X61704250Y-93358094D01*
X61704250Y-93358094D02*
X61728059Y-93310475D01*
X61728059Y-93310475D02*
X61728059Y-93215237D01*
X61728059Y-93215237D02*
X61704250Y-93167618D01*
X61704250Y-93167618D02*
X61680440Y-93143808D01*
X61680440Y-93143808D02*
X61632821Y-93119999D01*
X61632821Y-93119999D02*
X61228059Y-93119999D01*
X61585202Y-92905712D02*
X61585202Y-92667617D01*
X61728059Y-92953331D02*
X61228059Y-92786665D01*
X61228059Y-92786665D02*
X61728059Y-92619998D01*
X61728059Y-92167618D02*
X61489964Y-92334284D01*
X61728059Y-92453332D02*
X61228059Y-92453332D01*
X61228059Y-92453332D02*
X61228059Y-92262856D01*
X61228059Y-92262856D02*
X61251869Y-92215237D01*
X61251869Y-92215237D02*
X61275678Y-92191427D01*
X61275678Y-92191427D02*
X61323297Y-92167618D01*
X61323297Y-92167618D02*
X61394726Y-92167618D01*
X61394726Y-92167618D02*
X61442345Y-92191427D01*
X61442345Y-92191427D02*
X61466154Y-92215237D01*
X61466154Y-92215237D02*
X61489964Y-92262856D01*
X61489964Y-92262856D02*
X61489964Y-92453332D01*
X61228059Y-92024760D02*
X61228059Y-91739046D01*
X61728059Y-91881903D02*
X61228059Y-91881903D01*
X61728059Y-91310475D02*
X61728059Y-91596189D01*
X61728059Y-91453332D02*
X61228059Y-91453332D01*
X61228059Y-91453332D02*
X61299488Y-91500951D01*
X61299488Y-91500951D02*
X61347107Y-91548570D01*
X61347107Y-91548570D02*
X61370916Y-91596189D01*
X135998059Y-72338095D02*
X135998059Y-72242857D01*
X135998059Y-72242857D02*
X136021869Y-72195238D01*
X136021869Y-72195238D02*
X136069488Y-72147619D01*
X136069488Y-72147619D02*
X136164726Y-72123809D01*
X136164726Y-72123809D02*
X136331392Y-72123809D01*
X136331392Y-72123809D02*
X136426630Y-72147619D01*
X136426630Y-72147619D02*
X136474250Y-72195238D01*
X136474250Y-72195238D02*
X136498059Y-72242857D01*
X136498059Y-72242857D02*
X136498059Y-72338095D01*
X136498059Y-72338095D02*
X136474250Y-72385714D01*
X136474250Y-72385714D02*
X136426630Y-72433333D01*
X136426630Y-72433333D02*
X136331392Y-72457142D01*
X136331392Y-72457142D02*
X136164726Y-72457142D01*
X136164726Y-72457142D02*
X136069488Y-72433333D01*
X136069488Y-72433333D02*
X136021869Y-72385714D01*
X136021869Y-72385714D02*
X135998059Y-72338095D01*
X135998059Y-71909523D02*
X136402821Y-71909523D01*
X136402821Y-71909523D02*
X136450440Y-71885713D01*
X136450440Y-71885713D02*
X136474250Y-71861904D01*
X136474250Y-71861904D02*
X136498059Y-71814285D01*
X136498059Y-71814285D02*
X136498059Y-71719047D01*
X136498059Y-71719047D02*
X136474250Y-71671428D01*
X136474250Y-71671428D02*
X136450440Y-71647618D01*
X136450440Y-71647618D02*
X136402821Y-71623809D01*
X136402821Y-71623809D02*
X135998059Y-71623809D01*
X135998059Y-71457141D02*
X135998059Y-71171427D01*
X136498059Y-71314284D02*
X135998059Y-71314284D01*
X136498059Y-70742856D02*
X136498059Y-71028570D01*
X136498059Y-70885713D02*
X135998059Y-70885713D01*
X135998059Y-70885713D02*
X136069488Y-70933332D01*
X136069488Y-70933332D02*
X136117107Y-70980951D01*
X136117107Y-70980951D02*
X136140916Y-71028570D01*
X66403060Y-61283333D02*
X66403060Y-61521428D01*
X66403060Y-61521428D02*
X65903060Y-61521428D01*
X65950679Y-61140475D02*
X65926870Y-61116666D01*
X65926870Y-61116666D02*
X65903060Y-61069047D01*
X65903060Y-61069047D02*
X65903060Y-60949999D01*
X65903060Y-60949999D02*
X65926870Y-60902380D01*
X65926870Y-60902380D02*
X65950679Y-60878571D01*
X65950679Y-60878571D02*
X65998298Y-60854761D01*
X65998298Y-60854761D02*
X66045917Y-60854761D01*
X66045917Y-60854761D02*
X66117346Y-60878571D01*
X66117346Y-60878571D02*
X66403060Y-61164285D01*
X66403060Y-61164285D02*
X66403060Y-60854761D01*
X140470440Y-56870952D02*
X140494250Y-56894761D01*
X140494250Y-56894761D02*
X140518059Y-56966190D01*
X140518059Y-56966190D02*
X140518059Y-57013809D01*
X140518059Y-57013809D02*
X140494250Y-57085237D01*
X140494250Y-57085237D02*
X140446630Y-57132856D01*
X140446630Y-57132856D02*
X140399011Y-57156666D01*
X140399011Y-57156666D02*
X140303773Y-57180475D01*
X140303773Y-57180475D02*
X140232345Y-57180475D01*
X140232345Y-57180475D02*
X140137107Y-57156666D01*
X140137107Y-57156666D02*
X140089488Y-57132856D01*
X140089488Y-57132856D02*
X140041869Y-57085237D01*
X140041869Y-57085237D02*
X140018059Y-57013809D01*
X140018059Y-57013809D02*
X140018059Y-56966190D01*
X140018059Y-56966190D02*
X140041869Y-56894761D01*
X140041869Y-56894761D02*
X140065678Y-56870952D01*
X140018059Y-56442380D02*
X140018059Y-56537618D01*
X140018059Y-56537618D02*
X140041869Y-56585237D01*
X140041869Y-56585237D02*
X140065678Y-56609047D01*
X140065678Y-56609047D02*
X140137107Y-56656666D01*
X140137107Y-56656666D02*
X140232345Y-56680475D01*
X140232345Y-56680475D02*
X140422821Y-56680475D01*
X140422821Y-56680475D02*
X140470440Y-56656666D01*
X140470440Y-56656666D02*
X140494250Y-56632856D01*
X140494250Y-56632856D02*
X140518059Y-56585237D01*
X140518059Y-56585237D02*
X140518059Y-56489999D01*
X140518059Y-56489999D02*
X140494250Y-56442380D01*
X140494250Y-56442380D02*
X140470440Y-56418571D01*
X140470440Y-56418571D02*
X140422821Y-56394761D01*
X140422821Y-56394761D02*
X140303773Y-56394761D01*
X140303773Y-56394761D02*
X140256154Y-56418571D01*
X140256154Y-56418571D02*
X140232345Y-56442380D01*
X140232345Y-56442380D02*
X140208535Y-56489999D01*
X140208535Y-56489999D02*
X140208535Y-56585237D01*
X140208535Y-56585237D02*
X140232345Y-56632856D01*
X140232345Y-56632856D02*
X140256154Y-56656666D01*
X140256154Y-56656666D02*
X140303773Y-56680475D01*
X140018059Y-56228095D02*
X140018059Y-55894762D01*
X140018059Y-55894762D02*
X140518059Y-56109047D01*
X86091666Y-51330440D02*
X86067857Y-51354250D01*
X86067857Y-51354250D02*
X85996428Y-51378059D01*
X85996428Y-51378059D02*
X85948809Y-51378059D01*
X85948809Y-51378059D02*
X85877381Y-51354250D01*
X85877381Y-51354250D02*
X85829762Y-51306630D01*
X85829762Y-51306630D02*
X85805952Y-51259011D01*
X85805952Y-51259011D02*
X85782143Y-51163773D01*
X85782143Y-51163773D02*
X85782143Y-51092345D01*
X85782143Y-51092345D02*
X85805952Y-50997107D01*
X85805952Y-50997107D02*
X85829762Y-50949488D01*
X85829762Y-50949488D02*
X85877381Y-50901869D01*
X85877381Y-50901869D02*
X85948809Y-50878059D01*
X85948809Y-50878059D02*
X85996428Y-50878059D01*
X85996428Y-50878059D02*
X86067857Y-50901869D01*
X86067857Y-50901869D02*
X86091666Y-50925678D01*
X86520238Y-51044726D02*
X86520238Y-51378059D01*
X86401190Y-50854250D02*
X86282143Y-51211392D01*
X86282143Y-51211392D02*
X86591666Y-51211392D01*
X121141666Y-54503060D02*
X120903571Y-54503060D01*
X120903571Y-54503060D02*
X120903571Y-54003060D01*
X121260714Y-54003060D02*
X121570238Y-54003060D01*
X121570238Y-54003060D02*
X121403571Y-54193536D01*
X121403571Y-54193536D02*
X121475000Y-54193536D01*
X121475000Y-54193536D02*
X121522619Y-54217346D01*
X121522619Y-54217346D02*
X121546428Y-54241155D01*
X121546428Y-54241155D02*
X121570238Y-54288774D01*
X121570238Y-54288774D02*
X121570238Y-54407822D01*
X121570238Y-54407822D02*
X121546428Y-54455441D01*
X121546428Y-54455441D02*
X121522619Y-54479251D01*
X121522619Y-54479251D02*
X121475000Y-54503060D01*
X121475000Y-54503060D02*
X121332143Y-54503060D01*
X121332143Y-54503060D02*
X121284524Y-54479251D01*
X121284524Y-54479251D02*
X121260714Y-54455441D01*
X107188059Y-57271428D02*
X106949964Y-57438094D01*
X107188059Y-57557142D02*
X106688059Y-57557142D01*
X106688059Y-57557142D02*
X106688059Y-57366666D01*
X106688059Y-57366666D02*
X106711869Y-57319047D01*
X106711869Y-57319047D02*
X106735678Y-57295237D01*
X106735678Y-57295237D02*
X106783297Y-57271428D01*
X106783297Y-57271428D02*
X106854726Y-57271428D01*
X106854726Y-57271428D02*
X106902345Y-57295237D01*
X106902345Y-57295237D02*
X106926154Y-57319047D01*
X106926154Y-57319047D02*
X106949964Y-57366666D01*
X106949964Y-57366666D02*
X106949964Y-57557142D01*
X106688059Y-56819047D02*
X106688059Y-57057142D01*
X106688059Y-57057142D02*
X106926154Y-57080951D01*
X106926154Y-57080951D02*
X106902345Y-57057142D01*
X106902345Y-57057142D02*
X106878535Y-57009523D01*
X106878535Y-57009523D02*
X106878535Y-56890475D01*
X106878535Y-56890475D02*
X106902345Y-56842856D01*
X106902345Y-56842856D02*
X106926154Y-56819047D01*
X106926154Y-56819047D02*
X106973773Y-56795237D01*
X106973773Y-56795237D02*
X107092821Y-56795237D01*
X107092821Y-56795237D02*
X107140440Y-56819047D01*
X107140440Y-56819047D02*
X107164250Y-56842856D01*
X107164250Y-56842856D02*
X107188059Y-56890475D01*
X107188059Y-56890475D02*
X107188059Y-57009523D01*
X107188059Y-57009523D02*
X107164250Y-57057142D01*
X107164250Y-57057142D02*
X107140440Y-57080951D01*
X107188059Y-56557142D02*
X107188059Y-56461904D01*
X107188059Y-56461904D02*
X107164250Y-56414285D01*
X107164250Y-56414285D02*
X107140440Y-56390476D01*
X107140440Y-56390476D02*
X107069011Y-56342857D01*
X107069011Y-56342857D02*
X106973773Y-56319047D01*
X106973773Y-56319047D02*
X106783297Y-56319047D01*
X106783297Y-56319047D02*
X106735678Y-56342857D01*
X106735678Y-56342857D02*
X106711869Y-56366666D01*
X106711869Y-56366666D02*
X106688059Y-56414285D01*
X106688059Y-56414285D02*
X106688059Y-56509523D01*
X106688059Y-56509523D02*
X106711869Y-56557142D01*
X106711869Y-56557142D02*
X106735678Y-56580952D01*
X106735678Y-56580952D02*
X106783297Y-56604761D01*
X106783297Y-56604761D02*
X106902345Y-56604761D01*
X106902345Y-56604761D02*
X106949964Y-56580952D01*
X106949964Y-56580952D02*
X106973773Y-56557142D01*
X106973773Y-56557142D02*
X106997583Y-56509523D01*
X106997583Y-56509523D02*
X106997583Y-56414285D01*
X106997583Y-56414285D02*
X106973773Y-56366666D01*
X106973773Y-56366666D02*
X106949964Y-56342857D01*
X106949964Y-56342857D02*
X106902345Y-56319047D01*
X121139047Y-86498059D02*
X121139047Y-86902821D01*
X121139047Y-86902821D02*
X121162857Y-86950440D01*
X121162857Y-86950440D02*
X121186666Y-86974250D01*
X121186666Y-86974250D02*
X121234285Y-86998059D01*
X121234285Y-86998059D02*
X121329523Y-86998059D01*
X121329523Y-86998059D02*
X121377142Y-86974250D01*
X121377142Y-86974250D02*
X121400952Y-86950440D01*
X121400952Y-86950440D02*
X121424761Y-86902821D01*
X121424761Y-86902821D02*
X121424761Y-86498059D01*
X121877143Y-86664726D02*
X121877143Y-86998059D01*
X121758095Y-86474250D02*
X121639048Y-86831392D01*
X121639048Y-86831392D02*
X121948571Y-86831392D01*
X116635165Y-82645083D02*
X117016118Y-82645083D01*
X116635165Y-90095083D02*
X117016118Y-90095083D01*
X116685165Y-86370083D02*
X117066118Y-86370083D01*
X116875641Y-86560559D02*
X116875641Y-86179607D01*
X56606154Y-78387142D02*
X56606154Y-78220475D01*
X56868059Y-78149047D02*
X56868059Y-78387142D01*
X56868059Y-78387142D02*
X56368059Y-78387142D01*
X56368059Y-78387142D02*
X56368059Y-78149047D01*
X56868059Y-77934761D02*
X56368059Y-77934761D01*
X56368059Y-77934761D02*
X56868059Y-77649047D01*
X56868059Y-77649047D02*
X56368059Y-77649047D01*
X56868059Y-77149046D02*
X56868059Y-77434760D01*
X56868059Y-77291903D02*
X56368059Y-77291903D01*
X56368059Y-77291903D02*
X56439488Y-77339522D01*
X56439488Y-77339522D02*
X56487107Y-77387141D01*
X56487107Y-77387141D02*
X56510916Y-77434760D01*
X82078571Y-84350440D02*
X82054762Y-84374250D01*
X82054762Y-84374250D02*
X81983333Y-84398059D01*
X81983333Y-84398059D02*
X81935714Y-84398059D01*
X81935714Y-84398059D02*
X81864286Y-84374250D01*
X81864286Y-84374250D02*
X81816667Y-84326630D01*
X81816667Y-84326630D02*
X81792857Y-84279011D01*
X81792857Y-84279011D02*
X81769048Y-84183773D01*
X81769048Y-84183773D02*
X81769048Y-84112345D01*
X81769048Y-84112345D02*
X81792857Y-84017107D01*
X81792857Y-84017107D02*
X81816667Y-83969488D01*
X81816667Y-83969488D02*
X81864286Y-83921869D01*
X81864286Y-83921869D02*
X81935714Y-83898059D01*
X81935714Y-83898059D02*
X81983333Y-83898059D01*
X81983333Y-83898059D02*
X82054762Y-83921869D01*
X82054762Y-83921869D02*
X82078571Y-83945678D01*
X82507143Y-83898059D02*
X82411905Y-83898059D01*
X82411905Y-83898059D02*
X82364286Y-83921869D01*
X82364286Y-83921869D02*
X82340476Y-83945678D01*
X82340476Y-83945678D02*
X82292857Y-84017107D01*
X82292857Y-84017107D02*
X82269048Y-84112345D01*
X82269048Y-84112345D02*
X82269048Y-84302821D01*
X82269048Y-84302821D02*
X82292857Y-84350440D01*
X82292857Y-84350440D02*
X82316667Y-84374250D01*
X82316667Y-84374250D02*
X82364286Y-84398059D01*
X82364286Y-84398059D02*
X82459524Y-84398059D01*
X82459524Y-84398059D02*
X82507143Y-84374250D01*
X82507143Y-84374250D02*
X82530952Y-84350440D01*
X82530952Y-84350440D02*
X82554762Y-84302821D01*
X82554762Y-84302821D02*
X82554762Y-84183773D01*
X82554762Y-84183773D02*
X82530952Y-84136154D01*
X82530952Y-84136154D02*
X82507143Y-84112345D01*
X82507143Y-84112345D02*
X82459524Y-84088535D01*
X82459524Y-84088535D02*
X82364286Y-84088535D01*
X82364286Y-84088535D02*
X82316667Y-84112345D01*
X82316667Y-84112345D02*
X82292857Y-84136154D01*
X82292857Y-84136154D02*
X82269048Y-84183773D01*
X82864285Y-83898059D02*
X82911904Y-83898059D01*
X82911904Y-83898059D02*
X82959523Y-83921869D01*
X82959523Y-83921869D02*
X82983333Y-83945678D01*
X82983333Y-83945678D02*
X83007142Y-83993297D01*
X83007142Y-83993297D02*
X83030952Y-84088535D01*
X83030952Y-84088535D02*
X83030952Y-84207583D01*
X83030952Y-84207583D02*
X83007142Y-84302821D01*
X83007142Y-84302821D02*
X82983333Y-84350440D01*
X82983333Y-84350440D02*
X82959523Y-84374250D01*
X82959523Y-84374250D02*
X82911904Y-84398059D01*
X82911904Y-84398059D02*
X82864285Y-84398059D01*
X82864285Y-84398059D02*
X82816666Y-84374250D01*
X82816666Y-84374250D02*
X82792857Y-84350440D01*
X82792857Y-84350440D02*
X82769047Y-84302821D01*
X82769047Y-84302821D02*
X82745238Y-84207583D01*
X82745238Y-84207583D02*
X82745238Y-84088535D01*
X82745238Y-84088535D02*
X82769047Y-83993297D01*
X82769047Y-83993297D02*
X82792857Y-83945678D01*
X82792857Y-83945678D02*
X82816666Y-83921869D01*
X82816666Y-83921869D02*
X82864285Y-83898059D01*
X85686666Y-74140440D02*
X85662857Y-74164250D01*
X85662857Y-74164250D02*
X85591428Y-74188059D01*
X85591428Y-74188059D02*
X85543809Y-74188059D01*
X85543809Y-74188059D02*
X85472381Y-74164250D01*
X85472381Y-74164250D02*
X85424762Y-74116630D01*
X85424762Y-74116630D02*
X85400952Y-74069011D01*
X85400952Y-74069011D02*
X85377143Y-73973773D01*
X85377143Y-73973773D02*
X85377143Y-73902345D01*
X85377143Y-73902345D02*
X85400952Y-73807107D01*
X85400952Y-73807107D02*
X85424762Y-73759488D01*
X85424762Y-73759488D02*
X85472381Y-73711869D01*
X85472381Y-73711869D02*
X85543809Y-73688059D01*
X85543809Y-73688059D02*
X85591428Y-73688059D01*
X85591428Y-73688059D02*
X85662857Y-73711869D01*
X85662857Y-73711869D02*
X85686666Y-73735678D01*
X85853333Y-73688059D02*
X86162857Y-73688059D01*
X86162857Y-73688059D02*
X85996190Y-73878535D01*
X85996190Y-73878535D02*
X86067619Y-73878535D01*
X86067619Y-73878535D02*
X86115238Y-73902345D01*
X86115238Y-73902345D02*
X86139047Y-73926154D01*
X86139047Y-73926154D02*
X86162857Y-73973773D01*
X86162857Y-73973773D02*
X86162857Y-74092821D01*
X86162857Y-74092821D02*
X86139047Y-74140440D01*
X86139047Y-74140440D02*
X86115238Y-74164250D01*
X86115238Y-74164250D02*
X86067619Y-74188059D01*
X86067619Y-74188059D02*
X85924762Y-74188059D01*
X85924762Y-74188059D02*
X85877143Y-74164250D01*
X85877143Y-74164250D02*
X85853333Y-74140440D01*
X50560952Y-96828059D02*
X50560952Y-96328059D01*
X50560952Y-96328059D02*
X50680000Y-96328059D01*
X50680000Y-96328059D02*
X50751428Y-96351869D01*
X50751428Y-96351869D02*
X50799047Y-96399488D01*
X50799047Y-96399488D02*
X50822857Y-96447107D01*
X50822857Y-96447107D02*
X50846666Y-96542345D01*
X50846666Y-96542345D02*
X50846666Y-96613773D01*
X50846666Y-96613773D02*
X50822857Y-96709011D01*
X50822857Y-96709011D02*
X50799047Y-96756630D01*
X50799047Y-96756630D02*
X50751428Y-96804250D01*
X50751428Y-96804250D02*
X50680000Y-96828059D01*
X50680000Y-96828059D02*
X50560952Y-96828059D01*
X51322857Y-96828059D02*
X51037143Y-96828059D01*
X51180000Y-96828059D02*
X51180000Y-96328059D01*
X51180000Y-96328059D02*
X51132381Y-96399488D01*
X51132381Y-96399488D02*
X51084762Y-96447107D01*
X51084762Y-96447107D02*
X51037143Y-96470916D01*
X85338571Y-87018059D02*
X85171905Y-86779964D01*
X85052857Y-87018059D02*
X85052857Y-86518059D01*
X85052857Y-86518059D02*
X85243333Y-86518059D01*
X85243333Y-86518059D02*
X85290952Y-86541869D01*
X85290952Y-86541869D02*
X85314762Y-86565678D01*
X85314762Y-86565678D02*
X85338571Y-86613297D01*
X85338571Y-86613297D02*
X85338571Y-86684726D01*
X85338571Y-86684726D02*
X85314762Y-86732345D01*
X85314762Y-86732345D02*
X85290952Y-86756154D01*
X85290952Y-86756154D02*
X85243333Y-86779964D01*
X85243333Y-86779964D02*
X85052857Y-86779964D01*
X85505238Y-86518059D02*
X85838571Y-86518059D01*
X85838571Y-86518059D02*
X85624286Y-87018059D01*
X85981428Y-86518059D02*
X86314761Y-86518059D01*
X86314761Y-86518059D02*
X86100476Y-87018059D01*
X111390440Y-57511428D02*
X111414250Y-57535237D01*
X111414250Y-57535237D02*
X111438059Y-57606666D01*
X111438059Y-57606666D02*
X111438059Y-57654285D01*
X111438059Y-57654285D02*
X111414250Y-57725713D01*
X111414250Y-57725713D02*
X111366630Y-57773332D01*
X111366630Y-57773332D02*
X111319011Y-57797142D01*
X111319011Y-57797142D02*
X111223773Y-57820951D01*
X111223773Y-57820951D02*
X111152345Y-57820951D01*
X111152345Y-57820951D02*
X111057107Y-57797142D01*
X111057107Y-57797142D02*
X111009488Y-57773332D01*
X111009488Y-57773332D02*
X110961869Y-57725713D01*
X110961869Y-57725713D02*
X110938059Y-57654285D01*
X110938059Y-57654285D02*
X110938059Y-57606666D01*
X110938059Y-57606666D02*
X110961869Y-57535237D01*
X110961869Y-57535237D02*
X110985678Y-57511428D01*
X110938059Y-57344761D02*
X110938059Y-57011428D01*
X110938059Y-57011428D02*
X111438059Y-57225713D01*
X110938059Y-56606666D02*
X110938059Y-56701904D01*
X110938059Y-56701904D02*
X110961869Y-56749523D01*
X110961869Y-56749523D02*
X110985678Y-56773333D01*
X110985678Y-56773333D02*
X111057107Y-56820952D01*
X111057107Y-56820952D02*
X111152345Y-56844761D01*
X111152345Y-56844761D02*
X111342821Y-56844761D01*
X111342821Y-56844761D02*
X111390440Y-56820952D01*
X111390440Y-56820952D02*
X111414250Y-56797142D01*
X111414250Y-56797142D02*
X111438059Y-56749523D01*
X111438059Y-56749523D02*
X111438059Y-56654285D01*
X111438059Y-56654285D02*
X111414250Y-56606666D01*
X111414250Y-56606666D02*
X111390440Y-56582857D01*
X111390440Y-56582857D02*
X111342821Y-56559047D01*
X111342821Y-56559047D02*
X111223773Y-56559047D01*
X111223773Y-56559047D02*
X111176154Y-56582857D01*
X111176154Y-56582857D02*
X111152345Y-56606666D01*
X111152345Y-56606666D02*
X111128535Y-56654285D01*
X111128535Y-56654285D02*
X111128535Y-56749523D01*
X111128535Y-56749523D02*
X111152345Y-56797142D01*
X111152345Y-56797142D02*
X111176154Y-56820952D01*
X111176154Y-56820952D02*
X111223773Y-56844761D01*
X81218571Y-74140440D02*
X81194762Y-74164250D01*
X81194762Y-74164250D02*
X81123333Y-74188059D01*
X81123333Y-74188059D02*
X81075714Y-74188059D01*
X81075714Y-74188059D02*
X81004286Y-74164250D01*
X81004286Y-74164250D02*
X80956667Y-74116630D01*
X80956667Y-74116630D02*
X80932857Y-74069011D01*
X80932857Y-74069011D02*
X80909048Y-73973773D01*
X80909048Y-73973773D02*
X80909048Y-73902345D01*
X80909048Y-73902345D02*
X80932857Y-73807107D01*
X80932857Y-73807107D02*
X80956667Y-73759488D01*
X80956667Y-73759488D02*
X81004286Y-73711869D01*
X81004286Y-73711869D02*
X81075714Y-73688059D01*
X81075714Y-73688059D02*
X81123333Y-73688059D01*
X81123333Y-73688059D02*
X81194762Y-73711869D01*
X81194762Y-73711869D02*
X81218571Y-73735678D01*
X81670952Y-73688059D02*
X81432857Y-73688059D01*
X81432857Y-73688059D02*
X81409048Y-73926154D01*
X81409048Y-73926154D02*
X81432857Y-73902345D01*
X81432857Y-73902345D02*
X81480476Y-73878535D01*
X81480476Y-73878535D02*
X81599524Y-73878535D01*
X81599524Y-73878535D02*
X81647143Y-73902345D01*
X81647143Y-73902345D02*
X81670952Y-73926154D01*
X81670952Y-73926154D02*
X81694762Y-73973773D01*
X81694762Y-73973773D02*
X81694762Y-74092821D01*
X81694762Y-74092821D02*
X81670952Y-74140440D01*
X81670952Y-74140440D02*
X81647143Y-74164250D01*
X81647143Y-74164250D02*
X81599524Y-74188059D01*
X81599524Y-74188059D02*
X81480476Y-74188059D01*
X81480476Y-74188059D02*
X81432857Y-74164250D01*
X81432857Y-74164250D02*
X81409048Y-74140440D01*
X81980476Y-73902345D02*
X81932857Y-73878535D01*
X81932857Y-73878535D02*
X81909047Y-73854726D01*
X81909047Y-73854726D02*
X81885238Y-73807107D01*
X81885238Y-73807107D02*
X81885238Y-73783297D01*
X81885238Y-73783297D02*
X81909047Y-73735678D01*
X81909047Y-73735678D02*
X81932857Y-73711869D01*
X81932857Y-73711869D02*
X81980476Y-73688059D01*
X81980476Y-73688059D02*
X82075714Y-73688059D01*
X82075714Y-73688059D02*
X82123333Y-73711869D01*
X82123333Y-73711869D02*
X82147142Y-73735678D01*
X82147142Y-73735678D02*
X82170952Y-73783297D01*
X82170952Y-73783297D02*
X82170952Y-73807107D01*
X82170952Y-73807107D02*
X82147142Y-73854726D01*
X82147142Y-73854726D02*
X82123333Y-73878535D01*
X82123333Y-73878535D02*
X82075714Y-73902345D01*
X82075714Y-73902345D02*
X81980476Y-73902345D01*
X81980476Y-73902345D02*
X81932857Y-73926154D01*
X81932857Y-73926154D02*
X81909047Y-73949964D01*
X81909047Y-73949964D02*
X81885238Y-73997583D01*
X81885238Y-73997583D02*
X81885238Y-74092821D01*
X81885238Y-74092821D02*
X81909047Y-74140440D01*
X81909047Y-74140440D02*
X81932857Y-74164250D01*
X81932857Y-74164250D02*
X81980476Y-74188059D01*
X81980476Y-74188059D02*
X82075714Y-74188059D01*
X82075714Y-74188059D02*
X82123333Y-74164250D01*
X82123333Y-74164250D02*
X82147142Y-74140440D01*
X82147142Y-74140440D02*
X82170952Y-74092821D01*
X82170952Y-74092821D02*
X82170952Y-73997583D01*
X82170952Y-73997583D02*
X82147142Y-73949964D01*
X82147142Y-73949964D02*
X82123333Y-73926154D01*
X82123333Y-73926154D02*
X82075714Y-73902345D01*
X123038059Y-57311428D02*
X122799964Y-57478094D01*
X123038059Y-57597142D02*
X122538059Y-57597142D01*
X122538059Y-57597142D02*
X122538059Y-57406666D01*
X122538059Y-57406666D02*
X122561869Y-57359047D01*
X122561869Y-57359047D02*
X122585678Y-57335237D01*
X122585678Y-57335237D02*
X122633297Y-57311428D01*
X122633297Y-57311428D02*
X122704726Y-57311428D01*
X122704726Y-57311428D02*
X122752345Y-57335237D01*
X122752345Y-57335237D02*
X122776154Y-57359047D01*
X122776154Y-57359047D02*
X122799964Y-57406666D01*
X122799964Y-57406666D02*
X122799964Y-57597142D01*
X122538059Y-56859047D02*
X122538059Y-57097142D01*
X122538059Y-57097142D02*
X122776154Y-57120951D01*
X122776154Y-57120951D02*
X122752345Y-57097142D01*
X122752345Y-57097142D02*
X122728535Y-57049523D01*
X122728535Y-57049523D02*
X122728535Y-56930475D01*
X122728535Y-56930475D02*
X122752345Y-56882856D01*
X122752345Y-56882856D02*
X122776154Y-56859047D01*
X122776154Y-56859047D02*
X122823773Y-56835237D01*
X122823773Y-56835237D02*
X122942821Y-56835237D01*
X122942821Y-56835237D02*
X122990440Y-56859047D01*
X122990440Y-56859047D02*
X123014250Y-56882856D01*
X123014250Y-56882856D02*
X123038059Y-56930475D01*
X123038059Y-56930475D02*
X123038059Y-57049523D01*
X123038059Y-57049523D02*
X123014250Y-57097142D01*
X123014250Y-57097142D02*
X122990440Y-57120951D01*
X122538059Y-56406666D02*
X122538059Y-56501904D01*
X122538059Y-56501904D02*
X122561869Y-56549523D01*
X122561869Y-56549523D02*
X122585678Y-56573333D01*
X122585678Y-56573333D02*
X122657107Y-56620952D01*
X122657107Y-56620952D02*
X122752345Y-56644761D01*
X122752345Y-56644761D02*
X122942821Y-56644761D01*
X122942821Y-56644761D02*
X122990440Y-56620952D01*
X122990440Y-56620952D02*
X123014250Y-56597142D01*
X123014250Y-56597142D02*
X123038059Y-56549523D01*
X123038059Y-56549523D02*
X123038059Y-56454285D01*
X123038059Y-56454285D02*
X123014250Y-56406666D01*
X123014250Y-56406666D02*
X122990440Y-56382857D01*
X122990440Y-56382857D02*
X122942821Y-56359047D01*
X122942821Y-56359047D02*
X122823773Y-56359047D01*
X122823773Y-56359047D02*
X122776154Y-56382857D01*
X122776154Y-56382857D02*
X122752345Y-56406666D01*
X122752345Y-56406666D02*
X122728535Y-56454285D01*
X122728535Y-56454285D02*
X122728535Y-56549523D01*
X122728535Y-56549523D02*
X122752345Y-56597142D01*
X122752345Y-56597142D02*
X122776154Y-56620952D01*
X122776154Y-56620952D02*
X122823773Y-56644761D01*
X54763333Y-68338059D02*
X54763333Y-68695202D01*
X54763333Y-68695202D02*
X54739524Y-68766630D01*
X54739524Y-68766630D02*
X54691905Y-68814250D01*
X54691905Y-68814250D02*
X54620476Y-68838059D01*
X54620476Y-68838059D02*
X54572857Y-68838059D01*
X54953809Y-68338059D02*
X55263333Y-68338059D01*
X55263333Y-68338059D02*
X55096666Y-68528535D01*
X55096666Y-68528535D02*
X55168095Y-68528535D01*
X55168095Y-68528535D02*
X55215714Y-68552345D01*
X55215714Y-68552345D02*
X55239523Y-68576154D01*
X55239523Y-68576154D02*
X55263333Y-68623773D01*
X55263333Y-68623773D02*
X55263333Y-68742821D01*
X55263333Y-68742821D02*
X55239523Y-68790440D01*
X55239523Y-68790440D02*
X55215714Y-68814250D01*
X55215714Y-68814250D02*
X55168095Y-68838059D01*
X55168095Y-68838059D02*
X55025238Y-68838059D01*
X55025238Y-68838059D02*
X54977619Y-68814250D01*
X54977619Y-68814250D02*
X54953809Y-68790440D01*
X88101104Y-68020226D02*
X88101104Y-67520226D01*
X88101104Y-67520226D02*
X88291580Y-67520226D01*
X88291580Y-67520226D02*
X88339199Y-67544036D01*
X88339199Y-67544036D02*
X88363009Y-67567845D01*
X88363009Y-67567845D02*
X88386818Y-67615464D01*
X88386818Y-67615464D02*
X88386818Y-67686893D01*
X88386818Y-67686893D02*
X88363009Y-67734512D01*
X88363009Y-67734512D02*
X88339199Y-67758321D01*
X88339199Y-67758321D02*
X88291580Y-67782131D01*
X88291580Y-67782131D02*
X88101104Y-67782131D01*
X88577295Y-67996417D02*
X88648723Y-68020226D01*
X88648723Y-68020226D02*
X88767771Y-68020226D01*
X88767771Y-68020226D02*
X88815390Y-67996417D01*
X88815390Y-67996417D02*
X88839199Y-67972607D01*
X88839199Y-67972607D02*
X88863009Y-67924988D01*
X88863009Y-67924988D02*
X88863009Y-67877369D01*
X88863009Y-67877369D02*
X88839199Y-67829750D01*
X88839199Y-67829750D02*
X88815390Y-67805940D01*
X88815390Y-67805940D02*
X88767771Y-67782131D01*
X88767771Y-67782131D02*
X88672533Y-67758321D01*
X88672533Y-67758321D02*
X88624914Y-67734512D01*
X88624914Y-67734512D02*
X88601104Y-67710702D01*
X88601104Y-67710702D02*
X88577295Y-67663083D01*
X88577295Y-67663083D02*
X88577295Y-67615464D01*
X88577295Y-67615464D02*
X88601104Y-67567845D01*
X88601104Y-67567845D02*
X88624914Y-67544036D01*
X88624914Y-67544036D02*
X88672533Y-67520226D01*
X88672533Y-67520226D02*
X88791580Y-67520226D01*
X88791580Y-67520226D02*
X88863009Y-67544036D01*
X89339199Y-68020226D02*
X89053485Y-68020226D01*
X89196342Y-68020226D02*
X89196342Y-67520226D01*
X89196342Y-67520226D02*
X89148723Y-67591655D01*
X89148723Y-67591655D02*
X89101104Y-67639274D01*
X89101104Y-67639274D02*
X89053485Y-67663083D01*
X126040440Y-57311428D02*
X126064250Y-57335237D01*
X126064250Y-57335237D02*
X126088059Y-57406666D01*
X126088059Y-57406666D02*
X126088059Y-57454285D01*
X126088059Y-57454285D02*
X126064250Y-57525713D01*
X126064250Y-57525713D02*
X126016630Y-57573332D01*
X126016630Y-57573332D02*
X125969011Y-57597142D01*
X125969011Y-57597142D02*
X125873773Y-57620951D01*
X125873773Y-57620951D02*
X125802345Y-57620951D01*
X125802345Y-57620951D02*
X125707107Y-57597142D01*
X125707107Y-57597142D02*
X125659488Y-57573332D01*
X125659488Y-57573332D02*
X125611869Y-57525713D01*
X125611869Y-57525713D02*
X125588059Y-57454285D01*
X125588059Y-57454285D02*
X125588059Y-57406666D01*
X125588059Y-57406666D02*
X125611869Y-57335237D01*
X125611869Y-57335237D02*
X125635678Y-57311428D01*
X125588059Y-57144761D02*
X125588059Y-56811428D01*
X125588059Y-56811428D02*
X126088059Y-57025713D01*
X125588059Y-56668571D02*
X125588059Y-56359047D01*
X125588059Y-56359047D02*
X125778535Y-56525714D01*
X125778535Y-56525714D02*
X125778535Y-56454285D01*
X125778535Y-56454285D02*
X125802345Y-56406666D01*
X125802345Y-56406666D02*
X125826154Y-56382857D01*
X125826154Y-56382857D02*
X125873773Y-56359047D01*
X125873773Y-56359047D02*
X125992821Y-56359047D01*
X125992821Y-56359047D02*
X126040440Y-56382857D01*
X126040440Y-56382857D02*
X126064250Y-56406666D01*
X126064250Y-56406666D02*
X126088059Y-56454285D01*
X126088059Y-56454285D02*
X126088059Y-56597142D01*
X126088059Y-56597142D02*
X126064250Y-56644761D01*
X126064250Y-56644761D02*
X126040440Y-56668571D01*
X107058059Y-87242380D02*
X106558059Y-87242380D01*
X107058059Y-87004285D02*
X106558059Y-87004285D01*
X106558059Y-87004285D02*
X107058059Y-86718571D01*
X107058059Y-86718571D02*
X106558059Y-86718571D01*
X107058059Y-86480475D02*
X106558059Y-86480475D01*
X106558059Y-86480475D02*
X106915202Y-86313808D01*
X106915202Y-86313808D02*
X106558059Y-86147142D01*
X106558059Y-86147142D02*
X107058059Y-86147142D01*
X107058059Y-85909046D02*
X106558059Y-85909046D01*
X106558059Y-85909046D02*
X106558059Y-85718570D01*
X106558059Y-85718570D02*
X106581869Y-85670951D01*
X106581869Y-85670951D02*
X106605678Y-85647141D01*
X106605678Y-85647141D02*
X106653297Y-85623332D01*
X106653297Y-85623332D02*
X106724726Y-85623332D01*
X106724726Y-85623332D02*
X106772345Y-85647141D01*
X106772345Y-85647141D02*
X106796154Y-85670951D01*
X106796154Y-85670951D02*
X106819964Y-85718570D01*
X106819964Y-85718570D02*
X106819964Y-85909046D01*
X107105678Y-85528094D02*
X107105678Y-85147141D01*
X106724726Y-84813808D02*
X107058059Y-84813808D01*
X106534250Y-84932856D02*
X106891392Y-85051903D01*
X106891392Y-85051903D02*
X106891392Y-84742380D01*
X106724726Y-84337618D02*
X107058059Y-84337618D01*
X106534250Y-84456666D02*
X106891392Y-84575713D01*
X106891392Y-84575713D02*
X106891392Y-84266190D01*
X107058059Y-83813809D02*
X107058059Y-84099523D01*
X107058059Y-83956666D02*
X106558059Y-83956666D01*
X106558059Y-83956666D02*
X106629488Y-84004285D01*
X106629488Y-84004285D02*
X106677107Y-84051904D01*
X106677107Y-84051904D02*
X106700916Y-84099523D01*
X88882857Y-89398059D02*
X88882857Y-88898059D01*
X88882857Y-88898059D02*
X89001905Y-88898059D01*
X89001905Y-88898059D02*
X89073333Y-88921869D01*
X89073333Y-88921869D02*
X89120952Y-88969488D01*
X89120952Y-88969488D02*
X89144762Y-89017107D01*
X89144762Y-89017107D02*
X89168571Y-89112345D01*
X89168571Y-89112345D02*
X89168571Y-89183773D01*
X89168571Y-89183773D02*
X89144762Y-89279011D01*
X89144762Y-89279011D02*
X89120952Y-89326630D01*
X89120952Y-89326630D02*
X89073333Y-89374250D01*
X89073333Y-89374250D02*
X89001905Y-89398059D01*
X89001905Y-89398059D02*
X88882857Y-89398059D01*
X89335238Y-88898059D02*
X89644762Y-88898059D01*
X89644762Y-88898059D02*
X89478095Y-89088535D01*
X89478095Y-89088535D02*
X89549524Y-89088535D01*
X89549524Y-89088535D02*
X89597143Y-89112345D01*
X89597143Y-89112345D02*
X89620952Y-89136154D01*
X89620952Y-89136154D02*
X89644762Y-89183773D01*
X89644762Y-89183773D02*
X89644762Y-89302821D01*
X89644762Y-89302821D02*
X89620952Y-89350440D01*
X89620952Y-89350440D02*
X89597143Y-89374250D01*
X89597143Y-89374250D02*
X89549524Y-89398059D01*
X89549524Y-89398059D02*
X89406667Y-89398059D01*
X89406667Y-89398059D02*
X89359048Y-89374250D01*
X89359048Y-89374250D02*
X89335238Y-89350440D01*
X89835238Y-88945678D02*
X89859047Y-88921869D01*
X89859047Y-88921869D02*
X89906666Y-88898059D01*
X89906666Y-88898059D02*
X90025714Y-88898059D01*
X90025714Y-88898059D02*
X90073333Y-88921869D01*
X90073333Y-88921869D02*
X90097142Y-88945678D01*
X90097142Y-88945678D02*
X90120952Y-88993297D01*
X90120952Y-88993297D02*
X90120952Y-89040916D01*
X90120952Y-89040916D02*
X90097142Y-89112345D01*
X90097142Y-89112345D02*
X89811428Y-89398059D01*
X89811428Y-89398059D02*
X90120952Y-89398059D01*
X69776666Y-52478059D02*
X69610000Y-52239964D01*
X69490952Y-52478059D02*
X69490952Y-51978059D01*
X69490952Y-51978059D02*
X69681428Y-51978059D01*
X69681428Y-51978059D02*
X69729047Y-52001869D01*
X69729047Y-52001869D02*
X69752857Y-52025678D01*
X69752857Y-52025678D02*
X69776666Y-52073297D01*
X69776666Y-52073297D02*
X69776666Y-52144726D01*
X69776666Y-52144726D02*
X69752857Y-52192345D01*
X69752857Y-52192345D02*
X69729047Y-52216154D01*
X69729047Y-52216154D02*
X69681428Y-52239964D01*
X69681428Y-52239964D02*
X69490952Y-52239964D01*
X70252857Y-52478059D02*
X69967143Y-52478059D01*
X70110000Y-52478059D02*
X70110000Y-51978059D01*
X70110000Y-51978059D02*
X70062381Y-52049488D01*
X70062381Y-52049488D02*
X70014762Y-52097107D01*
X70014762Y-52097107D02*
X69967143Y-52120916D01*
X124520440Y-57311428D02*
X124544250Y-57335237D01*
X124544250Y-57335237D02*
X124568059Y-57406666D01*
X124568059Y-57406666D02*
X124568059Y-57454285D01*
X124568059Y-57454285D02*
X124544250Y-57525713D01*
X124544250Y-57525713D02*
X124496630Y-57573332D01*
X124496630Y-57573332D02*
X124449011Y-57597142D01*
X124449011Y-57597142D02*
X124353773Y-57620951D01*
X124353773Y-57620951D02*
X124282345Y-57620951D01*
X124282345Y-57620951D02*
X124187107Y-57597142D01*
X124187107Y-57597142D02*
X124139488Y-57573332D01*
X124139488Y-57573332D02*
X124091869Y-57525713D01*
X124091869Y-57525713D02*
X124068059Y-57454285D01*
X124068059Y-57454285D02*
X124068059Y-57406666D01*
X124068059Y-57406666D02*
X124091869Y-57335237D01*
X124091869Y-57335237D02*
X124115678Y-57311428D01*
X124068059Y-57144761D02*
X124068059Y-56811428D01*
X124068059Y-56811428D02*
X124568059Y-57025713D01*
X124568059Y-56359047D02*
X124568059Y-56644761D01*
X124568059Y-56501904D02*
X124068059Y-56501904D01*
X124068059Y-56501904D02*
X124139488Y-56549523D01*
X124139488Y-56549523D02*
X124187107Y-56597142D01*
X124187107Y-56597142D02*
X124210916Y-56644761D01*
X54898571Y-104688059D02*
X54731905Y-104449964D01*
X54612857Y-104688059D02*
X54612857Y-104188059D01*
X54612857Y-104188059D02*
X54803333Y-104188059D01*
X54803333Y-104188059D02*
X54850952Y-104211869D01*
X54850952Y-104211869D02*
X54874762Y-104235678D01*
X54874762Y-104235678D02*
X54898571Y-104283297D01*
X54898571Y-104283297D02*
X54898571Y-104354726D01*
X54898571Y-104354726D02*
X54874762Y-104402345D01*
X54874762Y-104402345D02*
X54850952Y-104426154D01*
X54850952Y-104426154D02*
X54803333Y-104449964D01*
X54803333Y-104449964D02*
X54612857Y-104449964D01*
X55065238Y-104188059D02*
X55374762Y-104188059D01*
X55374762Y-104188059D02*
X55208095Y-104378535D01*
X55208095Y-104378535D02*
X55279524Y-104378535D01*
X55279524Y-104378535D02*
X55327143Y-104402345D01*
X55327143Y-104402345D02*
X55350952Y-104426154D01*
X55350952Y-104426154D02*
X55374762Y-104473773D01*
X55374762Y-104473773D02*
X55374762Y-104592821D01*
X55374762Y-104592821D02*
X55350952Y-104640440D01*
X55350952Y-104640440D02*
X55327143Y-104664250D01*
X55327143Y-104664250D02*
X55279524Y-104688059D01*
X55279524Y-104688059D02*
X55136667Y-104688059D01*
X55136667Y-104688059D02*
X55089048Y-104664250D01*
X55089048Y-104664250D02*
X55065238Y-104640440D01*
X55660476Y-104402345D02*
X55612857Y-104378535D01*
X55612857Y-104378535D02*
X55589047Y-104354726D01*
X55589047Y-104354726D02*
X55565238Y-104307107D01*
X55565238Y-104307107D02*
X55565238Y-104283297D01*
X55565238Y-104283297D02*
X55589047Y-104235678D01*
X55589047Y-104235678D02*
X55612857Y-104211869D01*
X55612857Y-104211869D02*
X55660476Y-104188059D01*
X55660476Y-104188059D02*
X55755714Y-104188059D01*
X55755714Y-104188059D02*
X55803333Y-104211869D01*
X55803333Y-104211869D02*
X55827142Y-104235678D01*
X55827142Y-104235678D02*
X55850952Y-104283297D01*
X55850952Y-104283297D02*
X55850952Y-104307107D01*
X55850952Y-104307107D02*
X55827142Y-104354726D01*
X55827142Y-104354726D02*
X55803333Y-104378535D01*
X55803333Y-104378535D02*
X55755714Y-104402345D01*
X55755714Y-104402345D02*
X55660476Y-104402345D01*
X55660476Y-104402345D02*
X55612857Y-104426154D01*
X55612857Y-104426154D02*
X55589047Y-104449964D01*
X55589047Y-104449964D02*
X55565238Y-104497583D01*
X55565238Y-104497583D02*
X55565238Y-104592821D01*
X55565238Y-104592821D02*
X55589047Y-104640440D01*
X55589047Y-104640440D02*
X55612857Y-104664250D01*
X55612857Y-104664250D02*
X55660476Y-104688059D01*
X55660476Y-104688059D02*
X55755714Y-104688059D01*
X55755714Y-104688059D02*
X55803333Y-104664250D01*
X55803333Y-104664250D02*
X55827142Y-104640440D01*
X55827142Y-104640440D02*
X55850952Y-104592821D01*
X55850952Y-104592821D02*
X55850952Y-104497583D01*
X55850952Y-104497583D02*
X55827142Y-104449964D01*
X55827142Y-104449964D02*
X55803333Y-104426154D01*
X55803333Y-104426154D02*
X55755714Y-104402345D01*
X135948059Y-99548095D02*
X135948059Y-99452857D01*
X135948059Y-99452857D02*
X135971869Y-99405238D01*
X135971869Y-99405238D02*
X136019488Y-99357619D01*
X136019488Y-99357619D02*
X136114726Y-99333809D01*
X136114726Y-99333809D02*
X136281392Y-99333809D01*
X136281392Y-99333809D02*
X136376630Y-99357619D01*
X136376630Y-99357619D02*
X136424250Y-99405238D01*
X136424250Y-99405238D02*
X136448059Y-99452857D01*
X136448059Y-99452857D02*
X136448059Y-99548095D01*
X136448059Y-99548095D02*
X136424250Y-99595714D01*
X136424250Y-99595714D02*
X136376630Y-99643333D01*
X136376630Y-99643333D02*
X136281392Y-99667142D01*
X136281392Y-99667142D02*
X136114726Y-99667142D01*
X136114726Y-99667142D02*
X136019488Y-99643333D01*
X136019488Y-99643333D02*
X135971869Y-99595714D01*
X135971869Y-99595714D02*
X135948059Y-99548095D01*
X135948059Y-99119523D02*
X136352821Y-99119523D01*
X136352821Y-99119523D02*
X136400440Y-99095713D01*
X136400440Y-99095713D02*
X136424250Y-99071904D01*
X136424250Y-99071904D02*
X136448059Y-99024285D01*
X136448059Y-99024285D02*
X136448059Y-98929047D01*
X136448059Y-98929047D02*
X136424250Y-98881428D01*
X136424250Y-98881428D02*
X136400440Y-98857618D01*
X136400440Y-98857618D02*
X136352821Y-98833809D01*
X136352821Y-98833809D02*
X135948059Y-98833809D01*
X135948059Y-98667141D02*
X135948059Y-98381427D01*
X136448059Y-98524284D02*
X135948059Y-98524284D01*
X135948059Y-98262380D02*
X135948059Y-97952856D01*
X135948059Y-97952856D02*
X136138535Y-98119523D01*
X136138535Y-98119523D02*
X136138535Y-98048094D01*
X136138535Y-98048094D02*
X136162345Y-98000475D01*
X136162345Y-98000475D02*
X136186154Y-97976666D01*
X136186154Y-97976666D02*
X136233773Y-97952856D01*
X136233773Y-97952856D02*
X136352821Y-97952856D01*
X136352821Y-97952856D02*
X136400440Y-97976666D01*
X136400440Y-97976666D02*
X136424250Y-98000475D01*
X136424250Y-98000475D02*
X136448059Y-98048094D01*
X136448059Y-98048094D02*
X136448059Y-98190951D01*
X136448059Y-98190951D02*
X136424250Y-98238570D01*
X136424250Y-98238570D02*
X136400440Y-98262380D01*
X137438059Y-56870952D02*
X137199964Y-57037618D01*
X137438059Y-57156666D02*
X136938059Y-57156666D01*
X136938059Y-57156666D02*
X136938059Y-56966190D01*
X136938059Y-56966190D02*
X136961869Y-56918571D01*
X136961869Y-56918571D02*
X136985678Y-56894761D01*
X136985678Y-56894761D02*
X137033297Y-56870952D01*
X137033297Y-56870952D02*
X137104726Y-56870952D01*
X137104726Y-56870952D02*
X137152345Y-56894761D01*
X137152345Y-56894761D02*
X137176154Y-56918571D01*
X137176154Y-56918571D02*
X137199964Y-56966190D01*
X137199964Y-56966190D02*
X137199964Y-57156666D01*
X136938059Y-56418571D02*
X136938059Y-56656666D01*
X136938059Y-56656666D02*
X137176154Y-56680475D01*
X137176154Y-56680475D02*
X137152345Y-56656666D01*
X137152345Y-56656666D02*
X137128535Y-56609047D01*
X137128535Y-56609047D02*
X137128535Y-56489999D01*
X137128535Y-56489999D02*
X137152345Y-56442380D01*
X137152345Y-56442380D02*
X137176154Y-56418571D01*
X137176154Y-56418571D02*
X137223773Y-56394761D01*
X137223773Y-56394761D02*
X137342821Y-56394761D01*
X137342821Y-56394761D02*
X137390440Y-56418571D01*
X137390440Y-56418571D02*
X137414250Y-56442380D01*
X137414250Y-56442380D02*
X137438059Y-56489999D01*
X137438059Y-56489999D02*
X137438059Y-56609047D01*
X137438059Y-56609047D02*
X137414250Y-56656666D01*
X137414250Y-56656666D02*
X137390440Y-56680475D01*
X136938059Y-56228095D02*
X136938059Y-55918571D01*
X136938059Y-55918571D02*
X137128535Y-56085238D01*
X137128535Y-56085238D02*
X137128535Y-56013809D01*
X137128535Y-56013809D02*
X137152345Y-55966190D01*
X137152345Y-55966190D02*
X137176154Y-55942381D01*
X137176154Y-55942381D02*
X137223773Y-55918571D01*
X137223773Y-55918571D02*
X137342821Y-55918571D01*
X137342821Y-55918571D02*
X137390440Y-55942381D01*
X137390440Y-55942381D02*
X137414250Y-55966190D01*
X137414250Y-55966190D02*
X137438059Y-56013809D01*
X137438059Y-56013809D02*
X137438059Y-56156666D01*
X137438059Y-56156666D02*
X137414250Y-56204285D01*
X137414250Y-56204285D02*
X137390440Y-56228095D01*
X82758571Y-74120440D02*
X82734762Y-74144250D01*
X82734762Y-74144250D02*
X82663333Y-74168059D01*
X82663333Y-74168059D02*
X82615714Y-74168059D01*
X82615714Y-74168059D02*
X82544286Y-74144250D01*
X82544286Y-74144250D02*
X82496667Y-74096630D01*
X82496667Y-74096630D02*
X82472857Y-74049011D01*
X82472857Y-74049011D02*
X82449048Y-73953773D01*
X82449048Y-73953773D02*
X82449048Y-73882345D01*
X82449048Y-73882345D02*
X82472857Y-73787107D01*
X82472857Y-73787107D02*
X82496667Y-73739488D01*
X82496667Y-73739488D02*
X82544286Y-73691869D01*
X82544286Y-73691869D02*
X82615714Y-73668059D01*
X82615714Y-73668059D02*
X82663333Y-73668059D01*
X82663333Y-73668059D02*
X82734762Y-73691869D01*
X82734762Y-73691869D02*
X82758571Y-73715678D01*
X83210952Y-73668059D02*
X82972857Y-73668059D01*
X82972857Y-73668059D02*
X82949048Y-73906154D01*
X82949048Y-73906154D02*
X82972857Y-73882345D01*
X82972857Y-73882345D02*
X83020476Y-73858535D01*
X83020476Y-73858535D02*
X83139524Y-73858535D01*
X83139524Y-73858535D02*
X83187143Y-73882345D01*
X83187143Y-73882345D02*
X83210952Y-73906154D01*
X83210952Y-73906154D02*
X83234762Y-73953773D01*
X83234762Y-73953773D02*
X83234762Y-74072821D01*
X83234762Y-74072821D02*
X83210952Y-74120440D01*
X83210952Y-74120440D02*
X83187143Y-74144250D01*
X83187143Y-74144250D02*
X83139524Y-74168059D01*
X83139524Y-74168059D02*
X83020476Y-74168059D01*
X83020476Y-74168059D02*
X82972857Y-74144250D01*
X82972857Y-74144250D02*
X82949048Y-74120440D01*
X83401428Y-73668059D02*
X83734761Y-73668059D01*
X83734761Y-73668059D02*
X83520476Y-74168059D01*
X57505790Y-95846666D02*
X57862933Y-95846666D01*
X57862933Y-95846666D02*
X57934361Y-95870475D01*
X57934361Y-95870475D02*
X57981981Y-95918094D01*
X57981981Y-95918094D02*
X58005790Y-95989523D01*
X58005790Y-95989523D02*
X58005790Y-96037142D01*
X58005790Y-95346666D02*
X58005790Y-95632380D01*
X58005790Y-95489523D02*
X57505790Y-95489523D01*
X57505790Y-95489523D02*
X57577219Y-95537142D01*
X57577219Y-95537142D02*
X57624838Y-95584761D01*
X57624838Y-95584761D02*
X57648647Y-95632380D01*
X123819047Y-64028059D02*
X123819047Y-64432821D01*
X123819047Y-64432821D02*
X123842857Y-64480440D01*
X123842857Y-64480440D02*
X123866666Y-64504250D01*
X123866666Y-64504250D02*
X123914285Y-64528059D01*
X123914285Y-64528059D02*
X124009523Y-64528059D01*
X124009523Y-64528059D02*
X124057142Y-64504250D01*
X124057142Y-64504250D02*
X124080952Y-64480440D01*
X124080952Y-64480440D02*
X124104761Y-64432821D01*
X124104761Y-64432821D02*
X124104761Y-64028059D01*
X124295238Y-64028059D02*
X124604762Y-64028059D01*
X124604762Y-64028059D02*
X124438095Y-64218535D01*
X124438095Y-64218535D02*
X124509524Y-64218535D01*
X124509524Y-64218535D02*
X124557143Y-64242345D01*
X124557143Y-64242345D02*
X124580952Y-64266154D01*
X124580952Y-64266154D02*
X124604762Y-64313773D01*
X124604762Y-64313773D02*
X124604762Y-64432821D01*
X124604762Y-64432821D02*
X124580952Y-64480440D01*
X124580952Y-64480440D02*
X124557143Y-64504250D01*
X124557143Y-64504250D02*
X124509524Y-64528059D01*
X124509524Y-64528059D02*
X124366667Y-64528059D01*
X124366667Y-64528059D02*
X124319048Y-64504250D01*
X124319048Y-64504250D02*
X124295238Y-64480440D01*
X116635165Y-68095083D02*
X117016118Y-68095083D01*
X116635165Y-75545083D02*
X117016118Y-75545083D01*
X116685165Y-71820083D02*
X117066118Y-71820083D01*
X116875641Y-72010559D02*
X116875641Y-71629607D01*
X106078059Y-57251428D02*
X105839964Y-57418094D01*
X106078059Y-57537142D02*
X105578059Y-57537142D01*
X105578059Y-57537142D02*
X105578059Y-57346666D01*
X105578059Y-57346666D02*
X105601869Y-57299047D01*
X105601869Y-57299047D02*
X105625678Y-57275237D01*
X105625678Y-57275237D02*
X105673297Y-57251428D01*
X105673297Y-57251428D02*
X105744726Y-57251428D01*
X105744726Y-57251428D02*
X105792345Y-57275237D01*
X105792345Y-57275237D02*
X105816154Y-57299047D01*
X105816154Y-57299047D02*
X105839964Y-57346666D01*
X105839964Y-57346666D02*
X105839964Y-57537142D01*
X105578059Y-56822856D02*
X105578059Y-56918094D01*
X105578059Y-56918094D02*
X105601869Y-56965713D01*
X105601869Y-56965713D02*
X105625678Y-56989523D01*
X105625678Y-56989523D02*
X105697107Y-57037142D01*
X105697107Y-57037142D02*
X105792345Y-57060951D01*
X105792345Y-57060951D02*
X105982821Y-57060951D01*
X105982821Y-57060951D02*
X106030440Y-57037142D01*
X106030440Y-57037142D02*
X106054250Y-57013332D01*
X106054250Y-57013332D02*
X106078059Y-56965713D01*
X106078059Y-56965713D02*
X106078059Y-56870475D01*
X106078059Y-56870475D02*
X106054250Y-56822856D01*
X106054250Y-56822856D02*
X106030440Y-56799047D01*
X106030440Y-56799047D02*
X105982821Y-56775237D01*
X105982821Y-56775237D02*
X105863773Y-56775237D01*
X105863773Y-56775237D02*
X105816154Y-56799047D01*
X105816154Y-56799047D02*
X105792345Y-56822856D01*
X105792345Y-56822856D02*
X105768535Y-56870475D01*
X105768535Y-56870475D02*
X105768535Y-56965713D01*
X105768535Y-56965713D02*
X105792345Y-57013332D01*
X105792345Y-57013332D02*
X105816154Y-57037142D01*
X105816154Y-57037142D02*
X105863773Y-57060951D01*
X105578059Y-56465714D02*
X105578059Y-56418095D01*
X105578059Y-56418095D02*
X105601869Y-56370476D01*
X105601869Y-56370476D02*
X105625678Y-56346666D01*
X105625678Y-56346666D02*
X105673297Y-56322857D01*
X105673297Y-56322857D02*
X105768535Y-56299047D01*
X105768535Y-56299047D02*
X105887583Y-56299047D01*
X105887583Y-56299047D02*
X105982821Y-56322857D01*
X105982821Y-56322857D02*
X106030440Y-56346666D01*
X106030440Y-56346666D02*
X106054250Y-56370476D01*
X106054250Y-56370476D02*
X106078059Y-56418095D01*
X106078059Y-56418095D02*
X106078059Y-56465714D01*
X106078059Y-56465714D02*
X106054250Y-56513333D01*
X106054250Y-56513333D02*
X106030440Y-56537142D01*
X106030440Y-56537142D02*
X105982821Y-56560952D01*
X105982821Y-56560952D02*
X105887583Y-56584761D01*
X105887583Y-56584761D02*
X105768535Y-56584761D01*
X105768535Y-56584761D02*
X105673297Y-56560952D01*
X105673297Y-56560952D02*
X105625678Y-56537142D01*
X105625678Y-56537142D02*
X105601869Y-56513333D01*
X105601869Y-56513333D02*
X105578059Y-56465714D01*
X92328571Y-58705440D02*
X92304762Y-58729250D01*
X92304762Y-58729250D02*
X92233333Y-58753059D01*
X92233333Y-58753059D02*
X92185714Y-58753059D01*
X92185714Y-58753059D02*
X92114286Y-58729250D01*
X92114286Y-58729250D02*
X92066667Y-58681630D01*
X92066667Y-58681630D02*
X92042857Y-58634011D01*
X92042857Y-58634011D02*
X92019048Y-58538773D01*
X92019048Y-58538773D02*
X92019048Y-58467345D01*
X92019048Y-58467345D02*
X92042857Y-58372107D01*
X92042857Y-58372107D02*
X92066667Y-58324488D01*
X92066667Y-58324488D02*
X92114286Y-58276869D01*
X92114286Y-58276869D02*
X92185714Y-58253059D01*
X92185714Y-58253059D02*
X92233333Y-58253059D01*
X92233333Y-58253059D02*
X92304762Y-58276869D01*
X92304762Y-58276869D02*
X92328571Y-58300678D01*
X92614286Y-58467345D02*
X92566667Y-58443535D01*
X92566667Y-58443535D02*
X92542857Y-58419726D01*
X92542857Y-58419726D02*
X92519048Y-58372107D01*
X92519048Y-58372107D02*
X92519048Y-58348297D01*
X92519048Y-58348297D02*
X92542857Y-58300678D01*
X92542857Y-58300678D02*
X92566667Y-58276869D01*
X92566667Y-58276869D02*
X92614286Y-58253059D01*
X92614286Y-58253059D02*
X92709524Y-58253059D01*
X92709524Y-58253059D02*
X92757143Y-58276869D01*
X92757143Y-58276869D02*
X92780952Y-58300678D01*
X92780952Y-58300678D02*
X92804762Y-58348297D01*
X92804762Y-58348297D02*
X92804762Y-58372107D01*
X92804762Y-58372107D02*
X92780952Y-58419726D01*
X92780952Y-58419726D02*
X92757143Y-58443535D01*
X92757143Y-58443535D02*
X92709524Y-58467345D01*
X92709524Y-58467345D02*
X92614286Y-58467345D01*
X92614286Y-58467345D02*
X92566667Y-58491154D01*
X92566667Y-58491154D02*
X92542857Y-58514964D01*
X92542857Y-58514964D02*
X92519048Y-58562583D01*
X92519048Y-58562583D02*
X92519048Y-58657821D01*
X92519048Y-58657821D02*
X92542857Y-58705440D01*
X92542857Y-58705440D02*
X92566667Y-58729250D01*
X92566667Y-58729250D02*
X92614286Y-58753059D01*
X92614286Y-58753059D02*
X92709524Y-58753059D01*
X92709524Y-58753059D02*
X92757143Y-58729250D01*
X92757143Y-58729250D02*
X92780952Y-58705440D01*
X92780952Y-58705440D02*
X92804762Y-58657821D01*
X92804762Y-58657821D02*
X92804762Y-58562583D01*
X92804762Y-58562583D02*
X92780952Y-58514964D01*
X92780952Y-58514964D02*
X92757143Y-58491154D01*
X92757143Y-58491154D02*
X92709524Y-58467345D01*
X93114285Y-58253059D02*
X93161904Y-58253059D01*
X93161904Y-58253059D02*
X93209523Y-58276869D01*
X93209523Y-58276869D02*
X93233333Y-58300678D01*
X93233333Y-58300678D02*
X93257142Y-58348297D01*
X93257142Y-58348297D02*
X93280952Y-58443535D01*
X93280952Y-58443535D02*
X93280952Y-58562583D01*
X93280952Y-58562583D02*
X93257142Y-58657821D01*
X93257142Y-58657821D02*
X93233333Y-58705440D01*
X93233333Y-58705440D02*
X93209523Y-58729250D01*
X93209523Y-58729250D02*
X93161904Y-58753059D01*
X93161904Y-58753059D02*
X93114285Y-58753059D01*
X93114285Y-58753059D02*
X93066666Y-58729250D01*
X93066666Y-58729250D02*
X93042857Y-58705440D01*
X93042857Y-58705440D02*
X93019047Y-58657821D01*
X93019047Y-58657821D02*
X92995238Y-58562583D01*
X92995238Y-58562583D02*
X92995238Y-58443535D01*
X92995238Y-58443535D02*
X93019047Y-58348297D01*
X93019047Y-58348297D02*
X93042857Y-58300678D01*
X93042857Y-58300678D02*
X93066666Y-58276869D01*
X93066666Y-58276869D02*
X93114285Y-58253059D01*
X121439047Y-99518059D02*
X121439047Y-99922821D01*
X121439047Y-99922821D02*
X121462857Y-99970440D01*
X121462857Y-99970440D02*
X121486666Y-99994250D01*
X121486666Y-99994250D02*
X121534285Y-100018059D01*
X121534285Y-100018059D02*
X121629523Y-100018059D01*
X121629523Y-100018059D02*
X121677142Y-99994250D01*
X121677142Y-99994250D02*
X121700952Y-99970440D01*
X121700952Y-99970440D02*
X121724761Y-99922821D01*
X121724761Y-99922821D02*
X121724761Y-99518059D01*
X122200952Y-99518059D02*
X121962857Y-99518059D01*
X121962857Y-99518059D02*
X121939048Y-99756154D01*
X121939048Y-99756154D02*
X121962857Y-99732345D01*
X121962857Y-99732345D02*
X122010476Y-99708535D01*
X122010476Y-99708535D02*
X122129524Y-99708535D01*
X122129524Y-99708535D02*
X122177143Y-99732345D01*
X122177143Y-99732345D02*
X122200952Y-99756154D01*
X122200952Y-99756154D02*
X122224762Y-99803773D01*
X122224762Y-99803773D02*
X122224762Y-99922821D01*
X122224762Y-99922821D02*
X122200952Y-99970440D01*
X122200952Y-99970440D02*
X122177143Y-99994250D01*
X122177143Y-99994250D02*
X122129524Y-100018059D01*
X122129524Y-100018059D02*
X122010476Y-100018059D01*
X122010476Y-100018059D02*
X121962857Y-99994250D01*
X121962857Y-99994250D02*
X121939048Y-99970440D01*
X115910165Y-96220083D02*
X116291118Y-96220083D01*
X115910165Y-103670083D02*
X116291118Y-103670083D01*
X115960165Y-99945083D02*
X116341118Y-99945083D01*
X116150641Y-100135559D02*
X116150641Y-99754607D01*
X54023333Y-59898059D02*
X54023333Y-60255202D01*
X54023333Y-60255202D02*
X53999524Y-60326630D01*
X53999524Y-60326630D02*
X53951905Y-60374250D01*
X53951905Y-60374250D02*
X53880476Y-60398059D01*
X53880476Y-60398059D02*
X53832857Y-60398059D01*
X54237619Y-59945678D02*
X54261428Y-59921869D01*
X54261428Y-59921869D02*
X54309047Y-59898059D01*
X54309047Y-59898059D02*
X54428095Y-59898059D01*
X54428095Y-59898059D02*
X54475714Y-59921869D01*
X54475714Y-59921869D02*
X54499523Y-59945678D01*
X54499523Y-59945678D02*
X54523333Y-59993297D01*
X54523333Y-59993297D02*
X54523333Y-60040916D01*
X54523333Y-60040916D02*
X54499523Y-60112345D01*
X54499523Y-60112345D02*
X54213809Y-60398059D01*
X54213809Y-60398059D02*
X54523333Y-60398059D01*
X106295238Y-65296154D02*
X106366666Y-65319964D01*
X106366666Y-65319964D02*
X106390476Y-65343773D01*
X106390476Y-65343773D02*
X106414285Y-65391392D01*
X106414285Y-65391392D02*
X106414285Y-65462821D01*
X106414285Y-65462821D02*
X106390476Y-65510440D01*
X106390476Y-65510440D02*
X106366666Y-65534250D01*
X106366666Y-65534250D02*
X106319047Y-65558059D01*
X106319047Y-65558059D02*
X106128571Y-65558059D01*
X106128571Y-65558059D02*
X106128571Y-65058059D01*
X106128571Y-65058059D02*
X106295238Y-65058059D01*
X106295238Y-65058059D02*
X106342857Y-65081869D01*
X106342857Y-65081869D02*
X106366666Y-65105678D01*
X106366666Y-65105678D02*
X106390476Y-65153297D01*
X106390476Y-65153297D02*
X106390476Y-65200916D01*
X106390476Y-65200916D02*
X106366666Y-65248535D01*
X106366666Y-65248535D02*
X106342857Y-65272345D01*
X106342857Y-65272345D02*
X106295238Y-65296154D01*
X106295238Y-65296154D02*
X106128571Y-65296154D01*
X106866666Y-65558059D02*
X106628571Y-65558059D01*
X106628571Y-65558059D02*
X106628571Y-65058059D01*
X106985714Y-65058059D02*
X107295238Y-65058059D01*
X107295238Y-65058059D02*
X107128571Y-65248535D01*
X107128571Y-65248535D02*
X107200000Y-65248535D01*
X107200000Y-65248535D02*
X107247619Y-65272345D01*
X107247619Y-65272345D02*
X107271428Y-65296154D01*
X107271428Y-65296154D02*
X107295238Y-65343773D01*
X107295238Y-65343773D02*
X107295238Y-65462821D01*
X107295238Y-65462821D02*
X107271428Y-65510440D01*
X107271428Y-65510440D02*
X107247619Y-65534250D01*
X107247619Y-65534250D02*
X107200000Y-65558059D01*
X107200000Y-65558059D02*
X107057143Y-65558059D01*
X107057143Y-65558059D02*
X107009524Y-65534250D01*
X107009524Y-65534250D02*
X106985714Y-65510440D01*
X129645238Y-63026154D02*
X129716666Y-63049964D01*
X129716666Y-63049964D02*
X129740476Y-63073773D01*
X129740476Y-63073773D02*
X129764285Y-63121392D01*
X129764285Y-63121392D02*
X129764285Y-63192821D01*
X129764285Y-63192821D02*
X129740476Y-63240440D01*
X129740476Y-63240440D02*
X129716666Y-63264250D01*
X129716666Y-63264250D02*
X129669047Y-63288059D01*
X129669047Y-63288059D02*
X129478571Y-63288059D01*
X129478571Y-63288059D02*
X129478571Y-62788059D01*
X129478571Y-62788059D02*
X129645238Y-62788059D01*
X129645238Y-62788059D02*
X129692857Y-62811869D01*
X129692857Y-62811869D02*
X129716666Y-62835678D01*
X129716666Y-62835678D02*
X129740476Y-62883297D01*
X129740476Y-62883297D02*
X129740476Y-62930916D01*
X129740476Y-62930916D02*
X129716666Y-62978535D01*
X129716666Y-62978535D02*
X129692857Y-63002345D01*
X129692857Y-63002345D02*
X129645238Y-63026154D01*
X129645238Y-63026154D02*
X129478571Y-63026154D01*
X130216666Y-63288059D02*
X129978571Y-63288059D01*
X129978571Y-63288059D02*
X129978571Y-62788059D01*
X130645238Y-63288059D02*
X130359524Y-63288059D01*
X130502381Y-63288059D02*
X130502381Y-62788059D01*
X130502381Y-62788059D02*
X130454762Y-62859488D01*
X130454762Y-62859488D02*
X130407143Y-62907107D01*
X130407143Y-62907107D02*
X130359524Y-62930916D01*
X138890440Y-56851428D02*
X138914250Y-56875237D01*
X138914250Y-56875237D02*
X138938059Y-56946666D01*
X138938059Y-56946666D02*
X138938059Y-56994285D01*
X138938059Y-56994285D02*
X138914250Y-57065713D01*
X138914250Y-57065713D02*
X138866630Y-57113332D01*
X138866630Y-57113332D02*
X138819011Y-57137142D01*
X138819011Y-57137142D02*
X138723773Y-57160951D01*
X138723773Y-57160951D02*
X138652345Y-57160951D01*
X138652345Y-57160951D02*
X138557107Y-57137142D01*
X138557107Y-57137142D02*
X138509488Y-57113332D01*
X138509488Y-57113332D02*
X138461869Y-57065713D01*
X138461869Y-57065713D02*
X138438059Y-56994285D01*
X138438059Y-56994285D02*
X138438059Y-56946666D01*
X138438059Y-56946666D02*
X138461869Y-56875237D01*
X138461869Y-56875237D02*
X138485678Y-56851428D01*
X138438059Y-56684761D02*
X138438059Y-56351428D01*
X138438059Y-56351428D02*
X138938059Y-56565713D01*
X138438059Y-56065714D02*
X138438059Y-56018095D01*
X138438059Y-56018095D02*
X138461869Y-55970476D01*
X138461869Y-55970476D02*
X138485678Y-55946666D01*
X138485678Y-55946666D02*
X138533297Y-55922857D01*
X138533297Y-55922857D02*
X138628535Y-55899047D01*
X138628535Y-55899047D02*
X138747583Y-55899047D01*
X138747583Y-55899047D02*
X138842821Y-55922857D01*
X138842821Y-55922857D02*
X138890440Y-55946666D01*
X138890440Y-55946666D02*
X138914250Y-55970476D01*
X138914250Y-55970476D02*
X138938059Y-56018095D01*
X138938059Y-56018095D02*
X138938059Y-56065714D01*
X138938059Y-56065714D02*
X138914250Y-56113333D01*
X138914250Y-56113333D02*
X138890440Y-56137142D01*
X138890440Y-56137142D02*
X138842821Y-56160952D01*
X138842821Y-56160952D02*
X138747583Y-56184761D01*
X138747583Y-56184761D02*
X138628535Y-56184761D01*
X138628535Y-56184761D02*
X138533297Y-56160952D01*
X138533297Y-56160952D02*
X138485678Y-56137142D01*
X138485678Y-56137142D02*
X138461869Y-56113333D01*
X138461869Y-56113333D02*
X138438059Y-56065714D01*
X69016154Y-79679761D02*
X69039964Y-79608333D01*
X69039964Y-79608333D02*
X69063773Y-79584523D01*
X69063773Y-79584523D02*
X69111392Y-79560714D01*
X69111392Y-79560714D02*
X69182821Y-79560714D01*
X69182821Y-79560714D02*
X69230440Y-79584523D01*
X69230440Y-79584523D02*
X69254250Y-79608333D01*
X69254250Y-79608333D02*
X69278059Y-79655952D01*
X69278059Y-79655952D02*
X69278059Y-79846428D01*
X69278059Y-79846428D02*
X68778059Y-79846428D01*
X68778059Y-79846428D02*
X68778059Y-79679761D01*
X68778059Y-79679761D02*
X68801869Y-79632142D01*
X68801869Y-79632142D02*
X68825678Y-79608333D01*
X68825678Y-79608333D02*
X68873297Y-79584523D01*
X68873297Y-79584523D02*
X68920916Y-79584523D01*
X68920916Y-79584523D02*
X68968535Y-79608333D01*
X68968535Y-79608333D02*
X68992345Y-79632142D01*
X68992345Y-79632142D02*
X69016154Y-79679761D01*
X69016154Y-79679761D02*
X69016154Y-79846428D01*
X68778059Y-79346428D02*
X69182821Y-79346428D01*
X69182821Y-79346428D02*
X69230440Y-79322618D01*
X69230440Y-79322618D02*
X69254250Y-79298809D01*
X69254250Y-79298809D02*
X69278059Y-79251190D01*
X69278059Y-79251190D02*
X69278059Y-79155952D01*
X69278059Y-79155952D02*
X69254250Y-79108333D01*
X69254250Y-79108333D02*
X69230440Y-79084523D01*
X69230440Y-79084523D02*
X69182821Y-79060714D01*
X69182821Y-79060714D02*
X68778059Y-79060714D01*
X68778059Y-78894046D02*
X68778059Y-78608332D01*
X69278059Y-78751189D02*
X68778059Y-78751189D01*
X68825678Y-78465475D02*
X68801869Y-78441666D01*
X68801869Y-78441666D02*
X68778059Y-78394047D01*
X68778059Y-78394047D02*
X68778059Y-78274999D01*
X68778059Y-78274999D02*
X68801869Y-78227380D01*
X68801869Y-78227380D02*
X68825678Y-78203571D01*
X68825678Y-78203571D02*
X68873297Y-78179761D01*
X68873297Y-78179761D02*
X68920916Y-78179761D01*
X68920916Y-78179761D02*
X68992345Y-78203571D01*
X68992345Y-78203571D02*
X69278059Y-78489285D01*
X69278059Y-78489285D02*
X69278059Y-78179761D01*
X121518059Y-57341428D02*
X121279964Y-57508094D01*
X121518059Y-57627142D02*
X121018059Y-57627142D01*
X121018059Y-57627142D02*
X121018059Y-57436666D01*
X121018059Y-57436666D02*
X121041869Y-57389047D01*
X121041869Y-57389047D02*
X121065678Y-57365237D01*
X121065678Y-57365237D02*
X121113297Y-57341428D01*
X121113297Y-57341428D02*
X121184726Y-57341428D01*
X121184726Y-57341428D02*
X121232345Y-57365237D01*
X121232345Y-57365237D02*
X121256154Y-57389047D01*
X121256154Y-57389047D02*
X121279964Y-57436666D01*
X121279964Y-57436666D02*
X121279964Y-57627142D01*
X121018059Y-56889047D02*
X121018059Y-57127142D01*
X121018059Y-57127142D02*
X121256154Y-57150951D01*
X121256154Y-57150951D02*
X121232345Y-57127142D01*
X121232345Y-57127142D02*
X121208535Y-57079523D01*
X121208535Y-57079523D02*
X121208535Y-56960475D01*
X121208535Y-56960475D02*
X121232345Y-56912856D01*
X121232345Y-56912856D02*
X121256154Y-56889047D01*
X121256154Y-56889047D02*
X121303773Y-56865237D01*
X121303773Y-56865237D02*
X121422821Y-56865237D01*
X121422821Y-56865237D02*
X121470440Y-56889047D01*
X121470440Y-56889047D02*
X121494250Y-56912856D01*
X121494250Y-56912856D02*
X121518059Y-56960475D01*
X121518059Y-56960475D02*
X121518059Y-57079523D01*
X121518059Y-57079523D02*
X121494250Y-57127142D01*
X121494250Y-57127142D02*
X121470440Y-57150951D01*
X121018059Y-56698571D02*
X121018059Y-56365238D01*
X121018059Y-56365238D02*
X121518059Y-56579523D01*
X104620440Y-57301428D02*
X104644250Y-57325237D01*
X104644250Y-57325237D02*
X104668059Y-57396666D01*
X104668059Y-57396666D02*
X104668059Y-57444285D01*
X104668059Y-57444285D02*
X104644250Y-57515713D01*
X104644250Y-57515713D02*
X104596630Y-57563332D01*
X104596630Y-57563332D02*
X104549011Y-57587142D01*
X104549011Y-57587142D02*
X104453773Y-57610951D01*
X104453773Y-57610951D02*
X104382345Y-57610951D01*
X104382345Y-57610951D02*
X104287107Y-57587142D01*
X104287107Y-57587142D02*
X104239488Y-57563332D01*
X104239488Y-57563332D02*
X104191869Y-57515713D01*
X104191869Y-57515713D02*
X104168059Y-57444285D01*
X104168059Y-57444285D02*
X104168059Y-57396666D01*
X104168059Y-57396666D02*
X104191869Y-57325237D01*
X104191869Y-57325237D02*
X104215678Y-57301428D01*
X104168059Y-57134761D02*
X104168059Y-56801428D01*
X104168059Y-56801428D02*
X104668059Y-57015713D01*
X104168059Y-56372857D02*
X104168059Y-56610952D01*
X104168059Y-56610952D02*
X104406154Y-56634761D01*
X104406154Y-56634761D02*
X104382345Y-56610952D01*
X104382345Y-56610952D02*
X104358535Y-56563333D01*
X104358535Y-56563333D02*
X104358535Y-56444285D01*
X104358535Y-56444285D02*
X104382345Y-56396666D01*
X104382345Y-56396666D02*
X104406154Y-56372857D01*
X104406154Y-56372857D02*
X104453773Y-56349047D01*
X104453773Y-56349047D02*
X104572821Y-56349047D01*
X104572821Y-56349047D02*
X104620440Y-56372857D01*
X104620440Y-56372857D02*
X104644250Y-56396666D01*
X104644250Y-56396666D02*
X104668059Y-56444285D01*
X104668059Y-56444285D02*
X104668059Y-56563333D01*
X104668059Y-56563333D02*
X104644250Y-56610952D01*
X104644250Y-56610952D02*
X104620440Y-56634761D01*
X63076154Y-79906666D02*
X63099964Y-79835238D01*
X63099964Y-79835238D02*
X63123773Y-79811428D01*
X63123773Y-79811428D02*
X63171392Y-79787619D01*
X63171392Y-79787619D02*
X63242821Y-79787619D01*
X63242821Y-79787619D02*
X63290440Y-79811428D01*
X63290440Y-79811428D02*
X63314250Y-79835238D01*
X63314250Y-79835238D02*
X63338059Y-79882857D01*
X63338059Y-79882857D02*
X63338059Y-80073333D01*
X63338059Y-80073333D02*
X62838059Y-80073333D01*
X62838059Y-80073333D02*
X62838059Y-79906666D01*
X62838059Y-79906666D02*
X62861869Y-79859047D01*
X62861869Y-79859047D02*
X62885678Y-79835238D01*
X62885678Y-79835238D02*
X62933297Y-79811428D01*
X62933297Y-79811428D02*
X62980916Y-79811428D01*
X62980916Y-79811428D02*
X63028535Y-79835238D01*
X63028535Y-79835238D02*
X63052345Y-79859047D01*
X63052345Y-79859047D02*
X63076154Y-79906666D01*
X63076154Y-79906666D02*
X63076154Y-80073333D01*
X62838059Y-79478095D02*
X62838059Y-79382857D01*
X62838059Y-79382857D02*
X62861869Y-79335238D01*
X62861869Y-79335238D02*
X62909488Y-79287619D01*
X62909488Y-79287619D02*
X63004726Y-79263809D01*
X63004726Y-79263809D02*
X63171392Y-79263809D01*
X63171392Y-79263809D02*
X63266630Y-79287619D01*
X63266630Y-79287619D02*
X63314250Y-79335238D01*
X63314250Y-79335238D02*
X63338059Y-79382857D01*
X63338059Y-79382857D02*
X63338059Y-79478095D01*
X63338059Y-79478095D02*
X63314250Y-79525714D01*
X63314250Y-79525714D02*
X63266630Y-79573333D01*
X63266630Y-79573333D02*
X63171392Y-79597142D01*
X63171392Y-79597142D02*
X63004726Y-79597142D01*
X63004726Y-79597142D02*
X62909488Y-79573333D01*
X62909488Y-79573333D02*
X62861869Y-79525714D01*
X62861869Y-79525714D02*
X62838059Y-79478095D01*
X62838059Y-78954285D02*
X62838059Y-78859047D01*
X62838059Y-78859047D02*
X62861869Y-78811428D01*
X62861869Y-78811428D02*
X62909488Y-78763809D01*
X62909488Y-78763809D02*
X63004726Y-78739999D01*
X63004726Y-78739999D02*
X63171392Y-78739999D01*
X63171392Y-78739999D02*
X63266630Y-78763809D01*
X63266630Y-78763809D02*
X63314250Y-78811428D01*
X63314250Y-78811428D02*
X63338059Y-78859047D01*
X63338059Y-78859047D02*
X63338059Y-78954285D01*
X63338059Y-78954285D02*
X63314250Y-79001904D01*
X63314250Y-79001904D02*
X63266630Y-79049523D01*
X63266630Y-79049523D02*
X63171392Y-79073332D01*
X63171392Y-79073332D02*
X63004726Y-79073332D01*
X63004726Y-79073332D02*
X62909488Y-79049523D01*
X62909488Y-79049523D02*
X62861869Y-79001904D01*
X62861869Y-79001904D02*
X62838059Y-78954285D01*
X62838059Y-78597141D02*
X62838059Y-78311427D01*
X63338059Y-78454284D02*
X62838059Y-78454284D01*
X63338059Y-77882856D02*
X63338059Y-78168570D01*
X63338059Y-78025713D02*
X62838059Y-78025713D01*
X62838059Y-78025713D02*
X62909488Y-78073332D01*
X62909488Y-78073332D02*
X62957107Y-78120951D01*
X62957107Y-78120951D02*
X62980916Y-78168570D01*
X58412857Y-93338059D02*
X58412857Y-92838059D01*
X58412857Y-92838059D02*
X58531905Y-92838059D01*
X58531905Y-92838059D02*
X58603333Y-92861869D01*
X58603333Y-92861869D02*
X58650952Y-92909488D01*
X58650952Y-92909488D02*
X58674762Y-92957107D01*
X58674762Y-92957107D02*
X58698571Y-93052345D01*
X58698571Y-93052345D02*
X58698571Y-93123773D01*
X58698571Y-93123773D02*
X58674762Y-93219011D01*
X58674762Y-93219011D02*
X58650952Y-93266630D01*
X58650952Y-93266630D02*
X58603333Y-93314250D01*
X58603333Y-93314250D02*
X58531905Y-93338059D01*
X58531905Y-93338059D02*
X58412857Y-93338059D01*
X58865238Y-92838059D02*
X59174762Y-92838059D01*
X59174762Y-92838059D02*
X59008095Y-93028535D01*
X59008095Y-93028535D02*
X59079524Y-93028535D01*
X59079524Y-93028535D02*
X59127143Y-93052345D01*
X59127143Y-93052345D02*
X59150952Y-93076154D01*
X59150952Y-93076154D02*
X59174762Y-93123773D01*
X59174762Y-93123773D02*
X59174762Y-93242821D01*
X59174762Y-93242821D02*
X59150952Y-93290440D01*
X59150952Y-93290440D02*
X59127143Y-93314250D01*
X59127143Y-93314250D02*
X59079524Y-93338059D01*
X59079524Y-93338059D02*
X58936667Y-93338059D01*
X58936667Y-93338059D02*
X58889048Y-93314250D01*
X58889048Y-93314250D02*
X58865238Y-93290440D01*
X59341428Y-92838059D02*
X59650952Y-92838059D01*
X59650952Y-92838059D02*
X59484285Y-93028535D01*
X59484285Y-93028535D02*
X59555714Y-93028535D01*
X59555714Y-93028535D02*
X59603333Y-93052345D01*
X59603333Y-93052345D02*
X59627142Y-93076154D01*
X59627142Y-93076154D02*
X59650952Y-93123773D01*
X59650952Y-93123773D02*
X59650952Y-93242821D01*
X59650952Y-93242821D02*
X59627142Y-93290440D01*
X59627142Y-93290440D02*
X59603333Y-93314250D01*
X59603333Y-93314250D02*
X59555714Y-93338059D01*
X59555714Y-93338059D02*
X59412857Y-93338059D01*
X59412857Y-93338059D02*
X59365238Y-93314250D01*
X59365238Y-93314250D02*
X59341428Y-93290440D01*
X82259047Y-81628059D02*
X82259047Y-82032821D01*
X82259047Y-82032821D02*
X82282857Y-82080440D01*
X82282857Y-82080440D02*
X82306666Y-82104250D01*
X82306666Y-82104250D02*
X82354285Y-82128059D01*
X82354285Y-82128059D02*
X82449523Y-82128059D01*
X82449523Y-82128059D02*
X82497142Y-82104250D01*
X82497142Y-82104250D02*
X82520952Y-82080440D01*
X82520952Y-82080440D02*
X82544761Y-82032821D01*
X82544761Y-82032821D02*
X82544761Y-81628059D01*
X82759048Y-81675678D02*
X82782857Y-81651869D01*
X82782857Y-81651869D02*
X82830476Y-81628059D01*
X82830476Y-81628059D02*
X82949524Y-81628059D01*
X82949524Y-81628059D02*
X82997143Y-81651869D01*
X82997143Y-81651869D02*
X83020952Y-81675678D01*
X83020952Y-81675678D02*
X83044762Y-81723297D01*
X83044762Y-81723297D02*
X83044762Y-81770916D01*
X83044762Y-81770916D02*
X83020952Y-81842345D01*
X83020952Y-81842345D02*
X82735238Y-82128059D01*
X82735238Y-82128059D02*
X83044762Y-82128059D01*
X135938059Y-56891428D02*
X135699964Y-57058094D01*
X135938059Y-57177142D02*
X135438059Y-57177142D01*
X135438059Y-57177142D02*
X135438059Y-56986666D01*
X135438059Y-56986666D02*
X135461869Y-56939047D01*
X135461869Y-56939047D02*
X135485678Y-56915237D01*
X135485678Y-56915237D02*
X135533297Y-56891428D01*
X135533297Y-56891428D02*
X135604726Y-56891428D01*
X135604726Y-56891428D02*
X135652345Y-56915237D01*
X135652345Y-56915237D02*
X135676154Y-56939047D01*
X135676154Y-56939047D02*
X135699964Y-56986666D01*
X135699964Y-56986666D02*
X135699964Y-57177142D01*
X135438059Y-56439047D02*
X135438059Y-56677142D01*
X135438059Y-56677142D02*
X135676154Y-56700951D01*
X135676154Y-56700951D02*
X135652345Y-56677142D01*
X135652345Y-56677142D02*
X135628535Y-56629523D01*
X135628535Y-56629523D02*
X135628535Y-56510475D01*
X135628535Y-56510475D02*
X135652345Y-56462856D01*
X135652345Y-56462856D02*
X135676154Y-56439047D01*
X135676154Y-56439047D02*
X135723773Y-56415237D01*
X135723773Y-56415237D02*
X135842821Y-56415237D01*
X135842821Y-56415237D02*
X135890440Y-56439047D01*
X135890440Y-56439047D02*
X135914250Y-56462856D01*
X135914250Y-56462856D02*
X135938059Y-56510475D01*
X135938059Y-56510475D02*
X135938059Y-56629523D01*
X135938059Y-56629523D02*
X135914250Y-56677142D01*
X135914250Y-56677142D02*
X135890440Y-56700951D01*
X135604726Y-55986666D02*
X135938059Y-55986666D01*
X135414250Y-56105714D02*
X135771392Y-56224761D01*
X135771392Y-56224761D02*
X135771392Y-55915238D01*
X108130440Y-57251428D02*
X108154250Y-57275237D01*
X108154250Y-57275237D02*
X108178059Y-57346666D01*
X108178059Y-57346666D02*
X108178059Y-57394285D01*
X108178059Y-57394285D02*
X108154250Y-57465713D01*
X108154250Y-57465713D02*
X108106630Y-57513332D01*
X108106630Y-57513332D02*
X108059011Y-57537142D01*
X108059011Y-57537142D02*
X107963773Y-57560951D01*
X107963773Y-57560951D02*
X107892345Y-57560951D01*
X107892345Y-57560951D02*
X107797107Y-57537142D01*
X107797107Y-57537142D02*
X107749488Y-57513332D01*
X107749488Y-57513332D02*
X107701869Y-57465713D01*
X107701869Y-57465713D02*
X107678059Y-57394285D01*
X107678059Y-57394285D02*
X107678059Y-57346666D01*
X107678059Y-57346666D02*
X107701869Y-57275237D01*
X107701869Y-57275237D02*
X107725678Y-57251428D01*
X107678059Y-57084761D02*
X107678059Y-56751428D01*
X107678059Y-56751428D02*
X108178059Y-56965713D01*
X107844726Y-56346666D02*
X108178059Y-56346666D01*
X107654250Y-56465714D02*
X108011392Y-56584761D01*
X108011392Y-56584761D02*
X108011392Y-56275238D01*
X75016154Y-79704761D02*
X75039964Y-79633333D01*
X75039964Y-79633333D02*
X75063773Y-79609523D01*
X75063773Y-79609523D02*
X75111392Y-79585714D01*
X75111392Y-79585714D02*
X75182821Y-79585714D01*
X75182821Y-79585714D02*
X75230440Y-79609523D01*
X75230440Y-79609523D02*
X75254250Y-79633333D01*
X75254250Y-79633333D02*
X75278059Y-79680952D01*
X75278059Y-79680952D02*
X75278059Y-79871428D01*
X75278059Y-79871428D02*
X74778059Y-79871428D01*
X74778059Y-79871428D02*
X74778059Y-79704761D01*
X74778059Y-79704761D02*
X74801869Y-79657142D01*
X74801869Y-79657142D02*
X74825678Y-79633333D01*
X74825678Y-79633333D02*
X74873297Y-79609523D01*
X74873297Y-79609523D02*
X74920916Y-79609523D01*
X74920916Y-79609523D02*
X74968535Y-79633333D01*
X74968535Y-79633333D02*
X74992345Y-79657142D01*
X74992345Y-79657142D02*
X75016154Y-79704761D01*
X75016154Y-79704761D02*
X75016154Y-79871428D01*
X74778059Y-79371428D02*
X75182821Y-79371428D01*
X75182821Y-79371428D02*
X75230440Y-79347618D01*
X75230440Y-79347618D02*
X75254250Y-79323809D01*
X75254250Y-79323809D02*
X75278059Y-79276190D01*
X75278059Y-79276190D02*
X75278059Y-79180952D01*
X75278059Y-79180952D02*
X75254250Y-79133333D01*
X75254250Y-79133333D02*
X75230440Y-79109523D01*
X75230440Y-79109523D02*
X75182821Y-79085714D01*
X75182821Y-79085714D02*
X74778059Y-79085714D01*
X74778059Y-78919046D02*
X74778059Y-78633332D01*
X75278059Y-78776189D02*
X74778059Y-78776189D01*
X75278059Y-78204761D02*
X75278059Y-78490475D01*
X75278059Y-78347618D02*
X74778059Y-78347618D01*
X74778059Y-78347618D02*
X74849488Y-78395237D01*
X74849488Y-78395237D02*
X74897107Y-78442856D01*
X74897107Y-78442856D02*
X74920916Y-78490475D01*
X70759047Y-92568059D02*
X70759047Y-92972821D01*
X70759047Y-92972821D02*
X70782857Y-93020440D01*
X70782857Y-93020440D02*
X70806666Y-93044250D01*
X70806666Y-93044250D02*
X70854285Y-93068059D01*
X70854285Y-93068059D02*
X70949523Y-93068059D01*
X70949523Y-93068059D02*
X70997142Y-93044250D01*
X70997142Y-93044250D02*
X71020952Y-93020440D01*
X71020952Y-93020440D02*
X71044761Y-92972821D01*
X71044761Y-92972821D02*
X71044761Y-92568059D01*
X71544762Y-93068059D02*
X71259048Y-93068059D01*
X71401905Y-93068059D02*
X71401905Y-92568059D01*
X71401905Y-92568059D02*
X71354286Y-92639488D01*
X71354286Y-92639488D02*
X71306667Y-92687107D01*
X71306667Y-92687107D02*
X71259048Y-92710916D01*
X58708571Y-88368059D02*
X58541905Y-88129964D01*
X58422857Y-88368059D02*
X58422857Y-87868059D01*
X58422857Y-87868059D02*
X58613333Y-87868059D01*
X58613333Y-87868059D02*
X58660952Y-87891869D01*
X58660952Y-87891869D02*
X58684762Y-87915678D01*
X58684762Y-87915678D02*
X58708571Y-87963297D01*
X58708571Y-87963297D02*
X58708571Y-88034726D01*
X58708571Y-88034726D02*
X58684762Y-88082345D01*
X58684762Y-88082345D02*
X58660952Y-88106154D01*
X58660952Y-88106154D02*
X58613333Y-88129964D01*
X58613333Y-88129964D02*
X58422857Y-88129964D01*
X58875238Y-87868059D02*
X59208571Y-87868059D01*
X59208571Y-87868059D02*
X58994286Y-88368059D01*
X59470476Y-88082345D02*
X59422857Y-88058535D01*
X59422857Y-88058535D02*
X59399047Y-88034726D01*
X59399047Y-88034726D02*
X59375238Y-87987107D01*
X59375238Y-87987107D02*
X59375238Y-87963297D01*
X59375238Y-87963297D02*
X59399047Y-87915678D01*
X59399047Y-87915678D02*
X59422857Y-87891869D01*
X59422857Y-87891869D02*
X59470476Y-87868059D01*
X59470476Y-87868059D02*
X59565714Y-87868059D01*
X59565714Y-87868059D02*
X59613333Y-87891869D01*
X59613333Y-87891869D02*
X59637142Y-87915678D01*
X59637142Y-87915678D02*
X59660952Y-87963297D01*
X59660952Y-87963297D02*
X59660952Y-87987107D01*
X59660952Y-87987107D02*
X59637142Y-88034726D01*
X59637142Y-88034726D02*
X59613333Y-88058535D01*
X59613333Y-88058535D02*
X59565714Y-88082345D01*
X59565714Y-88082345D02*
X59470476Y-88082345D01*
X59470476Y-88082345D02*
X59422857Y-88106154D01*
X59422857Y-88106154D02*
X59399047Y-88129964D01*
X59399047Y-88129964D02*
X59375238Y-88177583D01*
X59375238Y-88177583D02*
X59375238Y-88272821D01*
X59375238Y-88272821D02*
X59399047Y-88320440D01*
X59399047Y-88320440D02*
X59422857Y-88344250D01*
X59422857Y-88344250D02*
X59470476Y-88368059D01*
X59470476Y-88368059D02*
X59565714Y-88368059D01*
X59565714Y-88368059D02*
X59613333Y-88344250D01*
X59613333Y-88344250D02*
X59637142Y-88320440D01*
X59637142Y-88320440D02*
X59660952Y-88272821D01*
X59660952Y-88272821D02*
X59660952Y-88177583D01*
X59660952Y-88177583D02*
X59637142Y-88129964D01*
X59637142Y-88129964D02*
X59613333Y-88106154D01*
X59613333Y-88106154D02*
X59565714Y-88082345D01*
X97958059Y-99451428D02*
X97719964Y-99618094D01*
X97958059Y-99737142D02*
X97458059Y-99737142D01*
X97458059Y-99737142D02*
X97458059Y-99546666D01*
X97458059Y-99546666D02*
X97481869Y-99499047D01*
X97481869Y-99499047D02*
X97505678Y-99475237D01*
X97505678Y-99475237D02*
X97553297Y-99451428D01*
X97553297Y-99451428D02*
X97624726Y-99451428D01*
X97624726Y-99451428D02*
X97672345Y-99475237D01*
X97672345Y-99475237D02*
X97696154Y-99499047D01*
X97696154Y-99499047D02*
X97719964Y-99546666D01*
X97719964Y-99546666D02*
X97719964Y-99737142D01*
X97624726Y-99022856D02*
X97958059Y-99022856D01*
X97434250Y-99141904D02*
X97791392Y-99260951D01*
X97791392Y-99260951D02*
X97791392Y-98951428D01*
X97958059Y-98499047D02*
X97958059Y-98784761D01*
X97958059Y-98641904D02*
X97458059Y-98641904D01*
X97458059Y-98641904D02*
X97529488Y-98689523D01*
X97529488Y-98689523D02*
X97577107Y-98737142D01*
X97577107Y-98737142D02*
X97600916Y-98784761D01*
X50863810Y-86298059D02*
X50863810Y-85798059D01*
X51078096Y-85845678D02*
X51101905Y-85821869D01*
X51101905Y-85821869D02*
X51149524Y-85798059D01*
X51149524Y-85798059D02*
X51268572Y-85798059D01*
X51268572Y-85798059D02*
X51316191Y-85821869D01*
X51316191Y-85821869D02*
X51340000Y-85845678D01*
X51340000Y-85845678D02*
X51363810Y-85893297D01*
X51363810Y-85893297D02*
X51363810Y-85940916D01*
X51363810Y-85940916D02*
X51340000Y-86012345D01*
X51340000Y-86012345D02*
X51054286Y-86298059D01*
X51054286Y-86298059D02*
X51363810Y-86298059D01*
X51863809Y-86250440D02*
X51840000Y-86274250D01*
X51840000Y-86274250D02*
X51768571Y-86298059D01*
X51768571Y-86298059D02*
X51720952Y-86298059D01*
X51720952Y-86298059D02*
X51649524Y-86274250D01*
X51649524Y-86274250D02*
X51601905Y-86226630D01*
X51601905Y-86226630D02*
X51578095Y-86179011D01*
X51578095Y-86179011D02*
X51554286Y-86083773D01*
X51554286Y-86083773D02*
X51554286Y-86012345D01*
X51554286Y-86012345D02*
X51578095Y-85917107D01*
X51578095Y-85917107D02*
X51601905Y-85869488D01*
X51601905Y-85869488D02*
X51649524Y-85821869D01*
X51649524Y-85821869D02*
X51720952Y-85798059D01*
X51720952Y-85798059D02*
X51768571Y-85798059D01*
X51768571Y-85798059D02*
X51840000Y-85821869D01*
X51840000Y-85821869D02*
X51863809Y-85845678D01*
X52340000Y-86298059D02*
X52054286Y-86298059D01*
X52197143Y-86298059D02*
X52197143Y-85798059D01*
X52197143Y-85798059D02*
X52149524Y-85869488D01*
X52149524Y-85869488D02*
X52101905Y-85917107D01*
X52101905Y-85917107D02*
X52054286Y-85940916D01*
X85910440Y-84393333D02*
X85934250Y-84417142D01*
X85934250Y-84417142D02*
X85958059Y-84488571D01*
X85958059Y-84488571D02*
X85958059Y-84536190D01*
X85958059Y-84536190D02*
X85934250Y-84607618D01*
X85934250Y-84607618D02*
X85886630Y-84655237D01*
X85886630Y-84655237D02*
X85839011Y-84679047D01*
X85839011Y-84679047D02*
X85743773Y-84702856D01*
X85743773Y-84702856D02*
X85672345Y-84702856D01*
X85672345Y-84702856D02*
X85577107Y-84679047D01*
X85577107Y-84679047D02*
X85529488Y-84655237D01*
X85529488Y-84655237D02*
X85481869Y-84607618D01*
X85481869Y-84607618D02*
X85458059Y-84536190D01*
X85458059Y-84536190D02*
X85458059Y-84488571D01*
X85458059Y-84488571D02*
X85481869Y-84417142D01*
X85481869Y-84417142D02*
X85505678Y-84393333D01*
X85458059Y-83964761D02*
X85458059Y-84059999D01*
X85458059Y-84059999D02*
X85481869Y-84107618D01*
X85481869Y-84107618D02*
X85505678Y-84131428D01*
X85505678Y-84131428D02*
X85577107Y-84179047D01*
X85577107Y-84179047D02*
X85672345Y-84202856D01*
X85672345Y-84202856D02*
X85862821Y-84202856D01*
X85862821Y-84202856D02*
X85910440Y-84179047D01*
X85910440Y-84179047D02*
X85934250Y-84155237D01*
X85934250Y-84155237D02*
X85958059Y-84107618D01*
X85958059Y-84107618D02*
X85958059Y-84012380D01*
X85958059Y-84012380D02*
X85934250Y-83964761D01*
X85934250Y-83964761D02*
X85910440Y-83940952D01*
X85910440Y-83940952D02*
X85862821Y-83917142D01*
X85862821Y-83917142D02*
X85743773Y-83917142D01*
X85743773Y-83917142D02*
X85696154Y-83940952D01*
X85696154Y-83940952D02*
X85672345Y-83964761D01*
X85672345Y-83964761D02*
X85648535Y-84012380D01*
X85648535Y-84012380D02*
X85648535Y-84107618D01*
X85648535Y-84107618D02*
X85672345Y-84155237D01*
X85672345Y-84155237D02*
X85696154Y-84179047D01*
X85696154Y-84179047D02*
X85743773Y-84202856D01*
X71205440Y-61671428D02*
X71229250Y-61695237D01*
X71229250Y-61695237D02*
X71253059Y-61766666D01*
X71253059Y-61766666D02*
X71253059Y-61814285D01*
X71253059Y-61814285D02*
X71229250Y-61885713D01*
X71229250Y-61885713D02*
X71181630Y-61933332D01*
X71181630Y-61933332D02*
X71134011Y-61957142D01*
X71134011Y-61957142D02*
X71038773Y-61980951D01*
X71038773Y-61980951D02*
X70967345Y-61980951D01*
X70967345Y-61980951D02*
X70872107Y-61957142D01*
X70872107Y-61957142D02*
X70824488Y-61933332D01*
X70824488Y-61933332D02*
X70776869Y-61885713D01*
X70776869Y-61885713D02*
X70753059Y-61814285D01*
X70753059Y-61814285D02*
X70753059Y-61766666D01*
X70753059Y-61766666D02*
X70776869Y-61695237D01*
X70776869Y-61695237D02*
X70800678Y-61671428D01*
X70753059Y-61242856D02*
X70753059Y-61338094D01*
X70753059Y-61338094D02*
X70776869Y-61385713D01*
X70776869Y-61385713D02*
X70800678Y-61409523D01*
X70800678Y-61409523D02*
X70872107Y-61457142D01*
X70872107Y-61457142D02*
X70967345Y-61480951D01*
X70967345Y-61480951D02*
X71157821Y-61480951D01*
X71157821Y-61480951D02*
X71205440Y-61457142D01*
X71205440Y-61457142D02*
X71229250Y-61433332D01*
X71229250Y-61433332D02*
X71253059Y-61385713D01*
X71253059Y-61385713D02*
X71253059Y-61290475D01*
X71253059Y-61290475D02*
X71229250Y-61242856D01*
X71229250Y-61242856D02*
X71205440Y-61219047D01*
X71205440Y-61219047D02*
X71157821Y-61195237D01*
X71157821Y-61195237D02*
X71038773Y-61195237D01*
X71038773Y-61195237D02*
X70991154Y-61219047D01*
X70991154Y-61219047D02*
X70967345Y-61242856D01*
X70967345Y-61242856D02*
X70943535Y-61290475D01*
X70943535Y-61290475D02*
X70943535Y-61385713D01*
X70943535Y-61385713D02*
X70967345Y-61433332D01*
X70967345Y-61433332D02*
X70991154Y-61457142D01*
X70991154Y-61457142D02*
X71038773Y-61480951D01*
X70967345Y-60909523D02*
X70943535Y-60957142D01*
X70943535Y-60957142D02*
X70919726Y-60980952D01*
X70919726Y-60980952D02*
X70872107Y-61004761D01*
X70872107Y-61004761D02*
X70848297Y-61004761D01*
X70848297Y-61004761D02*
X70800678Y-60980952D01*
X70800678Y-60980952D02*
X70776869Y-60957142D01*
X70776869Y-60957142D02*
X70753059Y-60909523D01*
X70753059Y-60909523D02*
X70753059Y-60814285D01*
X70753059Y-60814285D02*
X70776869Y-60766666D01*
X70776869Y-60766666D02*
X70800678Y-60742857D01*
X70800678Y-60742857D02*
X70848297Y-60719047D01*
X70848297Y-60719047D02*
X70872107Y-60719047D01*
X70872107Y-60719047D02*
X70919726Y-60742857D01*
X70919726Y-60742857D02*
X70943535Y-60766666D01*
X70943535Y-60766666D02*
X70967345Y-60814285D01*
X70967345Y-60814285D02*
X70967345Y-60909523D01*
X70967345Y-60909523D02*
X70991154Y-60957142D01*
X70991154Y-60957142D02*
X71014964Y-60980952D01*
X71014964Y-60980952D02*
X71062583Y-61004761D01*
X71062583Y-61004761D02*
X71157821Y-61004761D01*
X71157821Y-61004761D02*
X71205440Y-60980952D01*
X71205440Y-60980952D02*
X71229250Y-60957142D01*
X71229250Y-60957142D02*
X71253059Y-60909523D01*
X71253059Y-60909523D02*
X71253059Y-60814285D01*
X71253059Y-60814285D02*
X71229250Y-60766666D01*
X71229250Y-60766666D02*
X71205440Y-60742857D01*
X71205440Y-60742857D02*
X71157821Y-60719047D01*
X71157821Y-60719047D02*
X71062583Y-60719047D01*
X71062583Y-60719047D02*
X71014964Y-60742857D01*
X71014964Y-60742857D02*
X70991154Y-60766666D01*
X70991154Y-60766666D02*
X70967345Y-60814285D01*
%TO.C,C81*%
D13*
X87305000Y-50355000D02*
X98045000Y-50355000D01*
X87305000Y-55595000D02*
X87305000Y-50355000D01*
X98045000Y-50355000D02*
X98045000Y-55595000D01*
X98045000Y-55595000D02*
X87305000Y-55595000D01*
%TO.C,C5*%
X87565000Y-76654437D02*
X87565000Y-86310000D01*
X87565000Y-86310000D02*
X91415000Y-86310000D01*
X88629437Y-75590000D02*
X87565000Y-76654437D01*
X88629437Y-75590000D02*
X91415000Y-75590000D01*
X95685000Y-74100000D02*
X95685000Y-75350000D01*
X96310000Y-74725000D02*
X95060000Y-74725000D01*
X97220563Y-75590000D02*
X94435000Y-75590000D01*
X97220563Y-75590000D02*
X98285000Y-76654437D01*
X98285000Y-76654437D02*
X98285000Y-86310000D01*
X98285000Y-86310000D02*
X94435000Y-86310000D01*
%TO.C,J9*%
X85800000Y-98720000D02*
X85800000Y-100500000D01*
X87700000Y-95800000D02*
X86900000Y-95800001D01*
X95200000Y-98720000D02*
X95200000Y-100500000D01*
%TO.C,D36*%
X98665000Y-75250000D02*
X98665000Y-78110000D01*
X98665000Y-78110000D02*
X100585000Y-78110000D01*
X100585000Y-78110000D02*
X100585000Y-75250000D01*
%TO.C,BL2*%
D14*
X117545000Y-58680001D02*
X113405000Y-58680001D01*
X117545000Y-63819999D02*
X113405000Y-63819999D01*
D13*
X117875000Y-63776919D02*
X118115000Y-64106919D01*
X117635000Y-64106919D01*
X117875000Y-63776919D01*
G36*
X118115000Y-64106919D02*
G01*
X117635000Y-64106919D01*
X117875000Y-63776919D01*
X118115000Y-64106919D01*
G37*
D12*
%TO.C,L1*%
X128950000Y-51225000D02*
X143950000Y-51225000D01*
X143950000Y-58225000D01*
X128950000Y-58225000D01*
X128950000Y-51225000D01*
%TO.C,C72*%
D13*
X119264929Y-60437452D02*
X119264929Y-59928004D01*
X120309929Y-60437452D02*
X120309929Y-59928004D01*
%TO.C,MAX_98357*%
X101365000Y-92090000D02*
X101365000Y-93890000D01*
X101365000Y-93890000D02*
X100425000Y-93890000D01*
X101365000Y-104310000D02*
X101365000Y-102510000D01*
X102965000Y-92090000D02*
X101365000Y-92090000D01*
X102965000Y-104310000D02*
X101365000Y-104310000D01*
X105835000Y-93360000D02*
X105835000Y-103040000D01*
%TO.C,C69*%
X133677500Y-60329724D02*
X133677500Y-59820276D01*
X134722500Y-60329724D02*
X134722500Y-59820276D01*
D12*
%TO.C,L4*%
X98550000Y-51275000D02*
X113550000Y-51275000D01*
X113550000Y-58275000D01*
X98550000Y-58275000D01*
X98550000Y-51275000D01*
%TO.C,D38*%
D13*
X96046361Y-100906613D02*
X96046361Y-103766613D01*
X97966361Y-100906613D02*
X96046361Y-100906613D01*
X97966361Y-103766613D02*
X97966361Y-100906613D01*
%TO.C,Q1*%
X51740000Y-100940000D02*
X53260000Y-100940000D01*
X51740000Y-101940000D02*
X51740000Y-100940000D01*
X51740000Y-104060000D02*
X51740000Y-103060000D01*
X53260000Y-100940000D02*
X53260000Y-100990000D01*
X53260000Y-102110000D02*
X53260000Y-102890000D01*
X53260000Y-104010000D02*
X53260000Y-104060000D01*
X53260000Y-104060000D02*
X51740000Y-104060000D01*
X53800000Y-102880000D02*
X53560000Y-102550000D01*
X54040000Y-102550000D01*
X53800000Y-102880000D01*
G36*
X53800000Y-102880000D02*
G01*
X53560000Y-102550000D01*
X54040000Y-102550000D01*
X53800000Y-102880000D01*
G37*
%TO.C,UART1*%
X60120000Y-101540000D02*
X60120001Y-93810000D01*
X62879999Y-93810000D02*
X60120001Y-93810000D01*
X62879999Y-102810000D02*
X62880000Y-104190000D01*
X62880000Y-101540000D02*
X60120000Y-101540000D01*
X62880000Y-101540000D02*
X62879999Y-93810000D01*
X62880000Y-104190000D02*
X61500000Y-104189999D01*
%TO.C,L2*%
X55375000Y-54900000D02*
X58375000Y-54900000D01*
X55375000Y-67500000D02*
X55375000Y-54900000D01*
X58375000Y-67500000D02*
X55375000Y-67500000D01*
X64975000Y-54900000D02*
X67975000Y-54900000D01*
X67975000Y-54900000D02*
X67975000Y-67500000D01*
X67975000Y-67500000D02*
X64975000Y-67500000D01*
%TO.C,C67*%
X139752500Y-59845276D02*
X139752500Y-60354724D01*
X140797500Y-59845276D02*
X140797500Y-60354724D01*
%TO.C,C4*%
X76327677Y-52775000D02*
X77327677Y-52775000D01*
X76827677Y-52275000D02*
X76827677Y-53275000D01*
X81807323Y-50570000D02*
X81807323Y-60730000D01*
X81847323Y-50570000D02*
X81847323Y-60730000D01*
X81887323Y-50571000D02*
X81887323Y-60729000D01*
X81927323Y-50571000D02*
X81927323Y-60729000D01*
X81967323Y-50573000D02*
X81967323Y-60727000D01*
X82007323Y-50574000D02*
X82007323Y-60726000D01*
X82047323Y-50576000D02*
X82047323Y-60724000D01*
X82087323Y-50578000D02*
X82087323Y-60722000D01*
X82127323Y-50580000D02*
X82127323Y-60720000D01*
X82167323Y-50583000D02*
X82167323Y-60717000D01*
X82207323Y-50586000D02*
X82207323Y-60714000D01*
X82247323Y-50589000D02*
X82247323Y-60711000D01*
X82287323Y-50593000D02*
X82287323Y-60707000D01*
X82327323Y-50596000D02*
X82327323Y-60704000D01*
X82367323Y-50601000D02*
X82367323Y-60699000D01*
X82407323Y-50605000D02*
X82407323Y-60695000D01*
X82447323Y-50610000D02*
X82447323Y-60690000D01*
X82487323Y-50615000D02*
X82487323Y-60685000D01*
X82527323Y-50621000D02*
X82527323Y-60679000D01*
X82567323Y-50627000D02*
X82567323Y-60673000D01*
X82607323Y-50633000D02*
X82607323Y-60667000D01*
X82647323Y-50639000D02*
X82647323Y-60661000D01*
X82687323Y-50646000D02*
X82687323Y-60654000D01*
X82727323Y-50653000D02*
X82727323Y-60647000D01*
X82767323Y-50661000D02*
X82767323Y-60639000D01*
X82807323Y-50669000D02*
X82807323Y-60631000D01*
X82847323Y-50677000D02*
X82847323Y-60623000D01*
X82887323Y-50685000D02*
X82887323Y-60615000D01*
X82927323Y-50694000D02*
X82927323Y-60606000D01*
X82967323Y-50703000D02*
X82967323Y-60597000D01*
X83007323Y-50713000D02*
X83007323Y-60587000D01*
X83047323Y-50722000D02*
X83047323Y-60578000D01*
X83087323Y-50733000D02*
X83087323Y-54410000D01*
X83087323Y-56890000D02*
X83087323Y-60567000D01*
X83127323Y-50743000D02*
X83127323Y-54410000D01*
X83127323Y-56890000D02*
X83127323Y-60557000D01*
X83167323Y-50754000D02*
X83167323Y-54410000D01*
X83167323Y-56890000D02*
X83167323Y-60546000D01*
X83207323Y-50765000D02*
X83207323Y-54410000D01*
X83207323Y-56890000D02*
X83207323Y-60535000D01*
X83247323Y-50777000D02*
X83247323Y-54410000D01*
X83247323Y-56890000D02*
X83247323Y-60523000D01*
X83287323Y-50789000D02*
X83287323Y-54410000D01*
X83287323Y-56890000D02*
X83287323Y-60511000D01*
X83327323Y-50801000D02*
X83327323Y-54410000D01*
X83327323Y-56890000D02*
X83327323Y-60499000D01*
X83367323Y-50813000D02*
X83367323Y-54410000D01*
X83367323Y-56890000D02*
X83367323Y-60487000D01*
X83407323Y-50826000D02*
X83407323Y-54410000D01*
X83407323Y-56890000D02*
X83407323Y-60474000D01*
X83447323Y-50840000D02*
X83447323Y-54410000D01*
X83447323Y-56890000D02*
X83447323Y-60460000D01*
X83487323Y-50853000D02*
X83487323Y-54410000D01*
X83487323Y-56890000D02*
X83487323Y-60447000D01*
X83527323Y-50868000D02*
X83527323Y-54410000D01*
X83527323Y-56890000D02*
X83527323Y-60432000D01*
X83567323Y-50882000D02*
X83567323Y-54410000D01*
X83567323Y-56890000D02*
X83567323Y-60418000D01*
X83607323Y-50897000D02*
X83607323Y-54410000D01*
X83607323Y-56890000D02*
X83607323Y-60403000D01*
X83647323Y-50912000D02*
X83647323Y-54410000D01*
X83647323Y-56890000D02*
X83647323Y-60388000D01*
X83687323Y-50928000D02*
X83687323Y-54410000D01*
X83687323Y-56890000D02*
X83687323Y-60372000D01*
X83727323Y-50944000D02*
X83727323Y-54410000D01*
X83727323Y-56890000D02*
X83727323Y-60356000D01*
X83767323Y-50960000D02*
X83767323Y-54410000D01*
X83767323Y-56890000D02*
X83767323Y-60340000D01*
X83807323Y-50977000D02*
X83807323Y-54410000D01*
X83807323Y-56890000D02*
X83807323Y-60323000D01*
X83847323Y-50994000D02*
X83847323Y-54410000D01*
X83847323Y-56890000D02*
X83847323Y-60306000D01*
X83887323Y-51012000D02*
X83887323Y-54410000D01*
X83887323Y-56890000D02*
X83887323Y-60288000D01*
X83927323Y-51030000D02*
X83927323Y-54410000D01*
X83927323Y-56890000D02*
X83927323Y-60270000D01*
X83967323Y-51048000D02*
X83967323Y-54410000D01*
X83967323Y-56890000D02*
X83967323Y-60252000D01*
X84007323Y-51067000D02*
X84007323Y-54410000D01*
X84007323Y-56890000D02*
X84007323Y-60233000D01*
X84047323Y-51086000D02*
X84047323Y-54410000D01*
X84047323Y-56890000D02*
X84047323Y-60214000D01*
X84087323Y-51106000D02*
X84087323Y-54410000D01*
X84087323Y-56890000D02*
X84087323Y-60194000D01*
X84127323Y-51126000D02*
X84127323Y-54410000D01*
X84127323Y-56890000D02*
X84127323Y-60174000D01*
X84167323Y-51146000D02*
X84167323Y-54410000D01*
X84167323Y-56890000D02*
X84167323Y-60154000D01*
X84207323Y-51167000D02*
X84207323Y-54410000D01*
X84207323Y-56890000D02*
X84207323Y-60133000D01*
X84247323Y-51189000D02*
X84247323Y-54410000D01*
X84247323Y-56890000D02*
X84247323Y-60111000D01*
X84287323Y-51211000D02*
X84287323Y-54410000D01*
X84287323Y-56890000D02*
X84287323Y-60089000D01*
X84327323Y-51233000D02*
X84327323Y-54410000D01*
X84327323Y-56890000D02*
X84327323Y-60067000D01*
X84367323Y-51256000D02*
X84367323Y-54410000D01*
X84367323Y-56890000D02*
X84367323Y-60044000D01*
X84407323Y-51279000D02*
X84407323Y-54410000D01*
X84407323Y-56890000D02*
X84407323Y-60021000D01*
X84447323Y-51303000D02*
X84447323Y-54410000D01*
X84447323Y-56890000D02*
X84447323Y-59997000D01*
X84487323Y-51327000D02*
X84487323Y-54410000D01*
X84487323Y-56890000D02*
X84487323Y-59973000D01*
X84527323Y-51352000D02*
X84527323Y-54410000D01*
X84527323Y-56890000D02*
X84527323Y-59948000D01*
X84567323Y-51378000D02*
X84567323Y-54410000D01*
X84567323Y-56890000D02*
X84567323Y-59922000D01*
X84607323Y-51403000D02*
X84607323Y-54410000D01*
X84607323Y-56890000D02*
X84607323Y-59897000D01*
X84647323Y-51430000D02*
X84647323Y-54410000D01*
X84647323Y-56890000D02*
X84647323Y-59870000D01*
X84687323Y-51457000D02*
X84687323Y-54410000D01*
X84687323Y-56890000D02*
X84687323Y-59843000D01*
X84727323Y-51484000D02*
X84727323Y-54410000D01*
X84727323Y-56890000D02*
X84727323Y-59816000D01*
X84767323Y-51512000D02*
X84767323Y-54410000D01*
X84767323Y-56890000D02*
X84767323Y-59788000D01*
X84807323Y-51541000D02*
X84807323Y-54410000D01*
X84807323Y-56890000D02*
X84807323Y-59759000D01*
X84847323Y-51570000D02*
X84847323Y-54410000D01*
X84847323Y-56890000D02*
X84847323Y-59730000D01*
X84887323Y-51600000D02*
X84887323Y-54410000D01*
X84887323Y-56890000D02*
X84887323Y-59700000D01*
X84927323Y-51630000D02*
X84927323Y-54410000D01*
X84927323Y-56890000D02*
X84927323Y-59670000D01*
X84967323Y-51662000D02*
X84967323Y-54410000D01*
X84967323Y-56890000D02*
X84967323Y-59638000D01*
X85007323Y-51693000D02*
X85007323Y-54410000D01*
X85007323Y-56890000D02*
X85007323Y-59607000D01*
X85047323Y-51726000D02*
X85047323Y-54410000D01*
X85047323Y-56890000D02*
X85047323Y-59574000D01*
X85087323Y-51759000D02*
X85087323Y-54410000D01*
X85087323Y-56890000D02*
X85087323Y-59541000D01*
X85127323Y-51792000D02*
X85127323Y-54410000D01*
X85127323Y-56890000D02*
X85127323Y-59508000D01*
X85167323Y-51827000D02*
X85167323Y-54410000D01*
X85167323Y-56890000D02*
X85167323Y-59473000D01*
X85207323Y-51862000D02*
X85207323Y-54410000D01*
X85207323Y-56890000D02*
X85207323Y-59438000D01*
X85247323Y-51898000D02*
X85247323Y-54410000D01*
X85247323Y-56890000D02*
X85247323Y-59402000D01*
X85287323Y-51934000D02*
X85287323Y-54410000D01*
X85287323Y-56890000D02*
X85287323Y-59366000D01*
X85327323Y-51972000D02*
X85327323Y-54410000D01*
X85327323Y-56890000D02*
X85327323Y-59328000D01*
X85367323Y-52010000D02*
X85367323Y-54410000D01*
X85367323Y-56890000D02*
X85367323Y-59290000D01*
X85407323Y-52049000D02*
X85407323Y-54410000D01*
X85407323Y-56890000D02*
X85407323Y-59251000D01*
X85447323Y-52089000D02*
X85447323Y-54410000D01*
X85447323Y-56890000D02*
X85447323Y-59211000D01*
X85487323Y-52130000D02*
X85487323Y-54410000D01*
X85487323Y-56890000D02*
X85487323Y-59170000D01*
X85527323Y-52172000D02*
X85527323Y-54410000D01*
X85527323Y-56890000D02*
X85527323Y-59128000D01*
X85567323Y-52215000D02*
X85567323Y-59085000D01*
X85607323Y-52259000D02*
X85607323Y-59041000D01*
X85647323Y-52303000D02*
X85647323Y-58997000D01*
X85687323Y-52349000D02*
X85687323Y-58951000D01*
X85727323Y-52396000D02*
X85727323Y-58904000D01*
X85767323Y-52445000D02*
X85767323Y-58855000D01*
X85807323Y-52494000D02*
X85807323Y-58806000D01*
X85847323Y-52545000D02*
X85847323Y-58755000D01*
X85887323Y-52597000D02*
X85887323Y-58703000D01*
X85927323Y-52650000D02*
X85927323Y-58650000D01*
X85967323Y-52705000D02*
X85967323Y-58595000D01*
X86007323Y-52762000D02*
X86007323Y-58538000D01*
X86047323Y-52820000D02*
X86047323Y-58480000D01*
X86087323Y-52880000D02*
X86087323Y-58420000D01*
X86127323Y-52942000D02*
X86127323Y-58358000D01*
X86167323Y-53006000D02*
X86167323Y-58294000D01*
X86207323Y-53072000D02*
X86207323Y-58228000D01*
X86247323Y-53140000D02*
X86247323Y-58160000D01*
X86287323Y-53211000D02*
X86287323Y-58089000D01*
X86327323Y-53285000D02*
X86327323Y-58015000D01*
X86367323Y-53362000D02*
X86367323Y-57938000D01*
X86407323Y-53442000D02*
X86407323Y-57858000D01*
X86447323Y-53526000D02*
X86447323Y-57774000D01*
X86487323Y-53613000D02*
X86487323Y-57687000D01*
X86527323Y-53706000D02*
X86527323Y-57594000D01*
X86567323Y-53804000D02*
X86567323Y-57496000D01*
X86607323Y-53908000D02*
X86607323Y-57392000D01*
X86647323Y-54020000D02*
X86647323Y-57280000D01*
X86687323Y-54141000D02*
X86687323Y-57159000D01*
X86727323Y-54273000D02*
X86727323Y-57027000D01*
X86767323Y-54420000D02*
X86767323Y-56880000D01*
X86807323Y-54588000D02*
X86807323Y-56712000D01*
X86847323Y-54788000D02*
X86847323Y-56512000D01*
X86887323Y-55051000D02*
X86887323Y-56249000D01*
X86927323Y-55650000D02*
G75*
G02*
X76687323Y-55650000I-5120000J0D01*
G01*
X76687323Y-55650000D02*
G75*
G02*
X86927323Y-55650000I5120000J0D01*
G01*
D12*
%TO.C,L3*%
X113725000Y-51275000D02*
X128725000Y-51275000D01*
X128725000Y-58275000D01*
X113725000Y-58275000D01*
X113725000Y-51275000D01*
%TO.C,R59*%
D13*
X106874152Y-59838743D02*
X106874152Y-60348191D01*
X107919152Y-59838743D02*
X107919152Y-60348191D01*
%TO.C,U4*%
D12*
X114175000Y-89850000D02*
X115475000Y-89850000D01*
X114250000Y-82375000D02*
X115475000Y-82375000D01*
X114275000Y-86125000D02*
X115475000Y-86125000D01*
X115475000Y-82375000D02*
X115475000Y-83575000D01*
X115475000Y-86125000D02*
X115475000Y-84725001D01*
X115475000Y-86125000D02*
X115475000Y-87425000D01*
X115475000Y-89850000D02*
X115475000Y-88550000D01*
X111700000Y-81125000D02*
X135700000Y-81125000D01*
X135700000Y-91125000D01*
X111700000Y-91125000D01*
X111700000Y-81125000D01*
X114475000Y-83637500D02*
X116450000Y-83637500D01*
X116450000Y-84712500D01*
X114475000Y-84712500D01*
X114475000Y-83637500D01*
X114525000Y-87412500D02*
X116525000Y-87412500D01*
X116525000Y-88587500D01*
X114525000Y-88587500D01*
X114525000Y-87412500D01*
G36*
X116525000Y-88587500D02*
G01*
X114525000Y-88587500D01*
X114525000Y-87412500D01*
X116525000Y-87412500D01*
X116525000Y-88587500D01*
G37*
%TO.C,EN1*%
D13*
X57130000Y-76630000D02*
X57130000Y-81370000D01*
X57130000Y-76630000D02*
X57530001Y-76630000D01*
X57130000Y-81370000D02*
X57530001Y-81370000D01*
X58470000Y-76630000D02*
X60530000Y-76630000D01*
X58470000Y-81370000D02*
X60530000Y-81370000D01*
X61870000Y-76630000D02*
X61469999Y-76630000D01*
X61870000Y-76630000D02*
X61870000Y-81370000D01*
X61870000Y-81370000D02*
X61469999Y-81370000D01*
%TO.C,C60*%
X82134544Y-82491639D02*
X82643992Y-82491639D01*
X82134544Y-83536639D02*
X82643992Y-83536639D01*
%TO.C,C3*%
X84825992Y-77611495D02*
X84825992Y-76188991D01*
X86645992Y-77611495D02*
X86645992Y-76188991D01*
%TO.C,D1*%
X51660991Y-97137051D02*
X51660991Y-97293051D01*
X51660991Y-99453051D02*
X51660991Y-99609051D01*
X51660991Y-97137535D02*
G75*
G02*
X54892428Y-97293051I1560000J-1235516D01*
G01*
X52180030Y-97293051D02*
G75*
G02*
X54261952Y-97293051I1040961J-1080000D01*
G01*
X54261952Y-99453051D02*
G75*
G02*
X52180030Y-99453051I-1040961J1080000D01*
G01*
X54892428Y-99453051D02*
G75*
G02*
X51660991Y-99608567I-1671437J1080000D01*
G01*
%TO.C,R77*%
X85921910Y-85138449D02*
X85412462Y-85138449D01*
X85921910Y-86183449D02*
X85412462Y-86183449D01*
%TO.C,C76*%
X109989024Y-59842810D02*
X109989024Y-60352258D01*
X111034024Y-59842810D02*
X111034024Y-60352258D01*
%TO.C,C58*%
X81027500Y-75882776D02*
X81027500Y-76392224D01*
X82072500Y-75882776D02*
X82072500Y-76392224D01*
%TO.C,R56*%
X122277500Y-59920276D02*
X122277500Y-60429724D01*
X123322500Y-59920276D02*
X123322500Y-60429724D01*
D12*
%TO.C,J3*%
X58450000Y-69275000D02*
X58450000Y-71225000D01*
X51374999Y-71225000D01*
X51375000Y-69275000D01*
X58450000Y-69275000D01*
%TO.C,PS1*%
X74308247Y-64492167D02*
X74308247Y-64492167D01*
X74308247Y-64592167D02*
X74308247Y-64592167D01*
D15*
X75508247Y-62292167D02*
X101908247Y-62292167D01*
X75508247Y-66592167D02*
X75508247Y-67792167D01*
X75508247Y-67792167D02*
X78708247Y-67792167D01*
X78708247Y-67792167D02*
X78708247Y-73292167D01*
X78708247Y-73292167D02*
X98708247Y-73292167D01*
X98708247Y-67792167D02*
X101908247Y-67792167D01*
X98708247Y-73292167D02*
X98708247Y-67792167D01*
X101908247Y-67792167D02*
X101908247Y-66592167D01*
D12*
X74308247Y-64492167D02*
G75*
G02*
X74308247Y-64592167I0J-50000D01*
G01*
X74308247Y-64592167D02*
G75*
G02*
X74308247Y-64492167I0J50000D01*
G01*
%TO.C,C73*%
D13*
X125327500Y-59945276D02*
X125327500Y-60454724D01*
X126372500Y-59945276D02*
X126372500Y-60454724D01*
%TO.C,INMP_441*%
X101365000Y-80040000D02*
X101365000Y-81840000D01*
X101365000Y-81840000D02*
X100425001Y-81840000D01*
X101365000Y-91010000D02*
X101365000Y-89210000D01*
X102965000Y-80040000D02*
X101365000Y-80040000D01*
X102965000Y-91010000D02*
X101365000Y-91010000D01*
X105835000Y-81310000D02*
X105835000Y-89740000D01*
%TO.C,D32*%
X87640000Y-86540000D02*
X87640000Y-88460000D01*
X87640000Y-88460000D02*
X90500000Y-88460000D01*
X90500000Y-86540000D02*
X87640000Y-86540000D01*
%TO.C,R1*%
X63990000Y-52250000D02*
X64680000Y-52250000D01*
X74610000Y-52250000D02*
X73920000Y-52250000D01*
X64680000Y-50530000D02*
X73920000Y-50530000D01*
X73920000Y-53970000D01*
X64680000Y-53970000D01*
X64680000Y-50530000D01*
%TO.C,C71*%
X123788250Y-59928004D02*
X123788250Y-60437452D01*
X124833250Y-59928004D02*
X124833250Y-60437452D01*
%TO.C,R38*%
X54709669Y-102768656D02*
X54709669Y-102259208D01*
X55754669Y-102768656D02*
X55754669Y-102259208D01*
%TO.C,R53*%
X136677500Y-59820276D02*
X136677500Y-60329724D01*
X137722500Y-59820276D02*
X137722500Y-60329724D01*
%TO.C,C57*%
X82527500Y-75882776D02*
X82527500Y-76392224D01*
X83572500Y-75882776D02*
X83572500Y-76392224D01*
%TO.C,J1*%
X56397731Y-101523548D02*
X56397731Y-96333548D01*
X59157730Y-102793548D02*
X59157731Y-104173548D01*
X59157731Y-96333548D02*
X56397731Y-96333548D01*
X59157731Y-101523548D02*
X56397731Y-101523548D01*
X59157731Y-101523548D02*
X59157731Y-96333548D01*
X59157731Y-104173548D02*
X57777731Y-104173547D01*
%TO.C,U3*%
D12*
X114175000Y-75300000D02*
X115475000Y-75300000D01*
X114250000Y-67825000D02*
X115475000Y-67825000D01*
X114275000Y-71575000D02*
X115475000Y-71575000D01*
X115475000Y-67825000D02*
X115475000Y-69025000D01*
X115475000Y-71575000D02*
X115475000Y-70175001D01*
X115475000Y-71575000D02*
X115475000Y-72875000D01*
X115475000Y-75300000D02*
X115475000Y-74000000D01*
X111700000Y-66575000D02*
X135700000Y-66575000D01*
X135700000Y-76575000D01*
X111700000Y-76575000D01*
X111700000Y-66575000D01*
X114475000Y-69087500D02*
X116450000Y-69087500D01*
X116450000Y-70162500D01*
X114475000Y-70162500D01*
X114475000Y-69087500D01*
X114525000Y-72862500D02*
X116525000Y-72862500D01*
X116525000Y-74037500D01*
X114525000Y-74037500D01*
X114525000Y-72862500D01*
G36*
X116525000Y-74037500D02*
G01*
X114525000Y-74037500D01*
X114525000Y-72862500D01*
X116525000Y-72862500D01*
X116525000Y-74037500D01*
G37*
%TO.C,R60*%
D13*
X105374152Y-59838743D02*
X105374152Y-60348191D01*
X106419152Y-59838743D02*
X106419152Y-60348191D01*
%TO.C,C80*%
X87280000Y-55905000D02*
X98020000Y-55905000D01*
X87280000Y-61145000D02*
X87280000Y-55905000D01*
X98020000Y-55905000D02*
X98020000Y-61145000D01*
X98020000Y-61145000D02*
X87280000Y-61145000D01*
%TO.C,U5*%
D12*
X114175000Y-103425000D02*
X115475000Y-103425000D01*
X114250000Y-95950000D02*
X115475000Y-95950000D01*
X114275000Y-99700000D02*
X115475000Y-99700000D01*
X115475000Y-95950000D02*
X115475000Y-97150000D01*
X115475000Y-99700000D02*
X115475000Y-98300000D01*
X115475000Y-99700000D02*
X115475000Y-101000000D01*
X115475000Y-103425000D02*
X115475000Y-102125000D01*
X111700000Y-94700000D02*
X135700000Y-94700000D01*
X135700000Y-104700000D01*
X111700000Y-104700000D01*
X111700000Y-94700000D01*
X114475000Y-97212500D02*
X116450000Y-97212500D01*
X116450000Y-98287500D01*
X114475000Y-98287500D01*
X114475000Y-97212500D01*
X114525000Y-100987500D02*
X116525000Y-100987500D01*
X116525000Y-102162500D01*
X114525000Y-102162500D01*
X114525000Y-100987500D01*
G36*
X114525000Y-100987500D02*
G01*
X116525000Y-100987500D01*
X116525000Y-102162500D01*
X114525000Y-102162500D01*
X114525000Y-100987500D01*
G37*
%TO.C,J2*%
X51525000Y-56625000D02*
X53475000Y-56625000D01*
X53475000Y-63700000D01*
X51525000Y-63700000D01*
X51525000Y-56625000D01*
%TO.C,BL3*%
D14*
X103834042Y-63205000D02*
X103834042Y-67345000D01*
X108974040Y-63205000D02*
X108974040Y-67345000D01*
D13*
X108930960Y-62875000D02*
X109260960Y-62635000D01*
X109260960Y-63115000D01*
X108930960Y-62875000D01*
G36*
X109260960Y-63115000D02*
G01*
X108930960Y-62875000D01*
X109260960Y-62635000D01*
X109260960Y-63115000D01*
G37*
%TO.C,BL1*%
D14*
X132095000Y-58734042D02*
X127955000Y-58734042D01*
X132095000Y-63874040D02*
X127955000Y-63874040D01*
D13*
X132425000Y-63830960D02*
X132665000Y-64160960D01*
X132185000Y-64160960D01*
X132425000Y-63830960D01*
G36*
X132665000Y-64160960D02*
G01*
X132185000Y-64160960D01*
X132425000Y-63830960D01*
X132665000Y-64160960D01*
G37*
%TO.C,C70*%
X138177500Y-59820276D02*
X138177500Y-60329724D01*
X139222500Y-59820276D02*
X139222500Y-60329724D01*
%TO.C,BUT2*%
X69630000Y-76630000D02*
X69630000Y-81370000D01*
X69630000Y-76630000D02*
X70030000Y-76630000D01*
X69630000Y-81370000D02*
X70030000Y-81370000D01*
X70970000Y-76630000D02*
X73030000Y-76630000D01*
X70970000Y-81370000D02*
X73030000Y-81370000D01*
X74370000Y-76630000D02*
X73970000Y-76630000D01*
X74370000Y-76630000D02*
X74370000Y-81370000D01*
X74370000Y-81370000D02*
X73970000Y-81370000D01*
%TO.C,R57*%
X120777500Y-59920276D02*
X120777500Y-60429724D01*
X121822500Y-59920276D02*
X121822500Y-60429724D01*
%TO.C,C75*%
X103868626Y-60329950D02*
X103868626Y-59820502D01*
X104913626Y-60329950D02*
X104913626Y-59820502D01*
%TO.C,BOOT1*%
X63630000Y-76630000D02*
X63630000Y-81370000D01*
X63630000Y-76630000D02*
X64030000Y-76630000D01*
X63630000Y-81370000D02*
X64030000Y-81370000D01*
X64970000Y-76630000D02*
X67030000Y-76630000D01*
X64970000Y-81370000D02*
X67030000Y-81370000D01*
X68370000Y-76630000D02*
X67970000Y-76630000D01*
X68370000Y-76630000D02*
X68370000Y-81370000D01*
X68370000Y-81370000D02*
X67970000Y-81370000D01*
%TO.C,D33*%
X58000000Y-92460000D02*
X60860000Y-92460000D01*
X60860000Y-90540000D02*
X58000000Y-90540000D01*
X60860000Y-92460000D02*
X60860000Y-90540000D01*
%TO.C,U2*%
X80990000Y-79227500D02*
X81040000Y-79227500D01*
X80990000Y-81047500D02*
X80990000Y-79227500D01*
X81040000Y-81047500D02*
X80990000Y-81047500D01*
X82940000Y-81047500D02*
X82160000Y-81047500D01*
X84060000Y-79227500D02*
X84110000Y-79227500D01*
X84110000Y-79227500D02*
X84110000Y-81047500D01*
X84110000Y-81047500D02*
X84060000Y-81047500D01*
X84060000Y-78687500D02*
X84390000Y-78447500D01*
X84390000Y-78927500D01*
X84060000Y-78687500D01*
G36*
X84390000Y-78927500D02*
G01*
X84060000Y-78687500D01*
X84390000Y-78447500D01*
X84390000Y-78927500D01*
G37*
%TO.C,R54*%
X135177500Y-59820276D02*
X135177500Y-60329724D01*
X136222500Y-59820276D02*
X136222500Y-60329724D01*
%TO.C,C74*%
X108377500Y-59845276D02*
X108377500Y-60354724D01*
X109422500Y-59845276D02*
X109422500Y-60354724D01*
%TO.C,BUT1*%
X75630000Y-76630000D02*
X75630000Y-81370000D01*
X75630000Y-76630000D02*
X76030000Y-76630000D01*
X75630000Y-81370000D02*
X76030000Y-81370000D01*
X76970000Y-76630000D02*
X79030000Y-76630000D01*
X76970000Y-81370000D02*
X79030000Y-81370000D01*
X80370000Y-76630000D02*
X79970000Y-76630000D01*
X80370000Y-76630000D02*
X80370000Y-81370000D01*
X80370000Y-81370000D02*
X79970000Y-81370000D01*
%TO.C,U1*%
X64165000Y-85200000D02*
X64165000Y-86200000D01*
X64165000Y-85200000D02*
X65665000Y-85200000D01*
X64165000Y-104800000D02*
X64165000Y-104100000D01*
X82565000Y-85200000D02*
X81065000Y-85200000D01*
X82565000Y-86200000D02*
X82565000Y-85200000D01*
X82565000Y-104800000D02*
X64165000Y-104800000D01*
X82565000Y-104050000D02*
X83065000Y-104050000D01*
X82565000Y-104550000D01*
X82565000Y-104050000D01*
G36*
X82565000Y-104550000D02*
G01*
X82565000Y-104050000D01*
X83065000Y-104050000D01*
X82565000Y-104550000D01*
G37*
%TO.C,R78*%
X59254724Y-88977500D02*
X58745276Y-88977500D01*
X59254724Y-90022500D02*
X58745276Y-90022500D01*
%TO.C,R41*%
X98377500Y-99404724D02*
X98377500Y-98895276D01*
X99422500Y-99404724D02*
X99422500Y-98895276D01*
%TO.C,I2C1*%
X50914677Y-94249366D02*
X50914677Y-88319366D01*
X53784677Y-87049366D02*
X55384677Y-87049366D01*
X53784677Y-95519366D02*
X55384677Y-95519366D01*
X55384677Y-87049366D02*
X55384678Y-88849366D01*
X55384677Y-95519366D02*
X55384678Y-93719366D01*
X55384678Y-93719366D02*
X56324677Y-93719366D01*
%TO.C,C6*%
X84822538Y-80831848D02*
X84822538Y-82254352D01*
X86642538Y-80831848D02*
X86642538Y-82254352D01*
%TO.C,C68*%
X68405000Y-54980000D02*
X70006000Y-54980000D01*
X68405000Y-71720000D02*
X68405000Y-54980000D01*
X70006000Y-71720000D02*
X68405000Y-71720000D01*
X72044000Y-54980000D02*
X73645000Y-54980000D01*
X73645000Y-54980000D02*
X73645000Y-71720000D01*
X73645000Y-71720000D02*
X72044000Y-71720000D01*
%TD*%
M02*
