%TF.GenerationSoftware,KiCad,Pcbnew,10.0.5*%
%TF.CreationDate,2026-09-29T08:59:13+07:00*%
%TF.ProjectId,IoT_Board_V2,496f545f-426f-4617-9264-5f56322e6b69,rev?*%
%TF.SameCoordinates,Original*%
%TF.FileFunction,Paste,Top*%
%TF.FilePolarity,Positive*%
%FSLAX46Y46*%
G04 Gerber Fmt 4.6, Leading zero omitted, Abs format (unit mm)*
G04 Created by KiCad (PCBNEW 10.0.5) date 2026-09-29 08:59:13*
%MOMM*%
%LPD*%
G01*
G04 APERTURE LIST*
G04 Aperture macros list*
%AMRoundRect*
0 Rectangle with rounded corners*
0 $1 Rounding radius*
0 $2 $3 $4 $5 $6 $7 $8 $9 X,Y pos of 4 corners*
0 Add a 4 corners polygon primitive as box body*
4,1,4,$2,$3,$4,$5,$6,$7,$8,$9,$2,$3,0*
0 Add four circle primitives for the rounded corners*
1,1,$1+$1,$2,$3*
1,1,$1+$1,$4,$5*
1,1,$1+$1,$6,$7*
1,1,$1+$1,$8,$9*
0 Add four rect primitives between the rounded corners*
20,1,$1+$1,$2,$3,$4,$5,0*
20,1,$1+$1,$4,$5,$6,$7,0*
20,1,$1+$1,$6,$7,$8,$9,0*
20,1,$1+$1,$8,$9,$2,$3,0*%
G04 Aperture macros list end*
%ADD10RoundRect,0.250000X-1.000000X1.950000X-1.000000X-1.950000X1.000000X-1.950000X1.000000X1.950000X0*%
%ADD11RoundRect,0.150000X-0.150000X-0.500000X0.150000X-0.500000X0.150000X0.500000X-0.150000X0.500000X0*%
%ADD12RoundRect,0.075000X-0.075000X-0.575000X0.075000X-0.575000X0.075000X0.575000X-0.075000X0.575000X0*%
%ADD13RoundRect,0.250000X0.450000X-0.325000X0.450000X0.325000X-0.450000X0.325000X-0.450000X-0.325000X0*%
%ADD14R,1.100000X0.510000*%
%ADD15RoundRect,0.237500X0.237500X-0.250000X0.237500X0.250000X-0.237500X0.250000X-0.237500X-0.250000X0*%
%ADD16RoundRect,0.150000X-0.700000X0.150000X-0.700000X-0.150000X0.700000X-0.150000X0.700000X0.150000X0*%
%ADD17RoundRect,0.250000X-1.150000X0.250000X-1.150000X-0.250000X1.150000X-0.250000X1.150000X0.250000X0*%
%ADD18RoundRect,0.250000X-0.450000X0.325000X-0.450000X-0.325000X0.450000X-0.325000X0.450000X0.325000X0*%
%ADD19RoundRect,0.150000X0.587500X0.150000X-0.587500X0.150000X-0.587500X-0.150000X0.587500X-0.150000X0*%
%ADD20R,5.400000X2.900000*%
%ADD21RoundRect,0.237500X-0.237500X0.250000X-0.237500X-0.250000X0.237500X-0.250000X0.237500X0.250000X0*%
%ADD22R,1.400000X1.600000*%
%ADD23RoundRect,0.237500X-0.250000X-0.237500X0.250000X-0.237500X0.250000X0.237500X-0.250000X0.237500X0*%
%ADD24RoundRect,0.250000X0.650000X-0.325000X0.650000X0.325000X-0.650000X0.325000X-0.650000X-0.325000X0*%
%ADD25RoundRect,0.237500X0.250000X0.237500X-0.250000X0.237500X-0.250000X-0.237500X0.250000X-0.237500X0*%
%ADD26RoundRect,0.250000X-0.325000X-0.450000X0.325000X-0.450000X0.325000X0.450000X-0.325000X0.450000X0*%
%ADD27R,0.510000X1.100000*%
%ADD28RoundRect,0.250000X0.325000X0.450000X-0.325000X0.450000X-0.325000X-0.450000X0.325000X-0.450000X0*%
%ADD29RoundRect,0.150000X-0.150000X0.512500X-0.150000X-0.512500X0.150000X-0.512500X0.150000X0.512500X0*%
%ADD30R,0.900000X0.900000*%
%ADD31R,1.500000X0.900000*%
%ADD32R,0.900000X1.500000*%
%ADD33RoundRect,0.150000X0.700000X-0.150000X0.700000X0.150000X-0.700000X0.150000X-0.700000X-0.150000X0*%
%ADD34RoundRect,0.250000X1.150000X-0.250000X1.150000X0.250000X-1.150000X0.250000X-1.150000X-0.250000X0*%
%ADD35RoundRect,0.250000X-0.650000X0.325000X-0.650000X-0.325000X0.650000X-0.325000X0.650000X0.325000X0*%
G04 APERTURE END LIST*
D10*
%TO.C,C5*%
X92925000Y-76750000D03*
X92925000Y-85150000D03*
%TD*%
D11*
%TO.C,J9*%
X87300000Y-96755000D03*
X88100000Y-96755000D03*
D12*
X89250000Y-96755001D03*
X90250000Y-96755000D03*
X90750000Y-96755000D03*
X91750000Y-96755001D03*
D11*
X92900000Y-96755000D03*
X93700000Y-96755000D03*
X93700000Y-96755000D03*
X92900000Y-96755000D03*
D12*
X92250000Y-96755000D03*
X91250000Y-96755000D03*
X89750000Y-96755000D03*
X88750000Y-96755000D03*
D11*
X88100000Y-96755000D03*
X87300000Y-96755000D03*
%TD*%
D13*
%TO.C,D36*%
X99625000Y-77274999D03*
X99625000Y-75225001D03*
%TD*%
D14*
%TO.C,BL2*%
X118025000Y-63250000D03*
X118025000Y-62250000D03*
X118025000Y-61250000D03*
X118025000Y-60250000D03*
X118025000Y-59250000D03*
X112925000Y-59250000D03*
X112925000Y-60250000D03*
X112925000Y-61250000D03*
X112925000Y-62250000D03*
X112925000Y-63250000D03*
%TD*%
D15*
%TO.C,C72*%
X119787429Y-61095228D03*
X119787429Y-59270228D03*
%TD*%
D16*
%TO.C,MAX_98357*%
X101275000Y-94450000D03*
X101275000Y-95700000D03*
X101275000Y-96950000D03*
X101275000Y-98200000D03*
X101275000Y-99450000D03*
X101275000Y-100700000D03*
X101275000Y-101950000D03*
D17*
X104625000Y-92600001D03*
X104625000Y-103799999D03*
%TD*%
D15*
%TO.C,C69*%
X134200000Y-60987500D03*
X134200000Y-59162500D03*
%TD*%
D18*
%TO.C,D38*%
X97006361Y-101741614D03*
X97006361Y-103791612D03*
%TD*%
D19*
%TO.C,Q1*%
X53437500Y-103450000D03*
X53437500Y-101550000D03*
X51562499Y-102500000D03*
%TD*%
D20*
%TO.C,L2*%
X61675000Y-56249999D03*
X61675000Y-66150001D03*
%TD*%
D21*
%TO.C,C67*%
X140275000Y-59187500D03*
X140275000Y-61012500D03*
%TD*%
%TO.C,R59*%
X107396652Y-59180967D03*
X107396652Y-61005967D03*
%TD*%
D22*
%TO.C,EN1*%
X61000000Y-75400000D03*
X61000000Y-82600000D03*
X58000000Y-75400000D03*
X58000000Y-82600000D03*
%TD*%
D23*
%TO.C,C60*%
X81476768Y-83014139D03*
X83301768Y-83014139D03*
%TD*%
D24*
%TO.C,C3*%
X85735992Y-78375243D03*
X85735992Y-75425243D03*
%TD*%
D25*
%TO.C,R77*%
X86579686Y-85660949D03*
X84754686Y-85660949D03*
%TD*%
D21*
%TO.C,C76*%
X110511524Y-59185034D03*
X110511524Y-61010034D03*
%TD*%
%TO.C,C58*%
X81550000Y-75225000D03*
X81550000Y-77050000D03*
%TD*%
%TO.C,R56*%
X122800000Y-59262500D03*
X122800000Y-61087500D03*
%TD*%
%TO.C,C73*%
X125850000Y-59287500D03*
X125850000Y-61112500D03*
%TD*%
D16*
%TO.C,INMP_441*%
X101275000Y-82400000D03*
X101275000Y-83650000D03*
X101275000Y-84900000D03*
X101275000Y-86150000D03*
X101275000Y-87400000D03*
X101275000Y-88650000D03*
D17*
X104625000Y-80550000D03*
X104625000Y-90500000D03*
%TD*%
D26*
%TO.C,D32*%
X88475001Y-87500000D03*
X90524999Y-87500000D03*
%TD*%
D21*
%TO.C,C71*%
X124310750Y-59270228D03*
X124310750Y-61095228D03*
%TD*%
D15*
%TO.C,R38*%
X55232169Y-103426432D03*
X55232169Y-101601432D03*
%TD*%
D21*
%TO.C,R53*%
X137200000Y-59162500D03*
X137200000Y-60987500D03*
%TD*%
%TO.C,C57*%
X83050000Y-75225000D03*
X83050000Y-77050000D03*
%TD*%
%TO.C,R60*%
X105896652Y-59180967D03*
X105896652Y-61005967D03*
%TD*%
D27*
%TO.C,BL3*%
X108404041Y-62725000D03*
X107404041Y-62725000D03*
X106404041Y-62725000D03*
X105404041Y-62725000D03*
X104404041Y-62725000D03*
X104404041Y-67825000D03*
X105404041Y-67825000D03*
X106404041Y-67825000D03*
X107404041Y-67825000D03*
X108404041Y-67825000D03*
%TD*%
D14*
%TO.C,BL1*%
X132575000Y-63304041D03*
X132575000Y-62304041D03*
X132575000Y-61304041D03*
X132575000Y-60304041D03*
X132575000Y-59304041D03*
X127475000Y-59304041D03*
X127475000Y-60304041D03*
X127475000Y-61304041D03*
X127475000Y-62304041D03*
X127475000Y-63304041D03*
%TD*%
D21*
%TO.C,C70*%
X138700000Y-59162500D03*
X138700000Y-60987500D03*
%TD*%
D22*
%TO.C,BUT2*%
X73500000Y-75400000D03*
X73500000Y-82600000D03*
X70500000Y-75400000D03*
X70500000Y-82600000D03*
%TD*%
D21*
%TO.C,R57*%
X121300000Y-59262500D03*
X121300000Y-61087500D03*
%TD*%
D15*
%TO.C,C75*%
X104391126Y-60987726D03*
X104391126Y-59162726D03*
%TD*%
D22*
%TO.C,BOOT1*%
X67500000Y-75400000D03*
X67500000Y-82600000D03*
X64500000Y-75400000D03*
X64500000Y-82600000D03*
%TD*%
D28*
%TO.C,D33*%
X60024999Y-91500000D03*
X57975001Y-91500000D03*
%TD*%
D29*
%TO.C,U2*%
X83500000Y-79000000D03*
X82550000Y-79000000D03*
X81600000Y-79000000D03*
X81600000Y-81275000D03*
X83500000Y-81275000D03*
%TD*%
D21*
%TO.C,R54*%
X135700000Y-59162500D03*
X135700000Y-60987500D03*
%TD*%
%TO.C,C74*%
X108900000Y-59187500D03*
X108900000Y-61012500D03*
%TD*%
D22*
%TO.C,BUT1*%
X79500000Y-75400000D03*
X79500000Y-82600000D03*
X76500000Y-75400000D03*
X76500000Y-82600000D03*
%TD*%
D30*
%TO.C,U1*%
X76269394Y-94290000D03*
X76265000Y-97090000D03*
X76265000Y-95690000D03*
X74869394Y-94290000D03*
X74865000Y-97090000D03*
X74865000Y-95690000D03*
X73469394Y-94290000D03*
X73465000Y-97090000D03*
X73465000Y-95690000D03*
D31*
X82115000Y-103410000D03*
X82115000Y-102140000D03*
X82115000Y-100870000D03*
X82115000Y-99600000D03*
X82115000Y-98330000D03*
X82115000Y-97060000D03*
X82115000Y-95790000D03*
X82115000Y-94520000D03*
X82115000Y-93250000D03*
X82115000Y-91980000D03*
X82115000Y-90710000D03*
X82115000Y-89440000D03*
X82115000Y-88170000D03*
X82115000Y-86900000D03*
D32*
X80350000Y-85650000D03*
X79080000Y-85650000D03*
X77810000Y-85650000D03*
X76540000Y-85650000D03*
X75270000Y-85650000D03*
X74000000Y-85650000D03*
X72730000Y-85650000D03*
X71460000Y-85650000D03*
X70190000Y-85650000D03*
X68920000Y-85650000D03*
X67650000Y-85650000D03*
X66380000Y-85650000D03*
D31*
X64615000Y-86900000D03*
X64615000Y-88170000D03*
X64615000Y-89440000D03*
X64615000Y-90710000D03*
X64615000Y-91980000D03*
X64615000Y-93250000D03*
X64615000Y-94520000D03*
X64615000Y-95790000D03*
X64615000Y-97060000D03*
X64615000Y-98330000D03*
X64615000Y-99600000D03*
X64615000Y-100870000D03*
X64615000Y-102140000D03*
X64615000Y-103410000D03*
%TD*%
D25*
%TO.C,R78*%
X59912500Y-89500000D03*
X58087500Y-89500000D03*
%TD*%
D15*
%TO.C,R41*%
X98900000Y-100062500D03*
X98900000Y-98237500D03*
%TD*%
D33*
%TO.C,I2C1*%
X55474677Y-93159366D03*
X55474677Y-91909366D03*
X55474677Y-90659366D03*
X55474677Y-89409366D03*
D34*
X52124677Y-95009366D03*
X52124677Y-87559366D03*
%TD*%
D35*
%TO.C,C6*%
X85732538Y-80068099D03*
X85732538Y-83018101D03*
%TD*%
M02*
