%TF.GenerationSoftware,KiCad,Pcbnew,10.0.5*%
%TF.CreationDate,2026-09-29T08:59:14+07:00*%
%TF.ProjectId,IoT_Board_V2,496f545f-426f-4617-9264-5f56322e6b69,rev?*%
%TF.SameCoordinates,Original*%
%TF.FileFunction,Soldermask,Bot*%
%TF.FilePolarity,Negative*%
%FSLAX46Y46*%
G04 Gerber Fmt 4.6, Leading zero omitted, Abs format (unit mm)*
G04 Created by KiCad (PCBNEW 10.0.5) date 2026-09-29 08:59:14*
%MOMM*%
%LPD*%
G01*
G04 APERTURE LIST*
G04 Aperture macros list*
%AMRoundRect*
0 Rectangle with rounded corners*
0 $1 Rounding radius*
0 $2 $3 $4 $5 $6 $7 $8 $9 X,Y pos of 4 corners*
0 Add a 4 corners polygon primitive as box body*
4,1,4,$2,$3,$4,$5,$6,$7,$8,$9,$2,$3,0*
0 Add four circle primitives for the rounded corners*
1,1,$1+$1,$2,$3*
1,1,$1+$1,$4,$5*
1,1,$1+$1,$6,$7*
1,1,$1+$1,$8,$9*
0 Add four rect primitives between the rounded corners*
20,1,$1+$1,$2,$3,$4,$5,0*
20,1,$1+$1,$4,$5,$6,$7,0*
20,1,$1+$1,$6,$7,$8,$9,0*
20,1,$1+$1,$8,$9,$2,$3,0*%
G04 Aperture macros list end*
%ADD10C,2.000000*%
%ADD11C,0.650000*%
%ADD12O,1.000000X2.100000*%
%ADD13O,1.000000X1.600000*%
%ADD14RoundRect,0.190500X-0.444500X-0.444500X0.444500X-0.444500X0.444500X0.444500X-0.444500X0.444500X0*%
%ADD15C,2.500000*%
%ADD16R,1.700000X1.700000*%
%ADD17C,1.700000*%
%ADD18RoundRect,0.250000X-0.750000X-0.750000X0.750000X-0.750000X0.750000X0.750000X-0.750000X0.750000X0*%
%ADD19R,1.800000X1.800000*%
%ADD20C,1.800000*%
%ADD21RoundRect,0.300000X-0.700000X0.700000X-0.700000X-0.700000X0.700000X-0.700000X0.700000X0.700000X0*%
%ADD22C,3.660000*%
%ADD23C,1.600000*%
%ADD24RoundRect,0.300000X-0.700000X-0.700000X0.700000X-0.700000X0.700000X0.700000X-0.700000X0.700000X0*%
%ADD25C,2.200000*%
%ADD26RoundRect,0.150000X-0.587500X-0.150000X0.587500X-0.150000X0.587500X0.150000X-0.587500X0.150000X0*%
%ADD27RoundRect,0.237500X0.237500X-0.250000X0.237500X0.250000X-0.237500X0.250000X-0.237500X-0.250000X0*%
%ADD28RoundRect,0.237500X0.250000X0.237500X-0.250000X0.237500X-0.250000X-0.237500X0.250000X-0.237500X0*%
%ADD29RoundRect,0.237500X-0.237500X0.250000X-0.237500X-0.250000X0.237500X-0.250000X0.237500X0.250000X0*%
%ADD30RoundRect,0.237500X-0.250000X-0.237500X0.250000X-0.237500X0.250000X0.237500X-0.250000X0.237500X0*%
%ADD31RoundRect,0.250000X0.350000X0.450000X-0.350000X0.450000X-0.350000X-0.450000X0.350000X-0.450000X0*%
G04 APERTURE END LIST*
D10*
%TO.C,C81*%
X88925000Y-52975000D03*
X96425000Y-52975000D03*
%TD*%
D11*
%TO.C,J9*%
X87610000Y-97895000D03*
X93390000Y-97895000D03*
D12*
X86180000Y-97395000D03*
D13*
X86180000Y-101575000D03*
D12*
X94820000Y-97395000D03*
D13*
X94820000Y-101575000D03*
%TD*%
D14*
%TO.C,L1*%
X130450000Y-51925000D03*
X142450000Y-51925000D03*
%TD*%
D15*
%TO.C,OUT2*%
X137910000Y-81262500D03*
X142990000Y-81262500D03*
X137910000Y-89262500D03*
X142990000Y-89262500D03*
%TD*%
D14*
%TO.C,L4*%
X100050000Y-51975000D03*
X112050000Y-51975000D03*
%TD*%
D16*
%TO.C,UART1*%
X61500000Y-102810000D03*
D17*
X61500000Y-100270000D03*
X61500000Y-97730001D03*
X61500000Y-95190000D03*
%TD*%
D15*
%TO.C,OUT1*%
X137910000Y-67725000D03*
X142990000Y-67725000D03*
X137910000Y-75725000D03*
X142990000Y-75725000D03*
%TD*%
D18*
%TO.C,C4*%
X79307323Y-55650000D03*
D10*
X84307323Y-55650000D03*
%TD*%
D14*
%TO.C,L3*%
X115225000Y-51975000D03*
X127225000Y-51975000D03*
%TD*%
D10*
%TO.C,U4*%
X113200000Y-86125000D03*
X113200000Y-82375000D03*
X113200000Y-89875000D03*
X130700000Y-82375000D03*
X134200000Y-89875000D03*
%TD*%
D19*
%TO.C,D1*%
X51950991Y-98373051D03*
D20*
X54490991Y-98373051D03*
%TD*%
D21*
%TO.C,J3*%
X57465000Y-70275000D03*
X52385000Y-70275000D03*
%TD*%
D22*
%TO.C,PS1*%
X76708247Y-64592167D03*
X80708247Y-64592167D03*
X84708247Y-64592167D03*
X88708247Y-64592167D03*
X96708247Y-64592167D03*
X100708247Y-64592167D03*
%TD*%
D23*
%TO.C,R1*%
X62950000Y-52250000D03*
X75650000Y-52250000D03*
%TD*%
D15*
%TO.C,OUT3*%
X137835000Y-94800000D03*
X142915000Y-94800000D03*
X137835000Y-102800000D03*
X142915000Y-102800000D03*
%TD*%
D16*
%TO.C,J1*%
X57777731Y-102793548D03*
D17*
X57777731Y-100253548D03*
X57777731Y-97713549D03*
%TD*%
D10*
%TO.C,U3*%
X113200000Y-71575000D03*
X113200000Y-67825000D03*
X113200000Y-75325000D03*
X130700000Y-67825000D03*
X134200000Y-75325000D03*
%TD*%
%TO.C,C80*%
X88900000Y-58525000D03*
X96400000Y-58525000D03*
%TD*%
%TO.C,U5*%
X113200000Y-99700000D03*
X113200000Y-95950000D03*
X113200000Y-103450000D03*
X130700000Y-95950000D03*
X134200000Y-103450000D03*
%TD*%
D24*
%TO.C,J2*%
X52525000Y-57610000D03*
X52525000Y-62690000D03*
%TD*%
D25*
%TO.C,C68*%
X71025000Y-55850000D03*
X71025000Y-70850000D03*
%TD*%
D26*
%TO.C,Q9*%
X108554368Y-98125000D03*
X108554368Y-96225000D03*
X110429369Y-97175000D03*
%TD*%
D27*
%TO.C,R40*%
X51500000Y-103412500D03*
X51500000Y-101587500D03*
%TD*%
D28*
%TO.C,R36*%
X58677211Y-95097525D03*
X56852211Y-95097525D03*
%TD*%
D29*
%TO.C,C52*%
X55232169Y-101601432D03*
X55232169Y-103426432D03*
%TD*%
D30*
%TO.C,R28*%
X104701317Y-72378369D03*
X106526317Y-72378369D03*
%TD*%
%TO.C,R61*%
X104712500Y-100100000D03*
X106537500Y-100100000D03*
%TD*%
%TO.C,C65*%
X73866344Y-100646436D03*
X75691344Y-100646436D03*
%TD*%
D26*
%TO.C,Q6*%
X108587500Y-89400000D03*
X108587500Y-87500000D03*
X110462501Y-88450000D03*
%TD*%
D30*
%TO.C,R31*%
X104711026Y-74926503D03*
X106536026Y-74926503D03*
%TD*%
%TO.C,R44*%
X77731599Y-77448848D03*
X79556599Y-77448848D03*
%TD*%
%TO.C,R47*%
X104862500Y-83775000D03*
X106687500Y-83775000D03*
%TD*%
%TO.C,R49*%
X104862500Y-85675000D03*
X106687500Y-85675000D03*
%TD*%
D28*
%TO.C,R35*%
X53226383Y-90542387D03*
X51401383Y-90542387D03*
%TD*%
D30*
%TO.C,C61*%
X59172211Y-80500000D03*
X60997211Y-80500000D03*
%TD*%
D26*
%TO.C,Q7*%
X108587500Y-85675000D03*
X108587500Y-83775000D03*
X110462501Y-84725000D03*
%TD*%
D30*
%TO.C,R62*%
X104641868Y-98125000D03*
X106466868Y-98125000D03*
%TD*%
D29*
%TO.C,R45*%
X88775000Y-98212500D03*
X88775000Y-100037500D03*
%TD*%
D30*
%TO.C,R43*%
X65683050Y-77481625D03*
X67508050Y-77481625D03*
%TD*%
%TO.C,R33*%
X104862500Y-89375000D03*
X106687500Y-89375000D03*
%TD*%
D26*
%TO.C,Q5*%
X108437500Y-72375000D03*
X108437500Y-70475000D03*
X110312501Y-71425000D03*
%TD*%
D28*
%TO.C,R58*%
X107212500Y-57425000D03*
X105387500Y-57425000D03*
%TD*%
D30*
%TO.C,R48*%
X104837500Y-87525000D03*
X106662500Y-87525000D03*
%TD*%
%TO.C,C62*%
X65698853Y-80515803D03*
X67523853Y-80515803D03*
%TD*%
%TO.C,R72*%
X71686584Y-77475153D03*
X73511584Y-77475153D03*
%TD*%
D26*
%TO.C,Q4*%
X108437500Y-76825000D03*
X108437500Y-74925000D03*
X110312501Y-75875000D03*
%TD*%
D31*
%TO.C,C51*%
X68850000Y-102700000D03*
X66850000Y-102700000D03*
%TD*%
D30*
%TO.C,C66*%
X71700516Y-80540237D03*
X73525516Y-80540237D03*
%TD*%
D27*
%TO.C,R81*%
X99625000Y-77162500D03*
X99625000Y-75337500D03*
%TD*%
D29*
%TO.C,R39*%
X53500000Y-101587500D03*
X53500000Y-103412500D03*
%TD*%
D28*
%TO.C,R37*%
X58677941Y-93503118D03*
X56852941Y-93503118D03*
%TD*%
D30*
%TO.C,C64*%
X77731599Y-80562694D03*
X79556599Y-80562694D03*
%TD*%
D28*
%TO.C,R52*%
X137337500Y-57275000D03*
X135512500Y-57275000D03*
%TD*%
D30*
%TO.C,R51*%
X104641867Y-96125000D03*
X106466867Y-96125000D03*
%TD*%
%TO.C,R27*%
X104696234Y-76827346D03*
X106521234Y-76827346D03*
%TD*%
D26*
%TO.C,Q8*%
X108554368Y-102050000D03*
X108554368Y-100150000D03*
X110429369Y-101100000D03*
%TD*%
D28*
%TO.C,R34*%
X53226383Y-92051202D03*
X51401383Y-92051202D03*
%TD*%
%TO.C,R55*%
X122912500Y-57375000D03*
X121087500Y-57375000D03*
%TD*%
D29*
%TO.C,R46*%
X92275000Y-98212500D03*
X92275000Y-100037500D03*
%TD*%
D30*
%TO.C,R42*%
X59172211Y-77500000D03*
X60997211Y-77500000D03*
%TD*%
%TO.C,R50*%
X104712501Y-102045001D03*
X106537501Y-102045001D03*
%TD*%
%TO.C,R32*%
X104701317Y-70470130D03*
X106526317Y-70470130D03*
%TD*%
%TO.C,C63*%
X73866344Y-102146436D03*
X75691344Y-102146436D03*
%TD*%
D29*
%TO.C,R83*%
X96625000Y-100812500D03*
X96625000Y-102637500D03*
%TD*%
M02*
