M48
; DRILL file KiCad 10.0.5 date 2026-08-05T15:45:16
; FORMAT={-:-/ absolute / metric / decimal}
; #@! TF.CreationDate,2026-08-05T15:45:16+07:00
; #@! TF.GenerationSoftware,Kicad,Pcbnew,10.0.5
; #@! TF.FileFunction,Plated,1,2,PTH
FMAT,2
METRIC
; #@! TA.AperFunction,Plated,PTH,ViaDrill
T1C0.300
; #@! TA.AperFunction,Plated,PTH,ComponentDrill
T2C0.300
; #@! TA.AperFunction,Plated,PTH,ComponentDrill
T3C0.800
; #@! TA.AperFunction,Plated,PTH,ComponentDrill
T4C1.000
; #@! TA.AperFunction,Plated,PTH,ComponentDrill
T5C1.200
; #@! TA.AperFunction,Plated,PTH,ComponentDrill
T6C1.300
%
G90
G05
T1
X205.5Y-104.15
X205.5Y-104.8
X205.5Y-107.5
X205.5Y-108.25
X205.55Y-126.0
X206.1Y-87.2
X206.1Y-88.05
X206.1Y-90.95
X206.1Y-91.85
X206.2Y-117.0
X206.2Y-117.75
X206.225Y-114.325
X206.65Y-123.65
X206.65Y-123.7
X206.825Y-113.75
X207.25Y-65.6
X207.25Y-66.55
X207.25Y-69.35
X207.25Y-70.2
X210.35Y-44.4
X210.75Y-62.3
X212.25Y-62.15
X213.45Y-59.85
X213.9Y-63.25
X214.55Y-44.45
X219.4Y-53.45
X219.55Y-112.55
X219.55Y-113.35
X219.55Y-114.2
X219.8Y-93.1
X220.275Y-103.5
X221.85Y-131.5
X221.85Y-132.45
X221.85Y-133.35
X223.0Y-69.4
X223.75Y-54.3
X223.85Y-82.45
X224.2Y-52.15
X224.9Y-79.95
X224.9Y-102.25
X224.95Y-123.55
X226.2Y-59.05
X226.2Y-62.025
X226.25Y-52.75
X227.225Y-107.75
X227.23Y-117.091
X227.25Y-77.15
X227.275Y-87.15
X227.325Y-101.35
X227.9Y-94.35
X228.85Y-50.4
X228.85Y-51.2
X228.85Y-53.85
X228.85Y-54.65
X231.1Y-95.55
X235.7Y-58.25
X236.05Y-66.95
X236.15Y-60.05
X236.2Y-111.55
X236.25Y-65.8
X236.4Y-51.2
X237.25Y-62.5
X237.35Y-65.2
X237.45Y-66.6
X238.847Y-60.624
X238.9Y-61.95
X239.05Y-112.2
X239.7Y-61.3
X239.75Y-119.15
X239.85Y-114.55
X240.1Y-106.2
X240.3Y-65.95
X240.65Y-102.7
X240.65Y-111.7
X241.15Y-111.15
X241.35Y-116.35
X241.4Y-104.15
X241.7Y-114.35
X241.75Y-115.95
X241.95Y-116.55
X242.35Y-64.5
X242.8Y-65.2
X243.95Y-119.9
X244.3Y-108.75
X245.55Y-108.75
X246.1Y-85.75
X246.9Y-112.25
X248.1Y-64.45
X248.45Y-85.75
X248.55Y-54.4
X248.6Y-57.05
X248.6Y-109.55
X249.05Y-103.15
X249.2Y-54.4
X249.2Y-57.05
X249.6Y-109.5
X249.65Y-120.8
X249.85Y-54.4
X249.85Y-57.05
X250.0Y-86.3
X250.1Y-125.05
X250.6Y-109.5
X252.2Y-64.7
X252.25Y-40.5
X253.35Y-112.3
X254.25Y-90.55
X254.25Y-91.55
X254.25Y-92.6
X254.25Y-93.5
X255.15Y-93.5
X255.75Y-67.6
X256.2Y-74.6
X256.4Y-67.6
X256.4Y-93.5
X256.6Y-78.2
X257.4Y-93.5
X258.25Y-93.5
T2
X237.1Y-70.9
X238.3Y-70.9
T3
X203.7Y-40.0
X203.7Y-52.0
X203.7Y-56.5
X203.7Y-68.5
X203.7Y-73.0
X203.7Y-85.0
X203.7Y-89.5
X203.7Y-101.5
X203.7Y-106.0
X203.7Y-118.0
X203.7Y-122.5
X203.7Y-134.5
T4
X170.25Y-41.5
X170.25Y-58.0
X170.25Y-75.0
X170.25Y-91.0
X170.25Y-107.5
X170.25Y-124.0
X177.75Y-41.5
X177.75Y-58.0
X177.75Y-75.0
X177.75Y-91.0
X177.75Y-107.5
X177.75Y-124.0
X209.35Y-48.44
X209.35Y-50.98
X209.35Y-53.52
X209.35Y-56.06
X209.736Y-70.14
X209.736Y-72.68
X209.736Y-75.22
X209.736Y-77.76
X209.85Y-93.39
X209.85Y-95.93
X209.85Y-98.47
X209.85Y-101.01
X209.95Y-117.4
X209.95Y-119.94
X209.95Y-122.48
X209.95Y-125.02
X232.406Y-118.644
X234.202Y-116.848
X234.69Y-133.15
X234.74Y-129.05
X235.998Y-115.052
X237.23Y-133.15
X237.28Y-129.05
X237.794Y-113.256
X239.77Y-133.15
X239.82Y-129.05
X240.109Y-40.659
X240.135Y-44.875
X242.31Y-133.15
X242.36Y-129.05
X242.649Y-40.659
X242.675Y-44.875
X244.8Y-61.05
X244.8Y-66.05
X247.755Y-44.875
X251.332Y-102.932
X252.835Y-44.875
X254.868Y-106.468
T5
X169.88Y-85.0
X169.95Y-52.5
X169.95Y-68.0
X169.95Y-101.0
X169.95Y-117.5
X169.95Y-134.0
X185.12Y-85.0
X185.19Y-52.5
X185.19Y-68.0
X185.19Y-101.0
X185.19Y-117.5
X185.19Y-134.0
X191.5Y-40.0
X191.5Y-52.0
X191.5Y-56.5
X191.5Y-68.5
X191.5Y-73.0
X191.5Y-85.0
X191.5Y-89.5
X191.5Y-101.5
X191.5Y-106.0
X191.5Y-118.0
X191.5Y-122.5
X191.5Y-134.5
T6
X164.81Y-42.69
X164.81Y-50.31
X164.81Y-59.19
X164.81Y-66.81
X164.81Y-75.69
X164.81Y-83.31
X164.81Y-92.19
X164.81Y-99.81
X164.81Y-108.69
X164.81Y-116.31
X164.81Y-125.19
X164.81Y-132.81
X205.7Y-45.88
X205.7Y-62.38
X205.7Y-78.88
X205.7Y-95.38
X205.7Y-111.88
X205.7Y-128.38
M30
