%TF.GenerationSoftware,KiCad,Pcbnew,10.0.5*%
%TF.CreationDate,2026-08-05T15:45:12+07:00*%
%TF.ProjectId,extned_board,6578746e-6564-45f6-926f-6172642e6b69,rev?*%
%TF.SameCoordinates,Original*%
%TF.FileFunction,Legend,Bot*%
%TF.FilePolarity,Positive*%
%FSLAX46Y46*%
G04 Gerber Fmt 4.6, Leading zero omitted, Abs format (unit mm)*
G04 Created by KiCad (PCBNEW 10.0.5) date 2026-08-05 15:45:12*
%MOMM*%
%LPD*%
G01*
G04 APERTURE LIST*
%ADD10C,0.300000*%
%ADD11C,0.200000*%
%ADD12C,0.125000*%
%ADD13C,0.152400*%
%ADD14C,0.120000*%
G04 APERTURE END LIST*
D10*
X242719600Y-95914417D02*
X242648171Y-95700132D01*
X242648171Y-95700132D02*
X242648171Y-95342989D01*
X242648171Y-95342989D02*
X242719600Y-95200132D01*
X242719600Y-95200132D02*
X242791028Y-95128703D01*
X242791028Y-95128703D02*
X242933885Y-95057274D01*
X242933885Y-95057274D02*
X243076742Y-95057274D01*
X243076742Y-95057274D02*
X243219600Y-95128703D01*
X243219600Y-95128703D02*
X243291028Y-95200132D01*
X243291028Y-95200132D02*
X243362457Y-95342989D01*
X243362457Y-95342989D02*
X243433885Y-95628703D01*
X243433885Y-95628703D02*
X243505314Y-95771560D01*
X243505314Y-95771560D02*
X243576742Y-95842989D01*
X243576742Y-95842989D02*
X243719600Y-95914417D01*
X243719600Y-95914417D02*
X243862457Y-95914417D01*
X243862457Y-95914417D02*
X244005314Y-95842989D01*
X244005314Y-95842989D02*
X244076742Y-95771560D01*
X244076742Y-95771560D02*
X244148171Y-95628703D01*
X244148171Y-95628703D02*
X244148171Y-95271560D01*
X244148171Y-95271560D02*
X244076742Y-95057274D01*
X242648171Y-94414418D02*
X244148171Y-94414418D01*
X242791028Y-92842989D02*
X242719600Y-92914417D01*
X242719600Y-92914417D02*
X242648171Y-93128703D01*
X242648171Y-93128703D02*
X242648171Y-93271560D01*
X242648171Y-93271560D02*
X242719600Y-93485846D01*
X242719600Y-93485846D02*
X242862457Y-93628703D01*
X242862457Y-93628703D02*
X243005314Y-93700132D01*
X243005314Y-93700132D02*
X243291028Y-93771560D01*
X243291028Y-93771560D02*
X243505314Y-93771560D01*
X243505314Y-93771560D02*
X243791028Y-93700132D01*
X243791028Y-93700132D02*
X243933885Y-93628703D01*
X243933885Y-93628703D02*
X244076742Y-93485846D01*
X244076742Y-93485846D02*
X244148171Y-93271560D01*
X244148171Y-93271560D02*
X244148171Y-93128703D01*
X244148171Y-93128703D02*
X244076742Y-92914417D01*
X244076742Y-92914417D02*
X244005314Y-92842989D01*
X243433885Y-91057275D02*
X243433885Y-90557275D01*
X242648171Y-90342989D02*
X242648171Y-91057275D01*
X242648171Y-91057275D02*
X244148171Y-91057275D01*
X244148171Y-91057275D02*
X244148171Y-90342989D01*
X244148171Y-89842989D02*
X242648171Y-88842989D01*
X244148171Y-88842989D02*
X242648171Y-89842989D01*
X244148171Y-88485846D02*
X244148171Y-87628704D01*
X242648171Y-88057275D02*
X244148171Y-88057275D01*
X243433885Y-87128704D02*
X243433885Y-86628704D01*
X242648171Y-86414418D02*
X242648171Y-87128704D01*
X242648171Y-87128704D02*
X244148171Y-87128704D01*
X244148171Y-87128704D02*
X244148171Y-86414418D01*
X242648171Y-85771561D02*
X244148171Y-85771561D01*
X244148171Y-85771561D02*
X242648171Y-84914418D01*
X242648171Y-84914418D02*
X244148171Y-84914418D01*
X242648171Y-84200132D02*
X244148171Y-84200132D01*
X244148171Y-84200132D02*
X244148171Y-83842989D01*
X244148171Y-83842989D02*
X244076742Y-83628703D01*
X244076742Y-83628703D02*
X243933885Y-83485846D01*
X243933885Y-83485846D02*
X243791028Y-83414417D01*
X243791028Y-83414417D02*
X243505314Y-83342989D01*
X243505314Y-83342989D02*
X243291028Y-83342989D01*
X243291028Y-83342989D02*
X243005314Y-83414417D01*
X243005314Y-83414417D02*
X242862457Y-83485846D01*
X242862457Y-83485846D02*
X242719600Y-83628703D01*
X242719600Y-83628703D02*
X242648171Y-83842989D01*
X242648171Y-83842989D02*
X242648171Y-84200132D01*
X243433885Y-82700132D02*
X243433885Y-82200132D01*
X242648171Y-81985846D02*
X242648171Y-82700132D01*
X242648171Y-82700132D02*
X244148171Y-82700132D01*
X244148171Y-82700132D02*
X244148171Y-81985846D01*
X242648171Y-81342989D02*
X244148171Y-81342989D01*
X244148171Y-81342989D02*
X244148171Y-80985846D01*
X244148171Y-80985846D02*
X244076742Y-80771560D01*
X244076742Y-80771560D02*
X243933885Y-80628703D01*
X243933885Y-80628703D02*
X243791028Y-80557274D01*
X243791028Y-80557274D02*
X243505314Y-80485846D01*
X243505314Y-80485846D02*
X243291028Y-80485846D01*
X243291028Y-80485846D02*
X243005314Y-80557274D01*
X243005314Y-80557274D02*
X242862457Y-80628703D01*
X242862457Y-80628703D02*
X242719600Y-80771560D01*
X242719600Y-80771560D02*
X242648171Y-80985846D01*
X242648171Y-80985846D02*
X242648171Y-81342989D01*
X243433885Y-78200132D02*
X243362457Y-77985846D01*
X243362457Y-77985846D02*
X243291028Y-77914417D01*
X243291028Y-77914417D02*
X243148171Y-77842989D01*
X243148171Y-77842989D02*
X242933885Y-77842989D01*
X242933885Y-77842989D02*
X242791028Y-77914417D01*
X242791028Y-77914417D02*
X242719600Y-77985846D01*
X242719600Y-77985846D02*
X242648171Y-78128703D01*
X242648171Y-78128703D02*
X242648171Y-78700132D01*
X242648171Y-78700132D02*
X244148171Y-78700132D01*
X244148171Y-78700132D02*
X244148171Y-78200132D01*
X244148171Y-78200132D02*
X244076742Y-78057275D01*
X244076742Y-78057275D02*
X244005314Y-77985846D01*
X244005314Y-77985846D02*
X243862457Y-77914417D01*
X243862457Y-77914417D02*
X243719600Y-77914417D01*
X243719600Y-77914417D02*
X243576742Y-77985846D01*
X243576742Y-77985846D02*
X243505314Y-78057275D01*
X243505314Y-78057275D02*
X243433885Y-78200132D01*
X243433885Y-78200132D02*
X243433885Y-78700132D01*
X244148171Y-76914417D02*
X244148171Y-76628703D01*
X244148171Y-76628703D02*
X244076742Y-76485846D01*
X244076742Y-76485846D02*
X243933885Y-76342989D01*
X243933885Y-76342989D02*
X243648171Y-76271560D01*
X243648171Y-76271560D02*
X243148171Y-76271560D01*
X243148171Y-76271560D02*
X242862457Y-76342989D01*
X242862457Y-76342989D02*
X242719600Y-76485846D01*
X242719600Y-76485846D02*
X242648171Y-76628703D01*
X242648171Y-76628703D02*
X242648171Y-76914417D01*
X242648171Y-76914417D02*
X242719600Y-77057275D01*
X242719600Y-77057275D02*
X242862457Y-77200132D01*
X242862457Y-77200132D02*
X243148171Y-77271560D01*
X243148171Y-77271560D02*
X243648171Y-77271560D01*
X243648171Y-77271560D02*
X243933885Y-77200132D01*
X243933885Y-77200132D02*
X244076742Y-77057275D01*
X244076742Y-77057275D02*
X244148171Y-76914417D01*
X243076742Y-75700131D02*
X243076742Y-74985846D01*
X242648171Y-75842988D02*
X244148171Y-75342988D01*
X244148171Y-75342988D02*
X242648171Y-74842988D01*
X242648171Y-73485846D02*
X243362457Y-73985846D01*
X242648171Y-74342989D02*
X244148171Y-74342989D01*
X244148171Y-74342989D02*
X244148171Y-73771560D01*
X244148171Y-73771560D02*
X244076742Y-73628703D01*
X244076742Y-73628703D02*
X244005314Y-73557274D01*
X244005314Y-73557274D02*
X243862457Y-73485846D01*
X243862457Y-73485846D02*
X243648171Y-73485846D01*
X243648171Y-73485846D02*
X243505314Y-73557274D01*
X243505314Y-73557274D02*
X243433885Y-73628703D01*
X243433885Y-73628703D02*
X243362457Y-73771560D01*
X243362457Y-73771560D02*
X243362457Y-74342989D01*
X242648171Y-72842989D02*
X244148171Y-72842989D01*
X244148171Y-72842989D02*
X244148171Y-72485846D01*
X244148171Y-72485846D02*
X244076742Y-72271560D01*
X244076742Y-72271560D02*
X243933885Y-72128703D01*
X243933885Y-72128703D02*
X243791028Y-72057274D01*
X243791028Y-72057274D02*
X243505314Y-71985846D01*
X243505314Y-71985846D02*
X243291028Y-71985846D01*
X243291028Y-71985846D02*
X243005314Y-72057274D01*
X243005314Y-72057274D02*
X242862457Y-72128703D01*
X242862457Y-72128703D02*
X242719600Y-72271560D01*
X242719600Y-72271560D02*
X242648171Y-72485846D01*
X242648171Y-72485846D02*
X242648171Y-72842989D01*
D11*
X240293500Y-70600000D02*
X245106500Y-70600000D01*
X245106500Y-97300000D01*
X240293500Y-97300000D01*
X240293500Y-70600000D01*
D12*
X227579249Y-55006119D02*
X227579249Y-55815642D01*
X227579249Y-55815642D02*
X227531630Y-55910880D01*
X227531630Y-55910880D02*
X227484011Y-55958500D01*
X227484011Y-55958500D02*
X227388773Y-56006119D01*
X227388773Y-56006119D02*
X227198297Y-56006119D01*
X227198297Y-56006119D02*
X227103059Y-55958500D01*
X227103059Y-55958500D02*
X227055440Y-55910880D01*
X227055440Y-55910880D02*
X227007821Y-55815642D01*
X227007821Y-55815642D02*
X227007821Y-55006119D01*
X226007821Y-56006119D02*
X226579249Y-56006119D01*
X226293535Y-56006119D02*
X226293535Y-55006119D01*
X226293535Y-55006119D02*
X226388773Y-55148976D01*
X226388773Y-55148976D02*
X226484011Y-55244214D01*
X226484011Y-55244214D02*
X226579249Y-55291833D01*
X225055440Y-56006119D02*
X225626868Y-56006119D01*
X225341154Y-56006119D02*
X225341154Y-55006119D01*
X225341154Y-55006119D02*
X225436392Y-55148976D01*
X225436392Y-55148976D02*
X225531630Y-55244214D01*
X225531630Y-55244214D02*
X225626868Y-55291833D01*
X214252380Y-132206119D02*
X213680952Y-132206119D01*
X213966666Y-132206119D02*
X213966666Y-131206119D01*
X213966666Y-131206119D02*
X213871428Y-131348976D01*
X213871428Y-131348976D02*
X213776190Y-131444214D01*
X213776190Y-131444214D02*
X213680952Y-131491833D01*
X214871428Y-131206119D02*
X214966666Y-131206119D01*
X214966666Y-131206119D02*
X215061904Y-131253738D01*
X215061904Y-131253738D02*
X215109523Y-131301357D01*
X215109523Y-131301357D02*
X215157142Y-131396595D01*
X215157142Y-131396595D02*
X215204761Y-131587071D01*
X215204761Y-131587071D02*
X215204761Y-131825166D01*
X215204761Y-131825166D02*
X215157142Y-132015642D01*
X215157142Y-132015642D02*
X215109523Y-132110880D01*
X215109523Y-132110880D02*
X215061904Y-132158500D01*
X215061904Y-132158500D02*
X214966666Y-132206119D01*
X214966666Y-132206119D02*
X214871428Y-132206119D01*
X214871428Y-132206119D02*
X214776190Y-132158500D01*
X214776190Y-132158500D02*
X214728571Y-132110880D01*
X214728571Y-132110880D02*
X214680952Y-132015642D01*
X214680952Y-132015642D02*
X214633333Y-131825166D01*
X214633333Y-131825166D02*
X214633333Y-131587071D01*
X214633333Y-131587071D02*
X214680952Y-131396595D01*
X214680952Y-131396595D02*
X214728571Y-131301357D01*
X214728571Y-131301357D02*
X214776190Y-131253738D01*
X214776190Y-131253738D02*
X214871428Y-131206119D01*
X215823809Y-131206119D02*
X215919047Y-131206119D01*
X215919047Y-131206119D02*
X216014285Y-131253738D01*
X216014285Y-131253738D02*
X216061904Y-131301357D01*
X216061904Y-131301357D02*
X216109523Y-131396595D01*
X216109523Y-131396595D02*
X216157142Y-131587071D01*
X216157142Y-131587071D02*
X216157142Y-131825166D01*
X216157142Y-131825166D02*
X216109523Y-132015642D01*
X216109523Y-132015642D02*
X216061904Y-132110880D01*
X216061904Y-132110880D02*
X216014285Y-132158500D01*
X216014285Y-132158500D02*
X215919047Y-132206119D01*
X215919047Y-132206119D02*
X215823809Y-132206119D01*
X215823809Y-132206119D02*
X215728571Y-132158500D01*
X215728571Y-132158500D02*
X215680952Y-132110880D01*
X215680952Y-132110880D02*
X215633333Y-132015642D01*
X215633333Y-132015642D02*
X215585714Y-131825166D01*
X215585714Y-131825166D02*
X215585714Y-131587071D01*
X215585714Y-131587071D02*
X215633333Y-131396595D01*
X215633333Y-131396595D02*
X215680952Y-131301357D01*
X215680952Y-131301357D02*
X215728571Y-131253738D01*
X215728571Y-131253738D02*
X215823809Y-131206119D01*
X216585714Y-131539452D02*
X216585714Y-132206119D01*
X216585714Y-131634690D02*
X216633333Y-131587071D01*
X216633333Y-131587071D02*
X216728571Y-131539452D01*
X216728571Y-131539452D02*
X216871428Y-131539452D01*
X216871428Y-131539452D02*
X216966666Y-131587071D01*
X216966666Y-131587071D02*
X217014285Y-131682309D01*
X217014285Y-131682309D02*
X217014285Y-132206119D01*
X217823809Y-131682309D02*
X217490476Y-131682309D01*
X217490476Y-132206119D02*
X217490476Y-131206119D01*
X217490476Y-131206119D02*
X217966666Y-131206119D01*
X219306119Y-77907142D02*
X218829928Y-77573809D01*
X219306119Y-77335714D02*
X218306119Y-77335714D01*
X218306119Y-77335714D02*
X218306119Y-77716666D01*
X218306119Y-77716666D02*
X218353738Y-77811904D01*
X218353738Y-77811904D02*
X218401357Y-77859523D01*
X218401357Y-77859523D02*
X218496595Y-77907142D01*
X218496595Y-77907142D02*
X218639452Y-77907142D01*
X218639452Y-77907142D02*
X218734690Y-77859523D01*
X218734690Y-77859523D02*
X218782309Y-77811904D01*
X218782309Y-77811904D02*
X218829928Y-77716666D01*
X218829928Y-77716666D02*
X218829928Y-77335714D01*
X218306119Y-78240476D02*
X218306119Y-78859523D01*
X218306119Y-78859523D02*
X218687071Y-78526190D01*
X218687071Y-78526190D02*
X218687071Y-78669047D01*
X218687071Y-78669047D02*
X218734690Y-78764285D01*
X218734690Y-78764285D02*
X218782309Y-78811904D01*
X218782309Y-78811904D02*
X218877547Y-78859523D01*
X218877547Y-78859523D02*
X219115642Y-78859523D01*
X219115642Y-78859523D02*
X219210880Y-78811904D01*
X219210880Y-78811904D02*
X219258500Y-78764285D01*
X219258500Y-78764285D02*
X219306119Y-78669047D01*
X219306119Y-78669047D02*
X219306119Y-78383333D01*
X219306119Y-78383333D02*
X219258500Y-78288095D01*
X219258500Y-78288095D02*
X219210880Y-78240476D01*
X219306119Y-79811904D02*
X219306119Y-79240476D01*
X219306119Y-79526190D02*
X218306119Y-79526190D01*
X218306119Y-79526190D02*
X218448976Y-79430952D01*
X218448976Y-79430952D02*
X218544214Y-79335714D01*
X218544214Y-79335714D02*
X218591833Y-79240476D01*
X248842857Y-68660880D02*
X248890476Y-68708500D01*
X248890476Y-68708500D02*
X249033333Y-68756119D01*
X249033333Y-68756119D02*
X249128571Y-68756119D01*
X249128571Y-68756119D02*
X249271428Y-68708500D01*
X249271428Y-68708500D02*
X249366666Y-68613261D01*
X249366666Y-68613261D02*
X249414285Y-68518023D01*
X249414285Y-68518023D02*
X249461904Y-68327547D01*
X249461904Y-68327547D02*
X249461904Y-68184690D01*
X249461904Y-68184690D02*
X249414285Y-67994214D01*
X249414285Y-67994214D02*
X249366666Y-67898976D01*
X249366666Y-67898976D02*
X249271428Y-67803738D01*
X249271428Y-67803738D02*
X249128571Y-67756119D01*
X249128571Y-67756119D02*
X249033333Y-67756119D01*
X249033333Y-67756119D02*
X248890476Y-67803738D01*
X248890476Y-67803738D02*
X248842857Y-67851357D01*
X248509523Y-67756119D02*
X247890476Y-67756119D01*
X247890476Y-67756119D02*
X248223809Y-68137071D01*
X248223809Y-68137071D02*
X248080952Y-68137071D01*
X248080952Y-68137071D02*
X247985714Y-68184690D01*
X247985714Y-68184690D02*
X247938095Y-68232309D01*
X247938095Y-68232309D02*
X247890476Y-68327547D01*
X247890476Y-68327547D02*
X247890476Y-68565642D01*
X247890476Y-68565642D02*
X247938095Y-68660880D01*
X247938095Y-68660880D02*
X247985714Y-68708500D01*
X247985714Y-68708500D02*
X248080952Y-68756119D01*
X248080952Y-68756119D02*
X248366666Y-68756119D01*
X248366666Y-68756119D02*
X248461904Y-68708500D01*
X248461904Y-68708500D02*
X248509523Y-68660880D01*
X247271428Y-67756119D02*
X247176190Y-67756119D01*
X247176190Y-67756119D02*
X247080952Y-67803738D01*
X247080952Y-67803738D02*
X247033333Y-67851357D01*
X247033333Y-67851357D02*
X246985714Y-67946595D01*
X246985714Y-67946595D02*
X246938095Y-68137071D01*
X246938095Y-68137071D02*
X246938095Y-68375166D01*
X246938095Y-68375166D02*
X246985714Y-68565642D01*
X246985714Y-68565642D02*
X247033333Y-68660880D01*
X247033333Y-68660880D02*
X247080952Y-68708500D01*
X247080952Y-68708500D02*
X247176190Y-68756119D01*
X247176190Y-68756119D02*
X247271428Y-68756119D01*
X247271428Y-68756119D02*
X247366666Y-68708500D01*
X247366666Y-68708500D02*
X247414285Y-68660880D01*
X247414285Y-68660880D02*
X247461904Y-68565642D01*
X247461904Y-68565642D02*
X247509523Y-68375166D01*
X247509523Y-68375166D02*
X247509523Y-68137071D01*
X247509523Y-68137071D02*
X247461904Y-67946595D01*
X247461904Y-67946595D02*
X247414285Y-67851357D01*
X247414285Y-67851357D02*
X247366666Y-67803738D01*
X247366666Y-67803738D02*
X247271428Y-67756119D01*
X203556119Y-126285714D02*
X202556119Y-126285714D01*
X202556119Y-126285714D02*
X202556119Y-126523809D01*
X202556119Y-126523809D02*
X202603738Y-126666666D01*
X202603738Y-126666666D02*
X202698976Y-126761904D01*
X202698976Y-126761904D02*
X202794214Y-126809523D01*
X202794214Y-126809523D02*
X202984690Y-126857142D01*
X202984690Y-126857142D02*
X203127547Y-126857142D01*
X203127547Y-126857142D02*
X203318023Y-126809523D01*
X203318023Y-126809523D02*
X203413261Y-126761904D01*
X203413261Y-126761904D02*
X203508500Y-126666666D01*
X203508500Y-126666666D02*
X203556119Y-126523809D01*
X203556119Y-126523809D02*
X203556119Y-126285714D01*
X203556119Y-127809523D02*
X203556119Y-127238095D01*
X203556119Y-127523809D02*
X202556119Y-127523809D01*
X202556119Y-127523809D02*
X202698976Y-127428571D01*
X202698976Y-127428571D02*
X202794214Y-127333333D01*
X202794214Y-127333333D02*
X202841833Y-127238095D01*
X202651357Y-128190476D02*
X202603738Y-128238095D01*
X202603738Y-128238095D02*
X202556119Y-128333333D01*
X202556119Y-128333333D02*
X202556119Y-128571428D01*
X202556119Y-128571428D02*
X202603738Y-128666666D01*
X202603738Y-128666666D02*
X202651357Y-128714285D01*
X202651357Y-128714285D02*
X202746595Y-128761904D01*
X202746595Y-128761904D02*
X202841833Y-128761904D01*
X202841833Y-128761904D02*
X202984690Y-128714285D01*
X202984690Y-128714285D02*
X203556119Y-128142857D01*
X203556119Y-128142857D02*
X203556119Y-128761904D01*
X227838094Y-43356119D02*
X227838094Y-44165642D01*
X227838094Y-44165642D02*
X227790475Y-44260880D01*
X227790475Y-44260880D02*
X227742856Y-44308500D01*
X227742856Y-44308500D02*
X227647618Y-44356119D01*
X227647618Y-44356119D02*
X227457142Y-44356119D01*
X227457142Y-44356119D02*
X227361904Y-44308500D01*
X227361904Y-44308500D02*
X227314285Y-44260880D01*
X227314285Y-44260880D02*
X227266666Y-44165642D01*
X227266666Y-44165642D02*
X227266666Y-43356119D01*
X226266666Y-44356119D02*
X226838094Y-44356119D01*
X226552380Y-44356119D02*
X226552380Y-43356119D01*
X226552380Y-43356119D02*
X226647618Y-43498976D01*
X226647618Y-43498976D02*
X226742856Y-43594214D01*
X226742856Y-43594214D02*
X226838094Y-43641833D01*
X225647618Y-43356119D02*
X225552380Y-43356119D01*
X225552380Y-43356119D02*
X225457142Y-43403738D01*
X225457142Y-43403738D02*
X225409523Y-43451357D01*
X225409523Y-43451357D02*
X225361904Y-43546595D01*
X225361904Y-43546595D02*
X225314285Y-43737071D01*
X225314285Y-43737071D02*
X225314285Y-43975166D01*
X225314285Y-43975166D02*
X225361904Y-44165642D01*
X225361904Y-44165642D02*
X225409523Y-44260880D01*
X225409523Y-44260880D02*
X225457142Y-44308500D01*
X225457142Y-44308500D02*
X225552380Y-44356119D01*
X225552380Y-44356119D02*
X225647618Y-44356119D01*
X225647618Y-44356119D02*
X225742856Y-44308500D01*
X225742856Y-44308500D02*
X225790475Y-44260880D01*
X225790475Y-44260880D02*
X225838094Y-44165642D01*
X225838094Y-44165642D02*
X225885713Y-43975166D01*
X225885713Y-43975166D02*
X225885713Y-43737071D01*
X225885713Y-43737071D02*
X225838094Y-43546595D01*
X225838094Y-43546595D02*
X225790475Y-43451357D01*
X225790475Y-43451357D02*
X225742856Y-43403738D01*
X225742856Y-43403738D02*
X225647618Y-43356119D01*
X203706119Y-110785714D02*
X202706119Y-110785714D01*
X202706119Y-110785714D02*
X202706119Y-111023809D01*
X202706119Y-111023809D02*
X202753738Y-111166666D01*
X202753738Y-111166666D02*
X202848976Y-111261904D01*
X202848976Y-111261904D02*
X202944214Y-111309523D01*
X202944214Y-111309523D02*
X203134690Y-111357142D01*
X203134690Y-111357142D02*
X203277547Y-111357142D01*
X203277547Y-111357142D02*
X203468023Y-111309523D01*
X203468023Y-111309523D02*
X203563261Y-111261904D01*
X203563261Y-111261904D02*
X203658500Y-111166666D01*
X203658500Y-111166666D02*
X203706119Y-111023809D01*
X203706119Y-111023809D02*
X203706119Y-110785714D01*
X203706119Y-112309523D02*
X203706119Y-111738095D01*
X203706119Y-112023809D02*
X202706119Y-112023809D01*
X202706119Y-112023809D02*
X202848976Y-111928571D01*
X202848976Y-111928571D02*
X202944214Y-111833333D01*
X202944214Y-111833333D02*
X202991833Y-111738095D01*
X202706119Y-113214285D02*
X202706119Y-112738095D01*
X202706119Y-112738095D02*
X203182309Y-112690476D01*
X203182309Y-112690476D02*
X203134690Y-112738095D01*
X203134690Y-112738095D02*
X203087071Y-112833333D01*
X203087071Y-112833333D02*
X203087071Y-113071428D01*
X203087071Y-113071428D02*
X203134690Y-113166666D01*
X203134690Y-113166666D02*
X203182309Y-113214285D01*
X203182309Y-113214285D02*
X203277547Y-113261904D01*
X203277547Y-113261904D02*
X203515642Y-113261904D01*
X203515642Y-113261904D02*
X203610880Y-113214285D01*
X203610880Y-113214285D02*
X203658500Y-113166666D01*
X203658500Y-113166666D02*
X203706119Y-113071428D01*
X203706119Y-113071428D02*
X203706119Y-112833333D01*
X203706119Y-112833333D02*
X203658500Y-112738095D01*
X203658500Y-112738095D02*
X203610880Y-112690476D01*
X227811904Y-83906119D02*
X227811904Y-84715642D01*
X227811904Y-84715642D02*
X227764285Y-84810880D01*
X227764285Y-84810880D02*
X227716666Y-84858500D01*
X227716666Y-84858500D02*
X227621428Y-84906119D01*
X227621428Y-84906119D02*
X227430952Y-84906119D01*
X227430952Y-84906119D02*
X227335714Y-84858500D01*
X227335714Y-84858500D02*
X227288095Y-84810880D01*
X227288095Y-84810880D02*
X227240476Y-84715642D01*
X227240476Y-84715642D02*
X227240476Y-83906119D01*
X226335714Y-83906119D02*
X226526190Y-83906119D01*
X226526190Y-83906119D02*
X226621428Y-83953738D01*
X226621428Y-83953738D02*
X226669047Y-84001357D01*
X226669047Y-84001357D02*
X226764285Y-84144214D01*
X226764285Y-84144214D02*
X226811904Y-84334690D01*
X226811904Y-84334690D02*
X226811904Y-84715642D01*
X226811904Y-84715642D02*
X226764285Y-84810880D01*
X226764285Y-84810880D02*
X226716666Y-84858500D01*
X226716666Y-84858500D02*
X226621428Y-84906119D01*
X226621428Y-84906119D02*
X226430952Y-84906119D01*
X226430952Y-84906119D02*
X226335714Y-84858500D01*
X226335714Y-84858500D02*
X226288095Y-84810880D01*
X226288095Y-84810880D02*
X226240476Y-84715642D01*
X226240476Y-84715642D02*
X226240476Y-84477547D01*
X226240476Y-84477547D02*
X226288095Y-84382309D01*
X226288095Y-84382309D02*
X226335714Y-84334690D01*
X226335714Y-84334690D02*
X226430952Y-84287071D01*
X226430952Y-84287071D02*
X226621428Y-84287071D01*
X226621428Y-84287071D02*
X226716666Y-84334690D01*
X226716666Y-84334690D02*
X226764285Y-84382309D01*
X226764285Y-84382309D02*
X226811904Y-84477547D01*
X214145238Y-104147963D02*
X214240476Y-104100344D01*
X214240476Y-104100344D02*
X214335714Y-104005106D01*
X214335714Y-104005106D02*
X214478571Y-103862248D01*
X214478571Y-103862248D02*
X214573809Y-103814629D01*
X214573809Y-103814629D02*
X214669047Y-103814629D01*
X214621428Y-104052725D02*
X214716666Y-104005106D01*
X214716666Y-104005106D02*
X214811904Y-103909867D01*
X214811904Y-103909867D02*
X214859523Y-103719391D01*
X214859523Y-103719391D02*
X214859523Y-103386058D01*
X214859523Y-103386058D02*
X214811904Y-103195582D01*
X214811904Y-103195582D02*
X214716666Y-103100344D01*
X214716666Y-103100344D02*
X214621428Y-103052725D01*
X214621428Y-103052725D02*
X214430952Y-103052725D01*
X214430952Y-103052725D02*
X214335714Y-103100344D01*
X214335714Y-103100344D02*
X214240476Y-103195582D01*
X214240476Y-103195582D02*
X214192857Y-103386058D01*
X214192857Y-103386058D02*
X214192857Y-103719391D01*
X214192857Y-103719391D02*
X214240476Y-103909867D01*
X214240476Y-103909867D02*
X214335714Y-104005106D01*
X214335714Y-104005106D02*
X214430952Y-104052725D01*
X214430952Y-104052725D02*
X214621428Y-104052725D01*
X213288095Y-103052725D02*
X213764285Y-103052725D01*
X213764285Y-103052725D02*
X213811904Y-103528915D01*
X213811904Y-103528915D02*
X213764285Y-103481296D01*
X213764285Y-103481296D02*
X213669047Y-103433677D01*
X213669047Y-103433677D02*
X213430952Y-103433677D01*
X213430952Y-103433677D02*
X213335714Y-103481296D01*
X213335714Y-103481296D02*
X213288095Y-103528915D01*
X213288095Y-103528915D02*
X213240476Y-103624153D01*
X213240476Y-103624153D02*
X213240476Y-103862248D01*
X213240476Y-103862248D02*
X213288095Y-103957486D01*
X213288095Y-103957486D02*
X213335714Y-104005106D01*
X213335714Y-104005106D02*
X213430952Y-104052725D01*
X213430952Y-104052725D02*
X213669047Y-104052725D01*
X213669047Y-104052725D02*
X213764285Y-104005106D01*
X213764285Y-104005106D02*
X213811904Y-103957486D01*
X203406119Y-45135714D02*
X202406119Y-45135714D01*
X202406119Y-45135714D02*
X202406119Y-45373809D01*
X202406119Y-45373809D02*
X202453738Y-45516666D01*
X202453738Y-45516666D02*
X202548976Y-45611904D01*
X202548976Y-45611904D02*
X202644214Y-45659523D01*
X202644214Y-45659523D02*
X202834690Y-45707142D01*
X202834690Y-45707142D02*
X202977547Y-45707142D01*
X202977547Y-45707142D02*
X203168023Y-45659523D01*
X203168023Y-45659523D02*
X203263261Y-45611904D01*
X203263261Y-45611904D02*
X203358500Y-45516666D01*
X203358500Y-45516666D02*
X203406119Y-45373809D01*
X203406119Y-45373809D02*
X203406119Y-45135714D01*
X202501357Y-46088095D02*
X202453738Y-46135714D01*
X202453738Y-46135714D02*
X202406119Y-46230952D01*
X202406119Y-46230952D02*
X202406119Y-46469047D01*
X202406119Y-46469047D02*
X202453738Y-46564285D01*
X202453738Y-46564285D02*
X202501357Y-46611904D01*
X202501357Y-46611904D02*
X202596595Y-46659523D01*
X202596595Y-46659523D02*
X202691833Y-46659523D01*
X202691833Y-46659523D02*
X202834690Y-46611904D01*
X202834690Y-46611904D02*
X203406119Y-46040476D01*
X203406119Y-46040476D02*
X203406119Y-46659523D01*
X203406119Y-47611904D02*
X203406119Y-47040476D01*
X203406119Y-47326190D02*
X202406119Y-47326190D01*
X202406119Y-47326190D02*
X202548976Y-47230952D01*
X202548976Y-47230952D02*
X202644214Y-47135714D01*
X202644214Y-47135714D02*
X202691833Y-47040476D01*
X226811904Y-69734214D02*
X226811904Y-70543737D01*
X226811904Y-70543737D02*
X226764285Y-70638975D01*
X226764285Y-70638975D02*
X226716666Y-70686595D01*
X226716666Y-70686595D02*
X226621428Y-70734214D01*
X226621428Y-70734214D02*
X226430952Y-70734214D01*
X226430952Y-70734214D02*
X226335714Y-70686595D01*
X226335714Y-70686595D02*
X226288095Y-70638975D01*
X226288095Y-70638975D02*
X226240476Y-70543737D01*
X226240476Y-70543737D02*
X226240476Y-69734214D01*
X225859523Y-69734214D02*
X225192857Y-69734214D01*
X225192857Y-69734214D02*
X225621428Y-70734214D01*
X218562857Y-55856119D02*
X218896190Y-55379928D01*
X219134285Y-55856119D02*
X219134285Y-54856119D01*
X219134285Y-54856119D02*
X218753333Y-54856119D01*
X218753333Y-54856119D02*
X218658095Y-54903738D01*
X218658095Y-54903738D02*
X218610476Y-54951357D01*
X218610476Y-54951357D02*
X218562857Y-55046595D01*
X218562857Y-55046595D02*
X218562857Y-55189452D01*
X218562857Y-55189452D02*
X218610476Y-55284690D01*
X218610476Y-55284690D02*
X218658095Y-55332309D01*
X218658095Y-55332309D02*
X218753333Y-55379928D01*
X218753333Y-55379928D02*
X219134285Y-55379928D01*
X218229523Y-54856119D02*
X217610476Y-54856119D01*
X217610476Y-54856119D02*
X217943809Y-55237071D01*
X217943809Y-55237071D02*
X217800952Y-55237071D01*
X217800952Y-55237071D02*
X217705714Y-55284690D01*
X217705714Y-55284690D02*
X217658095Y-55332309D01*
X217658095Y-55332309D02*
X217610476Y-55427547D01*
X217610476Y-55427547D02*
X217610476Y-55665642D01*
X217610476Y-55665642D02*
X217658095Y-55760880D01*
X217658095Y-55760880D02*
X217705714Y-55808500D01*
X217705714Y-55808500D02*
X217800952Y-55856119D01*
X217800952Y-55856119D02*
X218086666Y-55856119D01*
X218086666Y-55856119D02*
X218181904Y-55808500D01*
X218181904Y-55808500D02*
X218229523Y-55760880D01*
X217134285Y-55856119D02*
X216943809Y-55856119D01*
X216943809Y-55856119D02*
X216848571Y-55808500D01*
X216848571Y-55808500D02*
X216800952Y-55760880D01*
X216800952Y-55760880D02*
X216705714Y-55618023D01*
X216705714Y-55618023D02*
X216658095Y-55427547D01*
X216658095Y-55427547D02*
X216658095Y-55046595D01*
X216658095Y-55046595D02*
X216705714Y-54951357D01*
X216705714Y-54951357D02*
X216753333Y-54903738D01*
X216753333Y-54903738D02*
X216848571Y-54856119D01*
X216848571Y-54856119D02*
X217039047Y-54856119D01*
X217039047Y-54856119D02*
X217134285Y-54903738D01*
X217134285Y-54903738D02*
X217181904Y-54951357D01*
X217181904Y-54951357D02*
X217229523Y-55046595D01*
X217229523Y-55046595D02*
X217229523Y-55284690D01*
X217229523Y-55284690D02*
X217181904Y-55379928D01*
X217181904Y-55379928D02*
X217134285Y-55427547D01*
X217134285Y-55427547D02*
X217039047Y-55475166D01*
X217039047Y-55475166D02*
X216848571Y-55475166D01*
X216848571Y-55475166D02*
X216753333Y-55427547D01*
X216753333Y-55427547D02*
X216705714Y-55379928D01*
X216705714Y-55379928D02*
X216658095Y-55284690D01*
X218562857Y-69956119D02*
X218896190Y-69479928D01*
X219134285Y-69956119D02*
X219134285Y-68956119D01*
X219134285Y-68956119D02*
X218753333Y-68956119D01*
X218753333Y-68956119D02*
X218658095Y-69003738D01*
X218658095Y-69003738D02*
X218610476Y-69051357D01*
X218610476Y-69051357D02*
X218562857Y-69146595D01*
X218562857Y-69146595D02*
X218562857Y-69289452D01*
X218562857Y-69289452D02*
X218610476Y-69384690D01*
X218610476Y-69384690D02*
X218658095Y-69432309D01*
X218658095Y-69432309D02*
X218753333Y-69479928D01*
X218753333Y-69479928D02*
X219134285Y-69479928D01*
X218181904Y-69051357D02*
X218134285Y-69003738D01*
X218134285Y-69003738D02*
X218039047Y-68956119D01*
X218039047Y-68956119D02*
X217800952Y-68956119D01*
X217800952Y-68956119D02*
X217705714Y-69003738D01*
X217705714Y-69003738D02*
X217658095Y-69051357D01*
X217658095Y-69051357D02*
X217610476Y-69146595D01*
X217610476Y-69146595D02*
X217610476Y-69241833D01*
X217610476Y-69241833D02*
X217658095Y-69384690D01*
X217658095Y-69384690D02*
X218229523Y-69956119D01*
X218229523Y-69956119D02*
X217610476Y-69956119D01*
X217277142Y-68956119D02*
X216610476Y-68956119D01*
X216610476Y-68956119D02*
X217039047Y-69956119D01*
X256960880Y-99757142D02*
X257008500Y-99709523D01*
X257008500Y-99709523D02*
X257056119Y-99566666D01*
X257056119Y-99566666D02*
X257056119Y-99471428D01*
X257056119Y-99471428D02*
X257008500Y-99328571D01*
X257008500Y-99328571D02*
X256913261Y-99233333D01*
X256913261Y-99233333D02*
X256818023Y-99185714D01*
X256818023Y-99185714D02*
X256627547Y-99138095D01*
X256627547Y-99138095D02*
X256484690Y-99138095D01*
X256484690Y-99138095D02*
X256294214Y-99185714D01*
X256294214Y-99185714D02*
X256198976Y-99233333D01*
X256198976Y-99233333D02*
X256103738Y-99328571D01*
X256103738Y-99328571D02*
X256056119Y-99471428D01*
X256056119Y-99471428D02*
X256056119Y-99566666D01*
X256056119Y-99566666D02*
X256103738Y-99709523D01*
X256103738Y-99709523D02*
X256151357Y-99757142D01*
X257056119Y-100709523D02*
X257056119Y-100138095D01*
X257056119Y-100423809D02*
X256056119Y-100423809D01*
X256056119Y-100423809D02*
X256198976Y-100328571D01*
X256198976Y-100328571D02*
X256294214Y-100233333D01*
X256294214Y-100233333D02*
X256341833Y-100138095D01*
X257056119Y-101185714D02*
X257056119Y-101376190D01*
X257056119Y-101376190D02*
X257008500Y-101471428D01*
X257008500Y-101471428D02*
X256960880Y-101519047D01*
X256960880Y-101519047D02*
X256818023Y-101614285D01*
X256818023Y-101614285D02*
X256627547Y-101661904D01*
X256627547Y-101661904D02*
X256246595Y-101661904D01*
X256246595Y-101661904D02*
X256151357Y-101614285D01*
X256151357Y-101614285D02*
X256103738Y-101566666D01*
X256103738Y-101566666D02*
X256056119Y-101471428D01*
X256056119Y-101471428D02*
X256056119Y-101280952D01*
X256056119Y-101280952D02*
X256103738Y-101185714D01*
X256103738Y-101185714D02*
X256151357Y-101138095D01*
X256151357Y-101138095D02*
X256246595Y-101090476D01*
X256246595Y-101090476D02*
X256484690Y-101090476D01*
X256484690Y-101090476D02*
X256579928Y-101138095D01*
X256579928Y-101138095D02*
X256627547Y-101185714D01*
X256627547Y-101185714D02*
X256675166Y-101280952D01*
X256675166Y-101280952D02*
X256675166Y-101471428D01*
X256675166Y-101471428D02*
X256627547Y-101566666D01*
X256627547Y-101566666D02*
X256579928Y-101614285D01*
X256579928Y-101614285D02*
X256484690Y-101661904D01*
X213645238Y-47431357D02*
X213740476Y-47383738D01*
X213740476Y-47383738D02*
X213835714Y-47288500D01*
X213835714Y-47288500D02*
X213978571Y-47145642D01*
X213978571Y-47145642D02*
X214073809Y-47098023D01*
X214073809Y-47098023D02*
X214169047Y-47098023D01*
X214121428Y-47336119D02*
X214216666Y-47288500D01*
X214216666Y-47288500D02*
X214311904Y-47193261D01*
X214311904Y-47193261D02*
X214359523Y-47002785D01*
X214359523Y-47002785D02*
X214359523Y-46669452D01*
X214359523Y-46669452D02*
X214311904Y-46478976D01*
X214311904Y-46478976D02*
X214216666Y-46383738D01*
X214216666Y-46383738D02*
X214121428Y-46336119D01*
X214121428Y-46336119D02*
X213930952Y-46336119D01*
X213930952Y-46336119D02*
X213835714Y-46383738D01*
X213835714Y-46383738D02*
X213740476Y-46478976D01*
X213740476Y-46478976D02*
X213692857Y-46669452D01*
X213692857Y-46669452D02*
X213692857Y-47002785D01*
X213692857Y-47002785D02*
X213740476Y-47193261D01*
X213740476Y-47193261D02*
X213835714Y-47288500D01*
X213835714Y-47288500D02*
X213930952Y-47336119D01*
X213930952Y-47336119D02*
X214121428Y-47336119D01*
X213359523Y-46336119D02*
X212692857Y-46336119D01*
X212692857Y-46336119D02*
X213121428Y-47336119D01*
X248792857Y-63610880D02*
X248840476Y-63658500D01*
X248840476Y-63658500D02*
X248983333Y-63706119D01*
X248983333Y-63706119D02*
X249078571Y-63706119D01*
X249078571Y-63706119D02*
X249221428Y-63658500D01*
X249221428Y-63658500D02*
X249316666Y-63563261D01*
X249316666Y-63563261D02*
X249364285Y-63468023D01*
X249364285Y-63468023D02*
X249411904Y-63277547D01*
X249411904Y-63277547D02*
X249411904Y-63134690D01*
X249411904Y-63134690D02*
X249364285Y-62944214D01*
X249364285Y-62944214D02*
X249316666Y-62848976D01*
X249316666Y-62848976D02*
X249221428Y-62753738D01*
X249221428Y-62753738D02*
X249078571Y-62706119D01*
X249078571Y-62706119D02*
X248983333Y-62706119D01*
X248983333Y-62706119D02*
X248840476Y-62753738D01*
X248840476Y-62753738D02*
X248792857Y-62801357D01*
X248411904Y-62801357D02*
X248364285Y-62753738D01*
X248364285Y-62753738D02*
X248269047Y-62706119D01*
X248269047Y-62706119D02*
X248030952Y-62706119D01*
X248030952Y-62706119D02*
X247935714Y-62753738D01*
X247935714Y-62753738D02*
X247888095Y-62801357D01*
X247888095Y-62801357D02*
X247840476Y-62896595D01*
X247840476Y-62896595D02*
X247840476Y-62991833D01*
X247840476Y-62991833D02*
X247888095Y-63134690D01*
X247888095Y-63134690D02*
X248459523Y-63706119D01*
X248459523Y-63706119D02*
X247840476Y-63706119D01*
X247364285Y-63706119D02*
X247173809Y-63706119D01*
X247173809Y-63706119D02*
X247078571Y-63658500D01*
X247078571Y-63658500D02*
X247030952Y-63610880D01*
X247030952Y-63610880D02*
X246935714Y-63468023D01*
X246935714Y-63468023D02*
X246888095Y-63277547D01*
X246888095Y-63277547D02*
X246888095Y-62896595D01*
X246888095Y-62896595D02*
X246935714Y-62801357D01*
X246935714Y-62801357D02*
X246983333Y-62753738D01*
X246983333Y-62753738D02*
X247078571Y-62706119D01*
X247078571Y-62706119D02*
X247269047Y-62706119D01*
X247269047Y-62706119D02*
X247364285Y-62753738D01*
X247364285Y-62753738D02*
X247411904Y-62801357D01*
X247411904Y-62801357D02*
X247459523Y-62896595D01*
X247459523Y-62896595D02*
X247459523Y-63134690D01*
X247459523Y-63134690D02*
X247411904Y-63229928D01*
X247411904Y-63229928D02*
X247364285Y-63277547D01*
X247364285Y-63277547D02*
X247269047Y-63325166D01*
X247269047Y-63325166D02*
X247078571Y-63325166D01*
X247078571Y-63325166D02*
X246983333Y-63277547D01*
X246983333Y-63277547D02*
X246935714Y-63229928D01*
X246935714Y-63229928D02*
X246888095Y-63134690D01*
X213095238Y-73081357D02*
X213190476Y-73033738D01*
X213190476Y-73033738D02*
X213285714Y-72938500D01*
X213285714Y-72938500D02*
X213428571Y-72795642D01*
X213428571Y-72795642D02*
X213523809Y-72748023D01*
X213523809Y-72748023D02*
X213619047Y-72748023D01*
X213571428Y-72986119D02*
X213666666Y-72938500D01*
X213666666Y-72938500D02*
X213761904Y-72843261D01*
X213761904Y-72843261D02*
X213809523Y-72652785D01*
X213809523Y-72652785D02*
X213809523Y-72319452D01*
X213809523Y-72319452D02*
X213761904Y-72128976D01*
X213761904Y-72128976D02*
X213666666Y-72033738D01*
X213666666Y-72033738D02*
X213571428Y-71986119D01*
X213571428Y-71986119D02*
X213380952Y-71986119D01*
X213380952Y-71986119D02*
X213285714Y-72033738D01*
X213285714Y-72033738D02*
X213190476Y-72128976D01*
X213190476Y-72128976D02*
X213142857Y-72319452D01*
X213142857Y-72319452D02*
X213142857Y-72652785D01*
X213142857Y-72652785D02*
X213190476Y-72843261D01*
X213190476Y-72843261D02*
X213285714Y-72938500D01*
X213285714Y-72938500D02*
X213380952Y-72986119D01*
X213380952Y-72986119D02*
X213571428Y-72986119D01*
X212285714Y-72319452D02*
X212285714Y-72986119D01*
X212523809Y-71938500D02*
X212761904Y-72652785D01*
X212761904Y-72652785D02*
X212142857Y-72652785D01*
X216392857Y-123106119D02*
X216726190Y-122629928D01*
X216964285Y-123106119D02*
X216964285Y-122106119D01*
X216964285Y-122106119D02*
X216583333Y-122106119D01*
X216583333Y-122106119D02*
X216488095Y-122153738D01*
X216488095Y-122153738D02*
X216440476Y-122201357D01*
X216440476Y-122201357D02*
X216392857Y-122296595D01*
X216392857Y-122296595D02*
X216392857Y-122439452D01*
X216392857Y-122439452D02*
X216440476Y-122534690D01*
X216440476Y-122534690D02*
X216488095Y-122582309D01*
X216488095Y-122582309D02*
X216583333Y-122629928D01*
X216583333Y-122629928D02*
X216964285Y-122629928D01*
X216011904Y-122201357D02*
X215964285Y-122153738D01*
X215964285Y-122153738D02*
X215869047Y-122106119D01*
X215869047Y-122106119D02*
X215630952Y-122106119D01*
X215630952Y-122106119D02*
X215535714Y-122153738D01*
X215535714Y-122153738D02*
X215488095Y-122201357D01*
X215488095Y-122201357D02*
X215440476Y-122296595D01*
X215440476Y-122296595D02*
X215440476Y-122391833D01*
X215440476Y-122391833D02*
X215488095Y-122534690D01*
X215488095Y-122534690D02*
X216059523Y-123106119D01*
X216059523Y-123106119D02*
X215440476Y-123106119D01*
X214535714Y-122106119D02*
X215011904Y-122106119D01*
X215011904Y-122106119D02*
X215059523Y-122582309D01*
X215059523Y-122582309D02*
X215011904Y-122534690D01*
X215011904Y-122534690D02*
X214916666Y-122487071D01*
X214916666Y-122487071D02*
X214678571Y-122487071D01*
X214678571Y-122487071D02*
X214583333Y-122534690D01*
X214583333Y-122534690D02*
X214535714Y-122582309D01*
X214535714Y-122582309D02*
X214488095Y-122677547D01*
X214488095Y-122677547D02*
X214488095Y-122915642D01*
X214488095Y-122915642D02*
X214535714Y-123010880D01*
X214535714Y-123010880D02*
X214583333Y-123058500D01*
X214583333Y-123058500D02*
X214678571Y-123106119D01*
X214678571Y-123106119D02*
X214916666Y-123106119D01*
X214916666Y-123106119D02*
X215011904Y-123058500D01*
X215011904Y-123058500D02*
X215059523Y-123010880D01*
X227861904Y-121756119D02*
X227861904Y-122565642D01*
X227861904Y-122565642D02*
X227814285Y-122660880D01*
X227814285Y-122660880D02*
X227766666Y-122708500D01*
X227766666Y-122708500D02*
X227671428Y-122756119D01*
X227671428Y-122756119D02*
X227480952Y-122756119D01*
X227480952Y-122756119D02*
X227385714Y-122708500D01*
X227385714Y-122708500D02*
X227338095Y-122660880D01*
X227338095Y-122660880D02*
X227290476Y-122565642D01*
X227290476Y-122565642D02*
X227290476Y-121756119D01*
X226338095Y-121756119D02*
X226814285Y-121756119D01*
X226814285Y-121756119D02*
X226861904Y-122232309D01*
X226861904Y-122232309D02*
X226814285Y-122184690D01*
X226814285Y-122184690D02*
X226719047Y-122137071D01*
X226719047Y-122137071D02*
X226480952Y-122137071D01*
X226480952Y-122137071D02*
X226385714Y-122184690D01*
X226385714Y-122184690D02*
X226338095Y-122232309D01*
X226338095Y-122232309D02*
X226290476Y-122327547D01*
X226290476Y-122327547D02*
X226290476Y-122565642D01*
X226290476Y-122565642D02*
X226338095Y-122660880D01*
X226338095Y-122660880D02*
X226385714Y-122708500D01*
X226385714Y-122708500D02*
X226480952Y-122756119D01*
X226480952Y-122756119D02*
X226719047Y-122756119D01*
X226719047Y-122756119D02*
X226814285Y-122708500D01*
X226814285Y-122708500D02*
X226861904Y-122660880D01*
X218812857Y-101256119D02*
X219146190Y-100779928D01*
X219384285Y-101256119D02*
X219384285Y-100256119D01*
X219384285Y-100256119D02*
X219003333Y-100256119D01*
X219003333Y-100256119D02*
X218908095Y-100303738D01*
X218908095Y-100303738D02*
X218860476Y-100351357D01*
X218860476Y-100351357D02*
X218812857Y-100446595D01*
X218812857Y-100446595D02*
X218812857Y-100589452D01*
X218812857Y-100589452D02*
X218860476Y-100684690D01*
X218860476Y-100684690D02*
X218908095Y-100732309D01*
X218908095Y-100732309D02*
X219003333Y-100779928D01*
X219003333Y-100779928D02*
X219384285Y-100779928D01*
X218431904Y-100351357D02*
X218384285Y-100303738D01*
X218384285Y-100303738D02*
X218289047Y-100256119D01*
X218289047Y-100256119D02*
X218050952Y-100256119D01*
X218050952Y-100256119D02*
X217955714Y-100303738D01*
X217955714Y-100303738D02*
X217908095Y-100351357D01*
X217908095Y-100351357D02*
X217860476Y-100446595D01*
X217860476Y-100446595D02*
X217860476Y-100541833D01*
X217860476Y-100541833D02*
X217908095Y-100684690D01*
X217908095Y-100684690D02*
X218479523Y-101256119D01*
X218479523Y-101256119D02*
X217860476Y-101256119D01*
X217289047Y-100684690D02*
X217384285Y-100637071D01*
X217384285Y-100637071D02*
X217431904Y-100589452D01*
X217431904Y-100589452D02*
X217479523Y-100494214D01*
X217479523Y-100494214D02*
X217479523Y-100446595D01*
X217479523Y-100446595D02*
X217431904Y-100351357D01*
X217431904Y-100351357D02*
X217384285Y-100303738D01*
X217384285Y-100303738D02*
X217289047Y-100256119D01*
X217289047Y-100256119D02*
X217098571Y-100256119D01*
X217098571Y-100256119D02*
X217003333Y-100303738D01*
X217003333Y-100303738D02*
X216955714Y-100351357D01*
X216955714Y-100351357D02*
X216908095Y-100446595D01*
X216908095Y-100446595D02*
X216908095Y-100494214D01*
X216908095Y-100494214D02*
X216955714Y-100589452D01*
X216955714Y-100589452D02*
X217003333Y-100637071D01*
X217003333Y-100637071D02*
X217098571Y-100684690D01*
X217098571Y-100684690D02*
X217289047Y-100684690D01*
X217289047Y-100684690D02*
X217384285Y-100732309D01*
X217384285Y-100732309D02*
X217431904Y-100779928D01*
X217431904Y-100779928D02*
X217479523Y-100875166D01*
X217479523Y-100875166D02*
X217479523Y-101065642D01*
X217479523Y-101065642D02*
X217431904Y-101160880D01*
X217431904Y-101160880D02*
X217384285Y-101208500D01*
X217384285Y-101208500D02*
X217289047Y-101256119D01*
X217289047Y-101256119D02*
X217098571Y-101256119D01*
X217098571Y-101256119D02*
X217003333Y-101208500D01*
X217003333Y-101208500D02*
X216955714Y-101160880D01*
X216955714Y-101160880D02*
X216908095Y-101065642D01*
X216908095Y-101065642D02*
X216908095Y-100875166D01*
X216908095Y-100875166D02*
X216955714Y-100779928D01*
X216955714Y-100779928D02*
X217003333Y-100732309D01*
X217003333Y-100732309D02*
X217098571Y-100684690D01*
X219606119Y-109007142D02*
X219129928Y-108673809D01*
X219606119Y-108435714D02*
X218606119Y-108435714D01*
X218606119Y-108435714D02*
X218606119Y-108816666D01*
X218606119Y-108816666D02*
X218653738Y-108911904D01*
X218653738Y-108911904D02*
X218701357Y-108959523D01*
X218701357Y-108959523D02*
X218796595Y-109007142D01*
X218796595Y-109007142D02*
X218939452Y-109007142D01*
X218939452Y-109007142D02*
X219034690Y-108959523D01*
X219034690Y-108959523D02*
X219082309Y-108911904D01*
X219082309Y-108911904D02*
X219129928Y-108816666D01*
X219129928Y-108816666D02*
X219129928Y-108435714D01*
X218606119Y-109340476D02*
X218606119Y-109959523D01*
X218606119Y-109959523D02*
X218987071Y-109626190D01*
X218987071Y-109626190D02*
X218987071Y-109769047D01*
X218987071Y-109769047D02*
X219034690Y-109864285D01*
X219034690Y-109864285D02*
X219082309Y-109911904D01*
X219082309Y-109911904D02*
X219177547Y-109959523D01*
X219177547Y-109959523D02*
X219415642Y-109959523D01*
X219415642Y-109959523D02*
X219510880Y-109911904D01*
X219510880Y-109911904D02*
X219558500Y-109864285D01*
X219558500Y-109864285D02*
X219606119Y-109769047D01*
X219606119Y-109769047D02*
X219606119Y-109483333D01*
X219606119Y-109483333D02*
X219558500Y-109388095D01*
X219558500Y-109388095D02*
X219510880Y-109340476D01*
X218701357Y-110340476D02*
X218653738Y-110388095D01*
X218653738Y-110388095D02*
X218606119Y-110483333D01*
X218606119Y-110483333D02*
X218606119Y-110721428D01*
X218606119Y-110721428D02*
X218653738Y-110816666D01*
X218653738Y-110816666D02*
X218701357Y-110864285D01*
X218701357Y-110864285D02*
X218796595Y-110911904D01*
X218796595Y-110911904D02*
X218891833Y-110911904D01*
X218891833Y-110911904D02*
X219034690Y-110864285D01*
X219034690Y-110864285D02*
X219606119Y-110292857D01*
X219606119Y-110292857D02*
X219606119Y-110911904D01*
X203506119Y-61735714D02*
X202506119Y-61735714D01*
X202506119Y-61735714D02*
X202506119Y-61973809D01*
X202506119Y-61973809D02*
X202553738Y-62116666D01*
X202553738Y-62116666D02*
X202648976Y-62211904D01*
X202648976Y-62211904D02*
X202744214Y-62259523D01*
X202744214Y-62259523D02*
X202934690Y-62307142D01*
X202934690Y-62307142D02*
X203077547Y-62307142D01*
X203077547Y-62307142D02*
X203268023Y-62259523D01*
X203268023Y-62259523D02*
X203363261Y-62211904D01*
X203363261Y-62211904D02*
X203458500Y-62116666D01*
X203458500Y-62116666D02*
X203506119Y-61973809D01*
X203506119Y-61973809D02*
X203506119Y-61735714D01*
X202601357Y-62688095D02*
X202553738Y-62735714D01*
X202553738Y-62735714D02*
X202506119Y-62830952D01*
X202506119Y-62830952D02*
X202506119Y-63069047D01*
X202506119Y-63069047D02*
X202553738Y-63164285D01*
X202553738Y-63164285D02*
X202601357Y-63211904D01*
X202601357Y-63211904D02*
X202696595Y-63259523D01*
X202696595Y-63259523D02*
X202791833Y-63259523D01*
X202791833Y-63259523D02*
X202934690Y-63211904D01*
X202934690Y-63211904D02*
X203506119Y-62640476D01*
X203506119Y-62640476D02*
X203506119Y-63259523D01*
X202601357Y-63640476D02*
X202553738Y-63688095D01*
X202553738Y-63688095D02*
X202506119Y-63783333D01*
X202506119Y-63783333D02*
X202506119Y-64021428D01*
X202506119Y-64021428D02*
X202553738Y-64116666D01*
X202553738Y-64116666D02*
X202601357Y-64164285D01*
X202601357Y-64164285D02*
X202696595Y-64211904D01*
X202696595Y-64211904D02*
X202791833Y-64211904D01*
X202791833Y-64211904D02*
X202934690Y-64164285D01*
X202934690Y-64164285D02*
X203506119Y-63592857D01*
X203506119Y-63592857D02*
X203506119Y-64211904D01*
X218892857Y-84656119D02*
X219226190Y-84179928D01*
X219464285Y-84656119D02*
X219464285Y-83656119D01*
X219464285Y-83656119D02*
X219083333Y-83656119D01*
X219083333Y-83656119D02*
X218988095Y-83703738D01*
X218988095Y-83703738D02*
X218940476Y-83751357D01*
X218940476Y-83751357D02*
X218892857Y-83846595D01*
X218892857Y-83846595D02*
X218892857Y-83989452D01*
X218892857Y-83989452D02*
X218940476Y-84084690D01*
X218940476Y-84084690D02*
X218988095Y-84132309D01*
X218988095Y-84132309D02*
X219083333Y-84179928D01*
X219083333Y-84179928D02*
X219464285Y-84179928D01*
X218511904Y-83751357D02*
X218464285Y-83703738D01*
X218464285Y-83703738D02*
X218369047Y-83656119D01*
X218369047Y-83656119D02*
X218130952Y-83656119D01*
X218130952Y-83656119D02*
X218035714Y-83703738D01*
X218035714Y-83703738D02*
X217988095Y-83751357D01*
X217988095Y-83751357D02*
X217940476Y-83846595D01*
X217940476Y-83846595D02*
X217940476Y-83941833D01*
X217940476Y-83941833D02*
X217988095Y-84084690D01*
X217988095Y-84084690D02*
X218559523Y-84656119D01*
X218559523Y-84656119D02*
X217940476Y-84656119D01*
X217083333Y-83656119D02*
X217273809Y-83656119D01*
X217273809Y-83656119D02*
X217369047Y-83703738D01*
X217369047Y-83703738D02*
X217416666Y-83751357D01*
X217416666Y-83751357D02*
X217511904Y-83894214D01*
X217511904Y-83894214D02*
X217559523Y-84084690D01*
X217559523Y-84084690D02*
X217559523Y-84465642D01*
X217559523Y-84465642D02*
X217511904Y-84560880D01*
X217511904Y-84560880D02*
X217464285Y-84608500D01*
X217464285Y-84608500D02*
X217369047Y-84656119D01*
X217369047Y-84656119D02*
X217178571Y-84656119D01*
X217178571Y-84656119D02*
X217083333Y-84608500D01*
X217083333Y-84608500D02*
X217035714Y-84560880D01*
X217035714Y-84560880D02*
X216988095Y-84465642D01*
X216988095Y-84465642D02*
X216988095Y-84227547D01*
X216988095Y-84227547D02*
X217035714Y-84132309D01*
X217035714Y-84132309D02*
X217083333Y-84084690D01*
X217083333Y-84084690D02*
X217178571Y-84037071D01*
X217178571Y-84037071D02*
X217369047Y-84037071D01*
X217369047Y-84037071D02*
X217464285Y-84084690D01*
X217464285Y-84084690D02*
X217511904Y-84132309D01*
X217511904Y-84132309D02*
X217559523Y-84227547D01*
X203356119Y-77485714D02*
X202356119Y-77485714D01*
X202356119Y-77485714D02*
X202356119Y-77723809D01*
X202356119Y-77723809D02*
X202403738Y-77866666D01*
X202403738Y-77866666D02*
X202498976Y-77961904D01*
X202498976Y-77961904D02*
X202594214Y-78009523D01*
X202594214Y-78009523D02*
X202784690Y-78057142D01*
X202784690Y-78057142D02*
X202927547Y-78057142D01*
X202927547Y-78057142D02*
X203118023Y-78009523D01*
X203118023Y-78009523D02*
X203213261Y-77961904D01*
X203213261Y-77961904D02*
X203308500Y-77866666D01*
X203308500Y-77866666D02*
X203356119Y-77723809D01*
X203356119Y-77723809D02*
X203356119Y-77485714D01*
X203356119Y-79009523D02*
X203356119Y-78438095D01*
X203356119Y-78723809D02*
X202356119Y-78723809D01*
X202356119Y-78723809D02*
X202498976Y-78628571D01*
X202498976Y-78628571D02*
X202594214Y-78533333D01*
X202594214Y-78533333D02*
X202641833Y-78438095D01*
X202689452Y-79866666D02*
X203356119Y-79866666D01*
X202308500Y-79628571D02*
X203022785Y-79390476D01*
X203022785Y-79390476D02*
X203022785Y-80009523D01*
X253260880Y-96107142D02*
X253308500Y-96059523D01*
X253308500Y-96059523D02*
X253356119Y-95916666D01*
X253356119Y-95916666D02*
X253356119Y-95821428D01*
X253356119Y-95821428D02*
X253308500Y-95678571D01*
X253308500Y-95678571D02*
X253213261Y-95583333D01*
X253213261Y-95583333D02*
X253118023Y-95535714D01*
X253118023Y-95535714D02*
X252927547Y-95488095D01*
X252927547Y-95488095D02*
X252784690Y-95488095D01*
X252784690Y-95488095D02*
X252594214Y-95535714D01*
X252594214Y-95535714D02*
X252498976Y-95583333D01*
X252498976Y-95583333D02*
X252403738Y-95678571D01*
X252403738Y-95678571D02*
X252356119Y-95821428D01*
X252356119Y-95821428D02*
X252356119Y-95916666D01*
X252356119Y-95916666D02*
X252403738Y-96059523D01*
X252403738Y-96059523D02*
X252451357Y-96107142D01*
X252356119Y-96440476D02*
X252356119Y-97059523D01*
X252356119Y-97059523D02*
X252737071Y-96726190D01*
X252737071Y-96726190D02*
X252737071Y-96869047D01*
X252737071Y-96869047D02*
X252784690Y-96964285D01*
X252784690Y-96964285D02*
X252832309Y-97011904D01*
X252832309Y-97011904D02*
X252927547Y-97059523D01*
X252927547Y-97059523D02*
X253165642Y-97059523D01*
X253165642Y-97059523D02*
X253260880Y-97011904D01*
X253260880Y-97011904D02*
X253308500Y-96964285D01*
X253308500Y-96964285D02*
X253356119Y-96869047D01*
X253356119Y-96869047D02*
X253356119Y-96583333D01*
X253356119Y-96583333D02*
X253308500Y-96488095D01*
X253308500Y-96488095D02*
X253260880Y-96440476D01*
X252451357Y-97440476D02*
X252403738Y-97488095D01*
X252403738Y-97488095D02*
X252356119Y-97583333D01*
X252356119Y-97583333D02*
X252356119Y-97821428D01*
X252356119Y-97821428D02*
X252403738Y-97916666D01*
X252403738Y-97916666D02*
X252451357Y-97964285D01*
X252451357Y-97964285D02*
X252546595Y-98011904D01*
X252546595Y-98011904D02*
X252641833Y-98011904D01*
X252641833Y-98011904D02*
X252784690Y-97964285D01*
X252784690Y-97964285D02*
X253356119Y-97392857D01*
X253356119Y-97392857D02*
X253356119Y-98011904D01*
X219656119Y-130957142D02*
X219179928Y-130623809D01*
X219656119Y-130385714D02*
X218656119Y-130385714D01*
X218656119Y-130385714D02*
X218656119Y-130766666D01*
X218656119Y-130766666D02*
X218703738Y-130861904D01*
X218703738Y-130861904D02*
X218751357Y-130909523D01*
X218751357Y-130909523D02*
X218846595Y-130957142D01*
X218846595Y-130957142D02*
X218989452Y-130957142D01*
X218989452Y-130957142D02*
X219084690Y-130909523D01*
X219084690Y-130909523D02*
X219132309Y-130861904D01*
X219132309Y-130861904D02*
X219179928Y-130766666D01*
X219179928Y-130766666D02*
X219179928Y-130385714D01*
X218751357Y-131338095D02*
X218703738Y-131385714D01*
X218703738Y-131385714D02*
X218656119Y-131480952D01*
X218656119Y-131480952D02*
X218656119Y-131719047D01*
X218656119Y-131719047D02*
X218703738Y-131814285D01*
X218703738Y-131814285D02*
X218751357Y-131861904D01*
X218751357Y-131861904D02*
X218846595Y-131909523D01*
X218846595Y-131909523D02*
X218941833Y-131909523D01*
X218941833Y-131909523D02*
X219084690Y-131861904D01*
X219084690Y-131861904D02*
X219656119Y-131290476D01*
X219656119Y-131290476D02*
X219656119Y-131909523D01*
X219656119Y-132385714D02*
X219656119Y-132576190D01*
X219656119Y-132576190D02*
X219608500Y-132671428D01*
X219608500Y-132671428D02*
X219560880Y-132719047D01*
X219560880Y-132719047D02*
X219418023Y-132814285D01*
X219418023Y-132814285D02*
X219227547Y-132861904D01*
X219227547Y-132861904D02*
X218846595Y-132861904D01*
X218846595Y-132861904D02*
X218751357Y-132814285D01*
X218751357Y-132814285D02*
X218703738Y-132766666D01*
X218703738Y-132766666D02*
X218656119Y-132671428D01*
X218656119Y-132671428D02*
X218656119Y-132480952D01*
X218656119Y-132480952D02*
X218703738Y-132385714D01*
X218703738Y-132385714D02*
X218751357Y-132338095D01*
X218751357Y-132338095D02*
X218846595Y-132290476D01*
X218846595Y-132290476D02*
X219084690Y-132290476D01*
X219084690Y-132290476D02*
X219179928Y-132338095D01*
X219179928Y-132338095D02*
X219227547Y-132385714D01*
X219227547Y-132385714D02*
X219275166Y-132480952D01*
X219275166Y-132480952D02*
X219275166Y-132671428D01*
X219275166Y-132671428D02*
X219227547Y-132766666D01*
X219227547Y-132766666D02*
X219179928Y-132814285D01*
X219179928Y-132814285D02*
X219084690Y-132861904D01*
X203506119Y-93925714D02*
X202506119Y-93925714D01*
X202506119Y-93925714D02*
X202506119Y-94163809D01*
X202506119Y-94163809D02*
X202553738Y-94306666D01*
X202553738Y-94306666D02*
X202648976Y-94401904D01*
X202648976Y-94401904D02*
X202744214Y-94449523D01*
X202744214Y-94449523D02*
X202934690Y-94497142D01*
X202934690Y-94497142D02*
X203077547Y-94497142D01*
X203077547Y-94497142D02*
X203268023Y-94449523D01*
X203268023Y-94449523D02*
X203363261Y-94401904D01*
X203363261Y-94401904D02*
X203458500Y-94306666D01*
X203458500Y-94306666D02*
X203506119Y-94163809D01*
X203506119Y-94163809D02*
X203506119Y-93925714D01*
X203506119Y-95449523D02*
X203506119Y-94878095D01*
X203506119Y-95163809D02*
X202506119Y-95163809D01*
X202506119Y-95163809D02*
X202648976Y-95068571D01*
X202648976Y-95068571D02*
X202744214Y-94973333D01*
X202744214Y-94973333D02*
X202791833Y-94878095D01*
X202506119Y-95782857D02*
X202506119Y-96401904D01*
X202506119Y-96401904D02*
X202887071Y-96068571D01*
X202887071Y-96068571D02*
X202887071Y-96211428D01*
X202887071Y-96211428D02*
X202934690Y-96306666D01*
X202934690Y-96306666D02*
X202982309Y-96354285D01*
X202982309Y-96354285D02*
X203077547Y-96401904D01*
X203077547Y-96401904D02*
X203315642Y-96401904D01*
X203315642Y-96401904D02*
X203410880Y-96354285D01*
X203410880Y-96354285D02*
X203458500Y-96306666D01*
X203458500Y-96306666D02*
X203506119Y-96211428D01*
X203506119Y-96211428D02*
X203506119Y-95925714D01*
X203506119Y-95925714D02*
X203458500Y-95830476D01*
X203458500Y-95830476D02*
X203410880Y-95782857D01*
X213795238Y-87608190D02*
X213890476Y-87560571D01*
X213890476Y-87560571D02*
X213985714Y-87465333D01*
X213985714Y-87465333D02*
X214128571Y-87322475D01*
X214128571Y-87322475D02*
X214223809Y-87274856D01*
X214223809Y-87274856D02*
X214319047Y-87274856D01*
X214271428Y-87512952D02*
X214366666Y-87465333D01*
X214366666Y-87465333D02*
X214461904Y-87370094D01*
X214461904Y-87370094D02*
X214509523Y-87179618D01*
X214509523Y-87179618D02*
X214509523Y-86846285D01*
X214509523Y-86846285D02*
X214461904Y-86655809D01*
X214461904Y-86655809D02*
X214366666Y-86560571D01*
X214366666Y-86560571D02*
X214271428Y-86512952D01*
X214271428Y-86512952D02*
X214080952Y-86512952D01*
X214080952Y-86512952D02*
X213985714Y-86560571D01*
X213985714Y-86560571D02*
X213890476Y-86655809D01*
X213890476Y-86655809D02*
X213842857Y-86846285D01*
X213842857Y-86846285D02*
X213842857Y-87179618D01*
X213842857Y-87179618D02*
X213890476Y-87370094D01*
X213890476Y-87370094D02*
X213985714Y-87465333D01*
X213985714Y-87465333D02*
X214080952Y-87512952D01*
X214080952Y-87512952D02*
X214271428Y-87512952D01*
X213509523Y-86512952D02*
X212890476Y-86512952D01*
X212890476Y-86512952D02*
X213223809Y-86893904D01*
X213223809Y-86893904D02*
X213080952Y-86893904D01*
X213080952Y-86893904D02*
X212985714Y-86941523D01*
X212985714Y-86941523D02*
X212938095Y-86989142D01*
X212938095Y-86989142D02*
X212890476Y-87084380D01*
X212890476Y-87084380D02*
X212890476Y-87322475D01*
X212890476Y-87322475D02*
X212938095Y-87417713D01*
X212938095Y-87417713D02*
X212985714Y-87465333D01*
X212985714Y-87465333D02*
X213080952Y-87512952D01*
X213080952Y-87512952D02*
X213366666Y-87512952D01*
X213366666Y-87512952D02*
X213461904Y-87465333D01*
X213461904Y-87465333D02*
X213509523Y-87417713D01*
X219556119Y-92407142D02*
X219079928Y-92073809D01*
X219556119Y-91835714D02*
X218556119Y-91835714D01*
X218556119Y-91835714D02*
X218556119Y-92216666D01*
X218556119Y-92216666D02*
X218603738Y-92311904D01*
X218603738Y-92311904D02*
X218651357Y-92359523D01*
X218651357Y-92359523D02*
X218746595Y-92407142D01*
X218746595Y-92407142D02*
X218889452Y-92407142D01*
X218889452Y-92407142D02*
X218984690Y-92359523D01*
X218984690Y-92359523D02*
X219032309Y-92311904D01*
X219032309Y-92311904D02*
X219079928Y-92216666D01*
X219079928Y-92216666D02*
X219079928Y-91835714D01*
X218556119Y-92740476D02*
X218556119Y-93359523D01*
X218556119Y-93359523D02*
X218937071Y-93026190D01*
X218937071Y-93026190D02*
X218937071Y-93169047D01*
X218937071Y-93169047D02*
X218984690Y-93264285D01*
X218984690Y-93264285D02*
X219032309Y-93311904D01*
X219032309Y-93311904D02*
X219127547Y-93359523D01*
X219127547Y-93359523D02*
X219365642Y-93359523D01*
X219365642Y-93359523D02*
X219460880Y-93311904D01*
X219460880Y-93311904D02*
X219508500Y-93264285D01*
X219508500Y-93264285D02*
X219556119Y-93169047D01*
X219556119Y-93169047D02*
X219556119Y-92883333D01*
X219556119Y-92883333D02*
X219508500Y-92788095D01*
X219508500Y-92788095D02*
X219460880Y-92740476D01*
X218556119Y-93978571D02*
X218556119Y-94073809D01*
X218556119Y-94073809D02*
X218603738Y-94169047D01*
X218603738Y-94169047D02*
X218651357Y-94216666D01*
X218651357Y-94216666D02*
X218746595Y-94264285D01*
X218746595Y-94264285D02*
X218937071Y-94311904D01*
X218937071Y-94311904D02*
X219175166Y-94311904D01*
X219175166Y-94311904D02*
X219365642Y-94264285D01*
X219365642Y-94264285D02*
X219460880Y-94216666D01*
X219460880Y-94216666D02*
X219508500Y-94169047D01*
X219508500Y-94169047D02*
X219556119Y-94073809D01*
X219556119Y-94073809D02*
X219556119Y-93978571D01*
X219556119Y-93978571D02*
X219508500Y-93883333D01*
X219508500Y-93883333D02*
X219460880Y-93835714D01*
X219460880Y-93835714D02*
X219365642Y-93788095D01*
X219365642Y-93788095D02*
X219175166Y-93740476D01*
X219175166Y-93740476D02*
X218937071Y-93740476D01*
X218937071Y-93740476D02*
X218746595Y-93788095D01*
X218746595Y-93788095D02*
X218651357Y-93835714D01*
X218651357Y-93835714D02*
X218603738Y-93883333D01*
X218603738Y-93883333D02*
X218556119Y-93978571D01*
X213345238Y-126151357D02*
X213440476Y-126103738D01*
X213440476Y-126103738D02*
X213535714Y-126008500D01*
X213535714Y-126008500D02*
X213678571Y-125865642D01*
X213678571Y-125865642D02*
X213773809Y-125818023D01*
X213773809Y-125818023D02*
X213869047Y-125818023D01*
X213821428Y-126056119D02*
X213916666Y-126008500D01*
X213916666Y-126008500D02*
X214011904Y-125913261D01*
X214011904Y-125913261D02*
X214059523Y-125722785D01*
X214059523Y-125722785D02*
X214059523Y-125389452D01*
X214059523Y-125389452D02*
X214011904Y-125198976D01*
X214011904Y-125198976D02*
X213916666Y-125103738D01*
X213916666Y-125103738D02*
X213821428Y-125056119D01*
X213821428Y-125056119D02*
X213630952Y-125056119D01*
X213630952Y-125056119D02*
X213535714Y-125103738D01*
X213535714Y-125103738D02*
X213440476Y-125198976D01*
X213440476Y-125198976D02*
X213392857Y-125389452D01*
X213392857Y-125389452D02*
X213392857Y-125722785D01*
X213392857Y-125722785D02*
X213440476Y-125913261D01*
X213440476Y-125913261D02*
X213535714Y-126008500D01*
X213535714Y-126008500D02*
X213630952Y-126056119D01*
X213630952Y-126056119D02*
X213821428Y-126056119D01*
X213011904Y-125151357D02*
X212964285Y-125103738D01*
X212964285Y-125103738D02*
X212869047Y-125056119D01*
X212869047Y-125056119D02*
X212630952Y-125056119D01*
X212630952Y-125056119D02*
X212535714Y-125103738D01*
X212535714Y-125103738D02*
X212488095Y-125151357D01*
X212488095Y-125151357D02*
X212440476Y-125246595D01*
X212440476Y-125246595D02*
X212440476Y-125341833D01*
X212440476Y-125341833D02*
X212488095Y-125484690D01*
X212488095Y-125484690D02*
X213059523Y-126056119D01*
X213059523Y-126056119D02*
X212440476Y-126056119D01*
X225747274Y-100492796D02*
X226556797Y-100492796D01*
X226556797Y-100492796D02*
X226652035Y-100540415D01*
X226652035Y-100540415D02*
X226699655Y-100588034D01*
X226699655Y-100588034D02*
X226747274Y-100683272D01*
X226747274Y-100683272D02*
X226747274Y-100873748D01*
X226747274Y-100873748D02*
X226699655Y-100968986D01*
X226699655Y-100968986D02*
X226652035Y-101016605D01*
X226652035Y-101016605D02*
X226556797Y-101064224D01*
X226556797Y-101064224D02*
X225747274Y-101064224D01*
X226175845Y-101683272D02*
X226128226Y-101588034D01*
X226128226Y-101588034D02*
X226080607Y-101540415D01*
X226080607Y-101540415D02*
X225985369Y-101492796D01*
X225985369Y-101492796D02*
X225937750Y-101492796D01*
X225937750Y-101492796D02*
X225842512Y-101540415D01*
X225842512Y-101540415D02*
X225794893Y-101588034D01*
X225794893Y-101588034D02*
X225747274Y-101683272D01*
X225747274Y-101683272D02*
X225747274Y-101873748D01*
X225747274Y-101873748D02*
X225794893Y-101968986D01*
X225794893Y-101968986D02*
X225842512Y-102016605D01*
X225842512Y-102016605D02*
X225937750Y-102064224D01*
X225937750Y-102064224D02*
X225985369Y-102064224D01*
X225985369Y-102064224D02*
X226080607Y-102016605D01*
X226080607Y-102016605D02*
X226128226Y-101968986D01*
X226128226Y-101968986D02*
X226175845Y-101873748D01*
X226175845Y-101873748D02*
X226175845Y-101683272D01*
X226175845Y-101683272D02*
X226223464Y-101588034D01*
X226223464Y-101588034D02*
X226271083Y-101540415D01*
X226271083Y-101540415D02*
X226366321Y-101492796D01*
X226366321Y-101492796D02*
X226556797Y-101492796D01*
X226556797Y-101492796D02*
X226652035Y-101540415D01*
X226652035Y-101540415D02*
X226699655Y-101588034D01*
X226699655Y-101588034D02*
X226747274Y-101683272D01*
X226747274Y-101683272D02*
X226747274Y-101873748D01*
X226747274Y-101873748D02*
X226699655Y-101968986D01*
X226699655Y-101968986D02*
X226652035Y-102016605D01*
X226652035Y-102016605D02*
X226556797Y-102064224D01*
X226556797Y-102064224D02*
X226366321Y-102064224D01*
X226366321Y-102064224D02*
X226271083Y-102016605D01*
X226271083Y-102016605D02*
X226223464Y-101968986D01*
X226223464Y-101968986D02*
X226175845Y-101873748D01*
X213945238Y-58654634D02*
X214040476Y-58607015D01*
X214040476Y-58607015D02*
X214135714Y-58511777D01*
X214135714Y-58511777D02*
X214278571Y-58368919D01*
X214278571Y-58368919D02*
X214373809Y-58321300D01*
X214373809Y-58321300D02*
X214469047Y-58321300D01*
X214421428Y-58559396D02*
X214516666Y-58511777D01*
X214516666Y-58511777D02*
X214611904Y-58416538D01*
X214611904Y-58416538D02*
X214659523Y-58226062D01*
X214659523Y-58226062D02*
X214659523Y-57892729D01*
X214659523Y-57892729D02*
X214611904Y-57702253D01*
X214611904Y-57702253D02*
X214516666Y-57607015D01*
X214516666Y-57607015D02*
X214421428Y-57559396D01*
X214421428Y-57559396D02*
X214230952Y-57559396D01*
X214230952Y-57559396D02*
X214135714Y-57607015D01*
X214135714Y-57607015D02*
X214040476Y-57702253D01*
X214040476Y-57702253D02*
X213992857Y-57892729D01*
X213992857Y-57892729D02*
X213992857Y-58226062D01*
X213992857Y-58226062D02*
X214040476Y-58416538D01*
X214040476Y-58416538D02*
X214135714Y-58511777D01*
X214135714Y-58511777D02*
X214230952Y-58559396D01*
X214230952Y-58559396D02*
X214421428Y-58559396D01*
X213421428Y-57987967D02*
X213516666Y-57940348D01*
X213516666Y-57940348D02*
X213564285Y-57892729D01*
X213564285Y-57892729D02*
X213611904Y-57797491D01*
X213611904Y-57797491D02*
X213611904Y-57749872D01*
X213611904Y-57749872D02*
X213564285Y-57654634D01*
X213564285Y-57654634D02*
X213516666Y-57607015D01*
X213516666Y-57607015D02*
X213421428Y-57559396D01*
X213421428Y-57559396D02*
X213230952Y-57559396D01*
X213230952Y-57559396D02*
X213135714Y-57607015D01*
X213135714Y-57607015D02*
X213088095Y-57654634D01*
X213088095Y-57654634D02*
X213040476Y-57749872D01*
X213040476Y-57749872D02*
X213040476Y-57797491D01*
X213040476Y-57797491D02*
X213088095Y-57892729D01*
X213088095Y-57892729D02*
X213135714Y-57940348D01*
X213135714Y-57940348D02*
X213230952Y-57987967D01*
X213230952Y-57987967D02*
X213421428Y-57987967D01*
X213421428Y-57987967D02*
X213516666Y-58035586D01*
X213516666Y-58035586D02*
X213564285Y-58083205D01*
X213564285Y-58083205D02*
X213611904Y-58178443D01*
X213611904Y-58178443D02*
X213611904Y-58368919D01*
X213611904Y-58368919D02*
X213564285Y-58464157D01*
X213564285Y-58464157D02*
X213516666Y-58511777D01*
X213516666Y-58511777D02*
X213421428Y-58559396D01*
X213421428Y-58559396D02*
X213230952Y-58559396D01*
X213230952Y-58559396D02*
X213135714Y-58511777D01*
X213135714Y-58511777D02*
X213088095Y-58464157D01*
X213088095Y-58464157D02*
X213040476Y-58368919D01*
X213040476Y-58368919D02*
X213040476Y-58178443D01*
X213040476Y-58178443D02*
X213088095Y-58083205D01*
X213088095Y-58083205D02*
X213135714Y-58035586D01*
X213135714Y-58035586D02*
X213230952Y-57987967D01*
X218562857Y-44606119D02*
X218896190Y-44129928D01*
X219134285Y-44606119D02*
X219134285Y-43606119D01*
X219134285Y-43606119D02*
X218753333Y-43606119D01*
X218753333Y-43606119D02*
X218658095Y-43653738D01*
X218658095Y-43653738D02*
X218610476Y-43701357D01*
X218610476Y-43701357D02*
X218562857Y-43796595D01*
X218562857Y-43796595D02*
X218562857Y-43939452D01*
X218562857Y-43939452D02*
X218610476Y-44034690D01*
X218610476Y-44034690D02*
X218658095Y-44082309D01*
X218658095Y-44082309D02*
X218753333Y-44129928D01*
X218753333Y-44129928D02*
X219134285Y-44129928D01*
X218229523Y-43606119D02*
X217610476Y-43606119D01*
X217610476Y-43606119D02*
X217943809Y-43987071D01*
X217943809Y-43987071D02*
X217800952Y-43987071D01*
X217800952Y-43987071D02*
X217705714Y-44034690D01*
X217705714Y-44034690D02*
X217658095Y-44082309D01*
X217658095Y-44082309D02*
X217610476Y-44177547D01*
X217610476Y-44177547D02*
X217610476Y-44415642D01*
X217610476Y-44415642D02*
X217658095Y-44510880D01*
X217658095Y-44510880D02*
X217705714Y-44558500D01*
X217705714Y-44558500D02*
X217800952Y-44606119D01*
X217800952Y-44606119D02*
X218086666Y-44606119D01*
X218086666Y-44606119D02*
X218181904Y-44558500D01*
X218181904Y-44558500D02*
X218229523Y-44510880D01*
X217039047Y-44034690D02*
X217134285Y-43987071D01*
X217134285Y-43987071D02*
X217181904Y-43939452D01*
X217181904Y-43939452D02*
X217229523Y-43844214D01*
X217229523Y-43844214D02*
X217229523Y-43796595D01*
X217229523Y-43796595D02*
X217181904Y-43701357D01*
X217181904Y-43701357D02*
X217134285Y-43653738D01*
X217134285Y-43653738D02*
X217039047Y-43606119D01*
X217039047Y-43606119D02*
X216848571Y-43606119D01*
X216848571Y-43606119D02*
X216753333Y-43653738D01*
X216753333Y-43653738D02*
X216705714Y-43701357D01*
X216705714Y-43701357D02*
X216658095Y-43796595D01*
X216658095Y-43796595D02*
X216658095Y-43844214D01*
X216658095Y-43844214D02*
X216705714Y-43939452D01*
X216705714Y-43939452D02*
X216753333Y-43987071D01*
X216753333Y-43987071D02*
X216848571Y-44034690D01*
X216848571Y-44034690D02*
X217039047Y-44034690D01*
X217039047Y-44034690D02*
X217134285Y-44082309D01*
X217134285Y-44082309D02*
X217181904Y-44129928D01*
X217181904Y-44129928D02*
X217229523Y-44225166D01*
X217229523Y-44225166D02*
X217229523Y-44415642D01*
X217229523Y-44415642D02*
X217181904Y-44510880D01*
X217181904Y-44510880D02*
X217134285Y-44558500D01*
X217134285Y-44558500D02*
X217039047Y-44606119D01*
X217039047Y-44606119D02*
X216848571Y-44606119D01*
X216848571Y-44606119D02*
X216753333Y-44558500D01*
X216753333Y-44558500D02*
X216705714Y-44510880D01*
X216705714Y-44510880D02*
X216658095Y-44415642D01*
X216658095Y-44415642D02*
X216658095Y-44225166D01*
X216658095Y-44225166D02*
X216705714Y-44129928D01*
X216705714Y-44129928D02*
X216753333Y-44082309D01*
X216753333Y-44082309D02*
X216848571Y-44034690D01*
X219542857Y-52656119D02*
X219876190Y-52179928D01*
X220114285Y-52656119D02*
X220114285Y-51656119D01*
X220114285Y-51656119D02*
X219733333Y-51656119D01*
X219733333Y-51656119D02*
X219638095Y-51703738D01*
X219638095Y-51703738D02*
X219590476Y-51751357D01*
X219590476Y-51751357D02*
X219542857Y-51846595D01*
X219542857Y-51846595D02*
X219542857Y-51989452D01*
X219542857Y-51989452D02*
X219590476Y-52084690D01*
X219590476Y-52084690D02*
X219638095Y-52132309D01*
X219638095Y-52132309D02*
X219733333Y-52179928D01*
X219733333Y-52179928D02*
X220114285Y-52179928D01*
X218685714Y-51989452D02*
X218685714Y-52656119D01*
X218923809Y-51608500D02*
X219161904Y-52322785D01*
X219161904Y-52322785D02*
X218542857Y-52322785D01*
X218209523Y-51751357D02*
X218161904Y-51703738D01*
X218161904Y-51703738D02*
X218066666Y-51656119D01*
X218066666Y-51656119D02*
X217828571Y-51656119D01*
X217828571Y-51656119D02*
X217733333Y-51703738D01*
X217733333Y-51703738D02*
X217685714Y-51751357D01*
X217685714Y-51751357D02*
X217638095Y-51846595D01*
X217638095Y-51846595D02*
X217638095Y-51941833D01*
X217638095Y-51941833D02*
X217685714Y-52084690D01*
X217685714Y-52084690D02*
X218257142Y-52656119D01*
X218257142Y-52656119D02*
X217638095Y-52656119D01*
X219306119Y-64107142D02*
X218829928Y-63773809D01*
X219306119Y-63535714D02*
X218306119Y-63535714D01*
X218306119Y-63535714D02*
X218306119Y-63916666D01*
X218306119Y-63916666D02*
X218353738Y-64011904D01*
X218353738Y-64011904D02*
X218401357Y-64059523D01*
X218401357Y-64059523D02*
X218496595Y-64107142D01*
X218496595Y-64107142D02*
X218639452Y-64107142D01*
X218639452Y-64107142D02*
X218734690Y-64059523D01*
X218734690Y-64059523D02*
X218782309Y-64011904D01*
X218782309Y-64011904D02*
X218829928Y-63916666D01*
X218829928Y-63916666D02*
X218829928Y-63535714D01*
X218639452Y-64964285D02*
X219306119Y-64964285D01*
X218258500Y-64726190D02*
X218972785Y-64488095D01*
X218972785Y-64488095D02*
X218972785Y-65107142D01*
X218306119Y-65392857D02*
X218306119Y-66011904D01*
X218306119Y-66011904D02*
X218687071Y-65678571D01*
X218687071Y-65678571D02*
X218687071Y-65821428D01*
X218687071Y-65821428D02*
X218734690Y-65916666D01*
X218734690Y-65916666D02*
X218782309Y-65964285D01*
X218782309Y-65964285D02*
X218877547Y-66011904D01*
X218877547Y-66011904D02*
X219115642Y-66011904D01*
X219115642Y-66011904D02*
X219210880Y-65964285D01*
X219210880Y-65964285D02*
X219258500Y-65916666D01*
X219258500Y-65916666D02*
X219306119Y-65821428D01*
X219306119Y-65821428D02*
X219306119Y-65535714D01*
X219306119Y-65535714D02*
X219258500Y-65440476D01*
X219258500Y-65440476D02*
X219210880Y-65392857D01*
%TO.C,U11*%
D13*
X227866000Y-56960000D02*
G75*
G02*
X225834000Y-56960000I-1016000J0D01*
G01*
X229771000Y-56960000D02*
X229771000Y-62040000D01*
X229771000Y-56960000D02*
X227866000Y-56960000D01*
X223929000Y-62040000D02*
X229771000Y-62040000D01*
X223929000Y-62040000D02*
X223929000Y-56960000D01*
X223929000Y-56960000D02*
X225834000Y-56960000D01*
%TO.C,R31*%
D14*
X218085000Y-75227064D02*
X218085000Y-74772936D01*
X219555000Y-75227064D02*
X219555000Y-74772936D01*
%TO.C,C30*%
X247972936Y-65315000D02*
X248427064Y-65315000D01*
X247972936Y-66785000D02*
X248427064Y-66785000D01*
%TO.C,D12*%
X198450000Y-132010000D02*
X198450000Y-125000000D01*
X201750000Y-132010000D02*
X198450000Y-132010000D01*
X201750000Y-132010000D02*
X201750000Y-125000000D01*
%TO.C,U10*%
D13*
X223629000Y-45460000D02*
X225534000Y-45460000D01*
X223629000Y-50540000D02*
X223629000Y-45460000D01*
X223629000Y-50540000D02*
X229471000Y-50540000D01*
X229471000Y-45460000D02*
X227566000Y-45460000D01*
X229471000Y-45460000D02*
X229471000Y-50540000D01*
X227566000Y-45460000D02*
G75*
G02*
X225534000Y-45460000I-1016000J0D01*
G01*
%TO.C,D15*%
D14*
X198450000Y-116510000D02*
X198450000Y-109500000D01*
X201750000Y-116510000D02*
X198450000Y-116510000D01*
X201750000Y-116510000D02*
X201750000Y-109500000D01*
%TO.C,U6*%
D13*
X224179000Y-85701961D02*
X226084000Y-85701961D01*
X224179000Y-90781961D02*
X224179000Y-85701961D01*
X224179000Y-90781961D02*
X230021000Y-90781961D01*
X230021000Y-85701961D02*
X228116000Y-85701961D01*
X230021000Y-85701961D02*
X230021000Y-90781961D01*
X228116000Y-85701961D02*
G75*
G02*
X226084000Y-85701961I-1016000J0D01*
G01*
%TO.C,Q5*%
D14*
X215390000Y-104436606D02*
X215390000Y-105436606D01*
X215390000Y-106556606D02*
X215390000Y-107556606D01*
X215390000Y-107556606D02*
X216910000Y-107556606D01*
X216910000Y-104436606D02*
X215390000Y-104436606D01*
X216910000Y-104486606D02*
X216910000Y-104436606D01*
X216910000Y-106386606D02*
X216910000Y-105606606D01*
X216910000Y-107556606D02*
X216910000Y-107506606D01*
X217450000Y-105616606D02*
X217210000Y-105946606D01*
X217690000Y-105946606D01*
X217450000Y-105616606D01*
G36*
X217690000Y-105946606D02*
G01*
X217210000Y-105946606D01*
X217450000Y-105616606D01*
X217690000Y-105946606D01*
G37*
%TO.C,D21*%
X197950000Y-50010000D02*
X197950000Y-43000000D01*
X201250000Y-50010000D02*
X197950000Y-50010000D01*
X201250000Y-50010000D02*
X201250000Y-43000000D01*
%TO.C,U7*%
D13*
X223079000Y-71300000D02*
X224984000Y-71300000D01*
X223079000Y-76380000D02*
X223079000Y-71300000D01*
X223079000Y-76380000D02*
X228921000Y-76380000D01*
X228921000Y-71300000D02*
X227016000Y-71300000D01*
X228921000Y-71300000D02*
X228921000Y-76380000D01*
X227016000Y-71300000D02*
G75*
G02*
X224984000Y-71300000I-1016000J0D01*
G01*
%TO.C,R39*%
D14*
X218147064Y-56690490D02*
X217692936Y-56690490D01*
X218147064Y-58160490D02*
X217692936Y-58160490D01*
%TO.C,R27*%
X218147064Y-71055000D02*
X217692936Y-71055000D01*
X218147064Y-72525000D02*
X217692936Y-72525000D01*
%TO.C,C19*%
X255865000Y-103672936D02*
X255865000Y-104127064D01*
X257335000Y-103672936D02*
X257335000Y-104127064D01*
%TO.C,Q7*%
X214620000Y-47720000D02*
X214620000Y-48720000D01*
X214620000Y-49840000D02*
X214620000Y-50840000D01*
X214620000Y-50840000D02*
X216140000Y-50840000D01*
X216140000Y-47720000D02*
X214620000Y-47720000D01*
X216140000Y-47770000D02*
X216140000Y-47720000D01*
X216140000Y-49670000D02*
X216140000Y-48890000D01*
X216140000Y-50840000D02*
X216140000Y-50790000D01*
X216680000Y-48900000D02*
X216440000Y-49230000D01*
X216920000Y-49230000D01*
X216680000Y-48900000D01*
G36*
X216920000Y-49230000D02*
G01*
X216440000Y-49230000D01*
X216680000Y-48900000D01*
X216920000Y-49230000D01*
G37*
%TO.C,C29*%
X247922936Y-60315000D02*
X248377064Y-60315000D01*
X247922936Y-61785000D02*
X248377064Y-61785000D01*
%TO.C,Q4*%
X214590000Y-73370000D02*
X214590000Y-74370000D01*
X214590000Y-75490000D02*
X214590000Y-76490000D01*
X214590000Y-76490000D02*
X216110000Y-76490000D01*
X216110000Y-73370000D02*
X214590000Y-73370000D01*
X216110000Y-73420000D02*
X216110000Y-73370000D01*
X216110000Y-75320000D02*
X216110000Y-74540000D01*
X216110000Y-76490000D02*
X216110000Y-76440000D01*
X216650000Y-74550000D02*
X216410000Y-74880000D01*
X216890000Y-74880000D01*
X216650000Y-74550000D01*
G36*
X216890000Y-74880000D02*
G01*
X216410000Y-74880000D01*
X216650000Y-74550000D01*
X216890000Y-74880000D01*
G37*
%TO.C,R25*%
X218397064Y-125735000D02*
X217942936Y-125735000D01*
X218397064Y-124265000D02*
X217942936Y-124265000D01*
%TO.C,U5*%
D13*
X224179000Y-124460000D02*
X226084000Y-124460000D01*
X224179000Y-129540000D02*
X224179000Y-124460000D01*
X224179000Y-129540000D02*
X230021000Y-129540000D01*
X230021000Y-124460000D02*
X228116000Y-124460000D01*
X230021000Y-124460000D02*
X230021000Y-129540000D01*
X228116000Y-124460000D02*
G75*
G02*
X226084000Y-124460000I-1016000J0D01*
G01*
%TO.C,R28*%
D14*
X218397064Y-102031606D02*
X217942936Y-102031606D01*
X218397064Y-103501606D02*
X217942936Y-103501606D01*
%TO.C,R32*%
X218335000Y-106143670D02*
X218335000Y-105689542D01*
X219805000Y-106143670D02*
X219805000Y-105689542D01*
%TO.C,D22*%
X197950000Y-66510000D02*
X197950000Y-59500000D01*
X201250000Y-66510000D02*
X197950000Y-66510000D01*
X201250000Y-66510000D02*
X201250000Y-59500000D01*
%TO.C,R26*%
X218397064Y-86871833D02*
X217942936Y-86871833D01*
X218397064Y-85401833D02*
X217942936Y-85401833D01*
%TO.C,D14*%
X198200000Y-82650000D02*
X198200000Y-75640000D01*
X201500000Y-82650000D02*
X198200000Y-82650000D01*
X201500000Y-82650000D02*
X201500000Y-75640000D01*
%TO.C,C32*%
X252165000Y-100022936D02*
X252165000Y-100477064D01*
X253635000Y-100022936D02*
X253635000Y-100477064D01*
%TO.C,R29*%
X218335000Y-128227064D02*
X218335000Y-127772936D01*
X219805000Y-128227064D02*
X219805000Y-127772936D01*
%TO.C,D13*%
X198200000Y-99650000D02*
X198200000Y-92640000D01*
X201500000Y-99650000D02*
X198200000Y-99650000D01*
X201500000Y-99650000D02*
X201500000Y-92640000D01*
%TO.C,Q3*%
X215040000Y-87896833D02*
X215040000Y-88896833D01*
X215040000Y-90016833D02*
X215040000Y-91016833D01*
X215040000Y-91016833D02*
X216560000Y-91016833D01*
X216560000Y-87896833D02*
X215040000Y-87896833D01*
X216560000Y-87946833D02*
X216560000Y-87896833D01*
X216560000Y-89846833D02*
X216560000Y-89066833D01*
X216560000Y-91016833D02*
X216560000Y-90966833D01*
X217100000Y-89076833D02*
X216860000Y-89406833D01*
X217340000Y-89406833D01*
X217100000Y-89076833D01*
G36*
X217340000Y-89406833D02*
G01*
X216860000Y-89406833D01*
X217100000Y-89076833D01*
X217340000Y-89406833D01*
G37*
%TO.C,R30*%
X218335000Y-89723897D02*
X218335000Y-89269769D01*
X219805000Y-89723897D02*
X219805000Y-89269769D01*
%TO.C,Q2*%
X215340000Y-126440000D02*
X215340000Y-127440000D01*
X215340000Y-128560000D02*
X215340000Y-129560000D01*
X215340000Y-129560000D02*
X216860000Y-129560000D01*
X216860000Y-126440000D02*
X215340000Y-126440000D01*
X216860000Y-126490000D02*
X216860000Y-126440000D01*
X216860000Y-128390000D02*
X216860000Y-127610000D01*
X216860000Y-129560000D02*
X216860000Y-129510000D01*
X217400000Y-127620000D02*
X217160000Y-127950000D01*
X217640000Y-127950000D01*
X217400000Y-127620000D01*
G36*
X217640000Y-127950000D02*
G01*
X217160000Y-127950000D01*
X217400000Y-127620000D01*
X217640000Y-127950000D01*
G37*
%TO.C,U8*%
D13*
X223879000Y-102276606D02*
X225784000Y-102276606D01*
X223879000Y-107356606D02*
X223879000Y-102276606D01*
X223879000Y-107356606D02*
X229721000Y-107356606D01*
X229721000Y-102276606D02*
X227816000Y-102276606D01*
X229721000Y-102276606D02*
X229721000Y-107356606D01*
X227816000Y-102276606D02*
G75*
G02*
X225784000Y-102276606I-1016000J0D01*
G01*
%TO.C,Q8*%
D14*
X214864796Y-58943277D02*
X214864796Y-59943277D01*
X214864796Y-61063277D02*
X214864796Y-62063277D01*
X214864796Y-62063277D02*
X216384796Y-62063277D01*
X216384796Y-58943277D02*
X214864796Y-58943277D01*
X216384796Y-58993277D02*
X216384796Y-58943277D01*
X216384796Y-60893277D02*
X216384796Y-60113277D01*
X216384796Y-62063277D02*
X216384796Y-62013277D01*
X216924796Y-60123277D02*
X216684796Y-60453277D01*
X217164796Y-60453277D01*
X216924796Y-60123277D01*
G36*
X217164796Y-60453277D02*
G01*
X216684796Y-60453277D01*
X216924796Y-60123277D01*
X217164796Y-60453277D01*
G37*
%TO.C,R38*%
X218147064Y-45225000D02*
X217692936Y-45225000D01*
X218147064Y-46695000D02*
X217692936Y-46695000D01*
%TO.C,R42*%
X218085000Y-49327064D02*
X218085000Y-48872936D01*
X219555000Y-49327064D02*
X219555000Y-48872936D01*
%TO.C,R43*%
X218085000Y-60910341D02*
X218085000Y-60456213D01*
X219555000Y-60910341D02*
X219555000Y-60456213D01*
%TD*%
M02*
