%TF.GenerationSoftware,KiCad,Pcbnew,10.0.5*%
%TF.CreationDate,2026-08-05T15:45:12+07:00*%
%TF.ProjectId,extned_board,6578746e-6564-45f6-926f-6172642e6b69,rev?*%
%TF.SameCoordinates,Original*%
%TF.FileFunction,Soldermask,Bot*%
%TF.FilePolarity,Negative*%
%FSLAX46Y46*%
G04 Gerber Fmt 4.6, Leading zero omitted, Abs format (unit mm)*
G04 Created by KiCad (PCBNEW 10.0.5) date 2026-08-05 15:45:12*
%MOMM*%
%LPD*%
G01*
G04 APERTURE LIST*
G04 Aperture macros list*
%AMRoundRect*
0 Rectangle with rounded corners*
0 $1 Rounding radius*
0 $2 $3 $4 $5 $6 $7 $8 $9 X,Y pos of 4 corners*
0 Add a 4 corners polygon primitive as box body*
4,1,4,$2,$3,$4,$5,$6,$7,$8,$9,$2,$3,0*
0 Add four circle primitives for the rounded corners*
1,1,$1+$1,$2,$3*
1,1,$1+$1,$4,$5*
1,1,$1+$1,$6,$7*
1,1,$1+$1,$8,$9*
0 Add four rect primitives between the rounded corners*
20,1,$1+$1,$2,$3,$4,$5,0*
20,1,$1+$1,$4,$5,$6,$7,0*
20,1,$1+$1,$6,$7,$8,$9,0*
20,1,$1+$1,$8,$9,$2,$3,0*%
%AMRotRect*
0 Rectangle, with rotation*
0 The origin of the aperture is its center*
0 $1 length*
0 $2 width*
0 $3 Rotation angle, in degrees counterclockwise*
0 Add horizontal line*
21,1,$1,$2,0,0,$3*%
G04 Aperture macros list end*
%ADD10O,2.845600X1.524800*%
%ADD11C,2.744000*%
%ADD12C,1.700000*%
%ADD13C,2.400000*%
%ADD14R,1.700000X1.700000*%
%ADD15C,1.512000*%
%ADD16C,2.154000*%
%ADD17C,2.004000*%
%ADD18RotRect,1.700000X1.700000X315.000000*%
%ADD19C,2.000000*%
%ADD20R,1.500000X1.500000*%
%ADD21C,1.500000*%
%ADD22RoundRect,0.250000X0.450000X-0.350000X0.450000X0.350000X-0.450000X0.350000X-0.450000X-0.350000X0*%
%ADD23RoundRect,0.250000X-0.350000X-0.450000X0.350000X-0.450000X0.350000X0.450000X-0.350000X0.450000X0*%
%ADD24RoundRect,0.250000X0.650000X-1.500000X0.650000X1.500000X-0.650000X1.500000X-0.650000X-1.500000X0*%
%ADD25RoundRect,0.150000X0.587500X0.150000X-0.587500X0.150000X-0.587500X-0.150000X0.587500X-0.150000X0*%
%ADD26RoundRect,0.250000X0.350000X0.450000X-0.350000X0.450000X-0.350000X-0.450000X0.350000X-0.450000X0*%
%ADD27RoundRect,0.250000X-0.450000X0.350000X-0.450000X-0.350000X0.450000X-0.350000X0.450000X0.350000X0*%
G04 APERTURE END LIST*
D10*
%TO.C,U11*%
X222150001Y-58230000D03*
X222150001Y-60770000D03*
X231549999Y-60770000D03*
X231549999Y-58230000D03*
%TD*%
D11*
%TO.C,OUT2*%
X164810000Y-116310000D03*
X164810000Y-108690000D03*
%TD*%
D12*
%TO.C,Y2*%
X244800000Y-66050000D03*
X244800000Y-61050000D03*
%TD*%
D13*
%TO.C,R2*%
X169949999Y-134000000D03*
X185189999Y-134000000D03*
%TD*%
%TO.C,R4*%
X169949999Y-101000000D03*
X185189999Y-101000000D03*
%TD*%
D14*
%TO.C,J7*%
X209350000Y-48440000D03*
D12*
X209350000Y-50980000D03*
X209350000Y-53519999D03*
X209350000Y-56060000D03*
%TD*%
D15*
%TO.C,K2*%
X203700000Y-118000000D03*
X203700000Y-106000000D03*
D16*
X205700000Y-111880000D03*
D17*
X191500000Y-118000000D03*
X191500000Y-106000000D03*
%TD*%
D18*
%TO.C,Debug*%
X237794077Y-113255923D03*
D12*
X235998026Y-115051974D03*
X234201975Y-116848025D03*
X232405923Y-118644077D03*
%TD*%
D14*
%TO.C,J6*%
X209850000Y-93390000D03*
D12*
X209850000Y-95930000D03*
X209850000Y-98469999D03*
X209850000Y-101010000D03*
%TD*%
D19*
%TO.C,C3*%
X177749999Y-91000000D03*
X170249999Y-91000000D03*
%TD*%
D14*
%TO.C,J8*%
X209735737Y-70140000D03*
D12*
X209735737Y-72680000D03*
X209735737Y-75219999D03*
X209735737Y-77760000D03*
%TD*%
D19*
%TO.C,C5*%
X177749999Y-58000000D03*
X170249999Y-58000000D03*
%TD*%
%TO.C,C6*%
X177749999Y-41500000D03*
X170249999Y-41500000D03*
%TD*%
D11*
%TO.C,OUT4*%
X164810000Y-83310000D03*
X164810000Y-75690000D03*
%TD*%
D15*
%TO.C,K6*%
X203700000Y-52000000D03*
X203700000Y-40000000D03*
D16*
X205700000Y-45880000D03*
D17*
X191500000Y-52000000D03*
X191500000Y-40000000D03*
%TD*%
D19*
%TO.C,C4*%
X177749999Y-75000000D03*
X170249999Y-75000000D03*
%TD*%
D15*
%TO.C,K5*%
X203700000Y-68500000D03*
X203700000Y-56500000D03*
D16*
X205700000Y-62380000D03*
D17*
X191500000Y-68500000D03*
X191500000Y-56500000D03*
%TD*%
D15*
%TO.C,K4*%
X203700000Y-85000000D03*
X203700000Y-73000000D03*
D16*
X205700000Y-78880000D03*
D17*
X191500000Y-85000000D03*
X191500000Y-73000000D03*
%TD*%
D13*
%TO.C,R3*%
X169949999Y-117500000D03*
X185189999Y-117500000D03*
%TD*%
D15*
%TO.C,K1*%
X203700000Y-134500000D03*
X203700000Y-122500000D03*
D16*
X205700000Y-128380000D03*
D17*
X191500000Y-134500000D03*
X191500000Y-122500000D03*
%TD*%
D19*
%TO.C,C2*%
X177749999Y-107500000D03*
X170249999Y-107500000D03*
%TD*%
D13*
%TO.C,R6*%
X169949999Y-68000000D03*
X185189999Y-68000000D03*
%TD*%
D14*
%TO.C,J9*%
X209950000Y-117400000D03*
D12*
X209950000Y-119940000D03*
X209950000Y-122479999D03*
X209950000Y-125020000D03*
%TD*%
D20*
%TO.C,PS1*%
X240135000Y-44875000D03*
D21*
X242675000Y-44875000D03*
X247755000Y-44875000D03*
X252835000Y-44875000D03*
%TD*%
D11*
%TO.C,OUT5*%
X164810000Y-66810000D03*
X164810000Y-59190000D03*
%TD*%
D14*
%TO.C,CAN1*%
X242360000Y-129050000D03*
D12*
X239820000Y-129050000D03*
X237280001Y-129050000D03*
X234740000Y-129050000D03*
%TD*%
D13*
%TO.C,R7*%
X169949999Y-52500000D03*
X185189999Y-52500000D03*
%TD*%
%TO.C,R5*%
X169880000Y-85000000D03*
X185120000Y-85000000D03*
%TD*%
D14*
%TO.C,CAN2*%
X242310000Y-133150000D03*
D12*
X239770000Y-133150000D03*
X237230000Y-133150000D03*
X234690000Y-133150000D03*
%TD*%
D11*
%TO.C,OUT1*%
X164810000Y-132810000D03*
X164810000Y-125190000D03*
%TD*%
%TO.C,OUT6*%
X164810000Y-50310000D03*
X164810000Y-42690000D03*
%TD*%
D12*
%TO.C,Y3*%
X251332233Y-102932233D03*
X254867767Y-106467767D03*
%TD*%
D14*
%TO.C,J10*%
X240108962Y-40659364D03*
D12*
X242648962Y-40659364D03*
%TD*%
D15*
%TO.C,K3*%
X203700000Y-101500000D03*
X203700000Y-89500000D03*
D16*
X205700000Y-95380000D03*
D17*
X191500000Y-101500000D03*
X191500000Y-89500000D03*
%TD*%
D19*
%TO.C,C1*%
X177749999Y-124000000D03*
X170249999Y-124000000D03*
%TD*%
D22*
%TO.C,R31*%
X218820000Y-76000000D03*
X218820000Y-74000000D03*
%TD*%
D23*
%TO.C,C30*%
X247200000Y-66050000D03*
X249200000Y-66050000D03*
%TD*%
D24*
%TO.C,D12*%
X200100000Y-130000000D03*
X200100000Y-125000000D03*
%TD*%
D10*
%TO.C,U10*%
X231250000Y-46730000D03*
X231250000Y-49270000D03*
X221850000Y-49270000D03*
X221850000Y-46730000D03*
%TD*%
D24*
%TO.C,D15*%
X200100000Y-114500000D03*
X200100000Y-109500000D03*
%TD*%
D10*
%TO.C,U6*%
X231799999Y-86971961D03*
X231799999Y-89511961D03*
X222400001Y-89511961D03*
X222400001Y-86971961D03*
%TD*%
D25*
%TO.C,Q5*%
X217087500Y-105046606D03*
X217087500Y-106946606D03*
X215212500Y-105996606D03*
%TD*%
D24*
%TO.C,D21*%
X199600000Y-48000000D03*
X199600000Y-43000000D03*
%TD*%
D10*
%TO.C,U7*%
X230700000Y-72570000D03*
X230700000Y-75110000D03*
X221300000Y-75110000D03*
X221300000Y-72570000D03*
%TD*%
D26*
%TO.C,R39*%
X218920000Y-57425490D03*
X216920000Y-57425490D03*
%TD*%
%TO.C,R27*%
X218920000Y-71790000D03*
X216920000Y-71790000D03*
%TD*%
D27*
%TO.C,C19*%
X256600000Y-102900000D03*
X256600000Y-104900000D03*
%TD*%
D25*
%TO.C,Q7*%
X216317500Y-48330000D03*
X216317500Y-50230000D03*
X214442500Y-49280000D03*
%TD*%
D23*
%TO.C,C29*%
X247150000Y-61050000D03*
X249150000Y-61050000D03*
%TD*%
D25*
%TO.C,Q4*%
X216287500Y-73980000D03*
X216287500Y-75880000D03*
X214412500Y-74930000D03*
%TD*%
D26*
%TO.C,R25*%
X219170000Y-125000000D03*
X217170000Y-125000000D03*
%TD*%
D10*
%TO.C,U5*%
X231799999Y-125730000D03*
X231799999Y-128270000D03*
X222400001Y-128270000D03*
X222400001Y-125730000D03*
%TD*%
D26*
%TO.C,R28*%
X219170000Y-102766606D03*
X217170000Y-102766606D03*
%TD*%
D22*
%TO.C,R32*%
X219070000Y-106916606D03*
X219070000Y-104916606D03*
%TD*%
D11*
%TO.C,OUT3*%
X164810000Y-99810000D03*
X164810000Y-92190000D03*
%TD*%
D24*
%TO.C,D22*%
X199600000Y-64500000D03*
X199600000Y-59500000D03*
%TD*%
D26*
%TO.C,R26*%
X219170000Y-86136833D03*
X217170000Y-86136833D03*
%TD*%
D24*
%TO.C,D14*%
X199850000Y-80640000D03*
X199850000Y-75640000D03*
%TD*%
D27*
%TO.C,C32*%
X252900000Y-99250000D03*
X252900000Y-101250000D03*
%TD*%
D22*
%TO.C,R29*%
X219070000Y-129000000D03*
X219070000Y-127000000D03*
%TD*%
D24*
%TO.C,D13*%
X199850000Y-97640000D03*
X199850000Y-92640000D03*
%TD*%
D25*
%TO.C,Q3*%
X216737500Y-88506833D03*
X216737500Y-90406833D03*
X214862499Y-89456833D03*
%TD*%
D22*
%TO.C,R30*%
X219070000Y-90496833D03*
X219070000Y-88496833D03*
%TD*%
D25*
%TO.C,Q2*%
X217037500Y-127050000D03*
X217037500Y-128950000D03*
X215162499Y-128000000D03*
%TD*%
D10*
%TO.C,U8*%
X231500000Y-103546606D03*
X231500000Y-106086606D03*
X222100000Y-106086606D03*
X222100000Y-103546606D03*
%TD*%
D25*
%TO.C,Q8*%
X216562296Y-59553277D03*
X216562296Y-61453277D03*
X214687295Y-60503277D03*
%TD*%
D26*
%TO.C,R38*%
X218920000Y-45960000D03*
X216920000Y-45960000D03*
%TD*%
D22*
%TO.C,R42*%
X218820000Y-50100000D03*
X218820000Y-48100000D03*
%TD*%
%TO.C,R43*%
X218820000Y-61683277D03*
X218820000Y-59683277D03*
%TD*%
M02*
