M48
; DRILL file KiCad 10.0.5 date 2026-09-03T14:16:55
; FORMAT={-:-/ absolute / metric / decimal}
; #@! TF.CreationDate,2026-09-03T14:16:55+07:00
; #@! TF.GenerationSoftware,Kicad,Pcbnew,10.0.5
; #@! TF.FileFunction,Plated,1,2,PTH
FMAT,2
METRIC
; #@! TA.AperFunction,Plated,PTH,ViaDrill
T1C0.300
; #@! TA.AperFunction,Plated,PTH,ComponentDrill
T2C0.300
; #@! TA.AperFunction,Plated,PTH,ComponentDrill
T3C0.600
; #@! TA.AperFunction,Plated,PTH,ComponentDrill
T4C0.900
; #@! TA.AperFunction,Plated,PTH,ComponentDrill
T5C0.950
; #@! TA.AperFunction,Plated,PTH,ComponentDrill
T6C1.000
; #@! TA.AperFunction,Plated,PTH,ComponentDrill
T7C1.060
; #@! TA.AperFunction,Plated,PTH,ComponentDrill
T8C1.200
; #@! TA.AperFunction,Plated,PTH,ComponentDrill
T9C1.300
; #@! TA.AperFunction,Plated,PTH,ComponentDrill
T10C1.800
%
G90
G05
T1
X50.8Y-158.375
X50.85Y-154.55
X50.9Y-152.1
X52.0Y-160.25
X52.287Y-156.6
X52.725Y-158.25
X56.65Y-157.65
X56.775Y-180.45
X57.375Y-180.45
X57.975Y-180.45
X60.15Y-177.45
X60.15Y-178.175
X60.8Y-177.45
X61.725Y-140.95
X62.012Y-152.1
X64.625Y-151.6
X65.138Y-160.393
X66.95Y-160.225
X66.975Y-157.1
X68.125Y-159.7
X71.575Y-163.525
X73.537Y-173.9
X73.675Y-177.875
X74.35Y-181.3
X74.725Y-170.25
X74.725Y-176.25
X75.4Y-150.612
X76.1Y-181.85
X76.125Y-152.825
X76.475Y-179.475
X77.175Y-157.075
X77.512Y-172.0
X79.312Y-183.2
X80.05Y-176.23
X80.8Y-180.5
X81.675Y-159.3
X81.8Y-176.25
X83.688Y-158.4
X86.35Y-148.25
X86.688Y-155.75
X88.65Y-172.77
X89.175Y-165.45
X89.35Y-164.5
X90.25Y-157.562
X90.625Y-170.4
X91.275Y-176.63
X91.275Y-179.3
X92.5Y-172.825
X92.75Y-162.8
X92.925Y-171.7
X93.15Y-163.987
X93.375Y-162.8
X94.0Y-162.825
X94.9Y-171.875
X94.975Y-158.275
X95.237Y-176.6
X95.337Y-179.3
X95.85Y-161.475
X95.875Y-162.125
X95.875Y-162.775
X96.575Y-173.7
X96.75Y-163.987
X97.062Y-176.6
X97.162Y-179.3
X97.5Y-177.9
X98.425Y-177.25
X98.425Y-178.575
X98.525Y-159.6
X99.45Y-140.975
X100.35Y-143.337
X100.45Y-160.3
X100.775Y-151.5
X102.575Y-165.825
X103.175Y-165.8
X103.225Y-183.825
X103.25Y-180.975
X103.275Y-173.425
X103.3Y-157.475
X103.35Y-143.338
X103.8Y-162.325
X103.975Y-161.05
X104.4Y-158.425
X104.8Y-189.075
X104.95Y-184.2
X105.725Y-161.25
X107.0Y-161.575
X107.7Y-182.025
X108.1Y-142.762
X108.475Y-151.525
X108.875Y-171.6
X109.525Y-158.125
X109.85Y-156.825
X110.125Y-183.05
X110.225Y-170.775
X110.35Y-151.5
X110.35Y-153.312
X110.6Y-172.688
X110.6Y-175.375
X111.525Y-152.25
X111.925Y-171.475
X112.2Y-172.688
X112.2Y-175.325
X112.925Y-181.4
X114.025Y-175.6
X114.725Y-181.4
X115.875Y-175.65
X116.2Y-147.987
X116.487Y-141.55
X117.1Y-177.95
X117.14Y-159.7
X117.15Y-161.787
X118.05Y-147.987
X118.125Y-183.725
X118.41Y-159.7
X118.41Y-177.2
X118.425Y-176.425
X118.425Y-178.075
X118.625Y-161.7
X118.625Y-179.85
X119.125Y-154.475
T2
X109.29Y-166.25
X109.29Y-167.65
X109.99Y-165.55
X109.99Y-166.95
X109.99Y-168.35
X110.69Y-166.25
X110.69Y-167.65
X111.39Y-165.55
X111.39Y-166.95
X111.39Y-168.35
X112.09Y-166.25
X112.09Y-167.65
T4
X97.55Y-154.73
X97.55Y-157.27
T5
X75.65Y-185.525
X78.15Y-185.525
X80.65Y-185.525
X83.15Y-185.525
X89.9Y-185.525
X92.4Y-185.525
X94.9Y-185.525
X97.4Y-185.525
X108.95Y-186.35
X111.45Y-186.35
X113.95Y-186.35
X116.45Y-186.35
T6
X37.0Y-164.15
X37.0Y-171.65
X37.05Y-179.75
X37.05Y-187.25
X64.2Y-144.3
X66.7Y-144.3
X73.2Y-144.4
X73.6Y-158.735
X73.6Y-161.275
X75.7Y-144.4
X77.93Y-161.25
X80.47Y-161.25
X83.01Y-161.25
X85.55Y-161.25
X86.27Y-151.3
X86.27Y-143.3
X88.09Y-161.25
X88.81Y-143.3
X88.81Y-151.3
X90.63Y-161.25
X91.35Y-143.3
X91.35Y-151.3
X93.17Y-161.25
T7
X112.892Y-153.0
X115.432Y-153.0
X117.972Y-153.0
T8
X30.6Y-153.58
X30.6Y-168.82
X30.6Y-172.33
X30.6Y-187.57
T9
X21.828Y-145.055
X21.828Y-150.135
X21.877Y-165.455
X21.877Y-170.535
X21.877Y-177.105
X21.877Y-182.185
X42.71Y-165.25
X42.71Y-172.75
X42.71Y-179.15
X42.71Y-186.65
X47.75Y-165.25
X47.75Y-172.75
X47.75Y-179.15
X47.75Y-186.65
X52.79Y-172.75
X52.79Y-186.65
X52.79Y-165.25
X52.79Y-179.15
X68.05Y-165.25
X68.05Y-172.75
X68.05Y-179.15
X68.05Y-186.65
T3
G00X97.53Y-143.575
M15
G01X97.53Y-142.975
M16
G05
G00X97.53Y-148.005
M15
G01X97.53Y-146.905
M16
G05
G00X106.17Y-143.575
M15
G01X106.17Y-142.975
M16
G05
G00X106.17Y-148.005
M15
G01X106.17Y-146.905
M16
G05
T10
G00X32.4Y-145.36
M15
G01X32.4Y-144.66
M16
G05
G00X36.0Y-145.36
M15
G01X36.0Y-144.66
M16
G05
G00X39.6Y-145.36
M15
G01X39.6Y-144.66
M16
G05
G00X43.2Y-145.36
M15
G01X43.2Y-144.66
M16
G05
G00X54.4Y-145.36
M15
G01X54.4Y-144.66
M16
G05
G00X56.9Y-145.36
M15
G01X56.9Y-144.66
M16
G05
M30
