%TF.GenerationSoftware,KiCad,Pcbnew,10.0.5*%
%TF.CreationDate,2026-09-03T17:10:34+07:00*%
%TF.ProjectId,IoT_Board,496f545f-426f-4617-9264-2e6b69636164,rev?*%
%TF.SameCoordinates,Original*%
%TF.FileFunction,Paste,Bot*%
%TF.FilePolarity,Positive*%
%FSLAX46Y46*%
G04 Gerber Fmt 4.6, Leading zero omitted, Abs format (unit mm)*
G04 Created by KiCad (PCBNEW 10.0.5) date 2026-09-03 17:10:34*
%MOMM*%
%LPD*%
G01*
G04 APERTURE LIST*
G04 Aperture macros list*
%AMRoundRect*
0 Rectangle with rounded corners*
0 $1 Rounding radius*
0 $2 $3 $4 $5 $6 $7 $8 $9 X,Y pos of 4 corners*
0 Add a 4 corners polygon primitive as box body*
4,1,4,$2,$3,$4,$5,$6,$7,$8,$9,$2,$3,0*
0 Add four circle primitives for the rounded corners*
1,1,$1+$1,$2,$3*
1,1,$1+$1,$4,$5*
1,1,$1+$1,$6,$7*
1,1,$1+$1,$8,$9*
0 Add four rect primitives between the rounded corners*
20,1,$1+$1,$2,$3,$4,$5,0*
20,1,$1+$1,$4,$5,$6,$7,0*
20,1,$1+$1,$6,$7,$8,$9,0*
20,1,$1+$1,$8,$9,$2,$3,0*%
G04 Aperture macros list end*
%ADD10RoundRect,0.237500X-0.250000X-0.237500X0.250000X-0.237500X0.250000X0.237500X-0.250000X0.237500X0*%
%ADD11RoundRect,0.237500X-0.237500X0.250000X-0.237500X-0.250000X0.237500X-0.250000X0.237500X0.250000X0*%
%ADD12RoundRect,0.237500X0.237500X-0.250000X0.237500X0.250000X-0.237500X0.250000X-0.237500X-0.250000X0*%
%ADD13RoundRect,0.150000X0.587500X0.150000X-0.587500X0.150000X-0.587500X-0.150000X0.587500X-0.150000X0*%
%ADD14RoundRect,0.237500X0.250000X0.237500X-0.250000X0.237500X-0.250000X-0.237500X0.250000X-0.237500X0*%
%ADD15R,0.510000X1.100000*%
%ADD16R,2.100000X1.550000*%
%ADD17RoundRect,0.250000X-0.650000X1.500000X-0.650000X-1.500000X0.650000X-1.500000X0.650000X1.500000X0*%
%ADD18RoundRect,0.250000X-0.450000X0.350000X-0.450000X-0.350000X0.450000X-0.350000X0.450000X0.350000X0*%
G04 APERTURE END LIST*
D10*
%TO.C,C77*%
X54837500Y-160350000D03*
X56662500Y-160350000D03*
%TD*%
%TO.C,C72*%
X69637500Y-154650000D03*
X71462500Y-154650000D03*
%TD*%
%TO.C,R24*%
X77487500Y-183200000D03*
X79312500Y-183200000D03*
%TD*%
D11*
%TO.C,R46*%
X100350001Y-143337498D03*
X100350001Y-145162498D03*
%TD*%
D12*
%TO.C,R42*%
X110350000Y-153312500D03*
X110350000Y-151487500D03*
%TD*%
D11*
%TO.C,C73*%
X63183333Y-148687500D03*
X63183333Y-150512500D03*
%TD*%
D10*
%TO.C,R23*%
X77487500Y-181600000D03*
X79312500Y-181600000D03*
%TD*%
D13*
%TO.C,Q2*%
X73487500Y-176900000D03*
X73487500Y-178800000D03*
X71612499Y-177850000D03*
%TD*%
D12*
%TO.C,R35*%
X112200000Y-174512500D03*
X112200000Y-172687500D03*
%TD*%
%TO.C,C63*%
X115500000Y-163612500D03*
X115500000Y-161787500D03*
%TD*%
D10*
%TO.C,C69*%
X81987500Y-154550000D03*
X83812500Y-154550000D03*
%TD*%
D14*
%TO.C,R57*%
X71462500Y-156424264D03*
X69637500Y-156424264D03*
%TD*%
D12*
%TO.C,C61*%
X106750000Y-153312500D03*
X106750000Y-151487500D03*
%TD*%
D11*
%TO.C,R52*%
X80550000Y-148787500D03*
X80550000Y-150612500D03*
%TD*%
D12*
%TO.C,C66*%
X93150000Y-165812500D03*
X93150000Y-163987500D03*
%TD*%
D11*
%TO.C,C67*%
X75400000Y-148787500D03*
X75400000Y-150612500D03*
%TD*%
D15*
%TO.C,BL1*%
X76150000Y-152850000D03*
X77150000Y-152850000D03*
X78150000Y-152850000D03*
X79150000Y-152850000D03*
X80150000Y-152850000D03*
X80150000Y-157950000D03*
X79150000Y-157950000D03*
X78150000Y-157950000D03*
X77150000Y-157950000D03*
X76150000Y-157950000D03*
%TD*%
D10*
%TO.C,R78*%
X95237500Y-176600000D03*
X97062500Y-176600000D03*
%TD*%
D12*
%TO.C,R36*%
X118050000Y-149812500D03*
X118050000Y-147987500D03*
%TD*%
D11*
%TO.C,C70*%
X77150000Y-148787500D03*
X77150000Y-150612500D03*
%TD*%
D16*
%TO.C,U6*%
X88650000Y-170230000D03*
X88650000Y-172770000D03*
X80050000Y-172770000D03*
X80050000Y-170230000D03*
%TD*%
D11*
%TO.C,R43*%
X110350000Y-154987500D03*
X110350000Y-156812500D03*
%TD*%
D17*
%TO.C,D13*%
X62700000Y-166400000D03*
X62700000Y-171400000D03*
%TD*%
D11*
%TO.C,C62*%
X106750000Y-155037500D03*
X106750000Y-156862500D03*
%TD*%
D17*
%TO.C,D12*%
X62800000Y-180250000D03*
X62800000Y-185250000D03*
%TD*%
D13*
%TO.C,Q3*%
X73537500Y-172000000D03*
X73537500Y-173900000D03*
X71662499Y-172950000D03*
%TD*%
D14*
%TO.C,R29*%
X77462500Y-176900000D03*
X75637500Y-176900000D03*
%TD*%
D12*
%TO.C,C64*%
X101500000Y-182662500D03*
X101500000Y-180837500D03*
%TD*%
D14*
%TO.C,R26*%
X77512499Y-173950000D03*
X75687499Y-173950000D03*
%TD*%
D10*
%TO.C,R77*%
X95337500Y-179300000D03*
X97162500Y-179300000D03*
%TD*%
D11*
%TO.C,R45*%
X103350000Y-143337500D03*
X103350000Y-145162500D03*
%TD*%
D12*
%TO.C,R72*%
X96750000Y-165812500D03*
X96750000Y-163987500D03*
%TD*%
D15*
%TO.C,BL2*%
X63900000Y-152850000D03*
X64900000Y-152850000D03*
X65900000Y-152850000D03*
X66900000Y-152850000D03*
X67900000Y-152850000D03*
X67900000Y-157950000D03*
X66900000Y-157950000D03*
X65900000Y-157950000D03*
X64900000Y-157950000D03*
X63900000Y-157950000D03*
%TD*%
D16*
%TO.C,U5*%
X88650000Y-176230000D03*
X88650000Y-178770000D03*
X80050000Y-178770000D03*
X80050000Y-176230000D03*
%TD*%
D11*
%TO.C,C71*%
X64916666Y-148687500D03*
X64916666Y-150512500D03*
%TD*%
D12*
%TO.C,R37*%
X116200000Y-149812500D03*
X116200000Y-147987500D03*
%TD*%
D11*
%TO.C,R53*%
X78850000Y-148787500D03*
X78850000Y-150612500D03*
%TD*%
%TO.C,R55*%
X68383333Y-148687500D03*
X68383333Y-150512500D03*
%TD*%
D14*
%TO.C,R54*%
X83812500Y-156450000D03*
X81987500Y-156450000D03*
%TD*%
D11*
%TO.C,R56*%
X66650000Y-148687500D03*
X66650000Y-150512500D03*
%TD*%
D14*
%TO.C,R25*%
X77462500Y-178750001D03*
X75637500Y-178750001D03*
%TD*%
D12*
%TO.C,R44*%
X105000000Y-182662500D03*
X105000000Y-180837500D03*
%TD*%
D14*
%TO.C,R30*%
X77512499Y-171999999D03*
X75687499Y-171999999D03*
%TD*%
D18*
%TO.C,C51*%
X118000000Y-155950000D03*
X118000000Y-157950000D03*
%TD*%
D12*
%TO.C,R34*%
X110600000Y-174512500D03*
X110600000Y-172687500D03*
%TD*%
%TO.C,C60*%
X117150000Y-163612500D03*
X117150000Y-161787500D03*
%TD*%
M02*
