%TF.GenerationSoftware,KiCad,Pcbnew,10.0.5*%
%TF.CreationDate,2026-09-03T17:10:34+07:00*%
%TF.ProjectId,IoT_Board,496f545f-426f-4617-9264-2e6b69636164,rev?*%
%TF.SameCoordinates,Original*%
%TF.FileFunction,Paste,Top*%
%TF.FilePolarity,Positive*%
%FSLAX46Y46*%
G04 Gerber Fmt 4.6, Leading zero omitted, Abs format (unit mm)*
G04 Created by KiCad (PCBNEW 10.0.5) date 2026-09-03 17:10:34*
%MOMM*%
%LPD*%
G01*
G04 APERTURE LIST*
G04 Aperture macros list*
%AMRoundRect*
0 Rectangle with rounded corners*
0 $1 Rounding radius*
0 $2 $3 $4 $5 $6 $7 $8 $9 X,Y pos of 4 corners*
0 Add a 4 corners polygon primitive as box body*
4,1,4,$2,$3,$4,$5,$6,$7,$8,$9,$2,$3,0*
0 Add four circle primitives for the rounded corners*
1,1,$1+$1,$2,$3*
1,1,$1+$1,$4,$5*
1,1,$1+$1,$6,$7*
1,1,$1+$1,$8,$9*
0 Add four rect primitives between the rounded corners*
20,1,$1+$1,$2,$3,$4,$5,0*
20,1,$1+$1,$4,$5,$6,$7,0*
20,1,$1+$1,$6,$7,$8,$9,0*
20,1,$1+$1,$8,$9,$2,$3,0*%
G04 Aperture macros list end*
%ADD10RoundRect,0.237500X0.250000X0.237500X-0.250000X0.237500X-0.250000X-0.237500X0.250000X-0.237500X0*%
%ADD11RoundRect,0.250000X0.400000X0.625000X-0.400000X0.625000X-0.400000X-0.625000X0.400000X-0.625000X0*%
%ADD12R,1.250000X1.000000*%
%ADD13RoundRect,0.250000X-1.950000X-1.000000X1.950000X-1.000000X1.950000X1.000000X-1.950000X1.000000X0*%
%ADD14RoundRect,0.237500X0.237500X-0.250000X0.237500X0.250000X-0.237500X0.250000X-0.237500X-0.250000X0*%
%ADD15RoundRect,0.237500X-0.250000X-0.237500X0.250000X-0.237500X0.250000X0.237500X-0.250000X0.237500X0*%
%ADD16R,1.250000X0.600000*%
%ADD17RoundRect,0.150000X0.150000X0.500000X-0.150000X0.500000X-0.150000X-0.500000X0.150000X-0.500000X0*%
%ADD18RoundRect,0.075000X0.075000X0.575000X-0.075000X0.575000X-0.075000X-0.575000X0.075000X-0.575000X0*%
%ADD19RoundRect,0.250000X0.325000X0.450000X-0.325000X0.450000X-0.325000X-0.450000X0.325000X-0.450000X0*%
%ADD20RoundRect,0.237500X-0.237500X0.250000X-0.237500X-0.250000X0.237500X-0.250000X0.237500X0.250000X0*%
%ADD21RoundRect,0.150000X-0.512500X-0.150000X0.512500X-0.150000X0.512500X0.150000X-0.512500X0.150000X0*%
%ADD22R,1.500000X2.200000*%
%ADD23R,1.000000X1.250000*%
%ADD24R,0.900000X0.900000*%
%ADD25R,0.900000X1.500000*%
%ADD26R,1.500000X0.900000*%
%ADD27RoundRect,0.250000X-0.325000X-0.450000X0.325000X-0.450000X0.325000X0.450000X-0.325000X0.450000X0*%
%ADD28RoundRect,0.150000X-0.587500X-0.150000X0.587500X-0.150000X0.587500X0.150000X-0.587500X0.150000X0*%
%ADD29RoundRect,0.250000X-0.450000X0.325000X-0.450000X-0.325000X0.450000X-0.325000X0.450000X0.325000X0*%
G04 APERTURE END LIST*
D10*
%TO.C,R80*%
X116462500Y-179550000D03*
X114637500Y-179550000D03*
%TD*%
D11*
%TO.C,C75*%
X53950001Y-154550000D03*
X50849999Y-154550000D03*
%TD*%
D10*
%TO.C,R64*%
X89512500Y-181700000D03*
X87687500Y-181700000D03*
%TD*%
D12*
%TO.C,EN1*%
X108525000Y-151500000D03*
X100775000Y-151500000D03*
%TD*%
D10*
%TO.C,R40*%
X88512500Y-155750000D03*
X86687500Y-155750000D03*
%TD*%
D13*
%TO.C,C3*%
X36367500Y-156550000D03*
X44767500Y-156550000D03*
%TD*%
D14*
%TO.C,R65*%
X118650000Y-181662500D03*
X118650000Y-179837500D03*
%TD*%
D15*
%TO.C,C78*%
X65137500Y-155442892D03*
X66962500Y-155442892D03*
%TD*%
D10*
%TO.C,C76*%
X54112500Y-156600000D03*
X52287500Y-156600000D03*
%TD*%
D16*
%TO.C,IC2*%
X53950000Y-160250000D03*
X53949999Y-159300000D03*
X53950000Y-158350000D03*
X51450000Y-158350000D03*
X51450001Y-159300000D03*
X51450000Y-160250000D03*
%TD*%
D15*
%TO.C,R84*%
X65137500Y-158750000D03*
X66962500Y-158750000D03*
%TD*%
%TO.C,R81*%
X60187500Y-152100000D03*
X62012500Y-152100000D03*
%TD*%
D17*
%TO.C,J9*%
X105050000Y-148095000D03*
X104250000Y-148095000D03*
D18*
X103100000Y-148094999D03*
X102100000Y-148095000D03*
X101600000Y-148095000D03*
X100600000Y-148094999D03*
D17*
X99450000Y-148095000D03*
X98650000Y-148095000D03*
X98650000Y-148095000D03*
X99450000Y-148095000D03*
D18*
X100100000Y-148095000D03*
X101100000Y-148095000D03*
X102600000Y-148095000D03*
X103600000Y-148095000D03*
D17*
X104250000Y-148095000D03*
X105050000Y-148095000D03*
%TD*%
D10*
%TO.C,C57*%
X110662500Y-149350000D03*
X108837500Y-149350000D03*
%TD*%
D19*
%TO.C,D35*%
X116774999Y-181400000D03*
X114725001Y-181400000D03*
%TD*%
D15*
%TO.C,C79*%
X65137500Y-157092892D03*
X66962500Y-157092892D03*
%TD*%
D20*
%TO.C,C59*%
X86325000Y-146387500D03*
X86325000Y-148212500D03*
%TD*%
D19*
%TO.C,D32*%
X93325000Y-179300000D03*
X91275000Y-179300000D03*
%TD*%
D20*
%TO.C,C65*%
X111500000Y-140987500D03*
X111500000Y-142812500D03*
%TD*%
D15*
%TO.C,R41*%
X83687500Y-158400000D03*
X85512500Y-158400000D03*
%TD*%
D10*
%TO.C,R85*%
X66962500Y-160392892D03*
X65137500Y-160392892D03*
%TD*%
%TO.C,R38*%
X99162500Y-152550000D03*
X97337500Y-152550000D03*
%TD*%
D21*
%TO.C,U2*%
X109012500Y-144300000D03*
X109012500Y-145250000D03*
X109012500Y-146200000D03*
X111287500Y-146200000D03*
X111287500Y-144300000D03*
%TD*%
D19*
%TO.C,LED_RL1*%
X74724999Y-176250000D03*
X72675001Y-176250000D03*
%TD*%
%TO.C,D33*%
X93325000Y-176630000D03*
X91275000Y-176630000D03*
%TD*%
D22*
%TO.C,L1*%
X56650000Y-157650000D03*
X63050000Y-157650000D03*
%TD*%
D11*
%TO.C,C74*%
X54000001Y-152100000D03*
X50899999Y-152100000D03*
%TD*%
D23*
%TO.C,BUT2*%
X94900000Y-164125000D03*
X94900000Y-171875000D03*
%TD*%
D24*
%TO.C,U1*%
X109290000Y-165545606D03*
X112090000Y-165550000D03*
X110690000Y-165550000D03*
X109290000Y-166945606D03*
X112090000Y-166950000D03*
X110690000Y-166950000D03*
X109290000Y-168345606D03*
X112090000Y-168350000D03*
X110690000Y-168350000D03*
D25*
X118410000Y-159700000D03*
X117140000Y-159700000D03*
X115870000Y-159700000D03*
X114600000Y-159700000D03*
X113330000Y-159700000D03*
X112060000Y-159700000D03*
X110790000Y-159700000D03*
X109520000Y-159700000D03*
X108250000Y-159700000D03*
X106980000Y-159700000D03*
X105710000Y-159700000D03*
X104440000Y-159700000D03*
X103170000Y-159700000D03*
X101900000Y-159700000D03*
D26*
X100650000Y-161465001D03*
X100650000Y-162735000D03*
X100650000Y-164005000D03*
X100650001Y-165275000D03*
X100650000Y-166545000D03*
X100650000Y-167815000D03*
X100650000Y-169085000D03*
X100650000Y-170355000D03*
X100650001Y-171625000D03*
X100650000Y-172895000D03*
X100650000Y-174165000D03*
X100650000Y-175434999D03*
D25*
X101900000Y-177200000D03*
X103170000Y-177200000D03*
X104440000Y-177200000D03*
X105710000Y-177200000D03*
X106980000Y-177200000D03*
X108250000Y-177200000D03*
X109520000Y-177200000D03*
X110790000Y-177200000D03*
X112060000Y-177200000D03*
X113330000Y-177200000D03*
X114600000Y-177200000D03*
X115870000Y-177200000D03*
X117140000Y-177200000D03*
X118410000Y-177200000D03*
%TD*%
D15*
%TO.C,R79*%
X111187500Y-179550000D03*
X113012500Y-179550000D03*
%TD*%
D14*
%TO.C,R82*%
X49650000Y-159412500D03*
X49650000Y-157587500D03*
%TD*%
D10*
%TO.C,C58*%
X110662500Y-147700000D03*
X108837500Y-147700000D03*
%TD*%
%TO.C,R83*%
X118312500Y-141550000D03*
X116487500Y-141550000D03*
%TD*%
D19*
%TO.C,LED_RL2*%
X74724999Y-170250000D03*
X72675001Y-170250000D03*
%TD*%
D10*
%TO.C,C52*%
X99162500Y-150800000D03*
X97337500Y-150800000D03*
%TD*%
D27*
%TO.C,D34*%
X110875001Y-181400000D03*
X112924999Y-181400000D03*
%TD*%
D28*
%TO.C,Q1*%
X92312500Y-155750000D03*
X92312500Y-157650000D03*
X94187501Y-156700000D03*
%TD*%
D23*
%TO.C,BUT1*%
X103250000Y-180975000D03*
X103250000Y-188725000D03*
%TD*%
D12*
%TO.C,BOOT1*%
X108525000Y-155850000D03*
X100775000Y-155850000D03*
%TD*%
D29*
%TO.C,D38*%
X118100000Y-143475001D03*
X118100000Y-145524999D03*
%TD*%
D14*
%TO.C,C56*%
X108100000Y-142962500D03*
X108100000Y-141137500D03*
%TD*%
D19*
%TO.C,D36*%
X58274999Y-152100000D03*
X56225001Y-152100000D03*
%TD*%
D14*
%TO.C,R39*%
X90250000Y-157562500D03*
X90250000Y-155737500D03*
%TD*%
M02*
